<svg width="24" height="24" viewBox="0 0 24 24" fill="none" xmlns="http://www.w3.org/2000/svg">
<rect x="2" y="1" width="20" height="22" rx="3" fill="#E64980"/>
<path fill-rule="evenodd" clip-rule="evenodd" d="M9.79932 9.37741V5.83398H18.1565V14.1911H14.6127C14.6127 16.8496 12.4576 19.0048 9.79904 19.0048C7.14051 19.0048 4.98535 16.8496 4.98535 14.1911C4.98535 11.5326 7.14079 9.37741 9.79932 9.37741C9.79941 9.37741 9.79922 9.37741 9.79932 9.37741ZM10.9993 7.03398H16.9565V12.9911H14.462C14.0272 11.2969 12.6935 9.96308 10.9993 9.52826V7.03398ZM13.4127 14.1911C13.4127 16.1869 11.7948 17.8048 9.79904 17.8048C7.80325 17.8048 6.18535 16.1869 6.18535 14.1911C6.18535 12.1953 7.80325 10.5774 9.79904 10.5774C9.79913 10.5774 9.79894 10.5774 9.79904 10.5774L9.79932 14.1911H13.4127ZM13.2087 12.9911H10.9993V10.7815C12.0297 11.1442 12.8461 11.9607 13.2087 12.9911Z" fill="white"/>
</svg>
