<svg width="24" height="24" viewBox="0 0 24 24" fill="none" xmlns="http://www.w3.org/2000/svg">
<rect x="2" y="1" width="20" height="22" rx="3" fill="#4DABF7"/>
<path fill-rule="evenodd" clip-rule="evenodd" d="M14.6215 10.4561C14.9164 10.1761 15.3807 10.1821 15.6683 10.4697L19.6683 14.4697C19.9612 14.7626 19.9612 15.2374 19.6683 15.5303C19.3754 15.8232 18.9005 15.8232 18.6076 15.5303L15.1244 12.0471L11.4422 15.5439C11.152 15.8194 10.6967 15.8186 10.4075 15.5421L9.00646 14.2027L5.6785 17.5304C5.38559 17.8232 4.91072 17.8232 4.61784 17.5303C4.32496 17.2374 4.32498 16.7625 4.61789 16.4696L8.46439 12.6235C8.75265 12.3353 9.21834 12.33 9.51298 12.6117L10.9275 13.9641L14.6215 10.4561Z" fill="white"/>
<path d="M10.0001 8.5C10.0001 9.32843 9.32853 10 8.50011 10C7.67168 10 7.00011 9.32843 7.00011 8.5C7.00011 7.67157 7.67168 7 8.50011 7C9.32853 7 10.0001 7.67157 10.0001 8.5Z" fill="white"/>
</svg>
