<svg width="32" height="32" viewBox="0 0 32 32" fill="none" xmlns="http://www.w3.org/2000/svg">
<path d="M23.3257 16.0001C23.3257 20.0461 20.0458 23.326 15.9999 23.326C11.954 23.326 8.67407 20.0461 8.67407 16.0001C8.67407 11.9542 11.954 8.67432 15.9999 8.67432C20.0458 8.67432 23.3257 11.9542 23.3257 16.0001ZM10.9132 16.0001C10.9132 18.8094 13.1906 21.0868 15.9999 21.0868C18.8092 21.0868 21.0866 18.8094 21.0866 16.0001C21.0866 13.1908 18.8092 10.9134 15.9999 10.9134C13.1906 10.9134 10.9132 13.1908 10.9132 16.0001Z" fill="white"/>
<path d="M31.6433 12.6405C32.2562 15.4944 32.0767 18.4615 31.1243 21.2207C30.1719 23.9799 28.4828 26.4259 26.24 28.294L20.0443 20.8556C20.9301 20.1178 21.5972 19.1517 21.9734 18.0619C22.3496 16.9722 22.4205 15.8003 22.1784 14.6732L31.6433 12.6405Z" fill="#DA77F2"/>
<path d="M27.3137 4.68629C29.5378 6.91035 31.057 9.74059 31.6815 12.8233L22.1935 14.7453C21.9468 13.5278 21.3468 12.41 20.4684 11.5316L27.3137 4.68629Z" fill="#FFA94D"/>
<path d="M15.7109 0.00261191C17.9572 -0.0379809 20.1868 0.394937 22.2547 1.27318C24.3225 2.15143 26.1823 3.45532 27.7128 5.09996L20.626 11.695C20.0215 11.0454 19.287 10.5305 18.4703 10.1836C17.6536 9.83672 16.773 9.66573 15.8858 9.68177L15.7109 0.00261191Z" fill="#FCC419"/>
<path d="M25.5347 3.1513C26.5177 3.88076 27.4138 4.72063 28.2053 5.65441L20.8205 11.914C20.5079 11.5452 20.154 11.2135 19.7658 10.9254L25.5347 3.1513Z" fill="#3BC9DB"/>
<path d="M11.1781 31.2561C8.44451 30.3921 5.99326 28.8095 4.08072 26.6738C2.16817 24.5381 0.864593 21.9278 0.306308 19.1158L9.80171 17.2306C10.0222 18.3412 10.5371 19.3722 11.2924 20.2157C12.0478 21.0592 13.0159 21.6842 14.0956 22.0255L11.1781 31.2561Z" fill="#51CF66"/>
<path d="M2.08871 8.09582C3.48409 5.63996 5.50473 3.59727 7.94529 2.17532C10.3859 0.753373 13.1593 0.00284454 15.9839 8.06746e-06L15.9937 9.68074C14.8781 9.68186 13.7827 9.97828 12.8188 10.5399C11.8548 11.1015 11.0568 11.9083 10.5057 12.8782L2.08871 8.09582Z" fill="#FFD43B"/>
<path d="M27.3137 27.3137C25.828 28.7994 24.0641 29.978 22.1229 30.7821C20.1817 31.5861 18.1011 32 16 32L16 22.3193C16.8299 22.3193 17.6516 22.1558 18.4183 21.8382C19.185 21.5207 19.8816 21.0552 20.4684 20.4684L27.3137 27.3137Z" fill="#339AF0"/>
<path d="M29.5177 24.5599C28.8314 25.6437 28.0172 26.6411 27.0926 27.5305L20.3811 20.554C20.7462 20.2028 21.0678 19.8088 21.3389 19.3808L29.5177 24.5599Z" fill="#BE4BDB"/>
<path d="M0.542532 20.1312C-0.0620174 17.8692 -0.162742 15.502 0.247467 13.1968C0.657676 10.8916 1.56882 8.70457 2.9166 6.78997L10.8327 12.3625C10.3003 13.1186 9.94049 13.9824 9.77847 14.8929C9.61646 15.8033 9.65624 16.7382 9.89501 17.6316L0.542532 20.1312Z" fill="#FF922B"/>
<path d="M0.545187 11.8589C1.23402 9.28815 2.55324 6.92984 4.38338 4.99754L11.412 11.6545C10.6891 12.4177 10.1681 13.3491 9.89606 14.3645L0.545187 11.8589Z" fill="#FFA94D"/>
<path d="M16 32C14.002 32 12.0217 31.6258 10.1615 30.8967L13.6941 21.8835C14.4288 22.1715 15.2109 22.3193 16 22.3193L16 32Z" fill="#22B8CF"/>
</svg>
