<svg width="102" height="32" viewBox="0 0 102 32" fill="none" xmlns="http://www.w3.org/2000/svg">
<path d="M52.3132 21.9581L56.3132 12.1449C56.3539 12.1041 56.3132 12.0294 56.2385 12.0294H52.6663C52.6392 12.0294 52.6143 12.0158 52.5916 11.9887L51.3624 10.0124C51.3217 9.97167 51.3624 9.89697 51.4371 9.89697H58.7376C58.7784 9.89697 58.8123 9.93772 58.8123 9.97847V11.5201L54.7376 22.0803C54.7376 22.1211 54.6969 22.1211 54.6629 22.1211H52.4354C52.32 22.0803 52.2792 22.0396 52.32 21.9649L52.3132 21.9581Z" fill="#333333"/>
<path d="M58.1399 17.924L58.7986 16.0497C58.7986 16.0089 58.8326 16.0089 58.8665 16.0089H62.1263C62.1602 16.0089 62.1942 16.0497 62.1942 16.0904V17.9648C62.1942 18.0055 62.1602 18.0463 62.1263 18.0463H58.167C58.1331 18.0055 58.0991 17.9648 58.1331 17.924H58.1399Z" fill="#333333"/>
<path d="M45.7629 9.90073C46.8712 9.90073 47.7847 10.0344 48.5031 10.3017C49.2272 10.5691 49.7647 10.9729 50.1156 11.5131C50.4665 12.0534 50.6419 12.7357 50.6419 13.56C50.6419 14.117 50.5361 14.6043 50.3244 15.022C50.1128 15.4398 49.8343 15.7934 49.489 16.0831C49.1437 16.3727 48.7705 16.6094 48.3695 16.7932L51.9619 22.115H49.088L46.1722 17.4281H44.7938V22.115H42.2039V9.90073H45.7629ZM45.5791 12.0228H44.7938V15.3228H45.6292C46.4869 15.3228 47.0996 15.1808 47.4672 14.8967C47.8404 14.6071 48.0269 14.1838 48.0269 13.6268C48.0269 13.0476 47.8264 12.6354 47.4254 12.3904C47.03 12.1453 46.4145 12.0228 45.5791 12.0228Z" fill="#333333"/>
<path d="M73.938 15.8909C73.938 17.2666 73.6734 18.4167 73.1443 19.3413C72.6207 20.2603 71.8605 20.9537 70.8635 21.4216C69.8665 21.8839 68.6663 22.115 67.2627 22.115H63.804V9.90073H67.6387C68.9197 9.90073 70.0308 10.1291 70.9721 10.5858C71.9134 11.0369 72.643 11.7081 73.161 12.5992C73.679 13.4848 73.938 14.582 73.938 15.8909ZM71.2478 15.9577C71.2478 15.0554 71.1141 14.3147 70.8468 13.7354C70.585 13.1506 70.1951 12.719 69.6772 12.4405C69.1648 12.162 68.5298 12.0228 67.7723 12.0228H66.3938V19.9762H67.505C68.7693 19.9762 69.7078 19.6393 70.3205 18.9653C70.9387 18.2914 71.2478 17.2889 71.2478 15.9577Z" fill="#333333"/>
<path d="M76.1272 22.115V9.90073H78.7171V22.115H76.1272Z" fill="#333333"/>
<path d="M88.6592 18.7231C88.6592 19.4471 88.4838 20.0765 88.1329 20.6112C87.782 21.1459 87.2696 21.558 86.5957 21.8476C85.9273 22.1373 85.1141 22.2821 84.1562 22.2821C83.7329 22.2821 83.3179 22.2542 82.9113 22.1985C82.5103 22.1428 82.1232 22.0621 81.7501 21.9563C81.3825 21.8449 81.0316 21.7084 80.6974 21.5469V19.1408C81.2767 19.397 81.8782 19.6281 82.502 19.8342C83.1258 20.0403 83.744 20.1433 84.3567 20.1433C84.78 20.1433 85.1197 20.0876 85.3759 19.9762C85.6377 19.8649 85.8271 19.7117 85.944 19.5167C86.061 19.3218 86.1195 19.099 86.1195 18.8484C86.1195 18.5421 86.0164 18.2803 85.8104 18.0631C85.6043 17.8458 85.3202 17.6426 84.9582 17.4532C84.6017 17.2638 84.1979 17.0605 83.7468 16.8433C83.4627 16.7096 83.1536 16.5481 82.8194 16.3587C82.4853 16.1638 82.1678 15.9271 81.867 15.6486C81.5663 15.3701 81.3184 15.0332 81.1235 14.6377C80.9341 14.2367 80.8394 13.7577 80.8394 13.2007C80.8394 12.4711 81.0065 11.8473 81.3407 11.3293C81.6749 10.8114 82.1511 10.4159 82.7693 10.143C83.3931 9.86452 84.1283 9.72528 84.9749 9.72528C85.6098 9.72528 86.2142 9.80047 86.7878 9.95085C87.3671 10.0957 87.9714 10.3073 88.6008 10.5858L87.7653 12.5992C87.2028 12.3709 86.6987 12.1954 86.2531 12.0729C85.8076 11.9448 85.3536 11.8807 84.8914 11.8807C84.5683 11.8807 84.2926 11.9337 84.0643 12.0395C83.8359 12.1397 83.6633 12.2845 83.5463 12.4739C83.4293 12.6577 83.3708 12.8721 83.3708 13.1172C83.3708 13.4068 83.4544 13.6519 83.6215 13.8524C83.7941 14.0473 84.0503 14.2367 84.3901 14.4205C84.7354 14.6043 85.1643 14.8187 85.6767 15.0638C86.3005 15.359 86.8324 15.6681 87.2724 15.9911C87.718 16.3086 88.0605 16.6846 88.3 17.119C88.5395 17.5479 88.6592 18.0826 88.6592 18.7231Z" fill="#333333"/>
<path d="M100.356 22.115H97.4151L94.2153 16.9686L93.1209 17.7539V22.115H90.531V9.90073H93.1209V15.4899C93.2935 15.2504 93.4634 15.0109 93.6305 14.7714C93.7976 14.5319 93.9675 14.2924 94.1401 14.0529L97.4485 9.90073H100.322L96.0617 15.3061L100.356 22.115Z" fill="#333333"/>
<path d="M24.3257 16.0001C24.3257 20.046 21.0458 23.3259 16.9999 23.3259C12.954 23.3259 9.67407 20.046 9.67407 16.0001C9.67407 11.9542 12.954 8.67427 16.9999 8.67427C21.0458 8.67427 24.3257 11.9542 24.3257 16.0001ZM11.9132 16.0001C11.9132 18.8094 14.1906 21.0868 16.9999 21.0868C19.8092 21.0868 22.0866 18.8094 22.0866 16.0001C22.0866 13.1908 19.8092 10.9134 16.9999 10.9134C14.1906 10.9134 11.9132 13.1908 11.9132 16.0001Z" fill="white"/>
<path d="M32.6434 12.6405C33.2562 15.4944 33.0767 18.4615 32.1243 21.2207C31.1719 23.9799 29.4828 26.4259 27.24 28.294L21.0443 20.8556C21.9302 20.1178 22.5973 19.1517 22.9734 18.0619C23.3496 16.9722 23.4205 15.8003 23.1784 14.6732L32.6434 12.6405Z" fill="#DA77F2"/>
<path d="M28.3137 4.68629C30.5378 6.91035 32.057 9.74059 32.6815 12.8233L23.1935 14.7453C22.9468 13.5278 22.3468 12.41 21.4684 11.5316L28.3137 4.68629Z" fill="#FFA94D"/>
<path d="M16.7109 0.00261191C18.9572 -0.0379809 21.1868 0.394937 23.2547 1.27318C25.3225 2.15143 27.1823 3.45532 28.7128 5.09996L21.626 11.695C21.0215 11.0454 20.287 10.5305 19.4703 10.1836C18.6536 9.83672 17.773 9.66573 16.8858 9.68177L16.7109 0.00261191Z" fill="#FCC419"/>
<path d="M26.5347 3.1513C27.5177 3.88076 28.4138 4.72063 29.2053 5.65441L21.8205 11.914C21.5079 11.5452 21.154 11.2135 20.7658 10.9254L26.5347 3.1513Z" fill="#3BC9DB"/>
<path d="M12.1781 31.2561C9.44452 30.3921 6.99327 28.8095 5.08072 26.6738C3.16817 24.5381 1.86459 21.9278 1.30631 19.1158L10.8017 17.2306C11.0222 18.3412 11.5371 19.3722 12.2924 20.2157C13.0478 21.0592 14.0159 21.6842 15.0956 22.0255L12.1781 31.2561Z" fill="#51CF66"/>
<path d="M3.08872 8.09582C4.48409 5.63997 6.50473 3.59727 8.9453 2.17532C11.3859 0.753373 14.1594 0.00284454 16.9839 8.06746e-06L16.9937 9.68074C15.8781 9.68186 14.7827 9.97828 13.8188 10.5399C12.8549 11.1015 12.0568 11.9083 11.5057 12.8782L3.08872 8.09582Z" fill="#FFD43B"/>
<path d="M28.3137 27.3137C26.828 28.7994 25.0642 29.978 23.123 30.7821C21.1817 31.5861 19.1012 32 17 32V22.3193C17.8299 22.3193 18.6516 22.1558 19.4183 21.8382C20.185 21.5207 20.8816 21.0552 21.4684 20.4684L28.3137 27.3137Z" fill="#339AF0"/>
<path d="M30.5177 24.5599C29.8314 25.6437 29.0172 26.6411 28.0927 27.5305L21.3811 20.554C21.7462 20.2028 22.0678 19.8088 22.3389 19.3808L30.5177 24.5599Z" fill="#BE4BDB"/>
<path d="M1.54253 20.1312C0.937983 17.8692 0.837258 15.502 1.24747 13.1968C1.65768 10.8916 2.56882 8.70457 3.9166 6.78997L11.8327 12.3625C11.3004 13.1186 10.9405 13.9824 10.7785 14.8929C10.6165 15.8033 10.6562 16.7382 10.895 17.6316L1.54253 20.1312Z" fill="#FF922B"/>
<path d="M1.54519 11.8589C2.23402 9.28815 3.55324 6.92984 5.38338 4.99754L12.412 11.6545C11.6892 12.4177 11.1681 13.3491 10.8961 14.3645L1.54519 11.8589Z" fill="#FFA94D"/>
<path d="M17 32C15.002 32 13.0217 31.6258 11.1615 30.8967L14.6941 21.8835C15.4288 22.1715 16.2109 22.3193 17 22.3193V32Z" fill="#22B8CF"/>
</svg>
