<svg width="24" height="24" viewBox="0 0 24 24" fill="none" xmlns="http://www.w3.org/2000/svg">
<rect x="2" y="1" width="20" height="22" rx="3" fill="#F59F00"/>
<path d="M8.7627 7.75794V16.2419C8.76267 16.3363 8.78782 16.4289 8.83554 16.5103C8.88327 16.5917 8.95184 16.6588 9.0342 16.7049C9.11655 16.7509 9.20969 16.7742 9.30402 16.7722C9.39834 16.7702 9.49044 16.7431 9.57079 16.6937L16.464 12.4517C16.5412 12.4043 16.605 12.3378 16.6492 12.2587C16.6934 12.1796 16.7167 12.0905 16.7167 11.9999C16.7167 11.9093 16.6934 11.8202 16.6492 11.7411C16.605 11.662 16.5412 11.5956 16.464 11.5482L9.57079 7.30617C9.49044 7.25673 9.39834 7.22963 9.30402 7.22765C9.20969 7.22568 9.11655 7.24892 9.0342 7.29496C8.95184 7.341 8.88327 7.40817 8.83554 7.48956C8.78782 7.57094 8.76267 7.66359 8.7627 7.75794Z" fill="white"/>
</svg>
