<svg width="24" height="24" viewBox="0 0 24 24" fill="none" xmlns="http://www.w3.org/2000/svg">
<rect x="2" y="1" width="20" height="22" rx="3" fill="#CC5DE8"/>
<path d="M15.0909 9V13.566C14.8235 13.4066 14.513 13.3153 14.1818 13.3153C13.1777 13.3153 12.3636 14.1543 12.3636 15.1892C12.3636 16.2241 13.1777 17.0631 14.1818 17.0631C15.186 17.0631 16 16.2241 16 15.1892V6.75018C16 6.23185 15.5018 5.86997 15.0281 6.0443L9.20994 8.18588C8.92049 8.29242 8.72727 8.57499 8.72727 8.89176V14.5029C8.45984 14.3435 8.14935 14.2522 7.81818 14.2522C6.81403 14.2522 6 15.0912 6 16.1261C6 17.161 6.81403 18 7.81818 18C8.82234 18 9.63636 17.161 9.63636 16.1261V11.0077L15.0909 9Z" fill="white"/>
</svg>
