<svg width="270" height="270" viewBox="0 0 270 270" fill="none" xmlns="http://www.w3.org/2000/svg">
<g opacity="0.9">
<path opacity="0.951" fill-rule="evenodd" clip-rule="evenodd" d="M111.856 43.531C111.733 42.8506 111.366 42.2995 110.754 41.8779C102.269 41.0469 93.8197 39.9448 85.4067 38.5718C84.794 38.1501 84.427 37.5991 84.3047 36.9187C84.7025 29.9083 88.3767 26.2349 95.3251 25.8983C106.085 24.9153 111.596 29.6908 111.856 40.2248C115.892 40.7227 119.934 41.2738 123.978 41.8779C124.482 42.3342 124.85 42.8852 125.08 43.531C120.815 43.8078 116.407 43.8078 111.856 43.531Z" fill="#E64946"/>
<path opacity="0.976" fill-rule="evenodd" clip-rule="evenodd" d="M106.353 49.041C106.61 50.7621 107.345 52.2315 108.558 53.4491C105.661 55.6404 102.722 57.8445 99.7412 60.0614C99.015 58.2563 98.2799 56.4197 97.5371 54.5512C93.6488 53.6176 90.0204 52.155 86.6511 50.1634C85.4661 49.4629 84.5429 48.371 84.2289 47.0307C83.8289 45.3232 83.6726 43.0529 85.4147 42.4287C91.1685 42.9171 97.0467 42.9171 103.047 42.4287C105.396 43.6541 105.396 45.3071 103.047 47.3879C103.867 48.5325 104.969 49.0835 106.353 49.041Z" fill="#F6B4AF"/>
<path fill-rule="evenodd" clip-rule="evenodd" d="M87.0644 45.2418C87.0644 45.6284 86.8386 45.8217 86.3862 45.8217C84.0513 46.8058 82.8082 46.2259 82.6562 44.082C83.8695 45.0847 85.3391 45.4713 87.0644 45.2418Z" fill="#6E5D83"/>
<path opacity="0.966" fill-rule="evenodd" clip-rule="evenodd" d="M84.3024 36.9188C84.4247 37.5992 84.7917 38.1502 85.4045 38.5718C93.8174 39.9449 102.267 41.0469 110.751 41.878C111.364 42.2996 111.731 42.8506 111.853 43.531C110.687 44.7435 109.768 46.213 109.098 47.9392C108.359 48.7684 107.441 49.1358 106.343 49.0412C104.959 49.0838 103.857 48.5327 103.037 47.3882C105.386 45.3074 105.386 43.6543 103.037 42.429C97.0365 42.9174 91.1582 42.9174 85.4045 42.429C79.4468 43.2717 77.2427 40.7002 78.7922 34.7147C81.0117 34.5951 82.8477 35.3299 84.3024 36.9188Z" fill="#312B6A"/>
<path opacity="0.994" fill-rule="evenodd" clip-rule="evenodd" d="M108.554 53.4492C117.55 61.1441 123.795 70.6952 127.289 82.1023C127.656 83.5716 128.024 85.0411 128.391 86.5104C124.78 85.3667 121.29 83.8974 117.922 82.1023C117.66 91.5977 115.823 100.781 112.411 109.653C110.829 112.896 108.441 115.1 105.248 116.266C102.019 117.146 98.713 117.513 95.3297 117.368C95.3297 116.633 94.9627 116.266 94.2277 116.266C87.6981 113.065 80.9018 112.33 73.8399 114.061C65.4975 113.801 59.4363 109.945 55.6562 102.49C57.1969 97.6136 58.2989 92.6544 58.9624 87.6125C60.4623 83.7752 62.2994 80.8364 64.4726 78.7962C64.5387 78.1976 64.9057 77.8303 65.5746 77.6941C73.0134 82.9091 81.0947 84.3784 89.8195 82.1023C94.4194 75.2601 97.7256 67.9132 99.7379 60.0615C102.719 57.8446 105.658 55.6405 108.554 53.4492Z" fill="#222769"/>
<path opacity="0.947" fill-rule="evenodd" clip-rule="evenodd" d="M45.7382 60.0615C47.8001 60.4569 49.4532 61.559 50.6974 63.3676C52.626 65.8299 54.279 68.4013 55.6566 71.0819C57.0231 72.7052 58.1251 74.5419 58.9627 76.5921C58.4117 76.9594 57.8607 77.3269 57.3096 77.6942C52.5984 75.2428 47.6392 73.406 42.4321 72.184C40.84 69.2986 39.0033 66.5435 36.9219 63.9187C39.8112 62.2934 42.7495 61.0077 45.7382 60.0615Z" fill="#252869"/>
<path opacity="0.918" fill-rule="evenodd" clip-rule="evenodd" d="M55.6564 71.082C58.8138 73.2959 61.7529 75.8674 64.4728 78.7963C62.2996 80.8365 60.4624 83.7753 58.9626 87.6126C59.0573 86.5151 58.6893 85.5968 57.8605 84.8575C50.9529 83.1864 45.2587 79.6966 40.7789 74.3882C40.1969 72.9379 40.7479 72.2031 42.432 72.1841C47.6391 73.4061 52.5983 75.2429 57.3095 77.6943C57.8605 77.327 58.4116 76.9595 58.9626 76.5922C58.125 74.542 57.023 72.7053 55.6564 71.082Z" fill="#F5B1AC"/>
<path opacity="0.992" fill-rule="evenodd" clip-rule="evenodd" d="M127.289 82.1015C162.562 81.7343 197.827 82.1017 233.085 83.2036C230.3 105.525 222.953 126.096 211.044 144.918C206.835 144.184 202.427 143.817 197.82 143.816C182.351 144.469 166.923 145.571 151.534 147.122C141.901 134.101 134.922 119.775 130.595 104.142C130.744 98.1357 130.01 92.2582 128.391 86.5097C128.024 85.0404 127.656 83.5709 127.289 82.1015Z" fill="#E5E5E5"/>
<path opacity="0.986" fill-rule="evenodd" clip-rule="evenodd" d="M128.385 86.5097C130.004 92.2582 130.738 98.1357 130.589 104.142C130.941 109.502 130.574 114.645 129.487 119.571C121.07 120.314 112.988 119.212 105.242 116.265C108.435 115.099 110.823 112.895 112.405 109.653C115.817 100.781 117.654 91.597 117.916 82.1016C121.285 83.8967 124.774 85.366 128.385 86.5097Z" fill="#1B205A"/>
<path opacity="0.986" fill-rule="evenodd" clip-rule="evenodd" d="M105.245 116.266C112.991 119.212 121.072 120.315 129.49 119.572C126.404 136.396 119.976 151.824 110.204 165.857C108.427 170.521 107.141 175.298 106.347 180.184C99.264 195.168 93.0187 210.597 87.6121 226.47C86.6037 228.954 85.1347 231.158 83.2039 233.082C76.9587 233.082 70.7145 233.082 64.4692 233.082C63.7816 232.622 63.4146 231.887 63.3672 230.878C67.4117 213.959 71.4518 197.062 75.4896 180.184C81.6258 159.198 88.238 138.259 95.3264 117.368C98.7096 117.513 102.016 117.146 105.245 116.266Z" fill="#A1C3FC"/>
<path opacity="0.905" fill-rule="evenodd" clip-rule="evenodd" d="M94.2202 116.266C94.9553 116.266 95.3223 116.633 95.3223 117.368C88.2339 138.259 81.6217 159.198 75.4855 180.184C73.9768 172.85 74.1598 165.503 76.0365 158.143C81.355 143.833 87.4162 129.875 94.2202 116.266Z" fill="#85B0F3"/>
<path opacity="0.992" fill-rule="evenodd" clip-rule="evenodd" d="M211.041 144.918C205.563 155.543 197.114 162.524 185.695 165.857C182.021 165.857 178.347 165.857 174.674 165.857C164.691 162.494 156.976 156.249 151.531 147.123C166.92 145.572 182.349 144.47 197.817 143.816C202.425 143.818 206.833 144.184 211.041 144.918Z" fill="#C5C5C5"/>
<path opacity="0.974" fill-rule="evenodd" clip-rule="evenodd" d="M174.677 165.857C178.35 165.857 182.024 165.857 185.697 165.857C197.927 170.914 207.294 179.362 213.799 191.204C224.965 209.799 231.026 229.636 231.983 250.715C228.765 246.13 225.276 241.722 221.514 237.49C208.036 224.11 194.811 210.519 181.84 196.715C181.255 171.951 180.153 171.951 178.534 196.715C161.599 214.567 144.517 232.199 127.289 249.613C130.146 221.366 140.799 196.57 159.248 175.225C163.947 171.229 169.091 168.107 174.677 165.857Z" fill="#E5E5E5"/>
<path opacity="0.968" fill-rule="evenodd" clip-rule="evenodd" d="M106.344 180.184C108.968 190.985 110.254 202.005 110.201 213.245C113.105 219.661 113.656 226.273 111.854 233.082C105.977 233.082 100.099 233.082 94.2216 233.082C92.7526 233.082 91.2825 233.082 89.8135 233.082C89.7088 230.562 88.9737 228.358 87.6094 226.469C93.016 210.597 99.2613 195.168 106.344 180.184Z" fill="#7AAAEF"/>
<path opacity="0.966" fill-rule="evenodd" clip-rule="evenodd" d="M231.983 250.715C196.896 251.08 161.999 250.712 127.289 249.613C144.517 232.199 161.599 214.567 178.534 196.715C180.153 171.951 181.255 171.951 181.84 196.715C194.811 210.519 208.036 224.11 221.514 237.49C225.276 241.722 228.765 246.13 231.983 250.715Z" fill="#C5C5C5"/>
<path opacity="0.955" fill-rule="evenodd" clip-rule="evenodd" d="M64.471 233.082C70.7162 233.082 76.9604 233.082 83.2057 233.082C83.3203 235.51 84.0542 237.714 85.4098 239.694C85.877 243.565 86.9791 247.238 88.7159 250.715C72.9159 250.899 57.1193 250.715 41.3281 250.164C47.0102 245.299 53.2555 241.258 60.0628 238.041C61.7611 236.53 63.2312 234.877 64.471 233.082Z" fill="#3482EE"/>
<path opacity="0.973" fill-rule="evenodd" clip-rule="evenodd" d="M94.2226 233.082C100.1 233.082 105.978 233.082 111.855 233.082C113.9 238.826 116.104 244.519 118.467 250.164C108.556 250.715 98.6374 250.898 88.7124 250.715C86.9756 247.238 85.8735 243.565 85.4062 239.694C89.1433 238.56 92.0813 236.356 94.2226 233.082Z" fill="#3482EE"/>
<g clip-path="url(#clip0_3799_102909)">
<path opacity="0.995" fill-rule="evenodd" clip-rule="evenodd" d="M51.2144 36.334C51.467 36.334 51.7195 36.334 51.9721 36.334C52.1784 36.4392 52.3736 36.5709 52.5576 36.7291C54.1222 38.6963 55.672 40.6717 57.2068 42.6551C54.9778 44.8519 52.7048 47.0028 50.3879 49.108C48.9387 49.482 47.4922 49.8881 46.0486 50.3261C45.7511 50.5554 45.5905 50.8517 45.5665 51.215C45.681 51.9591 45.7728 52.7054 45.842 53.4537C45.4079 53.9235 44.9372 54.3625 44.43 54.7706C44.398 54.8098 44.3865 54.8537 44.3956 54.9023C40.9218 50.6379 37.5009 46.3359 34.1328 41.9967C34.1328 41.7333 34.1328 41.4699 34.1328 41.2065C34.3267 40.8161 34.6481 40.5637 35.0971 40.4493C40.4836 39.0963 45.856 37.7245 51.2144 36.334Z" fill="#C5C5C5"/>
<path opacity="0.997" fill-rule="evenodd" clip-rule="evenodd" d="M57.2017 42.6553C57.4472 42.9262 57.6767 43.2115 57.8905 43.5113C57.8396 43.5026 57.7936 43.5136 57.7527 43.5442C55.9921 45.2383 54.2243 46.9174 52.4491 48.5813C51.7786 48.7966 51.0898 48.9721 50.3828 49.1081C52.6997 47.003 54.9727 44.852 57.2017 42.6553Z" fill="#C5C5C5"/>
<path opacity="0.997" fill-rule="evenodd" clip-rule="evenodd" d="M57.8945 43.5116C58.0941 43.7389 58.2778 43.9803 58.4455 44.2359C58.415 44.2841 58.4035 44.3499 58.411 44.4335C57.142 45.6797 55.8448 46.8869 54.5195 48.055C53.8489 48.2702 53.1602 48.4457 52.4531 48.5817C54.2282 46.9177 55.996 45.2387 57.7567 43.5446C57.7976 43.514 57.8436 43.503 57.8945 43.5116Z" fill="#C5C5C5"/>
<path opacity="0.972" fill-rule="evenodd" clip-rule="evenodd" d="M58.4416 44.2354C58.841 44.6385 59.1854 45.0774 59.4748 45.5523C59.4748 45.8156 59.4748 46.079 59.4748 46.3424C59.3307 46.601 59.1241 46.8095 58.8549 46.9679C57.4203 47.3776 55.9739 47.7397 54.5156 48.0544C55.841 46.8863 57.1382 45.6791 58.4072 44.4329C58.3997 44.3493 58.4112 44.2835 58.4416 44.2354Z" fill="#C5C5C5"/>
<path opacity="0.973" fill-rule="evenodd" clip-rule="evenodd" d="M45.84 53.4541C46.0345 54.7222 46.1952 55.9953 46.3222 57.2731C46.2992 57.2731 46.2762 57.2731 46.2533 57.2731C45.6334 56.483 45.0135 55.6928 44.3936 54.9027C44.3846 54.854 44.3961 54.8101 44.428 54.771C44.9353 54.3628 45.406 53.9239 45.84 53.4541Z" fill="#C5C5C5"/>
</g>
</g>
<defs>
<clipPath id="clip0_3799_102909">
<rect width="25.3469" height="20.9388" fill="white" transform="translate(34.1641 36.3672)"/>
</clipPath>
</defs>
</svg>
