<svg width="270" height="270" viewBox="0 0 270 270" fill="none" xmlns="http://www.w3.org/2000/svg">
<g opacity="0.9">
<g clip-path="url(#clip0_3799_102316)">
<path opacity="0.993" fill-rule="evenodd" clip-rule="evenodd" d="M113.729 28.9443C113.873 28.9443 114.018 28.9443 114.163 28.9443C114.163 29.0551 114.163 29.1659 114.163 29.2767C114.34 31.1215 114.503 32.9682 114.653 34.8169C114.932 32.97 115.203 31.1232 115.468 29.2767C115.534 29.178 115.57 29.0672 115.576 28.9443C115.685 28.9443 115.794 28.9443 115.903 28.9443C115.969 29.0431 116.005 29.1539 116.011 29.2767C115.701 34.1487 115.737 39.024 116.12 43.9028C116.011 43.9028 115.903 43.9028 115.794 43.9028C115.826 43.6551 115.79 43.4335 115.685 43.238C115.409 40.1796 115.301 37.114 115.359 34.0413C115.484 33.3965 115.502 32.7317 115.413 32.0468C115.354 32.4535 115.299 32.8598 115.25 33.2657C115.065 34.7563 114.92 36.2521 114.816 37.7532C114.939 39.655 115.048 41.5571 115.142 43.4596C115.142 43.6073 115.142 43.7551 115.142 43.9028C115.033 43.9028 114.924 43.9028 114.816 43.9028C114.755 42.5347 114.664 41.168 114.544 39.8031C114.401 41.1687 114.274 42.5354 114.163 43.9028C114.055 43.9028 113.946 43.9028 113.837 43.9028C113.837 43.6443 113.837 43.3857 113.837 43.1272C113.992 41.1307 114.173 39.1363 114.381 37.1438C114.263 34.9979 114.1 32.8557 113.892 30.7172C113.236 35.1123 112.602 39.5075 111.989 43.9028C111.845 43.9028 111.7 43.9028 111.555 43.9028C112.249 39.0218 112.974 34.1465 113.729 29.2767C113.729 29.1659 113.729 29.0551 113.729 28.9443Z" fill="#E8E8EF"/>
<path opacity="0.987" fill-rule="evenodd" clip-rule="evenodd" d="M117.21 28.9443C117.355 28.9443 117.5 28.9443 117.645 28.9443C117.645 29.0551 117.645 29.1659 117.645 29.2767C117.573 29.5699 117.537 29.8839 117.536 30.2186C117.835 34.6322 118.124 39.0459 118.406 43.4596C118.406 43.6073 118.406 43.7551 118.406 43.9028C118.297 43.9028 118.189 43.9028 118.08 43.9028C117.742 39.0218 117.416 34.1464 117.102 29.2767C117.168 29.178 117.204 29.0672 117.21 28.9443Z" fill="#EAEAF0"/>
<path opacity="0.993" fill-rule="evenodd" clip-rule="evenodd" d="M113.726 29.2773C112.971 34.1471 112.246 39.0224 111.552 43.9034C110.574 43.9034 109.595 43.9034 108.617 43.9034C108.617 39.028 108.617 34.1527 108.617 29.2773C110.32 29.2773 112.023 29.2773 113.726 29.2773Z" fill="#23286B"/>
<path opacity="0.965" fill-rule="evenodd" clip-rule="evenodd" d="M114.164 29.2773C114.599 29.2773 115.034 29.2773 115.468 29.2773C115.204 31.1238 114.932 32.9706 114.653 34.8175C114.504 32.9688 114.341 31.1221 114.164 29.2773Z" fill="#1F2360"/>
<path opacity="0.995" fill-rule="evenodd" clip-rule="evenodd" d="M116.013 29.2773C116.376 29.2773 116.738 29.2773 117.1 29.2773C117.415 34.147 117.741 39.0224 118.078 43.9034C117.426 43.9034 116.774 43.9034 116.122 43.9034C115.739 39.0246 115.703 34.1493 116.013 29.2773Z" fill="#1E225D"/>
<path opacity="0.993" fill-rule="evenodd" clip-rule="evenodd" d="M117.64 29.2773C119.488 29.2773 121.336 29.2773 123.183 29.2773C123.183 34.1527 123.183 39.028 123.183 43.9034C121.625 43.9034 120.067 43.9034 118.51 43.9034C118.539 43.7262 118.502 43.5785 118.401 43.4602C118.119 39.0465 117.83 34.6328 117.531 30.2192C117.531 29.8845 117.568 29.5705 117.64 29.2773Z" fill="#23286B"/>
<path fill-rule="evenodd" clip-rule="evenodd" d="M113.84 43.1277C113.735 43.3612 113.698 43.6198 113.731 43.9034C113.152 43.9034 112.572 43.9034 111.992 43.9034C112.604 39.5081 113.238 35.1129 113.894 30.7178C114.103 32.8563 114.266 34.9984 114.383 37.1444C114.176 39.1369 113.995 41.1313 113.84 43.1277Z" fill="#232764"/>
<path fill-rule="evenodd" clip-rule="evenodd" d="M115.247 33.2656C115.353 33.4991 115.389 33.7577 115.356 34.0412C115.298 37.114 115.406 40.1795 115.682 43.2379C115.682 43.4595 115.682 43.6811 115.682 43.9027C115.537 43.9027 115.392 43.9027 115.247 43.9027C115.276 43.7256 115.24 43.5779 115.139 43.4595C115.045 41.557 114.936 39.6549 114.812 37.7532C114.917 36.2521 115.062 34.7562 115.247 33.2656Z" fill="#222661"/>
<path fill-rule="evenodd" clip-rule="evenodd" d="M115.359 34.0413C115.392 33.7578 115.355 33.4992 115.25 33.2657C115.299 32.8599 115.353 32.4536 115.413 32.0469C115.502 32.7318 115.484 33.3966 115.359 34.0413Z" fill="#7C7EA2"/>
<path fill-rule="evenodd" clip-rule="evenodd" d="M114.816 43.9034C114.599 43.9034 114.381 43.9034 114.164 43.9034C114.274 42.536 114.401 41.1694 114.544 39.8037C114.665 41.1687 114.756 42.5353 114.816 43.9034Z" fill="#2B2D68"/>
<path opacity="0.998" fill-rule="evenodd" clip-rule="evenodd" d="M99.4888 43.9033C110.38 49.9997 121.304 56.0569 132.261 62.0751C132.315 61.8191 132.333 61.5606 132.315 61.2994C132.351 61.2994 132.387 61.2994 132.424 61.2994C132.424 61.8535 132.424 62.4075 132.424 62.9615C131.554 62.9615 130.684 62.9615 129.815 62.9615C129.706 62.9615 129.597 62.9615 129.489 62.9615C128.474 62.9615 127.46 62.9615 126.445 62.9615C124.924 62.9615 123.402 62.9615 121.88 62.9615C120.431 62.9615 118.982 62.9615 117.532 62.9615C116.409 62.9615 115.286 62.9615 114.163 62.9615C112.532 62.9615 110.902 62.9615 109.271 62.9615C107.677 62.9615 106.083 62.9615 104.489 62.9615C103.563 66.6992 102.602 70.4295 101.608 74.1526C101.59 71.9176 101.536 69.7015 101.445 67.5044C101.445 65.9901 101.445 64.4758 101.445 62.9615C100.612 62.9615 99.7786 62.9615 98.9453 62.9615C98.9453 56.6088 98.9453 50.256 98.9453 43.9033C99.1265 43.9033 99.3076 43.9033 99.4888 43.9033Z" fill="#87B2F4"/>
<path fill-rule="evenodd" clip-rule="evenodd" d="M99.4922 43.9033C102.536 43.9033 105.579 43.9033 108.623 43.9033C108.623 43.9402 108.623 43.9772 108.623 44.0141C107.028 43.9956 105.434 44.0141 103.84 44.0695C113.314 49.2491 122.77 54.4569 132.21 59.6928C132.315 60.2177 132.351 60.7532 132.318 61.2994C132.336 61.5606 132.318 61.8191 132.264 62.0751C121.307 56.0569 110.383 49.9997 99.4922 43.9033Z" fill="#82AFF4"/>
<path opacity="0.993" fill-rule="evenodd" clip-rule="evenodd" d="M118.508 43.9033C120.066 43.9033 121.624 43.9033 123.182 43.9033C126.261 43.9033 129.341 43.9033 132.421 43.9033C132.421 46.1933 132.421 48.4832 132.421 50.7731C128.332 48.5413 124.238 46.3069 120.138 44.0695C119.575 44.0502 119.031 43.9948 118.508 43.9033Z" fill="#72A6F6"/>
<path opacity="0.996" fill-rule="evenodd" clip-rule="evenodd" d="M108.619 44.0136C109.282 43.9286 109.898 44.0578 110.466 44.4014C117.771 48.4753 125.09 52.5196 132.423 56.5343C132.423 58.1225 132.423 59.7107 132.423 61.2989C132.387 61.2989 132.35 61.2989 132.314 61.2989C132.347 60.7526 132.311 60.2171 132.206 59.6922C122.766 54.4563 113.31 49.2486 103.836 44.069C105.43 44.0136 107.024 43.9951 108.619 44.0136Z" fill="#7EADF4"/>
<path opacity="0.995" fill-rule="evenodd" clip-rule="evenodd" d="M113.835 43.127C113.835 43.3855 113.835 43.6441 113.835 43.9026C113.943 43.9026 114.052 43.9026 114.161 43.9026C114.378 43.9026 114.595 43.9026 114.813 43.9026C114.922 43.9026 115.03 43.9026 115.139 43.9026C115.139 43.7549 115.139 43.6071 115.139 43.4594C115.24 43.5777 115.277 43.7254 115.248 43.9026C115.393 43.9026 115.538 43.9026 115.682 43.9026C115.682 43.681 115.682 43.4594 115.682 43.2378C115.787 43.4333 115.823 43.6549 115.791 43.9026C115.9 43.9026 116.008 43.9026 116.117 43.9026C116.769 43.9026 117.422 43.9026 118.074 43.9026C118.182 43.9026 118.291 43.9026 118.4 43.9026C118.4 43.7549 118.4 43.6071 118.4 43.4594C118.501 43.5777 118.538 43.7254 118.508 43.9026C119.032 43.9941 119.575 44.0495 120.139 44.0688C124.239 46.3061 128.333 48.5406 132.422 50.7724C132.422 52.6929 132.422 54.6136 132.422 56.5342C125.088 52.5194 117.769 48.4751 110.465 44.4012C109.896 44.0576 109.28 43.9284 108.617 44.0134C108.617 43.9765 108.617 43.9395 108.617 43.9026C109.595 43.9026 110.574 43.9026 111.552 43.9026C111.697 43.9026 111.842 43.9026 111.987 43.9026C112.566 43.9026 113.146 43.9026 113.726 43.9026C113.693 43.619 113.729 43.3604 113.835 43.127Z" fill="#79AAF5"/>
<path fill-rule="evenodd" clip-rule="evenodd" d="M109.271 62.9609C108.167 67.2783 107.08 71.5996 106.011 75.9249C107.605 75.9249 109.199 75.9249 110.793 75.9249C111.155 75.9249 111.518 75.9249 111.88 75.9249C111.88 75.9618 111.88 75.9988 111.88 76.0357C108.394 76.0719 104.916 76.0348 101.445 75.9249C101.445 73.1179 101.445 70.3109 101.445 67.5039C101.536 69.701 101.59 71.9171 101.608 74.1521C102.602 70.429 103.563 66.6987 104.489 62.9609C106.083 62.9609 107.677 62.9609 109.271 62.9609Z" fill="#80ACF3"/>
<path fill-rule="evenodd" clip-rule="evenodd" d="M109.269 62.9609C110.899 62.9609 112.53 62.9609 114.16 62.9609C113.49 65.7292 112.766 68.4808 111.986 71.2158C113.109 71.2712 114.232 71.2896 115.356 71.2712C116.788 71.2347 118.201 71.2717 119.595 71.382C116.913 71.3635 114.232 71.382 111.551 71.4374C111.148 71.7158 111.021 72.1037 111.171 72.6008C111.323 72.7748 111.486 72.9226 111.66 73.044C111.308 73.9741 111.018 74.9345 110.79 75.9249C109.196 75.9249 107.602 75.9249 106.008 75.9249C107.078 71.5996 108.165 67.2783 109.269 62.9609Z" fill="#79AAF5"/>
<path fill-rule="evenodd" clip-rule="evenodd" d="M114.166 62.9609C115.289 62.9609 116.413 62.9609 117.536 62.9609C116.794 65.7244 116.07 68.4945 115.362 71.2712C114.238 71.2896 113.115 71.2712 111.992 71.2158C112.772 68.4808 113.496 65.7292 114.166 62.9609Z" fill="#72A7F6"/>
<path fill-rule="evenodd" clip-rule="evenodd" d="M117.533 62.9609C118.983 62.9609 120.432 62.9609 121.881 62.9609C121.091 65.7483 120.366 68.5553 119.707 71.382C119.671 71.382 119.635 71.382 119.599 71.382C118.205 71.2717 116.792 71.2347 115.359 71.2712C116.068 68.4945 116.792 65.7244 117.533 62.9609Z" fill="#6DA4F7"/>
<path fill-rule="evenodd" clip-rule="evenodd" d="M121.877 62.9609C123.399 62.9609 124.921 62.9609 126.443 62.9609C125.269 67.2662 124.146 71.5875 123.073 75.9249C121.551 75.9249 120.03 75.9249 118.508 75.9249C118.748 74.9698 118.965 74.0096 119.16 73.044C119.997 73.0593 120.341 72.653 120.193 71.8252C120.044 71.6545 119.881 71.5066 119.703 71.382C120.362 68.5553 121.087 65.7483 121.877 62.9609Z" fill="#66A0F7"/>
<path fill-rule="evenodd" clip-rule="evenodd" d="M126.448 62.9609C127.462 62.9609 128.477 62.9609 129.491 62.9609C128.385 67.2888 127.261 71.6101 126.122 75.9249C125.107 75.9249 124.093 75.9249 123.078 75.9249C124.151 71.5875 125.274 67.2662 126.448 62.9609Z" fill="#619DF8"/>
<path opacity="0.974" fill-rule="evenodd" clip-rule="evenodd" d="M129.487 62.9609C129.595 62.9609 129.704 62.9609 129.813 62.9609C129.813 67.2823 129.813 71.6036 129.813 75.9249C128.581 75.9249 127.349 75.9249 126.117 75.9249C127.257 71.6101 128.38 67.2888 129.487 62.9609Z" fill="#5C9BF9"/>
<path fill-rule="evenodd" clip-rule="evenodd" d="M119.594 71.3819C119.63 71.3819 119.667 71.3819 119.703 71.3819C119.88 71.5066 120.043 71.6544 120.192 71.8252C120.341 72.653 119.996 73.0593 119.159 73.044C116.659 73.044 114.159 73.044 111.659 73.044C111.485 72.9226 111.322 72.7747 111.17 72.6008C111.02 72.1036 111.147 71.7158 111.551 71.4373C114.232 71.3819 116.913 71.3634 119.594 71.3819Z" fill="#FCFDFE"/>
<path fill-rule="evenodd" clip-rule="evenodd" d="M111.666 73.0439C114.166 73.0439 116.666 73.0439 119.166 73.0439C118.972 74.0095 118.754 74.9697 118.514 75.9248C120.036 75.9248 121.558 75.9248 123.079 75.9248C124.094 75.9248 125.109 75.9248 126.123 75.9248C127.355 75.9248 128.587 75.9248 129.819 75.9248C124.765 76.0355 119.692 76.0724 114.601 76.0356C114.674 75.5924 114.493 75.4077 114.058 75.4816C114.089 75.6938 114.052 75.8784 113.949 76.0356C113.478 76.0356 113.007 76.0356 112.536 76.0356C112.388 75.3667 112.17 75.3297 111.884 75.9248C111.522 75.9248 111.159 75.9248 110.797 75.9248C111.024 74.9344 111.314 73.974 111.666 73.0439Z" fill="#75A0EF"/>
<path opacity="0.998" fill-rule="evenodd" clip-rule="evenodd" d="M114.599 76.0357C114.474 77.7519 114.401 79.4879 114.382 81.2434C114.18 84.8429 114.126 88.4625 114.219 92.1022C114.36 97.4625 114.595 102.818 114.925 108.169C114.78 108.316 114.635 108.316 114.491 108.169C113.755 99.507 113.501 90.8274 113.73 82.1299C113.834 80.0998 113.906 78.0684 113.947 76.0357C114.05 75.8784 114.087 75.6938 114.056 75.4817C114.491 75.4078 114.672 75.5925 114.599 76.0357Z" fill="#FDF3F2"/>
<path opacity="0.995" fill-rule="evenodd" clip-rule="evenodd" d="M112.534 76.0359C112.352 77.3794 112.28 78.7459 112.317 80.1356C112.199 84.5882 112.254 89.0572 112.48 93.5428C112.744 98.4385 113.052 103.314 113.404 108.169C113.426 108.44 113.39 108.699 113.295 108.945C113.15 108.945 113.005 108.945 112.86 108.945C112.766 108.699 112.73 108.44 112.752 108.169C112.203 99.7934 111.822 91.4092 111.61 83.0165C110.814 89.7672 110.09 96.5262 109.437 103.294C109.316 104.948 109.406 106.573 109.708 108.169C109.491 108.464 109.274 108.464 109.056 108.169C108.858 106.55 108.804 104.924 108.893 103.294C109.618 96.2378 110.361 89.1833 111.121 82.1301C111.437 80.1076 111.691 78.0763 111.882 76.0359C111.882 75.999 111.882 75.962 111.882 75.9251C112.169 75.33 112.386 75.367 112.534 76.0359Z" fill="#FEF5F5"/>
<path fill-rule="evenodd" clip-rule="evenodd" d="M93.9453 75.9248C96.4453 75.9248 98.9453 75.9248 101.445 75.9248C104.916 76.0347 108.394 76.0717 111.88 76.0356C111.689 78.0759 111.435 80.1073 111.119 82.1298C105.485 82.093 99.8689 82.1299 94.2714 82.2406C94.1627 82.2406 94.054 82.2406 93.9453 82.2406C93.9453 80.1353 93.9453 78.0301 93.9453 75.9248Z" fill="#D62B2B"/>
<path opacity="0.991" fill-rule="evenodd" clip-rule="evenodd" d="M129.818 75.9248C131.194 75.9248 132.571 75.9248 133.948 75.9248C133.948 78.0301 133.948 80.1353 133.948 82.2406C133.839 82.2406 133.731 82.2406 133.622 82.2406C133.622 90.8833 133.622 99.5259 133.622 108.169C131.194 108.169 128.767 108.169 126.339 108.169C127.733 108.058 129.146 108.021 130.578 108.058C130.512 106.781 130.584 105.526 130.796 104.29C130.585 103.204 130.512 102.096 130.578 100.966C130.687 100.966 130.796 100.966 130.905 100.966C130.922 100.814 130.903 100.666 130.85 100.523C130.8 100.589 130.782 100.663 130.796 100.745C130.628 100.709 130.555 100.598 130.578 100.412C130.602 100.226 130.529 100.115 130.361 100.08C130.361 94.1334 130.361 88.1871 130.361 82.2406C126.413 82.1398 122.464 82.1029 118.513 82.1298C117.136 82.1298 115.76 82.1298 114.383 82.1298C114.383 81.8343 114.383 81.5389 114.383 81.2434C114.402 79.4878 114.475 77.7518 114.6 76.0356C119.691 76.0724 124.764 76.0355 129.818 75.9248Z" fill="#D62929"/>
<path fill-rule="evenodd" clip-rule="evenodd" d="M112.531 76.0361C113.002 76.0361 113.474 76.0361 113.945 76.0361C113.904 78.0688 113.831 80.1003 113.727 82.1303C113.256 82.1303 112.785 82.1303 112.314 82.1303C112.314 81.4655 112.314 80.8007 112.314 80.1359C112.277 78.7462 112.35 77.3796 112.531 76.0361Z" fill="#D62D2B"/>
<path opacity="0.998" fill-rule="evenodd" clip-rule="evenodd" d="M114.379 81.2441C114.379 81.5397 114.379 81.8351 114.379 82.1306C115.756 82.1306 117.133 82.1306 118.509 82.1306C119.794 82.2408 121.099 82.2777 122.422 82.2414C122.386 88.7236 122.423 95.1872 122.531 101.632C122.531 101.706 122.531 101.78 122.531 101.854C122.423 103.903 122.387 105.971 122.422 108.059C121.966 108.023 121.531 108.06 121.118 108.169C119.053 108.169 116.988 108.169 114.922 108.169C114.592 102.819 114.357 97.4632 114.216 92.1029C114.123 88.4632 114.177 84.8436 114.379 81.2441Z" fill="#D62B2B"/>
<path fill-rule="evenodd" clip-rule="evenodd" d="M118.508 82.1306C122.458 82.1037 126.407 82.1406 130.356 82.2414C130.356 88.1879 130.356 94.1342 130.356 100.081C130.332 100.267 130.405 100.378 130.573 100.413C130.55 100.599 130.622 100.71 130.79 100.746C130.718 100.819 130.646 100.893 130.573 100.967C130.507 102.096 130.579 103.204 130.79 104.291C130.579 105.526 130.506 106.782 130.573 108.059C129.141 108.022 127.728 108.059 126.334 108.169C124.595 108.169 122.856 108.169 121.117 108.169C121.529 108.06 121.964 108.023 122.421 108.059C122.385 105.971 122.421 103.903 122.53 101.854C122.819 101.78 122.819 101.706 122.53 101.632C122.421 95.1872 122.385 88.7236 122.421 82.2414C121.097 82.2777 119.793 82.2408 118.508 82.1306Z" fill="#D62B2B"/>
<path opacity="0.999" fill-rule="evenodd" clip-rule="evenodd" d="M94.2734 82.2412C96.4836 82.2412 98.6937 82.2412 100.904 82.2412C100.904 90.8839 100.904 99.5265 100.904 108.169C98.6937 108.169 96.4836 108.169 94.2734 108.169C94.2734 99.5265 94.2734 90.8839 94.2734 82.2412Z" fill="#D62B2B"/>
<path opacity="0.998" fill-rule="evenodd" clip-rule="evenodd" d="M100.898 82.2412C102.42 82.2412 103.942 82.2412 105.464 82.2412C105.464 90.847 105.464 99.4526 105.464 108.058C105.007 108.023 104.572 108.06 104.159 108.169C103.072 108.169 101.985 108.169 100.898 108.169C100.898 99.5265 100.898 90.8839 100.898 82.2412Z" fill="#D62B2B"/>
<path fill-rule="evenodd" clip-rule="evenodd" d="M94.2734 82.2408C99.871 82.1301 105.487 82.0932 111.121 82.13C110.361 89.1832 109.618 96.2377 108.893 103.293C108.804 104.924 108.858 106.549 109.056 108.169C107.426 108.169 105.795 108.169 104.165 108.169C104.578 108.06 105.012 108.023 105.469 108.058C105.469 99.4522 105.469 90.8465 105.469 82.2408C103.947 82.2408 102.426 82.2408 100.904 82.2408C98.6937 82.2408 96.4836 82.2408 94.2734 82.2408Z" fill="#D62B2B"/>
<path fill-rule="evenodd" clip-rule="evenodd" d="M112.318 80.1357C112.318 80.8006 112.318 81.4654 112.318 82.1302C112.789 82.1302 113.26 82.1302 113.731 82.1302C113.503 90.8277 113.756 99.5074 114.492 108.169C114.13 108.169 113.767 108.169 113.405 108.169C113.053 103.314 112.745 98.4386 112.481 93.5429C112.255 89.0573 112.2 84.5883 112.318 80.1357Z" fill="#D62B2B"/>
<path fill-rule="evenodd" clip-rule="evenodd" d="M112.75 108.169C111.735 108.169 110.721 108.169 109.706 108.169C109.404 106.573 109.314 104.948 109.435 103.294C110.088 96.5263 110.812 89.7673 111.609 83.0166C111.82 91.4093 112.201 99.7934 112.75 108.169Z" fill="#D62B2B"/>
<path fill-rule="evenodd" clip-rule="evenodd" d="M131.12 84.3467C131.32 84.3621 131.356 84.436 131.229 84.5683C131.142 84.5176 131.106 84.4437 131.12 84.3467Z" fill="#F8DCDC"/>
<path fill-rule="evenodd" clip-rule="evenodd" d="M131.558 87.6699C131.757 87.6853 131.794 87.7592 131.666 87.8915C131.58 87.8409 131.543 87.767 131.558 87.6699Z" fill="#F1B0AF"/>
<path fill-rule="evenodd" clip-rule="evenodd" d="M128.73 90.7725C128.929 90.7879 128.965 90.8618 128.838 90.9941C128.752 90.9434 128.715 90.8695 128.73 90.7725Z" fill="#F5C8C8"/>
<path fill-rule="evenodd" clip-rule="evenodd" d="M132.206 93.3213C132.406 93.3367 132.442 93.4106 132.315 93.5429C132.228 93.4923 132.192 93.4184 132.206 93.3213Z" fill="#F7D2D2"/>
<path fill-rule="evenodd" clip-rule="evenodd" d="M125.792 93.9863C125.992 94.0017 126.028 94.0756 125.901 94.2079C125.814 94.1573 125.778 94.0834 125.792 93.9863Z" fill="#F1AAA9"/>
<path fill-rule="evenodd" clip-rule="evenodd" d="M121.558 95.4268C121.757 95.4422 121.794 95.5161 121.666 95.6484C121.58 95.5977 121.543 95.5238 121.558 95.4268Z" fill="#F7D0D0"/>
<path fill-rule="evenodd" clip-rule="evenodd" d="M131.008 95.4262C131.136 95.4019 131.244 95.4388 131.334 95.537C131.165 95.6808 131.057 95.6439 131.008 95.4262Z" fill="#F0ACAC"/>
<path fill-rule="evenodd" clip-rule="evenodd" d="M128.297 95.6484C128.543 95.7302 128.561 95.841 128.351 95.9808C128.163 95.8864 128.145 95.7756 128.297 95.6484Z" fill="#F2AEAD"/>
<path fill-rule="evenodd" clip-rule="evenodd" d="M124.703 96.5346C124.831 96.5103 124.94 96.5472 125.029 96.6454C124.861 96.7892 124.752 96.7523 124.703 96.5346Z" fill="#F1ADAD"/>
<path fill-rule="evenodd" clip-rule="evenodd" d="M124.164 96.9779C124.292 96.9537 124.4 96.9906 124.49 97.0887C124.321 97.2325 124.213 97.1957 124.164 96.9779Z" fill="#F2B4B3"/>
<path fill-rule="evenodd" clip-rule="evenodd" d="M132.101 97.1992C132.446 97.2493 132.482 97.3601 132.21 97.5316C132.113 97.4402 132.077 97.3294 132.101 97.1992Z" fill="#F3B5B4"/>
<path fill-rule="evenodd" clip-rule="evenodd" d="M127.969 97.5322C128.214 97.614 128.233 97.7248 128.023 97.8646C127.835 97.7702 127.817 97.6594 127.969 97.5322Z" fill="#F4BFBF"/>
<path fill-rule="evenodd" clip-rule="evenodd" d="M131.011 98.6396C131.211 98.6551 131.247 98.729 131.12 98.8613C131.033 98.8106 130.997 98.7367 131.011 98.6396Z" fill="#F6CCCB"/>
<path fill-rule="evenodd" clip-rule="evenodd" d="M121.992 98.7504C122.12 98.7261 122.229 98.763 122.318 98.8612C122.15 99.005 122.041 98.9681 121.992 98.7504Z" fill="#EF9A98"/>
<path fill-rule="evenodd" clip-rule="evenodd" d="M126.987 99.083C127.187 99.0984 127.223 99.1723 127.096 99.3046C127.009 99.254 126.973 99.1801 126.987 99.083Z" fill="#F6CFCF"/>
<path fill-rule="evenodd" clip-rule="evenodd" d="M124.925 99.415C125.125 99.4304 125.161 99.5043 125.034 99.6366C124.947 99.586 124.911 99.5121 124.925 99.415Z" fill="#F6D0D0"/>
<path fill-rule="evenodd" clip-rule="evenodd" d="M127.862 100.08C128.062 100.095 128.098 100.169 127.971 100.302C127.884 100.251 127.848 100.177 127.862 100.08Z" fill="#F3BAB9"/>
<path fill-rule="evenodd" clip-rule="evenodd" d="M130.356 100.08C130.524 100.116 130.597 100.226 130.573 100.412C130.405 100.377 130.332 100.266 130.356 100.08Z" fill="#F5C2C1"/>
<path fill-rule="evenodd" clip-rule="evenodd" d="M125.796 100.635C126.01 100.684 126.046 100.795 125.905 100.967C125.809 100.876 125.772 100.765 125.796 100.635Z" fill="#F5C3C3"/>
<path fill-rule="evenodd" clip-rule="evenodd" d="M130.578 100.967C130.651 100.893 130.723 100.819 130.796 100.745C130.781 100.663 130.799 100.589 130.85 100.523C130.903 100.667 130.921 100.815 130.904 100.967C130.796 100.967 130.687 100.967 130.578 100.967Z" fill="#F2B8B7"/>
<path fill-rule="evenodd" clip-rule="evenodd" d="M129.163 101.077C129.377 101.127 129.413 101.238 129.272 101.41C129.176 101.318 129.14 101.207 129.163 101.077Z" fill="#F4BDBC"/>
<path fill-rule="evenodd" clip-rule="evenodd" d="M129.703 101.078C129.831 101.053 129.94 101.09 130.029 101.188C129.861 101.332 129.752 101.295 129.703 101.078Z" fill="#F5C2C1"/>
<path fill-rule="evenodd" clip-rule="evenodd" d="M125.792 101.41C126.15 101.391 126.187 101.465 125.901 101.632C125.814 101.581 125.778 101.507 125.792 101.41Z" fill="#F4BDBC"/>
<path fill-rule="evenodd" clip-rule="evenodd" d="M122.531 101.632C122.821 101.706 122.821 101.78 122.531 101.853C122.531 101.78 122.531 101.706 122.531 101.632Z" fill="#F8DBDB"/>
<path fill-rule="evenodd" clip-rule="evenodd" d="M119.164 101.853C119.292 101.829 119.4 101.866 119.49 101.964C119.321 102.108 119.213 102.071 119.164 101.853Z" fill="#F2AFAE"/>
<path fill-rule="evenodd" clip-rule="evenodd" d="M128.62 102.629C128.82 102.644 128.856 102.718 128.729 102.851C128.642 102.8 128.606 102.726 128.62 102.629Z" fill="#F8D8D8"/>
<path fill-rule="evenodd" clip-rule="evenodd" d="M132.097 103.737C132.296 103.753 132.333 103.827 132.205 103.959C132.119 103.908 132.083 103.834 132.097 103.737Z" fill="#F5C0BF"/>
<path fill-rule="evenodd" clip-rule="evenodd" d="M131.558 103.848C131.757 103.863 131.794 103.937 131.666 104.069C131.58 104.019 131.543 103.945 131.558 103.848Z" fill="#F6CCCC"/>
<path fill-rule="evenodd" clip-rule="evenodd" d="M129.273 104.18C129.519 104.261 129.537 104.372 129.328 104.512C129.14 104.418 129.122 104.307 129.273 104.18Z" fill="#F2ADAC"/>
<path fill-rule="evenodd" clip-rule="evenodd" d="M122.644 104.401C122.843 104.417 122.88 104.491 122.752 104.623C122.666 104.572 122.629 104.498 122.644 104.401Z" fill="#F9DFDF"/>
<path fill-rule="evenodd" clip-rule="evenodd" d="M126.339 104.734C126.539 104.75 126.575 104.824 126.448 104.956C126.361 104.905 126.325 104.831 126.339 104.734Z" fill="#EF9A98"/>
<path fill-rule="evenodd" clip-rule="evenodd" d="M123.406 105.178C123.692 105.361 123.656 105.416 123.297 105.344C123.357 105.302 123.394 105.246 123.406 105.178Z" fill="#F4BAB9"/>
<path fill-rule="evenodd" clip-rule="evenodd" d="M126.008 105.178C126.253 105.26 126.272 105.37 126.062 105.51C125.874 105.416 125.856 105.305 126.008 105.178Z" fill="#F5C3C3"/>
<path fill-rule="evenodd" clip-rule="evenodd" d="M121.558 106.507C121.757 106.522 121.794 106.596 121.666 106.728C121.58 106.678 121.543 106.604 121.558 106.507Z" fill="#F8DADA"/>
</g>
<g clip-path="url(#clip1_3799_102316)">
<path opacity="0.966" fill-rule="evenodd" clip-rule="evenodd" d="M71.857 49.835C72.0763 49.835 72.2953 49.835 72.5146 49.835C72.8497 57.2993 73.1785 57.2993 73.501 49.835C73.8298 49.835 74.1586 49.835 74.4874 49.835C75.3759 54.3144 74.0606 57.9458 70.5418 60.7292C68.9816 61.4043 67.4474 62.0645 65.9385 62.71C64.0061 62.8562 62.1428 63.2963 60.3488 64.0305C59.8773 64.5983 59.6034 65.2585 59.5268 66.0112C56.7761 64.6986 55.5703 65.5789 55.91 68.6523C56.6896 69.5456 57.5662 70.3159 58.5404 70.9632C58.6519 72.0789 58.8163 73.1793 59.0336 74.2644C58.669 74.2457 58.3402 74.1356 58.0472 73.9343C52.5854 70.597 48.9137 65.8652 47.0323 59.7388C46.7959 58.5354 46.6315 57.3249 46.5391 56.1074C55.1034 54.3703 63.5425 52.2794 71.857 49.835Z" fill="#D62929"/>
<path opacity="0.99" fill-rule="evenodd" clip-rule="evenodd" d="M70.5412 60.7295C70.5412 60.9496 70.6507 61.0596 70.87 61.0596C71.3944 60.7513 71.9422 62.0718 72.514 62.3801C73.3909 62.9304 74.2675 63.4805 75.1444 64.0308C75.4032 64.5604 75.8415 64.7805 76.4596 64.691C76.7408 65.0313 76.9601 65.4165 77.1173 65.8465C76.7174 66.8136 76.2791 67.749 75.802 68.6526C78.7439 74.939 76.771 78.0202 69.8836 77.8962C68.935 77.9973 68.058 77.8873 67.2531 77.566C67.5819 77.566 67.9107 77.566 68.2395 77.566C68.4184 76.186 68.6374 74.8104 68.8971 73.4394C68.7877 73.2744 68.6778 73.1093 68.5683 72.9442C64.6316 73.1978 63.4262 71.4371 64.9515 67.6622C65.5082 67.4218 66.0014 67.0916 66.4311 66.6718C66.56 65.3422 66.7244 64.0217 66.9243 62.7103C66.5955 62.7103 66.2667 62.7103 65.9379 62.7103C67.4468 62.0648 68.981 61.4046 70.5412 60.7295Z" fill="#F6A9A3"/>
<path fill-rule="evenodd" clip-rule="evenodd" d="M72.6572 63.1462C72.8694 63.4216 72.8379 63.6652 72.5624 63.8775C71.6804 65.6741 70.605 65.8444 69.3359 64.3887C70.6251 64.5335 71.7324 64.1193 72.6572 63.1462Z" fill="#6E5D83"/>
<path fill-rule="evenodd" clip-rule="evenodd" d="M65.9361 62.71C66.2649 62.71 66.5937 62.71 66.9225 62.71C66.7226 64.0214 66.5582 65.3419 66.4293 66.6715C65.9995 67.0913 65.5063 67.4215 64.9497 67.6619C63.4243 71.4368 64.6297 73.1975 68.5665 72.9439C68.676 73.109 68.7858 73.2741 68.8953 73.4391C68.6356 74.8101 68.4166 76.1857 68.2377 77.5657C67.9089 77.5657 67.5801 77.5657 67.2513 77.5657C64.101 77.469 61.3611 76.3685 59.0312 74.2644C58.8139 73.1793 58.6495 72.0789 58.538 70.9632C57.5637 70.3159 56.6871 69.5456 55.9076 68.6523C55.5679 65.5789 56.7736 64.6986 59.5244 66.0112C59.601 65.2585 59.8749 64.5983 60.3464 64.0305C62.1404 63.2963 64.0037 62.8562 65.9361 62.71Z" fill="#F6A9A3"/>
<path opacity="0.99" fill-rule="evenodd" clip-rule="evenodd" d="M58.0453 73.9346C58.3382 74.1359 58.667 74.2459 59.0317 74.2647C61.3616 76.3688 64.1015 77.4692 67.2518 77.566C68.0567 77.8872 68.9336 77.9973 69.8822 77.8961C68.1922 79.7002 66.7675 81.681 65.6078 83.8384C64.7374 85.5864 63.8605 87.347 62.9773 89.1205C62.0876 89.0957 61.2107 88.9858 60.3469 88.7903C59.1168 86.873 57.966 84.8922 56.8945 82.848C56.4703 81.4514 56.3059 80.0209 56.4013 78.5564C57.0806 77.0607 57.6284 75.52 58.0453 73.9346Z" fill="#F2A19C"/>
<path opacity="0.995" fill-rule="evenodd" clip-rule="evenodd" d="M56.4042 78.5557C56.3089 80.0202 56.4733 81.4507 56.8974 82.8473C57.969 84.8915 59.1198 86.8723 60.3499 88.7896C60.1306 88.7896 60.0211 88.8996 60.0211 89.1198C58.3218 89.8325 56.7873 90.8229 55.4178 92.0909C53.976 88.2043 52.1127 84.5729 49.8281 81.1967C51.9167 80.1293 54.1085 79.2489 56.4042 78.5557Z" fill="#EEEBEB"/>
<path opacity="0.992" fill-rule="evenodd" clip-rule="evenodd" d="M49.8254 81.1973C52.1099 84.5735 53.9733 88.2049 55.4151 92.0915C56.7846 90.8235 58.3191 89.8331 60.0183 89.1203C58.8912 90.4181 57.9597 91.8485 57.2235 93.412C57.114 93.3021 57.0042 93.1918 56.8947 93.0819C52.2622 98.0288 48.0426 102.816 44.2357 107.442C44.5484 107.679 44.603 107.954 44.4001 108.268C44.1641 107.954 43.8902 107.899 43.5781 108.103C42.7673 108.921 42.0002 109.746 41.2765 110.579C41.0572 109.148 40.8382 107.717 40.6189 106.287C40.6587 104.859 40.4394 103.484 39.9613 102.16C36.0271 100.515 32.1909 98.6993 28.4531 96.7133C31.8469 91.7066 35.6829 87.0296 39.9613 82.6828C43.057 81.0096 46.345 80.5144 49.8254 81.1973Z" fill="#D62B2B"/>
<path opacity="0.992" fill-rule="evenodd" clip-rule="evenodd" d="M65.607 83.8379C65.683 85.0901 66.1216 86.1904 66.9222 87.1392C66.5319 88.9268 66.0387 90.6877 65.4426 92.4212C64.5492 91.3615 63.7272 90.2609 62.9766 89.1199C63.8597 87.3465 64.7367 85.5859 65.607 83.8379Z" fill="#EEE8E8"/>
<path opacity="0.994" fill-rule="evenodd" clip-rule="evenodd" d="M69.8825 89.4502C70.8958 90.0682 71.7728 90.8384 72.5129 91.7611C72.5619 92.1084 72.5073 92.4385 72.3485 92.7515C63.119 103.061 53.9674 113.405 44.8933 123.784C44.3331 122.424 43.8948 120.994 43.5781 119.492C52.3464 109.478 61.1142 99.464 69.8825 89.4502Z" fill="#D62B2B"/>
<path opacity="0.996" fill-rule="evenodd" clip-rule="evenodd" d="M66.928 87.1396C68.0104 87.786 68.9968 88.5562 69.8872 89.4505C61.119 99.4643 52.3511 109.478 43.5829 119.492C42.5662 116.62 41.7988 113.649 41.2812 110.579C42.0049 109.746 42.772 108.921 43.5829 108.103C43.8949 107.899 44.1688 107.954 44.4049 108.268C44.6078 107.955 44.5532 107.68 44.2405 107.443C48.0474 102.816 52.2669 98.0289 56.8995 93.082C57.0089 93.1919 57.1188 93.3022 57.2283 93.4121C57.9645 91.8486 58.896 90.4182 60.0231 89.1204C60.0231 88.9002 60.1326 88.7903 60.3519 88.7903C61.2157 88.9857 62.0926 89.0957 62.9823 89.1204C63.733 90.2613 64.555 91.362 65.4484 92.4217C66.0445 90.6882 66.5377 88.9273 66.928 87.1396Z" fill="#D62B2B"/>
<path opacity="0.994" fill-rule="evenodd" clip-rule="evenodd" d="M72.518 91.7607C73.6067 92.1935 74.3741 92.9641 74.8196 94.0716C75.5637 96.3155 75.5088 98.4062 74.6552 100.344C73.1644 101.73 71.7943 103.216 70.5452 104.801C70.8464 104.893 71.0653 105.058 71.2028 105.296C69.23 105.076 67.2571 104.856 65.2843 104.636C65.1321 105.62 65.0226 106.611 64.9555 107.607C65.4352 107.585 65.8735 107.695 66.2707 107.937C59.1436 116.094 52.0194 124.237 44.8984 132.367C45.3367 129.505 45.3367 126.644 44.8984 123.783C53.9725 113.405 63.1241 103.061 72.3536 92.7511C72.5124 92.4382 72.567 92.108 72.518 91.7607Z" fill="#D62B2B"/>
<path opacity="0.995" fill-rule="evenodd" clip-rule="evenodd" d="M74.82 94.0723C75.3701 94.3506 75.7538 94.7906 75.9708 95.3928C76.5182 97.2623 77.0115 99.1328 77.4504 101.005C77.1226 100.995 76.9033 101.16 76.7928 101.5C76.4048 102.945 75.8567 104.32 75.1488 105.627C74.9055 107.449 74.5767 109.209 74.1624 110.909C74.0719 110.136 73.798 110.136 73.3404 110.909C63.9694 121.638 54.5985 132.367 45.2276 143.096C45.6343 143.173 45.9631 143.338 46.214 143.591C44.3286 143.413 42.5751 142.862 40.9531 141.941C41.1724 141.171 41.3914 140.4 41.6107 139.63C42.8868 137.288 43.9831 134.867 44.8988 132.367C52.0197 124.237 59.1439 116.094 66.2711 107.938C68.4606 108.088 70.6527 108.197 72.8471 108.268C72.8498 107.263 72.9593 106.272 73.176 105.297C72.5183 105.297 71.8607 105.297 71.2031 105.297C71.0657 105.058 70.8467 104.893 70.5455 104.801C71.7946 103.216 73.1648 101.731 74.6556 100.345C75.5091 98.4068 75.5641 96.3161 74.82 94.0723Z" fill="#D62B2B"/>
<path opacity="0.993" fill-rule="evenodd" clip-rule="evenodd" d="M28.4545 96.7129C32.1923 98.6989 36.0285 100.515 39.9627 102.16C40.4407 103.483 40.66 104.859 40.6203 106.287C40.4009 106.397 40.182 106.507 39.9627 106.617C35.7447 104.444 31.4704 102.354 27.1393 100.344C26.8481 100.072 26.7385 99.7418 26.8105 99.3539C27.3585 98.4735 27.9065 97.5933 28.4545 96.7129Z" fill="#D62B2B"/>
<path opacity="0.986" fill-rule="evenodd" clip-rule="evenodd" d="M26.8088 99.3545C26.7368 99.7424 26.8463 100.073 27.1376 100.345C31.4687 102.354 35.743 104.445 39.9609 106.617C39.4128 107.388 38.7552 108.048 37.9881 108.598C37.5367 108.65 37.098 108.595 36.6729 108.433C32.8684 106.743 29.142 104.873 25.4935 102.821C25.3075 102.492 25.0883 102.217 24.8359 101.996C25.3774 101.014 26.035 100.134 26.8088 99.3545Z" fill="#D62B2B"/>
<path opacity="0.989" fill-rule="evenodd" clip-rule="evenodd" d="M24.8346 101.995C25.0869 102.217 25.3061 102.492 25.4922 102.82C29.1406 104.872 32.867 106.743 36.6715 108.433C37.0967 108.594 37.5353 108.65 37.9868 108.598C35.4681 111.567 32.8376 114.428 30.0954 117.181C29.2251 117.944 28.3483 118.714 27.465 119.492C25.7019 118.278 23.9483 117.068 22.2041 115.861C20.8366 114.789 19.4118 113.798 17.9297 112.889C19.9815 109.099 22.2831 105.468 24.8346 101.995Z" fill="#D62B2B"/>
<path fill-rule="evenodd" clip-rule="evenodd" d="M71.2004 105.296C71.858 105.296 72.5156 105.296 73.1732 105.296C72.9566 106.272 72.8471 107.262 72.8444 108.267C70.65 108.197 68.4579 108.087 66.2683 107.937C65.8711 107.695 65.4329 107.585 64.9531 107.607C65.0202 106.611 65.1297 105.62 65.2819 104.636C67.2548 104.856 69.2276 105.076 71.2004 105.296Z" fill="#E5DFDF"/>
<path opacity="0.925" fill-rule="evenodd" clip-rule="evenodd" d="M121.835 108.598C121.835 109.368 121.835 110.138 121.835 110.909C120.843 112.238 119.528 113.173 117.889 113.715C115.09 114.479 112.241 114.864 109.34 114.87C108.193 114.114 107.536 113.014 107.367 111.569C108.134 111.569 108.902 111.569 109.669 111.569C112.183 112.482 114.594 112.207 116.903 110.743C118.395 109.617 120.039 108.902 121.835 108.598Z" fill="#F6A9A3"/>
<path opacity="0.984" fill-rule="evenodd" clip-rule="evenodd" d="M77.444 101.004C77.9224 108.198 78.7444 115.351 79.91 122.463C80.1303 123.345 80.514 124.116 81.0608 124.774C77.9921 126.864 74.923 128.955 71.8543 131.046C71.4949 130.436 71.0566 129.885 70.5391 129.395C71.877 123.27 73.0827 117.108 74.1559 110.908C74.5702 109.209 74.899 107.448 75.1423 105.626C75.8502 104.319 76.3984 102.944 76.7863 101.5C76.8968 101.159 77.1161 100.994 77.444 101.004Z" fill="#D62B2B"/>
<path opacity="0.985" fill-rule="evenodd" clip-rule="evenodd" d="M17.9297 112.89C19.4118 113.798 20.8366 114.789 22.2041 115.861C22.308 120.729 22.1984 125.571 21.8753 130.386C18.9423 128.378 16.3667 125.957 14.1484 123.124C14.2742 119.277 15.5346 115.866 17.9297 112.89Z" fill="#F6A9A3"/>
<path opacity="0.971" fill-rule="evenodd" clip-rule="evenodd" d="M109.672 111.569C108.905 111.569 108.137 111.569 107.37 111.569C107.539 113.014 108.196 114.115 109.343 114.87C104.068 113.605 100.068 115.255 97.3417 119.822C95.7227 123.184 94.0237 126.485 92.2452 129.726C91.9178 129.698 91.6439 129.808 91.4232 130.056C89.8496 126.787 88.37 123.486 86.9844 120.152C90.472 116.596 94.3082 113.46 98.4925 110.744C101.216 110.032 103.957 109.372 106.713 108.763C108.357 108.543 110.001 108.543 111.645 108.763C112.317 109.07 112.591 109.565 112.467 110.248C111.585 110.852 110.653 111.293 109.672 111.569Z" fill="#F6A9A3"/>
<path opacity="0.986" fill-rule="evenodd" clip-rule="evenodd" d="M22.2116 115.86C23.9558 117.068 25.7094 118.278 27.4725 119.492C28.3558 118.714 29.2326 117.944 30.1029 117.181C29.3004 118.375 28.4236 119.53 27.4725 120.647C27.8507 121.301 28.2891 121.906 28.7877 122.463C28.776 126.433 28.776 130.505 28.7877 134.678C26.2077 133.66 23.9061 132.229 21.8828 130.386C22.2059 125.57 22.3155 120.728 22.2116 115.86Z" fill="#F6A9A3"/>
<path opacity="0.991" fill-rule="evenodd" clip-rule="evenodd" d="M74.1613 110.909C73.0881 117.109 71.8824 123.271 70.5445 129.396C70.2131 131.698 70.1582 134.009 70.3801 136.329C70.9072 139.063 71.2906 141.814 71.5309 144.582C70.6892 143.579 69.5933 142.974 68.2429 142.766C65.0643 142.546 61.8861 142.546 58.7075 142.766C54.5643 143.37 50.3993 143.645 46.213 143.592C45.9621 143.338 45.6333 143.173 45.2266 143.096C54.5975 132.367 63.9684 121.638 73.3393 110.909C73.797 110.136 74.0709 110.136 74.1613 110.909Z" fill="#D62B2B"/>
<path opacity="0.974" fill-rule="evenodd" clip-rule="evenodd" d="M86.9844 120.152C88.37 123.486 89.8496 126.787 91.4232 130.056C91.6439 129.808 91.9178 129.698 92.2452 129.726C89.3199 133.565 85.5935 136.371 81.0659 138.144C79.6589 138.555 78.2342 138.665 76.7914 138.474C76.2042 138.215 75.711 137.83 75.3118 137.319C73.9907 135.327 72.8399 133.236 71.8594 131.047C74.9281 128.956 77.9972 126.865 81.0659 124.774C82.9509 123.099 84.9238 121.559 86.9844 120.152Z" fill="#F6A9A3"/>
<path opacity="0.968" fill-rule="evenodd" clip-rule="evenodd" d="M28.785 122.463C30.6367 124.156 32.4451 125.917 34.2103 127.745C36.0404 130.683 38.1227 133.435 40.4576 135.998C40.9814 137.207 41.3648 138.417 41.6084 139.63C41.3891 140.4 41.1701 141.17 40.9508 141.94C40.2465 143.795 39.3699 145.555 38.3204 147.223C37.5105 147.87 36.7431 148.585 36.0187 149.368C35.3016 149.976 34.4796 150.361 33.5527 150.524C31.5658 149.913 29.9218 148.813 28.6206 147.223C28.4595 146.796 28.4047 146.355 28.4562 145.902C30.2414 146.089 31.995 146.364 33.7171 146.727C35.0389 144.505 35.8063 142.084 36.0187 139.464C36.0388 138.9 35.8195 138.46 35.3611 138.144C33.2121 136.9 31.0201 135.745 28.785 134.678C28.7733 130.505 28.7733 126.433 28.785 122.463Z" fill="#F6A9A3"/>
<path opacity="0.993" fill-rule="evenodd" clip-rule="evenodd" d="M40.9521 141.94C42.5741 142.862 44.3276 143.412 46.213 143.591C50.3993 143.644 54.5643 143.369 58.7075 142.766C61.8861 142.546 65.0643 142.546 68.2429 142.766C69.5933 142.973 70.6892 143.579 71.5309 144.581C71.4099 152.883 70.6977 161.136 69.3937 169.341C66.322 191.696 63.1438 214.034 59.8584 236.357C59.3231 239.325 59.2682 242.296 59.694 245.271C58.8848 245.611 58.0082 245.831 57.0635 245.931C54.6379 246.165 52.2268 246.495 49.8298 246.921C46.2932 247.45 42.7858 247.34 39.3081 246.591C38.9931 246.442 38.7189 246.222 38.4861 245.931C38.4032 241.624 38.1293 237.332 37.6641 233.056C38.3246 228.42 39.0921 223.799 39.9657 219.19C39.4169 215.887 38.8688 212.586 38.3217 209.287C39.1447 206.424 40.2406 203.673 41.6097 201.033C45.5905 194.8 48.8786 188.198 51.4738 181.226C54.2595 175.596 56.6706 169.764 58.7075 163.729C52.0095 158.716 45.1595 153.874 38.1573 149.203C38.0659 149.506 37.9015 149.726 37.6641 149.864C37.8163 148.965 38.0353 148.085 38.3217 147.222C39.3712 145.555 40.2478 143.795 40.9521 141.94Z" fill="#23286B"/>
<path opacity="0.998" fill-rule="evenodd" clip-rule="evenodd" d="M51.4691 181.226C45.3461 177.269 39.3178 173.142 33.3849 168.846C33.0731 168.686 32.7443 168.632 32.3984 168.681C34.1079 162.361 35.8617 156.089 37.6593 149.863C37.8967 149.725 38.0611 149.506 38.1525 149.203C45.1547 153.874 52.0047 158.716 58.7028 163.729C56.6658 169.764 54.2547 175.596 51.4691 181.226Z" fill="#212667"/>
<path opacity="0.995" fill-rule="evenodd" clip-rule="evenodd" d="M32.4042 168.682C32.7501 168.632 33.0789 168.687 33.3906 168.847C39.3236 173.143 45.3519 177.269 51.4749 181.226C48.8796 188.198 45.5916 194.801 41.6107 201.034C41.6071 200.533 41.3881 200.148 40.9531 199.879C35.9491 196.434 30.9075 193.077 25.8281 189.81C27.6196 184.377 29.2088 178.875 30.5958 173.303C31.0465 171.665 31.6494 170.124 32.4042 168.682Z" fill="#212667"/>
<path opacity="0.993" fill-rule="evenodd" clip-rule="evenodd" d="M25.8224 189.81C30.9017 193.077 35.9433 196.434 40.9473 199.878C41.3824 200.148 41.6013 200.533 41.605 201.034C40.2358 203.673 39.1399 206.425 38.3169 209.287C37.4453 211.134 36.5683 213.004 35.6865 214.899C31.1668 212.241 26.7827 209.325 22.5343 206.151C20.7351 204.899 18.9815 203.854 17.2734 203.015C20.2913 198.713 23.1409 194.312 25.8224 189.81Z" fill="#212667"/>
<path opacity="0.995" fill-rule="evenodd" clip-rule="evenodd" d="M17.2762 203.015C18.9842 203.854 20.7378 204.899 22.537 206.151C26.7854 209.325 31.1695 212.241 35.6892 214.899C30.9301 225.116 25.998 235.24 20.893 245.271C20.5226 245.476 20.1938 245.751 19.9066 246.096C17.9285 246.261 15.9556 246.206 13.9881 245.931C10.2857 245.322 6.55924 245.157 2.80876 245.436C2.47123 245.605 2.14242 245.771 1.82235 245.931C1.52937 246.133 1.20057 246.243 0.835938 246.261C0.835938 244.611 0.835938 242.96 0.835938 241.31C1.41219 238.636 2.2342 235.995 3.30197 233.386C7.01966 225.599 10.4173 217.676 13.4949 209.617C14.5149 207.234 15.7753 205.033 17.2762 203.015Z" fill="#23286B"/>
<path opacity="0.994" fill-rule="evenodd" clip-rule="evenodd" d="M59.6919 245.27C60.018 245.214 60.237 245.324 60.3495 245.6C60.3495 248.902 60.3495 252.203 60.3495 255.504C59.0343 255.504 57.719 255.504 56.4038 255.504C56.0842 252.451 55.9747 249.37 56.075 246.261C56.4995 246.339 56.8283 246.229 57.0614 245.931C58.0061 245.831 58.8827 245.611 59.6919 245.27Z" fill="#76A7ED"/>
<path opacity="0.981" fill-rule="evenodd" clip-rule="evenodd" d="M13.9852 245.931C10.1973 247.81 8.22445 250.891 8.06669 255.175C10.9163 255.175 13.766 255.175 16.6156 255.175C11.7402 255.558 6.80813 255.613 1.81941 255.34C1.47686 252.225 1.47686 249.089 1.81941 245.931C2.13948 245.771 2.46829 245.605 2.80582 245.436C6.5563 245.157 10.2827 245.322 13.9852 245.931Z" fill="#76A7ED"/>
<path opacity="0.994" fill-rule="evenodd" clip-rule="evenodd" d="M20.8937 245.271C25.6566 246.86 28.1774 250.161 28.4562 255.174C24.5105 255.174 20.5649 255.174 16.6192 255.174C13.7696 255.174 10.92 255.174 8.07031 255.174C8.22807 250.891 10.2009 247.81 13.9888 245.931C15.9563 246.205 17.9291 246.261 19.9073 246.096C20.1944 245.751 20.5233 245.476 20.8937 245.271Z" fill="#76A7ED"/>
<path opacity="0.976" fill-rule="evenodd" clip-rule="evenodd" d="M57.0621 245.931C56.8289 246.229 56.5001 246.339 56.0756 246.261C55.9754 249.37 56.0848 252.451 56.4044 255.504C55.98 255.426 55.6512 255.536 55.418 255.835C53.3357 255.835 51.2531 255.835 49.1707 255.835C48.9751 252.776 49.1944 249.805 49.8284 246.921C52.2253 246.495 54.6365 246.164 57.0621 245.931Z" fill="#76A7ED"/>
<path opacity="0.977" fill-rule="evenodd" clip-rule="evenodd" d="M39.3091 246.592C42.7868 247.341 46.2942 247.451 49.8308 246.922C49.1969 249.806 48.9776 252.777 49.1732 255.835C46.5428 255.835 43.9123 255.835 41.2819 255.835C40.7016 255.518 40.044 255.408 39.3091 255.505C39.1782 252.55 39.1782 249.578 39.3091 246.592Z" fill="#76A7ED"/>
<path opacity="0.987" fill-rule="evenodd" clip-rule="evenodd" d="M60.3516 245.601C65.3458 247.309 69.6751 250.06 73.3393 253.854C73.7102 254.463 73.8746 255.123 73.8325 255.835C70.1062 255.835 66.3795 255.835 62.6532 255.835C60.3516 255.835 62.6532 255.835 60.3516 255.835C60.3516 252.533 60.3516 248.902 60.3516 245.601Z" fill="#76A7ED"/>
</g>
<g clip-path="url(#clip2_3799_102316)">
<path opacity="0.99" fill-rule="evenodd" clip-rule="evenodd" d="M208.912 70.8623C211.108 70.8623 213.303 70.8623 215.499 70.8623C220.063 71.8119 223.036 74.5616 224.419 79.1112C225.708 84.2242 227.401 89.1735 229.496 93.9593C228.922 93.9424 228.51 93.6674 228.261 93.1344C227.842 92.3324 227.476 91.5075 227.163 90.6597C227.137 91.6769 227.274 92.6851 227.575 93.6843C227.484 93.8676 227.392 94.0509 227.301 94.2342C226.723 94.5146 226.174 94.7895 225.654 95.0591C223.075 95.6147 220.605 96.4396 218.244 97.5338C216.294 97.9709 214.373 98.5209 212.48 99.1836C212.211 98.4724 212.12 97.7392 212.206 96.9839C212.216 94.8189 212.033 92.7108 211.657 90.6597C211.514 87.5303 211.24 84.4141 210.833 81.3109C210.01 81.3109 209.186 81.3109 208.363 81.3109C206.517 81.3109 207.498 81.3109 205.344 81.3109C204.429 81.3109 203.514 81.3109 202.6 81.3109C201.887 81.1005 201.155 81.0088 200.404 81.036C200.235 81.0055 200.097 80.9139 199.992 80.761C200.208 77.261 201.809 74.5571 204.795 72.6496C206.192 72.0398 207.564 71.444 208.912 70.8623Z" fill="#E94A47"/>
<path fill-rule="evenodd" clip-rule="evenodd" d="M202.6 81.3115C203.514 81.3115 207.449 81.3116 208.363 81.3116C209.187 81.3116 210.01 81.3115 210.833 81.3115C211.24 84.4147 211.514 87.5309 211.657 90.6603C211.657 91.3019 211.657 91.9435 211.657 92.585C210.247 92.6421 208.875 92.4588 207.54 92.0351C206.701 91.6105 205.969 91.0147 205.344 90.2478C202.916 90.3369 201.91 89.1912 202.325 86.8108C202.508 86.8108 202.6 86.7192 202.6 86.5358C202.983 85.6584 203.257 84.7419 203.423 83.7862C203.225 82.9324 202.951 82.1075 202.6 81.3115Z" fill="#F6A9A3"/>
<path fill-rule="evenodd" clip-rule="evenodd" d="M207 83.5262C207 83.7016 206.846 83.7893 206.538 83.7893C204.949 84.2358 204.103 83.9727 204 83C204.826 83.4549 205.826 83.6303 207 83.5262Z" fill="#6E5D83"/>
<path opacity="0.977" fill-rule="evenodd" clip-rule="evenodd" d="M211.656 90.6602C212.032 92.7113 212.216 94.8194 212.205 96.9843C210.727 96.5646 209.355 95.9231 208.088 95.0596C207.905 94.7846 207.722 94.5096 207.539 94.2347C207.539 93.5014 207.539 92.7682 207.539 92.035C208.874 92.4586 210.246 92.642 211.656 92.5849C211.656 91.9433 211.656 91.3017 211.656 90.6602Z" fill="#F19F9A"/>
<path opacity="0.999" fill-rule="evenodd" clip-rule="evenodd" d="M207.537 94.2344C207.72 94.5093 207.903 94.7843 208.086 95.0593C209.15 97.8346 210.294 100.584 211.517 103.308C212.318 105.858 213.05 108.425 213.712 111.007C214.864 106.402 216.373 101.91 218.241 97.5339C220.603 96.4397 223.073 95.6148 225.651 95.0593C226.07 95.0392 226.345 95.2225 226.475 95.6092C225.934 96.1995 225.431 96.841 224.965 97.5339C223.41 101.017 221.855 104.5 220.299 107.983C220.116 108.441 220.116 108.899 220.299 109.357C220.624 110.009 220.945 110.651 221.26 111.282C219.493 114.914 217.801 118.58 216.182 122.281C215.485 126.367 214.708 130.4 213.85 134.379C213.85 134.562 213.85 134.746 213.85 134.929C213.47 126.911 211.091 119.487 206.714 112.657C207.316 111.817 207.773 110.9 208.086 109.907C206.485 106.333 204.884 102.758 203.283 99.1837C202.918 98.4974 202.415 97.9474 201.773 97.5339C202.006 97.0959 202.372 96.7751 202.871 96.5716C204.402 95.7207 205.957 94.9417 207.537 94.2344Z" fill="#79A9EF"/>
<path fill-rule="evenodd" clip-rule="evenodd" d="M208.086 95.0596C209.353 95.9231 210.725 96.5646 212.203 96.9843C212.117 97.7396 212.208 98.4728 212.477 99.184C214.37 98.5214 216.291 97.9713 218.241 97.5342C216.373 101.911 214.864 106.402 213.712 111.007C213.05 108.425 212.318 105.859 211.517 103.308C210.294 100.584 209.15 97.8349 208.086 95.0596Z" fill="#ECECEC"/>
<path opacity="0.999" fill-rule="evenodd" clip-rule="evenodd" d="M226.477 95.6094C227.047 95.7388 227.596 95.9221 228.123 96.1593C227.83 96.4163 227.464 96.5079 227.025 96.4343C226.98 99.8268 227.025 103.218 227.163 106.608C227.511 108.04 228.015 109.414 228.672 110.732C224.16 119.683 219.586 128.573 214.949 137.404C214.575 136.534 214.346 135.618 214.263 134.654C214.158 134.501 214.021 134.41 213.852 134.379C214.71 130.4 215.487 126.367 216.184 122.281C217.803 118.58 219.495 114.914 221.262 111.282C220.947 110.651 220.627 110.009 220.301 109.358C220.118 108.899 220.118 108.441 220.301 107.983C221.857 104.5 223.412 101.017 224.967 97.5341C225.433 96.8412 225.936 96.1996 226.477 95.6094Z" fill="#79A9EF"/>
<path opacity="0.998" fill-rule="evenodd" clip-rule="evenodd" d="M228.127 96.1592C229.006 96.3327 229.829 96.6076 230.597 96.9841C230.477 96.9661 230.385 97.0119 230.323 97.1216C230.544 98.5192 230.681 99.9399 230.734 101.383C230.917 106.424 230.917 111.466 230.734 116.507C225.993 125.915 221.19 135.264 216.325 144.553C215.799 142.192 215.342 139.809 214.953 137.404C219.589 128.573 224.164 119.683 228.676 110.732C228.018 109.414 227.515 108.04 227.166 106.608C227.029 103.218 226.983 99.8266 227.029 96.4341C227.468 96.5078 227.834 96.4161 228.127 96.1592Z" fill="#79A9EF"/>
<path opacity="0.999" fill-rule="evenodd" clip-rule="evenodd" d="M230.592 96.9843C231.55 97.2344 232.374 97.6927 233.062 98.3591C233.434 119.628 233.709 140.983 233.886 162.426C233.062 162.426 232.239 162.426 231.415 162.426C231.385 149.96 231.248 137.495 231.004 125.031C230.198 127.039 229.421 129.055 228.671 131.08C225.023 137.649 221.455 144.431 217.967 151.427C217.467 149.332 216.918 147.224 216.32 145.103C216.32 144.92 216.32 144.736 216.32 144.553C221.185 135.264 225.988 125.915 230.729 116.507C230.912 111.466 230.912 106.425 230.729 101.384C230.676 99.9401 230.539 98.5194 230.318 97.1218C230.38 97.0121 230.472 96.9663 230.592 96.9843Z" fill="#79A9EF"/>
<path opacity="0.997" fill-rule="evenodd" clip-rule="evenodd" d="M201.779 97.5342C202.42 97.9477 202.924 98.4977 203.289 99.184C204.89 102.758 206.491 106.333 208.092 109.908C207.779 110.901 207.322 111.817 206.72 112.657C211.097 119.488 213.476 126.912 213.855 134.929C213.696 135.903 213.422 136.819 213.032 137.679C211.908 136.07 210.994 134.328 210.287 132.455C212.609 132.197 213.066 131.143 211.66 129.293C210.235 129.023 209.504 129.619 209.464 131.08C205.131 122.581 200.785 114.057 196.427 105.508C196.291 104.781 196.245 104.047 196.29 103.308C196.806 100.134 198.635 98.2093 201.779 97.5342Z" fill="#79A9EF"/>
<path opacity="0.999" fill-rule="evenodd" clip-rule="evenodd" d="M233.062 98.3594C233.895 98.7762 234.627 99.3261 235.258 100.009C235.469 102.104 235.606 104.212 235.67 106.333C235.932 125.031 236.161 143.728 236.356 162.426C235.533 162.426 234.709 162.426 233.886 162.426C233.709 140.984 233.434 119.628 233.062 98.3594Z" fill="#79A9EF"/>
<path opacity="0.994" fill-rule="evenodd" clip-rule="evenodd" d="M196.009 103.858C195.963 107.434 196.009 111.009 196.146 114.582C201.318 124.763 206.488 134.937 211.653 145.103C211.104 147.576 210.556 150.051 210.006 152.527C209.837 152.558 209.7 152.649 209.594 152.802C205.02 143.82 200.446 134.838 195.872 125.856C195.634 128.16 195.222 130.451 194.637 132.73C192.919 136.083 191.41 139.566 190.108 143.178C190.005 143.575 189.776 143.85 189.422 144.003C187.539 145.267 185.618 146.458 183.658 147.578C183.475 141.437 183.292 135.296 183.109 129.155C185.195 127.758 187.253 126.291 189.285 124.756C191.052 119.416 192.607 114.008 193.95 108.533C194.457 106.867 195.143 105.309 196.009 103.858Z" fill="#79A9EF"/>
<path opacity="0.977" fill-rule="evenodd" clip-rule="evenodd" d="M235.258 100.009C239.906 104.187 242.696 109.411 243.629 115.682C244.904 122.832 244.904 129.981 243.629 137.129C242.83 140.949 241.96 144.753 241.021 148.54C242.725 153.201 244.371 157.875 245.962 162.563C242.853 162.701 239.742 162.746 236.63 162.701C236.539 162.701 236.447 162.701 236.356 162.701C236.356 162.609 236.356 162.517 236.356 162.426C236.16 143.728 235.932 125.03 235.669 106.333C235.606 104.212 235.469 102.104 235.258 100.009Z" fill="#79A9EF"/>
<path fill-rule="evenodd" clip-rule="evenodd" d="M196.284 103.309C196.239 104.047 196.285 104.781 196.421 105.508C200.779 114.057 205.125 122.581 209.458 131.08C209.616 131.605 209.89 132.064 210.281 132.455C210.987 134.329 211.902 136.07 213.026 137.679C212.589 140.143 212.223 142.617 211.928 145.103C211.836 145.103 211.745 145.103 211.653 145.103C206.488 134.937 201.319 124.763 196.147 114.582C196.009 111.009 195.964 107.434 196.009 103.859C195.962 103.586 196.054 103.403 196.284 103.309Z" fill="#79A9EF"/>
<path fill-rule="evenodd" clip-rule="evenodd" d="M233.886 162.425C234.709 162.425 235.533 162.425 236.356 162.425C236.356 162.517 236.356 162.609 236.356 162.7C233.337 162.7 230.318 162.7 227.299 162.7C227.31 162.355 227.172 162.08 226.887 161.875C226.704 155.551 226.704 149.227 226.887 142.903C227.214 138.917 227.809 134.976 228.671 131.079C229.421 129.055 230.199 127.039 231.004 125.03C231.248 137.494 231.386 149.959 231.416 162.425C232.239 162.425 233.063 162.425 233.886 162.425Z" fill="#79A9EF"/>
<path fill-rule="evenodd" clip-rule="evenodd" d="M210.01 152.527C209.51 154.624 209.052 156.732 208.638 158.851C208.469 158.882 208.331 158.973 208.226 159.126C203.76 150.267 199.231 141.468 194.641 132.73C195.226 130.451 195.638 128.16 195.876 125.855C200.45 134.838 205.024 143.82 209.599 152.802C209.704 152.649 209.841 152.557 210.01 152.527Z" fill="#79A9EF"/>
<path opacity="0.992" fill-rule="evenodd" clip-rule="evenodd" d="M183.113 129.155C183.296 135.296 183.479 141.437 183.662 147.578C181.897 148.839 180.158 150.168 178.448 151.565C177.499 151.874 176.721 151.645 176.115 150.877C175.636 149.575 175.133 148.292 174.605 147.028C173.54 144.253 172.26 141.595 170.763 139.054C170.697 138.513 170.789 138.009 171.037 137.542C175.023 134.676 179.048 131.88 183.113 129.155Z" fill="#79A9EF"/>
<path opacity="0.997" fill-rule="evenodd" clip-rule="evenodd" d="M194.637 132.729C199.227 141.468 203.756 150.267 208.222 159.126C208.327 158.973 208.464 158.882 208.634 158.851C208.654 160.814 207.739 162.097 205.889 162.701C204.168 162.437 202.429 162.345 200.675 162.426C198.845 162.426 197.015 162.426 195.185 162.426C194.394 162.341 193.662 162.433 192.99 162.701C189.694 162.688 186.4 162.597 183.109 162.426C185.051 156.223 187.155 150.082 189.422 144.003C189.776 143.85 190.005 143.575 190.108 143.178C191.41 139.566 192.919 136.083 194.637 132.729Z" fill="#79A9EF"/>
<path fill-rule="evenodd" clip-rule="evenodd" d="M213.851 134.379C214.02 134.409 214.157 134.501 214.263 134.654C214.346 135.617 214.575 136.534 214.949 137.404C215.337 139.809 215.795 142.191 216.321 144.553C216.321 144.736 216.321 144.919 216.321 145.102C215.406 145.102 214.491 145.102 213.576 145.102C213.028 145.102 212.479 145.102 211.93 145.102C212.225 142.617 212.591 140.142 213.028 137.678C213.417 136.819 213.692 135.902 213.851 134.929C213.851 134.745 213.851 134.562 213.851 134.379Z" fill="#EAEBEE"/>
<path fill-rule="evenodd" clip-rule="evenodd" d="M228.673 131.08C227.81 134.976 227.215 138.917 226.889 142.904C226.706 149.228 226.706 155.552 226.889 161.876C227.174 162.081 227.311 162.356 227.3 162.701C227.3 162.884 227.209 162.976 227.026 162.976C225.062 162.748 223.049 162.61 220.988 162.563C220.736 162.461 220.507 162.323 220.302 162.151C219.435 158.591 218.658 155.016 217.969 151.427C221.457 144.431 225.025 137.649 228.673 131.08Z" fill="#79A9EF"/>
<path opacity="0.975" fill-rule="evenodd" clip-rule="evenodd" d="M170.762 139.054C172.259 141.595 173.539 144.253 174.604 147.028C173.267 148.325 172.124 149.792 171.174 151.427C169.93 152.986 168.42 154.177 166.645 155.002C166.818 151.619 167.001 148.228 167.194 144.828C168.73 145.495 170.285 145.541 171.86 144.965C171.985 144.852 172.077 144.714 172.134 144.553C169.176 143.721 166.249 142.897 163.352 142.078C163.505 141.724 163.779 141.495 164.175 141.391C166.38 140.61 168.576 139.831 170.762 139.054Z" fill="#F6A9A3"/>
<path opacity="0.994" fill-rule="evenodd" clip-rule="evenodd" d="M211.653 145.103C211.745 145.103 211.836 145.103 211.928 145.103C212.477 145.103 213.025 145.103 213.574 145.103C213.574 160.592 213.574 176.082 213.574 191.571C210.604 207.5 207.722 223.448 204.929 239.415C204.44 243.087 203.845 246.661 203.145 250.139C199.943 250.139 196.741 250.139 193.539 250.139C194.023 249.874 194.572 249.783 195.186 249.864C197.016 249.864 198.845 249.864 200.675 249.864C200.857 221.988 200.674 194.171 200.126 166.412C200.435 166.182 200.618 165.861 200.675 165.45C200.515 164.464 200.515 163.456 200.675 162.425C202.43 162.345 204.168 162.436 205.89 162.7C207.739 162.096 208.654 160.813 208.634 158.851C209.049 156.732 209.506 154.624 210.006 152.527C210.556 150.051 211.105 147.576 211.653 145.103Z" fill="#23286B"/>
<path opacity="0.967" fill-rule="evenodd" clip-rule="evenodd" d="M163.349 142.078C166.246 142.896 169.173 143.721 172.131 144.553C172.074 144.714 171.982 144.851 171.857 144.965C170.282 145.541 168.727 145.495 167.191 144.828C166.997 148.227 166.814 151.619 166.642 155.001C165.297 155.858 163.834 156.408 162.251 156.651C160.996 156.632 160.31 155.99 160.192 154.726C159.56 155.395 158.782 155.67 157.859 155.551C157.859 154.635 157.859 153.718 157.859 152.802C159.183 149.956 161.104 147.527 163.623 145.515C162.861 145.618 162.129 145.893 161.427 146.34C159.524 146.735 159.021 146.048 159.918 144.278C160.887 143.259 162.031 142.525 163.349 142.078Z" fill="#F6A9A3"/>
<path opacity="0.991" fill-rule="evenodd" clip-rule="evenodd" d="M195.191 162.426C195.191 191.572 195.191 220.718 195.191 249.864C194.578 249.783 194.029 249.875 193.545 250.139C190.617 250.139 187.69 250.139 184.762 250.139C183.378 240.617 184.888 231.543 189.29 222.918C190.159 219.951 190.434 216.927 190.114 213.844C189.875 211.37 189.646 208.895 189.428 206.42C189.461 205.216 189.598 204.025 189.839 202.845C191.234 198.725 192.194 194.509 192.721 190.197C192.036 181.022 192.127 171.856 192.996 162.701C193.667 162.433 194.399 162.342 195.191 162.426Z" fill="#23286B"/>
<path fill-rule="evenodd" clip-rule="evenodd" d="M195.188 162.426C197.017 162.426 198.847 162.426 200.677 162.426C200.517 163.457 200.517 164.465 200.677 165.45C200.619 165.861 200.436 166.182 200.128 166.413C200.676 194.172 200.859 221.989 200.677 249.864C198.847 249.864 197.017 249.864 195.188 249.864C195.188 220.718 195.188 191.572 195.188 162.426Z" fill="#23286B"/>
<path opacity="0.994" fill-rule="evenodd" clip-rule="evenodd" d="M213.578 145.103C214.493 145.103 215.408 145.103 216.323 145.103C216.92 147.223 217.469 149.331 217.969 151.427C218.659 155.016 219.436 158.59 220.302 162.15C220.508 162.322 220.737 162.46 220.988 162.563C223.05 162.61 225.063 162.747 227.026 162.975C225.662 164.295 224.244 165.579 222.772 166.825C222.133 167.64 221.996 168.511 222.361 169.437C223.829 169.483 225.11 168.979 226.203 167.925C226.477 195.283 226.569 222.688 226.478 250.139C226.386 250.139 226.295 250.139 226.203 250.139C224.149 237.332 221.999 224.501 219.753 211.644C218.212 203.282 216.566 194.942 214.813 186.622C214.479 188.327 214.067 189.977 213.578 191.571C213.578 176.082 213.578 160.592 213.578 145.103Z" fill="#23286B"/>
<path opacity="0.995" fill-rule="evenodd" clip-rule="evenodd" d="M236.358 162.7C236.449 162.7 236.541 162.7 236.632 162.7C237.032 167.868 237.214 173.046 237.181 178.236C237.093 182.867 237.047 187.495 237.044 192.121C237.733 195.842 238.648 199.509 239.789 203.12C240.206 206.424 240.114 209.723 239.514 213.019C239.083 216.683 239.449 220.258 240.612 223.742C242.87 227.963 244.243 232.454 244.729 237.215C244.941 241.53 244.895 245.838 244.592 250.139C238.554 250.139 232.516 250.139 226.478 250.139C226.569 222.688 226.477 195.283 226.203 167.925C226.729 166.887 227.552 166.383 228.673 166.412C230.502 168.933 232.254 169.579 235 171C235.391 167.802 236.2 165.918 236.358 162.7Z" fill="#23286B"/>
<path fill-rule="evenodd" clip-rule="evenodd" d="M227.303 162.7C230.322 162.7 233.341 162.7 236.36 162.7C236.226 165.439 236.007 168.171 235.704 170.895C235.627 171.588 234.879 171.982 234.284 171.618C232.088 170.274 230.218 168.539 228.676 166.412C227.554 166.383 226.731 166.887 226.205 167.925C225.112 168.979 223.832 169.483 222.363 169.437C221.998 168.511 222.135 167.64 222.775 166.825C224.246 165.579 225.664 164.295 227.029 162.975C227.212 162.975 227.303 162.884 227.303 162.7Z" fill="#F6A9A3"/>
<path opacity="0.988" fill-rule="evenodd" clip-rule="evenodd" d="M184.756 250.139C187.684 250.139 190.611 250.139 193.539 250.139C196.741 250.139 199.943 250.139 203.145 250.139C204.826 253.543 206.016 257.117 206.713 260.862C194.637 260.862 182.56 260.862 170.484 260.862C171.25 258.643 172.531 256.764 174.327 255.226C176.994 253.876 179.739 252.684 182.56 251.651C183.358 251.209 184.09 250.705 184.756 250.139Z" fill="#E94946"/>
<path opacity="0.987" fill-rule="evenodd" clip-rule="evenodd" d="M226.2 250.139C226.291 250.139 226.383 250.139 226.474 250.139C232.512 250.139 238.55 250.139 244.588 250.139C247.329 251.831 250.256 253.16 253.371 254.126C255.816 255.43 257.646 257.309 258.86 259.762C258.86 260.129 258.86 260.496 258.86 260.862C246.875 260.862 234.891 260.862 222.906 260.862C223.563 257.147 224.661 253.573 226.2 250.139Z" fill="#E84946"/>
<ellipse cx="211.001" cy="130.583" rx="2.08678" ry="2.08333" fill="white"/>
<ellipse cx="211.001" cy="123.916" rx="2.08678" ry="2.08333" fill="white"/>
<ellipse cx="211.001" cy="117.25" rx="2.08678" ry="2.08333" fill="white"/>
</g>
</g>
<defs>
<clipPath id="clip0_3799_102316">
<rect width="40" height="80" fill="white" transform="translate(94 29)"/>
</clipPath>
<clipPath id="clip1_3799_102316">
<rect width="121" height="206" fill="white" transform="translate(1 50)"/>
</clipPath>
<clipPath id="clip2_3799_102316">
<rect width="101" height="190" fill="white" transform="translate(158 71)"/>
</clipPath>
</defs>
</svg>
