<svg width="270" height="270" viewBox="0 0 270 270" fill="none" xmlns="http://www.w3.org/2000/svg">
<g opacity="0.9">
<path opacity="0.971" fill-rule="evenodd" clip-rule="evenodd" d="M107.487 51.7253C108.14 50.0511 108.262 48.3392 107.854 46.5894C105.128 48.4795 102.071 49.2132 98.6827 48.7905C92.3825 46.9273 88.2246 49.1284 86.2099 55.3938C85.7286 55.9645 85.1174 56.4535 84.3757 56.8612C82.4057 55.5695 80.3271 54.5913 78.1393 53.9264C73.7254 49.6617 70.4234 44.7704 68.2344 39.2525C69.1251 38.1161 70.2256 37.2601 71.536 36.6845C74.5581 36.5795 77.4929 36.0903 80.3404 35.2172C90.3333 25.4551 99.7495 26.0665 108.588 37.0514C112.177 42.3045 111.81 47.1958 107.487 51.7253Z" fill="#E94A47"/>
<path opacity="0.895" fill-rule="evenodd" clip-rule="evenodd" d="M239.555 36.3179C242.734 36.3179 245.914 36.3179 249.093 36.3179C249.093 39.4972 249.093 42.6766 249.093 45.8559C246.06 46.5785 242.88 46.8231 239.555 46.5896C239.555 43.4103 239.555 40.2309 239.555 37.0516C239.555 36.807 239.555 36.5624 239.555 36.3179Z" fill="#3482EE"/>
<path opacity="0.978" fill-rule="evenodd" clip-rule="evenodd" d="M107.489 51.7257C107.447 52.5394 107.203 53.2731 106.755 53.9268C105.125 54.1631 103.779 53.674 102.72 52.4594C102.267 53.1558 102.389 53.7672 103.087 54.2936C104.285 54.6557 105.509 54.778 106.755 54.6605C106.228 56.3214 105.983 58.0334 106.021 59.7964C102.134 59.9638 98.3425 60.6975 94.6491 61.9975C91.8501 61.5104 89.2821 60.5322 86.9453 59.0627C87.42 51.7417 91.3328 48.3178 98.6844 48.7909C102.073 49.2136 105.13 48.4799 107.856 46.5898C108.264 48.3396 108.142 50.0515 107.489 51.7257Z" fill="#FEBDB5"/>
<path fill-rule="evenodd" clip-rule="evenodd" d="M98.6854 48.7905C91.3337 48.3174 87.4209 51.7413 86.9462 59.0623C86.2485 58.0214 86.0042 56.7986 86.2125 55.3938C88.2273 49.1284 92.3851 46.9273 98.6854 48.7905Z" fill="#F4827C"/>
<path opacity="0.992" fill-rule="evenodd" clip-rule="evenodd" d="M77.4051 54.6602C77.2576 58.7774 78.9693 61.7122 82.5409 63.4646C77.6098 69.2553 73.0856 75.3695 68.9676 81.8069C66.9892 85.5158 65.6441 89.4286 64.9322 93.5461C64.9435 95.1118 65.3103 96.5792 66.0328 97.9483C69.7156 102.732 73.9956 106.889 78.8724 110.421C78.6061 110.922 78.3618 111.412 78.1387 111.888C74.7065 115.321 71.5274 118.99 68.6007 122.894C66.6442 125.584 64.6877 128.274 62.7311 130.965C60.7323 132.591 58.7758 134.425 56.8616 136.467C52.7974 135.83 49.4958 133.75 46.9567 130.231C45.8225 127.962 44.7219 125.761 43.6551 123.628C42.7593 117.433 39.9468 112.297 35.2176 108.22C31.5882 102.171 30.9768 95.8117 33.3833 89.1439C36.5714 83.2655 40.4845 77.8846 45.1224 73.0026C34.1982 72.8004 23.6819 72.8004 13.5735 73.0026C10.115 70.893 9.74819 68.2028 12.473 64.9319C14.8951 61.4586 18.1967 59.3798 22.3779 58.6955C25.5288 58.0265 28.7081 57.5374 31.9159 57.2281C37.6579 55.0916 43.5275 53.3796 49.5246 52.0923C59.0443 51.0394 68.3378 51.8954 77.4051 54.6602Z" fill="#25296B"/>
<path opacity="0.969" fill-rule="evenodd" clip-rule="evenodd" d="M78.1409 53.9268C80.3288 54.5916 82.4073 55.5699 84.3773 56.8615C85.1191 56.4539 85.7303 55.9648 86.2116 55.3941C86.0032 56.799 86.2475 58.0217 86.9453 59.0626C85.7222 60.7746 84.2548 62.242 82.5431 63.4648C78.9714 61.7124 77.2597 58.7777 77.4072 54.6605C77.8966 54.6605 78.1409 54.4159 78.1409 53.9268Z" fill="#FABAB3"/>
<path fill-rule="evenodd" clip-rule="evenodd" d="M106.756 53.9269C106.756 54.1714 106.756 54.416 106.756 54.6606C105.509 54.7781 104.286 54.6558 103.087 54.2937C102.39 53.7673 102.268 53.1558 102.721 52.4595C103.78 53.674 105.126 54.1631 106.756 53.9269Z" fill="#705F84"/>
<path opacity="0.985" fill-rule="evenodd" clip-rule="evenodd" d="M249.093 45.856C252.272 45.856 255.452 45.856 258.631 45.856C258.631 65.4212 258.631 84.9861 258.631 104.552C258.051 105.365 257.684 106.343 257.53 107.486C251.524 99.8538 245.532 92.2725 239.555 84.7418C239.555 72.0245 239.555 59.307 239.555 46.5897C242.88 46.8231 246.06 46.5786 249.093 45.856Z" fill="#349BF0"/>
<path opacity="0.985" fill-rule="evenodd" clip-rule="evenodd" d="M17.2398 77.4048C20.7423 80.0446 24.1662 82.8569 27.5115 85.8423C29.3894 87.1461 31.3459 88.2466 33.3811 89.1439C30.9746 95.8117 31.586 102.171 35.2153 108.22C39.9446 112.297 42.7571 117.433 43.6528 123.628C45.4972 138.728 46.4755 153.89 46.5876 169.117C46.3498 188.934 45.8607 208.744 45.1202 228.546C39.9844 228.546 34.8485 228.546 29.7126 228.546C24.5087 223.522 21.207 217.409 19.8077 210.204C18.6575 200.947 17.9238 191.654 17.6067 182.323C15.0255 170.816 14.4141 159.199 15.7724 147.473C13.9206 135.523 11.5972 123.662 8.80231 111.888C7.1395 100.097 9.34062 89.0911 15.4056 78.8722C15.9252 78.2258 16.5366 77.7371 17.2398 77.4048Z" fill="#3482EE"/>
<path fill-rule="evenodd" clip-rule="evenodd" d="M33.3801 89.144C31.3449 88.2467 29.3884 87.1462 27.5105 85.8424C24.1652 82.857 20.7413 80.0447 17.2388 77.4049C16.0159 75.9375 14.7932 74.4701 13.5703 73.0027C23.6787 72.8005 34.195 72.8005 45.1192 73.0027C40.4813 77.8847 36.5682 83.2657 33.3801 89.144Z" fill="#1D2260"/>
<path fill-rule="evenodd" clip-rule="evenodd" d="M239.552 37.0518C239.552 40.2311 239.552 43.4105 239.552 46.5898C239.552 59.3072 239.552 72.0246 239.552 84.742C239.552 101.128 239.552 117.514 239.552 133.9C240.033 151.037 239.545 167.912 238.085 184.525C229.525 184.525 220.965 184.525 212.405 184.525C190.15 184.525 167.894 184.525 145.639 184.525C142.215 184.525 138.791 184.525 135.367 184.525C144.041 183.795 152.845 183.55 161.78 183.791C171.074 183.791 180.367 183.791 189.661 183.791C200.177 183.791 210.694 183.791 221.21 183.791C227.079 183.791 232.949 183.791 238.818 183.791C238.575 134.754 238.819 85.841 239.552 37.0518Z" fill="#C0D0EA"/>
<path fill-rule="evenodd" clip-rule="evenodd" d="M117.759 107.486C120.144 112.002 126.564 119.959 126.564 119.959C123.229 121.989 75.0242 154.127 71.9999 156.5C69.5001 149 67 139.845 67 140.5C67 140.5 113.601 109.932 117.759 107.486Z" fill="#E94B48"/>
<path opacity="0.979" fill-rule="evenodd" clip-rule="evenodd" d="M78.1396 111.889C82.6232 116.215 87.7591 119.639 93.5472 122.16C96.8078 120.003 99.7425 117.435 102.352 114.457C103.399 114.032 104.378 114.154 105.286 114.823C104.853 115.752 104.487 116.73 104.186 117.758C102.269 119.153 101.046 120.865 100.517 122.894C105.333 125.78 110.592 127.248 116.292 127.296C116.254 130.897 114.543 133.464 111.156 135C108.187 136.595 105.008 137.206 101.618 136.834C96.427 133.61 91.046 130.676 85.4766 128.03C80.1763 125.298 74.5511 123.586 68.6016 122.894C71.5283 118.99 74.7074 115.322 78.1396 111.889Z" fill="#FEBDB5"/>
<path opacity="0.962" fill-rule="evenodd" clip-rule="evenodd" d="M239.555 84.7417C245.532 92.2724 251.524 99.8536 257.53 107.486C257.684 106.343 258.051 105.365 258.631 104.551C258.631 122.404 258.631 140.258 258.631 158.111C252.272 150.041 245.914 141.97 239.555 133.899C239.555 117.514 239.555 101.127 239.555 84.7417Z" fill="#349BF0"/>
<path fill-rule="evenodd" clip-rule="evenodd" d="M182.321 120.693C184.767 120.693 187.213 120.693 189.658 120.693C189.658 130.475 189.658 140.258 189.658 150.041C186.724 150.041 183.789 150.041 180.854 150.041C180.854 150.774 180.854 151.508 180.854 152.242C183.789 152.242 186.724 152.242 189.658 152.242C189.658 162.758 189.658 173.275 189.658 183.791C180.365 183.791 171.072 183.791 161.778 183.791C161.778 173.519 161.778 163.247 161.778 152.975C154.946 152.405 148.097 152.161 141.234 152.242C141.234 151.508 141.234 150.774 141.234 150.041C148.082 150.041 154.93 150.041 161.778 150.041C161.778 143.927 161.778 137.812 161.778 131.698C160.8 131.698 159.821 131.698 158.843 131.698C167.706 130.29 175.532 126.622 182.321 120.693Z" fill="#E5E5E5"/>
<path opacity="0.993" fill-rule="evenodd" clip-rule="evenodd" d="M43.6562 123.628C44.7231 125.762 45.8237 127.963 46.9579 130.231C49.497 133.751 52.7986 135.83 56.8628 136.468C58.777 134.426 60.7335 132.591 62.7323 130.965C64.0262 134.283 65.4936 137.462 67.1345 140.503C69.0015 146 69.8994 149.721 71.9035 155C72.6372 156.957 73.7378 160.557 74.4715 162.514C73.3582 162.522 72.5022 163.011 71.9035 163.981C67.0303 171.656 61.7722 178.993 56.1291 185.992C53.9125 183.889 52.0783 181.443 50.6264 178.655C49.4774 175.312 48.1323 172.133 46.591 169.117C46.4789 153.891 45.5006 138.728 43.6562 123.628Z" fill="#349BF0"/>
<path opacity="0.985" fill-rule="evenodd" clip-rule="evenodd" d="M239.553 133.899C245.912 141.97 252.27 150.041 258.629 158.111C258.629 173.275 258.629 188.437 258.629 203.601C257.406 203.601 256.184 203.601 254.961 203.601C253.7 203.069 252.355 202.58 250.926 202.133C246.486 196.353 242.206 190.483 238.086 184.524C239.546 167.912 240.035 151.037 239.553 133.899Z" fill="#349BF0"/>
<path opacity="0.97" fill-rule="evenodd" clip-rule="evenodd" d="M74.4674 162.514C81.56 184.525 88.6519 206.535 95.7446 228.546C90.853 228.546 85.9622 228.546 81.0707 228.546C76.3963 224.728 72.3609 220.326 68.9647 215.34C66.8967 208.782 64.9402 202.179 63.0951 195.53C61.4389 191.805 59.1155 188.626 56.125 185.992C61.7681 178.992 67.0262 171.656 71.8995 163.981C72.4981 163.01 73.3541 162.522 74.4674 162.514Z" fill="#349BF0"/>
<path opacity="0.923" fill-rule="evenodd" clip-rule="evenodd" d="M135.367 184.524C138.791 184.524 142.215 184.524 145.639 184.524C145.872 187.85 145.628 191.029 144.905 194.062C141.726 194.062 138.546 194.062 135.367 194.062C135.367 190.883 135.367 187.704 135.367 184.524Z" fill="#3482EE"/>
<path fill-rule="evenodd" clip-rule="evenodd" d="M240 27.5137C240 35.5843 240 184.5 240 184.5C240 184.5 128.635 182.315 125.828 184.5C125.828 172.516 125.828 39.4973 125.828 27.5137C137.812 27.5137 228.016 27.5137 240 27.5137Z" fill="#E5E5E5"/>
<path opacity="0.973" fill-rule="evenodd" clip-rule="evenodd" d="M145.64 184.524C167.895 184.524 190.151 184.524 212.406 184.524C217.053 190.883 221.7 197.242 226.346 203.601C199.2 203.601 172.053 203.601 144.906 203.601C144.906 200.421 144.906 197.242 144.906 194.062C145.629 191.029 145.873 187.85 145.64 184.524Z" fill="#349BF0"/>
<path opacity="0.974" fill-rule="evenodd" clip-rule="evenodd" d="M212.406 184.524C220.966 184.524 229.526 184.524 238.086 184.524C242.205 190.483 246.486 196.353 250.925 202.133C252.355 202.58 253.7 203.069 254.961 203.601C245.423 203.601 235.885 203.601 226.346 203.601C221.7 197.242 217.053 190.883 212.406 184.524Z" fill="#349BF0"/>
<path opacity="0.972" fill-rule="evenodd" clip-rule="evenodd" d="M29.7133 228.546C34.8492 228.546 39.9851 228.546 45.1209 228.546C52.1871 234.041 59.7686 238.81 67.8655 242.853C68.8437 244.077 69.822 245.299 70.8003 246.522C55.1424 247.133 39.4902 247.011 23.8438 246.155C26.2261 240.415 28.1827 234.546 29.7133 228.546Z" fill="#A1C3FB"/>
<path opacity="0.97" fill-rule="evenodd" clip-rule="evenodd" d="M81.072 228.546C85.9636 228.546 90.8544 228.546 95.7459 228.546C102.812 234.041 110.393 238.81 118.49 242.853C119.747 243.864 120.726 245.088 121.425 246.522C105.767 247.133 90.1155 247.011 74.4688 246.155C76.6757 240.264 78.8768 234.395 81.072 228.546Z" fill="#A1C3FB"/>
<circle cx="155" cy="92" r="34.5" stroke="#EC615E" stroke-width="13"/>
<circle cx="169.5" cy="93.5" r="3.5" fill="#E5E5E5"/>
<circle cx="166" cy="96" r="7" fill="white"/>
</g>
</svg>
