<svg width="360" height="230" viewBox="0 0 360 230" fill="none" xmlns="http://www.w3.org/2000/svg">
<g opacity="0.9" clip-path="url(#clip0_3799_101994)">
<path opacity="0.998" fill-rule="evenodd" clip-rule="evenodd" d="M0.195312 -0.487305C20.9862 -0.487305 41.7773 -0.487305 62.5682 -0.487305C62.5682 5.36015 62.5682 11.2076 62.5682 17.0551C53.9438 16.737 45.4974 17.0619 37.2292 18.0296C33.0061 18.0296 28.7828 18.0296 24.5597 18.0296C24.5597 45.9675 24.5597 74.8799 24.5597 102.818C57.6953 103.305 24.5597 102.33 57.6953 102.818C63.8676 102.818 70.04 102.818 76.2123 102.818C76.2123 107.366 76.2123 111.913 76.2123 116.462C58.9947 116.462 41.7773 116.462 24.5597 116.462C24.5597 144.4 24.5597 172.337 24.5597 200.275C39.1784 200.275 53.797 200.275 68.4156 200.275C68.7405 200.275 69.0654 200.275 69.3902 200.275C76.0304 201.241 82.8524 201.567 89.8563 201.25C89.8563 206.773 89.8563 212.295 89.8563 217.818C76.0401 217.497 62.3961 217.822 48.9241 218.792C32.6812 218.792 16.4383 218.792 0.195312 218.792C0.195312 145.699 0.195312 72.6059 0.195312 -0.487305Z" fill="#A1C3FC"/>
<path opacity="0.992" fill-rule="evenodd" clip-rule="evenodd" d="M62.5655 -0.487305C104.148 -0.487305 145.729 -0.487305 187.311 -0.487305C195.58 0.480474 204.026 0.805332 212.65 0.487272C212.65 3.08615 212.65 5.68501 212.65 8.28388C214.828 7.99666 216.778 8.32152 218.498 9.25846C208.112 8.47945 197.717 7.82973 187.311 7.30931C179.833 6.71323 172.361 6.06352 164.896 5.36015C164.896 8.28388 164.896 11.2076 164.896 14.1313C162.622 15.4307 160.348 16.7302 158.074 18.0296C132.41 18.0296 106.746 18.0296 81.0825 18.0296C66.4638 18.0296 51.8452 18.0296 37.2266 18.0296C45.4948 17.0619 53.9411 16.737 62.5655 17.0551C62.5655 11.2076 62.5655 5.36015 62.5655 -0.487305Z" fill="#A1C3FC"/>
<path opacity="0.996" fill-rule="evenodd" clip-rule="evenodd" d="M187.312 -0.487305C244.488 -0.487305 301.662 -0.487305 358.838 -0.487305C358.838 72.6059 358.838 145.699 358.838 218.792C344.544 218.792 330.251 218.792 315.957 218.792C298.414 218.792 280.872 218.792 263.329 218.792C256.832 218.792 250.335 218.792 243.838 218.792C243.838 215.219 243.838 211.646 243.838 208.072C245.396 208.333 246.695 208.008 247.736 207.097C255.082 207.08 262.229 206.43 269.177 205.148C292.882 203.687 316.597 202.388 340.321 201.25C340.321 194.752 340.321 188.256 340.321 181.758C341.946 181.758 343.569 181.758 345.194 181.758C345.194 171.038 345.194 160.318 345.194 149.597C344.153 148.687 342.854 148.362 341.296 148.623C341.296 122.959 341.296 97.2951 341.296 71.6313C342.595 71.6313 343.895 71.6313 345.194 71.6313C345.194 60.911 345.194 50.1907 345.194 39.4703C344.153 38.5596 342.854 38.2348 341.296 38.4957C341.296 31.3489 341.296 24.2019 341.296 17.0551C326.666 16.634 312.048 15.9843 297.44 15.1059C272.123 13.0282 246.784 11.0791 221.423 9.25846C220.448 9.25846 219.474 9.25846 218.499 9.25846C216.779 8.32152 214.83 7.99665 212.651 8.28388C212.651 5.68501 212.651 3.08614 212.651 0.487272C204.027 0.805332 195.581 0.480474 187.312 -0.487305Z" fill="#A1C3FC"/>
<path fill-rule="evenodd" clip-rule="evenodd" d="M187.314 7.3095C187.314 75.205 187.314 143.1 187.314 210.996C179.842 211.646 172.371 212.295 164.898 212.945C164.898 210.021 164.898 207.098 164.898 204.174C164.898 140.826 164.898 77.479 164.898 14.1315C164.898 11.2078 164.898 8.28408 164.898 5.36035C172.364 6.06371 179.836 6.71342 187.314 7.3095Z" fill="#E5E5E5"/>
<path fill-rule="evenodd" clip-rule="evenodd" d="M187.312 7.30957C197.718 7.82999 208.113 8.47971 218.499 9.25872C219.474 9.25872 220.448 9.25872 221.423 9.25872C223.808 10.2071 226.408 10.5319 229.219 10.2333C229.219 49.2164 229.219 88.1994 229.219 127.182C219.861 133.934 210.766 141.082 201.931 148.623C204.309 153.055 206.421 157.602 208.266 162.267C210.255 163.167 212.367 163.491 214.601 163.242C223.767 156.018 233.188 149.196 242.863 142.776C244.081 144.37 245.705 145.507 247.736 146.187C252.141 146.98 256.365 146.817 260.406 145.699C263.566 145.296 266.49 144.321 269.177 142.776C269.177 143.1 269.177 143.426 269.177 143.75C269.177 164.216 269.177 184.682 269.177 205.149C262.229 206.43 255.082 207.08 247.736 207.098C227.612 208.639 207.471 209.94 187.312 210.996C187.312 143.1 187.312 75.2051 187.312 7.30957Z" fill="#E5E5E5"/>
<path fill-rule="evenodd" clip-rule="evenodd" d="M221.422 9.25879C246.783 11.0794 272.122 13.0285 297.439 15.1062C297.762 56.2041 297.438 97.1363 296.464 137.903C290.292 133.354 284.119 128.807 277.947 124.259C279.542 111.444 274.994 101.698 264.303 95.0215C264.303 79.7531 264.303 64.4848 264.303 49.2164C261.704 49.2164 259.106 49.2164 256.507 49.2164C255.208 49.2164 253.907 49.2164 252.608 49.2164C250.659 49.2164 248.71 49.2164 246.761 49.2164C247.085 64.8232 246.76 80.4164 245.786 95.9961C235.51 102.911 230.962 112.656 232.142 125.233C231.15 125.909 230.176 126.558 229.218 127.183C229.218 88.1995 229.218 49.2164 229.218 10.2334C226.407 10.532 223.808 10.2071 221.422 9.25879Z" fill="#E5E5E5"/>
<path fill-rule="evenodd" clip-rule="evenodd" d="M164.892 14.1318C164.892 77.4793 164.892 140.827 164.892 204.174C162.31 202.576 159.711 200.951 157.095 199.301C154.993 197.438 152.719 195.813 150.273 194.428C150.273 177.861 150.273 161.293 150.273 144.725C150.273 104.443 150.273 64.1601 150.273 23.8776C153.171 22.2727 155.77 20.3235 158.07 18.0301C160.344 16.7307 162.618 15.4312 164.892 14.1318Z" fill="#C5C5C5"/>
<path fill-rule="evenodd" clip-rule="evenodd" d="M297.435 15.1055C312.043 15.9839 326.661 16.6335 341.291 17.0546C341.291 24.2015 341.291 31.3484 341.291 38.4953C342.849 38.2343 344.148 38.5591 345.189 39.4699C342.915 39.4699 340.64 39.4699 338.367 39.4699C338.367 50.1902 338.367 60.9106 338.367 71.6309C339.341 71.6309 340.316 71.6309 341.291 71.6309C341.291 97.2947 341.291 122.959 341.291 148.622C342.849 148.361 344.148 148.687 345.189 149.597C342.915 149.597 340.64 149.597 338.367 149.597C337.739 160.692 338.389 171.412 340.316 181.758C340.316 188.256 340.316 194.752 340.316 201.25C316.592 202.388 292.876 203.687 269.172 205.148C269.172 184.682 269.172 164.216 269.172 143.75C277.985 149.874 286.593 156.371 294.998 163.241C296.09 161.75 296.902 160.125 297.435 158.368C300.602 153.655 302.388 148.458 302.795 142.775C300.503 141.284 298.391 139.659 296.46 137.902C297.434 97.1356 297.758 56.2034 297.435 15.1055Z" fill="#E5E5E5"/>
<path fill-rule="evenodd" clip-rule="evenodd" d="M37.2242 18.0293C51.8428 18.0293 66.4615 18.0293 81.0801 18.0293C81.0801 28.4248 81.0801 39.3075 81.0801 49.703C73.2835 49.703 65.4869 49.703 57.6903 49.703C57.2966 54.2072 59.2457 58.5928 57.6903 62.8598C58.9513 66.5047 57.6518 70.403 57.6903 74.5547C57.6903 83.8132 57.6903 85.2751 57.6903 103.305C46.9699 103.305 35.275 103.305 24.5547 103.305C24.5547 75.3668 24.5547 45.9672 24.5547 18.0293C28.7778 18.0293 33.001 18.0293 37.2242 18.0293Z" fill="#1D2260"/>
<path fill-rule="evenodd" clip-rule="evenodd" d="M81.0859 18.0293C106.749 18.0293 132.414 18.0293 158.077 18.0293C155.777 20.3227 153.178 22.2718 150.281 23.8768C149.313 32.145 148.989 40.5913 149.306 49.2157C143.134 49.2157 136.961 49.2157 130.789 49.2157C130.465 49.2157 130.139 49.2157 129.815 49.2157C116.495 49.2157 103.177 49.2157 89.8571 49.2157C86.9334 49.2157 84.0097 49.2157 81.0859 49.2157C81.0859 38.8202 81.0859 28.4248 81.0859 18.0293Z" fill="#1D2260"/>
<path fill-rule="evenodd" clip-rule="evenodd" d="M57.6953 49.2158C65.4919 49.2158 73.2885 49.2158 81.0851 49.2158C84.0089 49.2158 86.9326 49.2158 89.8563 49.2158C89.8563 53.439 89.8563 57.6622 89.8563 61.8853C79.136 61.8853 68.4156 61.8853 57.6953 61.8853C57.6953 57.6622 57.6953 53.439 57.6953 49.2158Z" fill="#3482EE"/>
<path fill-rule="evenodd" clip-rule="evenodd" d="M89.8516 49.2158C103.171 49.2158 116.49 49.2158 129.809 49.2158C129.809 53.439 129.809 57.6622 129.809 61.8853C116.49 61.8853 103.171 61.8853 89.8516 61.8853C89.8516 57.6622 89.8516 53.439 89.8516 49.2158Z" fill="#E4E8EB"/>
<path fill-rule="evenodd" clip-rule="evenodd" d="M252.606 49.2158C253.905 49.2158 255.205 49.2158 256.504 49.2158C257.195 50.0968 258.17 50.4217 259.428 50.1904C259.428 64.809 259.428 79.4277 259.428 94.0463C257.39 93.8694 255.441 94.1943 253.58 95.0209C252.607 79.7664 252.281 64.498 252.606 49.2158Z" fill="#A1C3FC"/>
<path fill-rule="evenodd" clip-rule="evenodd" d="M256.508 49.2158C259.107 49.2158 261.705 49.2158 264.304 49.2158C264.304 64.4842 264.304 79.7525 264.304 95.0209C263.33 95.0209 262.355 95.0209 261.381 95.0209C261.047 94.204 260.398 93.8791 259.432 94.0463C259.432 79.4277 259.432 64.809 259.432 50.1904C258.173 50.4217 257.199 50.0968 256.508 49.2158Z" fill="#A1C3FC"/>
<path fill-rule="evenodd" clip-rule="evenodd" d="M57.6953 61.8857C68.4156 61.8857 79.136 61.8857 89.8563 61.8857C89.8563 62.5355 89.8563 63.1851 89.8563 63.8349C89.8563 67.7332 89.8563 71.6315 89.8563 75.5298C89.8563 76.1796 89.8563 76.8292 89.8563 77.479C89.8563 81.7021 89.8563 85.9253 89.8563 90.1485C89.5315 90.1485 89.2066 90.1485 88.8817 90.1485C88.8817 85.9253 88.8817 81.7021 88.8817 77.479C78.4862 77.479 68.0908 77.479 57.6953 77.479C57.6953 76.8292 57.6953 76.1796 57.6953 75.5298C68.0908 75.5298 78.4862 75.5298 88.8817 75.5298C88.8817 71.6315 88.8817 67.7332 88.8817 63.8349C78.4862 63.8349 68.0908 63.8349 57.6953 63.8349C57.6953 63.1851 57.6953 62.5355 57.6953 61.8857Z" fill="#6AA2F5"/>
<path fill-rule="evenodd" clip-rule="evenodd" d="M345.189 39.4707C345.189 50.191 345.189 60.9114 345.189 71.6317C343.89 71.6317 342.59 71.6317 341.291 71.6317C340.316 71.6317 339.342 71.6317 338.367 71.6317C338.367 60.9114 338.367 50.191 338.367 39.4707C340.641 39.4707 342.916 39.4707 345.189 39.4707Z" fill="#E1A505"/>
<path fill-rule="evenodd" clip-rule="evenodd" d="M57.6953 63.835C68.0908 63.835 78.4862 63.835 88.8818 63.835C88.8818 67.7333 88.8818 71.6316 88.8818 75.5299C78.4862 75.5299 68.0908 75.5299 57.6953 75.5299C57.6953 71.6316 57.6953 67.7333 57.6953 63.835Z" fill="#3482EE"/>
<path fill-rule="evenodd" clip-rule="evenodd" d="M89.8516 63.835C103.171 63.835 116.49 63.835 129.809 63.835C129.809 67.7333 129.809 71.6316 129.809 75.5299C116.49 75.5299 103.171 75.5299 89.8516 75.5299C89.8516 71.6316 89.8516 67.7333 89.8516 63.835Z" fill="#E4E8EB"/>
<path fill-rule="evenodd" clip-rule="evenodd" d="M130.789 49.2158C136.961 49.2158 143.134 49.2158 149.306 49.2158C149.306 62.8599 149.306 76.504 149.306 90.148C143.134 90.148 136.961 90.148 130.789 90.148C130.789 76.504 130.789 62.8599 130.789 49.2158Z" fill="#3482EE"/>
<path fill-rule="evenodd" clip-rule="evenodd" d="M129.809 49.2158C130.134 49.2158 130.459 49.2158 130.784 49.2158C130.784 62.8599 130.784 76.504 130.784 90.148C130.459 90.148 130.134 90.148 129.809 90.148C129.809 85.9249 129.809 81.7017 129.809 77.4785C116.49 77.4785 103.171 77.4785 89.8516 77.4785C89.8516 76.8288 89.8516 76.1791 89.8516 75.5294C103.171 75.5294 116.49 75.5294 129.809 75.5294C129.809 71.6311 129.809 67.7328 129.809 63.8345C116.49 63.8345 103.171 63.8345 89.8516 63.8345C89.8516 63.1847 89.8516 62.5351 89.8516 61.8853C103.171 61.8853 116.49 61.8853 129.809 61.8853C129.809 57.6622 129.809 53.439 129.809 49.2158Z" fill="#AEC8EE"/>
<path fill-rule="evenodd" clip-rule="evenodd" d="M157.096 74.5547C158.03 74.996 158.843 75.6457 159.533 76.5038C160.183 80.4021 160.183 84.3005 159.533 88.1988C158.234 90.7977 156.934 90.7977 155.634 88.1988C154.627 83.3679 155.114 78.8198 157.096 74.5547Z" fill="#21255F"/>
<path fill-rule="evenodd" clip-rule="evenodd" d="M57.6953 77.4785C68.0908 77.4785 78.4862 77.4785 88.8818 77.4785C88.8818 81.7016 88.8818 85.9249 88.8818 90.148C78.4862 90.148 68.0908 90.148 57.6953 90.148C57.6953 85.9249 57.6953 81.7016 57.6953 77.4785Z" fill="#3482EE"/>
<path fill-rule="evenodd" clip-rule="evenodd" d="M89.8516 77.4785C103.171 77.4785 116.49 77.4785 129.809 77.4785C129.809 81.7016 129.809 85.9249 129.809 90.148C116.49 90.148 103.171 90.148 89.8516 90.148C89.8516 85.9249 89.8516 81.7016 89.8516 77.4785Z" fill="#E4E8EB"/>
<path fill-rule="evenodd" clip-rule="evenodd" d="M57.6953 91.123C68.4156 91.123 79.136 91.123 89.8563 91.123C89.8563 95.0214 89.8563 98.9197 89.8563 102.818C85.3083 102.818 80.7603 102.818 76.2123 102.818C70.04 102.818 63.8676 102.818 57.6953 102.818C57.6953 98.9197 57.6953 95.0214 57.6953 91.123Z" fill="#3482EE"/>
<path fill-rule="evenodd" clip-rule="evenodd" d="M89.8516 91.123C103.171 91.123 116.49 91.123 129.809 91.123C129.809 95.0214 129.809 98.9197 129.809 102.818C116.49 102.818 103.171 102.818 89.8516 102.818C89.8516 98.9197 89.8516 95.0214 89.8516 91.123Z" fill="#DEE4EC"/>
<path fill-rule="evenodd" clip-rule="evenodd" d="M252.608 49.2158C252.283 64.498 252.609 79.7663 253.582 95.0209C255.443 94.1943 257.392 93.8693 259.43 94.0463C260.396 93.8791 261.046 94.204 261.379 95.0209C259.754 95.0209 258.131 95.0209 256.506 95.0209C256.506 99.5692 256.506 104.117 256.506 108.665C251.753 111.014 249.478 114.912 249.684 120.36C249.536 125.721 251.809 129.619 256.506 132.055C256.506 136.603 256.506 141.151 256.506 145.699C257.805 145.699 259.105 145.699 260.404 145.699C256.364 146.817 252.14 146.979 247.735 146.186C245.704 145.507 244.079 144.37 242.862 142.775C243.487 141.818 244.136 140.844 244.811 139.851C242.56 135.019 240.286 130.634 237.989 126.695C228.494 134.122 218.91 141.431 209.239 148.623C210.428 153.621 212.214 158.494 214.599 163.241C212.365 163.491 210.254 163.166 208.264 162.267C206.42 157.601 204.308 153.054 201.93 148.623C210.764 141.081 219.86 133.934 229.218 127.182C230.175 126.557 231.149 125.908 232.142 125.233C230.961 112.656 235.51 102.91 245.786 95.9955C246.759 80.4158 247.085 64.8226 246.76 49.2158C248.709 49.2158 250.658 49.2158 252.608 49.2158Z" fill="#3482EE"/>
<path fill-rule="evenodd" clip-rule="evenodd" d="M261.381 95.0215C262.355 95.0215 263.33 95.0215 264.304 95.0215C274.996 101.698 279.543 111.444 277.948 124.259C277.095 129.097 275.47 133.644 273.076 137.903C271.806 139.503 270.507 141.128 269.177 142.776C266.49 144.321 263.567 145.296 260.406 145.699C259.107 145.699 257.807 145.699 256.508 145.699C256.508 141.151 256.508 136.604 256.508 132.055C263.893 131.161 267.467 126.937 267.228 119.386C267.175 112.185 263.601 108.611 256.508 108.666C256.508 104.117 256.508 99.5698 256.508 95.0215C258.132 95.0215 259.756 95.0215 261.381 95.0215Z" fill="#3482EE"/>
<path fill-rule="evenodd" clip-rule="evenodd" d="M150.28 23.877C150.28 64.1594 150.28 104.442 150.28 144.724C149.956 144.724 149.63 144.724 149.305 144.724C149.305 135.629 149.305 126.532 149.305 117.436C125.109 116.464 100.744 116.139 76.2123 116.462C76.2123 111.913 76.2123 107.366 76.2123 102.818C80.7603 102.818 85.3083 102.818 89.8563 102.818C103.176 102.818 116.494 102.818 129.814 102.818C129.814 98.9193 129.814 95.021 129.814 91.1227C116.494 91.1227 103.176 91.1227 89.8563 91.1227C79.136 91.1227 68.4157 91.1227 57.6953 91.1227C57.6953 90.7979 57.6953 90.473 57.6953 90.1481C68.0908 90.1481 78.4862 90.1481 88.8818 90.1481C89.2066 90.1481 89.5315 90.1481 89.8563 90.1481C103.176 90.1481 116.494 90.1481 129.814 90.1481C130.138 90.1481 130.464 90.1481 130.789 90.1481C136.961 90.1481 143.133 90.1481 149.305 90.1481C149.305 76.5041 149.305 62.86 149.305 49.2159C148.988 40.5915 149.312 32.1452 150.28 23.877Z" fill="#A1C3FC"/>
<path fill-rule="evenodd" clip-rule="evenodd" d="M130.789 91.123C136.961 91.123 143.134 91.123 149.306 91.123C149.306 95.0214 149.306 98.9197 149.306 102.818C143.134 102.818 136.961 102.818 130.789 102.818C130.789 98.9197 130.789 95.0214 130.789 91.123Z" fill="#3482EE"/>
<path fill-rule="evenodd" clip-rule="evenodd" d="M157.096 102.817C158.03 103.259 158.843 103.908 159.533 104.767C160.183 108.665 160.183 112.563 159.533 116.461C158.234 119.061 156.934 119.061 155.634 116.461C154.627 111.63 155.114 107.082 157.096 102.817Z" fill="#23265F"/>
<path fill-rule="evenodd" clip-rule="evenodd" d="M256.507 108.666C263.6 108.611 267.173 112.185 267.227 119.386C267.466 126.937 263.892 131.161 256.507 132.055C251.81 129.62 249.537 125.722 249.685 120.361C249.479 114.913 251.754 111.014 256.507 108.666Z" fill="#1D2260"/>
<path fill-rule="evenodd" clip-rule="evenodd" d="M76.2072 116.461C100.739 116.139 125.104 116.463 149.3 117.436C126.561 117.436 103.82 117.436 81.0801 117.436C81.0801 126.532 81.0801 135.628 81.0801 144.724C76.857 144.724 72.6337 144.724 68.4106 144.724C68.4106 149.272 68.4106 153.82 68.4106 158.368C68.4106 158.693 68.4106 159.018 68.4106 159.343C68.4106 163.891 68.4106 168.438 68.4106 172.987C68.4106 173.311 68.4106 173.637 68.4106 173.961C68.4106 182.733 68.4106 191.504 68.4106 200.275C53.792 200.275 39.1733 200.275 24.5547 200.275C24.5547 172.337 24.5547 144.4 24.5547 116.461C41.7722 116.461 58.9897 116.461 76.2072 116.461Z" fill="#1D2260"/>
<path fill-rule="evenodd" clip-rule="evenodd" d="M149.306 117.437C149.306 126.532 149.306 135.629 149.306 144.725C147.033 144.725 144.758 144.725 142.484 144.725C142.16 144.725 141.834 144.725 141.51 144.725C128.19 144.725 114.872 144.725 101.552 144.725C101.228 144.725 100.902 144.725 100.577 144.725C94.0803 144.725 87.5831 144.725 81.0859 144.725C81.0859 135.629 81.0859 126.532 81.0859 117.437C103.826 117.437 126.566 117.437 149.306 117.437Z" fill="#1D2260"/>
<path fill-rule="evenodd" clip-rule="evenodd" d="M156.128 131.08C157.417 130.914 158.554 131.239 159.539 132.055C160.189 135.953 160.189 139.851 159.539 143.75C158.24 146.349 156.94 146.349 155.641 143.75C154.893 139.442 155.054 135.219 156.128 131.08Z" fill="#23265F"/>
<path fill-rule="evenodd" clip-rule="evenodd" d="M277.948 124.259C284.12 128.807 290.293 133.355 296.465 137.903C298.396 139.66 300.508 141.285 302.8 142.776C302.394 148.458 300.607 153.656 297.44 158.369C289.886 152.142 282.089 146.133 274.05 140.339C273.317 139.685 272.992 138.874 273.075 137.903C275.47 133.644 277.095 129.097 277.948 124.259Z" fill="#A1C3FC"/>
<path fill-rule="evenodd" clip-rule="evenodd" d="M242.865 142.776C233.189 149.196 223.768 156.018 214.602 163.242C212.218 158.495 210.431 153.622 209.242 148.623C218.913 141.432 228.497 134.123 237.992 126.695C240.289 130.635 242.563 135.02 244.814 139.852C244.139 140.844 243.49 141.819 242.865 142.776Z" fill="#A1C3FC"/>
<path fill-rule="evenodd" clip-rule="evenodd" d="M273.07 137.902C272.986 138.873 273.312 139.685 274.045 140.339C282.084 146.133 289.881 152.142 297.435 158.368C296.902 160.126 296.09 161.75 294.998 163.241C286.593 156.372 277.985 149.874 269.172 143.75C269.172 143.425 269.172 143.1 269.172 142.775C270.501 141.127 271.8 139.503 273.07 137.902Z" fill="#3482EE"/>
<path fill-rule="evenodd" clip-rule="evenodd" d="M81.0836 144.725C87.5808 144.725 94.0779 144.725 100.575 144.725C100.575 149.273 100.575 153.82 100.575 158.369C89.8547 158.369 79.1344 158.369 68.4141 158.369C68.4141 153.82 68.4141 149.273 68.4141 144.725C72.6372 144.725 76.8604 144.725 81.0836 144.725Z" fill="#3482EE"/>
<path fill-rule="evenodd" clip-rule="evenodd" d="M68.4141 159.343C79.1344 159.343 89.8547 159.343 100.575 159.343C100.575 163.891 100.575 168.438 100.575 172.987C89.8547 172.987 79.1344 172.987 68.4141 172.987C68.4141 168.438 68.4141 163.891 68.4141 159.343Z" fill="#3482EE"/>
<path fill-rule="evenodd" clip-rule="evenodd" d="M345.194 149.598C345.194 160.318 345.194 171.038 345.194 181.759C343.569 181.759 341.946 181.759 340.321 181.759C338.394 171.413 337.744 160.692 338.372 149.598C340.646 149.598 342.92 149.598 345.194 149.598Z" fill="#E1A506"/>
<path fill-rule="evenodd" clip-rule="evenodd" d="M68.4141 173.962C79.1344 173.962 89.8547 173.962 100.575 173.962C100.575 178.185 100.575 182.409 100.575 186.631C89.8037 186.005 79.4082 186.655 69.3886 188.581C69.3886 192.479 69.3886 196.377 69.3886 200.275C69.0638 200.275 68.7389 200.275 68.4141 200.275C68.4141 191.504 68.4141 182.733 68.4141 173.962Z" fill="#3482EE"/>
<path fill-rule="evenodd" clip-rule="evenodd" d="M101.547 173.962C114.866 173.962 128.185 173.962 141.505 173.962C141.505 178.185 141.505 182.409 141.505 186.631C128.185 186.631 114.866 186.631 101.547 186.631C101.547 182.409 101.547 178.185 101.547 173.962Z" fill="#E4E7EB"/>
<path fill-rule="evenodd" clip-rule="evenodd" d="M100.577 173.962C100.902 173.962 101.227 173.962 101.552 173.962C101.552 178.185 101.552 182.409 101.552 186.631C101.552 187.281 101.552 187.931 101.552 188.581C101.552 192.479 101.552 196.377 101.552 200.275C101.227 200.275 100.902 200.275 100.577 200.275C100.577 196.377 100.577 192.479 100.577 188.581C90.1815 188.581 79.7861 188.581 69.3906 188.581C79.4101 186.655 89.8057 186.005 100.577 186.631C100.577 182.409 100.577 178.185 100.577 173.962Z" fill="#6DA4F5"/>
<path fill-rule="evenodd" clip-rule="evenodd" d="M101.547 186.631C114.866 186.631 128.185 186.631 141.505 186.631C141.505 187.281 141.505 187.93 141.505 188.58C128.185 188.58 114.866 188.58 101.547 188.58C101.547 187.93 101.547 187.281 101.547 186.631Z" fill="#B3CBF0"/>
<path fill-rule="evenodd" clip-rule="evenodd" d="M69.3906 188.58C79.7861 188.58 90.1816 188.58 100.577 188.58C100.577 192.478 100.577 196.377 100.577 200.275C90.1816 200.275 79.7861 200.275 69.3906 200.275C69.3906 196.377 69.3906 192.478 69.3906 188.58Z" fill="#3482EE"/>
<path fill-rule="evenodd" clip-rule="evenodd" d="M101.547 188.58C114.866 188.58 128.185 188.58 141.505 188.58C141.505 192.478 141.505 196.377 141.505 200.275C128.185 200.275 114.866 200.275 101.547 200.275C101.547 196.377 101.547 192.478 101.547 188.58Z" fill="#E2E7EB"/>
<path fill-rule="evenodd" clip-rule="evenodd" d="M150.281 194.428C152.726 195.813 155.001 197.438 157.103 199.301C152.42 200.263 147.547 200.588 142.484 200.275C142.484 191.504 142.484 182.733 142.484 173.962C144.758 173.962 147.033 173.962 149.306 173.962C148.99 180.966 149.315 187.788 150.281 194.428Z" fill="#3482EE"/>
<path opacity="0.991" fill-rule="evenodd" clip-rule="evenodd" d="M100.574 144.725C100.899 144.725 101.224 144.725 101.549 144.725C101.549 149.273 101.549 153.82 101.549 158.369C114.869 158.369 128.187 158.369 141.507 158.369C141.507 153.82 141.507 149.273 141.507 144.725C141.831 144.725 142.157 144.725 142.481 144.725C142.481 149.273 142.481 153.82 142.481 158.369C144.755 158.369 147.03 158.369 149.303 158.369C149.303 153.82 149.303 149.273 149.303 144.725C149.628 144.725 149.953 144.725 150.278 144.725C150.278 161.292 150.278 177.86 150.278 194.428C149.312 187.788 148.986 180.966 149.303 173.962C147.03 173.962 144.755 173.962 142.481 173.962C142.481 182.733 142.481 191.504 142.481 200.275C147.544 200.588 152.417 200.263 157.1 199.301C159.716 200.951 162.315 202.575 164.896 204.174C164.896 207.097 164.896 210.021 164.896 212.945C172.369 212.295 179.84 211.646 187.312 210.996C207.47 209.939 227.611 208.639 247.735 207.097C246.695 208.008 245.395 208.333 243.837 208.072C243.837 211.646 243.837 215.219 243.837 218.792C196.407 218.792 148.979 218.792 101.549 218.792C84.0066 218.792 66.4642 218.792 48.9219 218.792C62.3938 217.822 76.0379 217.497 89.8541 217.818C89.8541 212.295 89.8541 206.773 89.8541 201.25C82.8502 201.567 76.0282 201.241 69.388 200.275C79.7835 200.275 90.1789 200.275 100.574 200.275C100.899 200.275 101.224 200.275 101.549 200.275C114.869 200.275 128.187 200.275 141.507 200.275C141.507 196.377 141.507 192.479 141.507 188.581C141.507 187.931 141.507 187.281 141.507 186.631C141.507 182.409 141.507 178.185 141.507 173.962C128.187 173.962 114.869 173.962 101.549 173.962C101.224 173.962 100.899 173.962 100.574 173.962C89.8541 173.962 79.1337 173.962 68.4134 173.962C68.4134 173.637 68.4134 173.312 68.4134 172.987C79.1337 172.987 89.8541 172.987 100.574 172.987C100.574 168.439 100.574 163.892 100.574 159.343C89.8541 159.343 79.1337 159.343 68.4134 159.343C68.4134 159.019 68.4134 158.693 68.4134 158.369C79.1337 158.369 89.8541 158.369 100.574 158.369C100.574 153.82 100.574 149.273 100.574 144.725Z" fill="#A1C3FC"/>
<path fill-rule="evenodd" clip-rule="evenodd" d="M142.484 159.343C144.758 159.343 147.033 159.343 149.306 159.343C149.306 163.891 149.306 168.438 149.306 172.987C147.033 172.987 144.758 172.987 142.484 172.987C142.484 168.438 142.484 163.891 142.484 159.343Z" fill="#3482EE"/>
<path fill-rule="evenodd" clip-rule="evenodd" d="M101.547 159.343C114.866 159.343 128.185 159.343 141.505 159.343C141.505 163.891 141.505 168.438 141.505 172.987C128.185 172.987 114.866 172.987 101.547 172.987C101.547 168.438 101.547 163.891 101.547 159.343Z" fill="#E3E7EB"/>
<path fill-rule="evenodd" clip-rule="evenodd" d="M142.484 144.725C144.758 144.725 147.033 144.725 149.306 144.725C149.306 149.273 149.306 153.82 149.306 158.369C147.033 158.369 144.758 158.369 142.484 158.369C142.484 153.82 142.484 149.273 142.484 144.725Z" fill="#3482EE"/>
<path fill-rule="evenodd" clip-rule="evenodd" d="M101.547 144.725C114.866 144.725 128.185 144.725 141.505 144.725C141.505 149.273 141.505 153.82 141.505 158.369C128.185 158.369 114.866 158.369 101.547 158.369C101.547 153.82 101.547 149.273 101.547 144.725Z" fill="#E3E7EC"/>
<path opacity="0.989" fill-rule="evenodd" clip-rule="evenodd" d="M48.9219 218.792C66.4642 218.792 84.0066 218.792 101.549 218.792C101.549 222.366 101.549 225.939 101.549 229.512C84.0066 229.512 66.4642 229.512 48.9219 229.512C48.9219 225.939 48.9219 222.366 48.9219 218.792Z" fill="#1D2260"/>
<path opacity="0.989" fill-rule="evenodd" clip-rule="evenodd" d="M263.328 218.792C280.87 218.792 298.413 218.792 315.955 218.792C315.955 222.366 315.955 225.939 315.955 229.512C298.413 229.512 280.87 229.512 263.328 229.512C263.328 225.939 263.328 222.366 263.328 218.792Z" fill="#1D2260"/>
</g>
<defs>
<clipPath id="clip0_3799_101994">
<rect width="358.644" height="230" fill="white" transform="translate(0.679688)"/>
</clipPath>
</defs>
</svg>
