<svg width="368" height="222" viewBox="0 0 368 222" fill="none" xmlns="http://www.w3.org/2000/svg">
<g opacity="0.9">
<path opacity="0.958" fill-rule="evenodd" clip-rule="evenodd" d="M123.5 27.5C149.5 27.5 175.5 27.5 201.5 27.5C201.5 53.5 201.5 79.5 201.5 105.5C175.5 105.5 149.5 105.5 123.5 105.5C123.5 79.5 123.5 53.5 123.5 27.5Z" fill="#EEEEEE"/>
<path fill-rule="evenodd" clip-rule="evenodd" d="M129.5 33.5C151.5 33.5 173.5 33.5 195.5 33.5C195.5 55.5 195.5 77.5 195.5 99.5C173.5 99.5 151.5 99.5 129.5 99.5C129.5 77.5 129.5 55.5 129.5 33.5Z" fill="#FEFEFE"/>
<path opacity="0.996" fill-rule="evenodd" clip-rule="evenodd" d="M128.5 132.5C130.607 133.468 132.941 133.802 135.5 133.5C135.5 149.833 135.5 166.167 135.5 182.5C125.652 182.827 115.986 182.494 106.5 181.5C107.117 181.389 107.617 181.056 108 180.5C108.167 178.333 108.333 176.167 108.5 174C107.872 164.848 107.706 155.681 108 146.5C105.859 145.232 103.526 144.565 101 144.5C92.8379 145.771 84.6712 145.771 76.5 144.5C73.8688 144.321 71.5355 144.987 69.5 146.5C69.3797 155.469 69.0463 164.469 68.5 173.5C68.2865 176.527 68.9532 179.193 70.5 181.5C69.1667 182.933 67.6667 184.267 66 185.5C65.5003 193.827 65.3336 202.16 65.5 210.5C59.3741 212.53 53.0407 213.03 46.5 212C45.5838 211.626 44.7504 211.126 44 210.5C43.3333 193.5 43.3333 176.5 44 159.5C44.7504 158.874 45.5838 158.374 46.5 158C52.2195 157.212 57.8862 157.379 63.5 158.5C64.3315 150.855 64.8315 143.188 65 135.5C65.5 134.333 66.3333 133.5 67.5 133C87.8306 132.5 108.164 132.333 128.5 132.5Z" fill="#A1C3FC"/>
<path fill-rule="evenodd" clip-rule="evenodd" d="M106.5 181.5C94.4998 181.5 82.4998 181.5 70.4998 181.5C68.953 179.193 68.2863 176.527 68.4998 173.5C69.0461 164.469 69.3795 155.469 69.4998 146.5C71.5353 144.987 73.8686 144.321 76.4998 144.5C84.671 145.771 92.8377 145.771 101 144.5C103.526 144.565 105.859 145.232 108 146.5C107.706 155.681 107.872 164.848 108.5 174C108.333 176.167 108.167 178.333 108 180.5C107.617 181.056 107.117 181.389 106.5 181.5Z" fill="#DAE7FD"/>
<path opacity="0.996" fill-rule="evenodd" clip-rule="evenodd" d="M128.5 132.5C166.168 132.333 203.835 132.5 241.5 133C242 133.5 242.5 134 243 134.5C243.168 142.521 243.668 150.521 244.5 158.5C250.114 157.379 255.78 157.212 261.5 158C263.333 158.5 264.5 159.667 265 161.5C265.167 169.333 265.333 177.167 265.5 185C265.638 193.597 265.138 202.097 264 210.5C263.25 211.126 262.416 211.626 261.5 212C256.167 212.667 250.833 212.667 245.5 212C244.309 211.302 243.309 210.469 242.5 209.5C242.666 201.493 242.5 193.493 242 185.5C240.535 183.085 237.868 182.585 235 183C235.763 182.232 234.263 180.732 235.5 180.5C231.633 178.513 229.133 175.013 233 176C234.961 172.128 239.461 173.128 235.5 172C236.416 171.626 237.25 171.126 238 170.5C238.763 162.832 239.096 155.165 239 147.5C236.749 145.107 233.915 144.107 230.5 144.5C222.164 145.792 213.831 145.792 205.5 144.5C203.307 144.326 201.473 144.993 200 146.5C200.418 155.51 200.251 164.51 199.5 173.5C199.269 176.81 199.935 179.81 201.5 182.5C198.941 182.802 196.607 182.468 194.5 181.5C195.117 181.389 195.617 181.056 196 180.5C196.167 178.5 196.333 176.5 196.5 174.5C195.85 165.179 195.683 155.846 196 146.5C193.753 145.02 191.253 144.353 188.5 144.5C180.167 145.833 171.833 145.833 163.5 144.5C160.989 144.288 158.822 144.955 157 146.5C157.53 155.838 157.363 165.172 156.5 174.5C156.667 176.5 156.833 178.5 157 180.5C157.383 181.056 157.883 181.389 158.5 181.5C151.018 182.492 143.352 182.825 135.5 182.5C135.5 166.167 135.5 149.833 135.5 133.5C132.941 133.802 130.607 133.468 128.5 132.5Z" fill="#A1C3FC"/>
<path fill-rule="evenodd" clip-rule="evenodd" d="M194.5 181.5C182.492 181.573 170.492 181.573 158.5 181.5C157.883 181.389 157.383 181.056 157 180.5C156.833 178.5 156.667 176.5 156.5 174.5C157.363 165.172 157.53 155.838 157 146.5C158.822 144.955 160.989 144.288 163.5 144.5C171.833 145.833 180.167 145.833 188.5 144.5C191.253 144.353 193.753 145.02 196 146.5C195.683 155.846 195.85 165.179 196.5 174.5C196.333 176.5 196.167 178.5 196 180.5C195.617 181.056 195.117 181.389 194.5 181.5Z" fill="#DAE7FD"/>
<path fill-rule="evenodd" clip-rule="evenodd" d="M235.498 182.5C224.163 181.211 212.83 181.211 201.498 182.5C199.933 179.81 199.267 176.81 199.498 173.5C200.249 164.51 200.416 155.51 199.998 146.5C201.471 144.993 203.305 144.326 205.498 144.5C213.829 145.792 222.162 145.792 230.498 144.5C233.913 144.107 236.747 145.107 238.998 147.5C239.094 155.165 238.761 162.832 237.998 170.5C237.97 170.782 238.914 170.126 237.998 170.5L235.498 182.5Z" fill="#DAE7FD"/>
<path opacity="0.972" fill-rule="evenodd" clip-rule="evenodd" d="M70.4998 181.5C82.4998 181.5 94.4998 181.5 106.5 181.5C115.986 182.494 125.652 182.827 135.5 182.5C143.352 182.825 151.018 182.492 158.5 181.5C170.492 181.573 182.492 181.573 194.5 181.5C196.607 182.468 198.941 182.802 201.5 182.5C212.832 181.211 224.165 181.211 235.5 182.5C238.368 182.085 240.535 183.085 242 185.5C242.5 193.493 242.666 201.493 242.5 209.5C241.942 210.79 240.942 211.623 239.5 212C182.833 212.667 126.167 212.667 69.4998 212C68.0991 211.59 66.7658 211.09 65.4998 210.5C65.3334 202.16 65.5001 193.827 65.9998 185.5C67.6665 184.267 69.1665 182.933 70.4998 181.5Z" fill="#A1C3FC"/>
<path opacity="0.977" fill-rule="evenodd" clip-rule="evenodd" d="M310.662 101.79C307.526 113.65 304.836 125.634 302.591 137.741C301.071 146.236 300.337 154.796 300.39 163.42C297.7 163.42 295.01 163.42 292.32 163.42C292.075 163.42 291.83 163.42 291.586 163.42C288.589 140.393 288.834 117.404 292.32 94.453C292.964 92.0604 293.452 89.615 293.787 87.116C294.664 81.1841 296.498 75.5588 299.29 70.241C299.904 69.1353 300.76 68.7685 301.858 69.1405C304.583 72.7568 306.417 76.7922 307.36 81.2464C309.173 87.9854 310.274 94.8338 310.662 101.79Z" fill="#A1C3FC"/>
<path opacity="0.993" fill-rule="evenodd" clip-rule="evenodd" d="M322.404 163.42C321.915 163.42 321.426 163.42 320.937 163.42C315.557 163.42 310.176 163.42 304.795 163.42C303.328 163.42 301.861 163.42 300.393 163.42C300.34 154.795 301.074 146.236 302.594 137.74C304.839 125.634 307.529 113.649 310.665 101.789C312.523 97.5859 314.602 93.4281 316.901 89.3164C319.4 86.2701 321.112 86.7588 322.037 90.7838C324.858 101.106 325.958 111.622 325.339 122.333C325.332 136.103 324.354 149.799 322.404 163.42Z" fill="#BFD6FC"/>
<path opacity="0.997" fill-rule="evenodd" clip-rule="evenodd" d="M291.584 163.42C291.828 163.42 292.073 163.42 292.318 163.42C291.848 180.219 292.338 196.85 293.785 213.311C290.84 213.433 287.905 213.31 284.981 212.944C283.636 212.578 282.78 211.721 282.413 210.376C282.046 194.726 281.923 179.074 282.046 163.42C285.225 163.42 288.405 163.42 291.584 163.42Z" fill="#03104B"/>
<path opacity="0.998" fill-rule="evenodd" clip-rule="evenodd" d="M292.313 163.42C295.004 163.42 297.693 163.42 300.384 163.42C301.851 163.42 303.319 163.42 304.786 163.42C304.316 180.219 304.806 196.85 306.253 213.311C302.095 213.311 297.938 213.311 293.78 213.311C292.333 196.85 291.844 180.219 292.313 163.42Z" fill="#0A1552"/>
<path opacity="0.997" fill-rule="evenodd" clip-rule="evenodd" d="M304.79 163.488C310.17 163.488 315.551 163.488 320.931 163.488C320.931 180.119 320.931 196.749 320.931 213.38C316.039 213.38 311.149 213.38 306.257 213.38C304.809 196.918 304.32 180.288 304.79 163.488Z" fill="#25296B"/>
<path opacity="0.94" fill-rule="evenodd" clip-rule="evenodd" d="M320.93 163.488C321.419 163.488 321.908 163.488 322.397 163.488C325.332 163.488 328.267 163.488 331.201 163.488C331.324 179.142 331.201 194.794 330.835 210.445C330.468 211.79 329.612 212.646 328.267 213.013C325.833 213.378 323.388 213.501 320.93 213.38C320.93 196.749 320.93 180.119 320.93 163.488Z" fill="#1D2260"/>
</g>
</svg>
