<svg width="24" height="24" viewBox="0 0 24 24" fill="none" xmlns="http://www.w3.org/2000/svg">
<rect x="2" y="1" width="20" height="22" rx="3" fill="#F03E3E"/>
<path d="M7.40272 9.3772C8.0638 9.3772 8.54619 9.51969 8.84987 9.80468C9.15354 10.0873 9.30538 10.4774 9.30538 10.975C9.30538 11.1993 9.27151 11.4142 9.20377 11.6197C9.13602 11.823 9.02506 12.004 8.87089 12.1629C8.71905 12.3217 8.51582 12.4479 8.2612 12.5413C8.00657 12.6324 7.69238 12.678 7.31862 12.678H6.85259V14.5H5.76636V9.3772H7.40272ZM7.34666 10.2672H6.85259V11.7879H7.21C7.41323 11.7879 7.5896 11.7611 7.7391 11.7073C7.88861 11.6536 8.00424 11.5695 8.086 11.4551C8.16776 11.3406 8.20864 11.1934 8.20864 11.0136C8.20864 10.7613 8.13856 10.5744 7.9984 10.4529C7.85824 10.3291 7.64099 10.2672 7.34666 10.2672Z" fill="white"/>
<path d="M14.5228 11.8896C14.5228 12.4665 14.4119 12.9489 14.1899 13.3367C13.9704 13.7221 13.6515 14.013 13.2334 14.2092C12.8152 14.4031 12.3118 14.5 11.7231 14.5H10.2725V9.3772H11.8808C12.4181 9.3772 12.8841 9.47297 13.2789 9.66452C13.6737 9.85374 13.9797 10.1352 14.1969 10.509C14.4142 10.8804 14.5228 11.3406 14.5228 11.8896ZM13.3945 11.9176C13.3945 11.5392 13.3385 11.2285 13.2263 10.9855C13.1166 10.7402 12.953 10.5592 12.7358 10.4424C12.5209 10.3256 12.2546 10.2672 11.9369 10.2672H11.3587V13.603H11.8247C12.355 13.603 12.7486 13.4617 13.0056 13.179C13.2649 12.8964 13.3945 12.4759 13.3945 11.9176Z" fill="white"/>
<path d="M16.6532 14.5H15.5845V9.3772H18.5209V10.2672H16.6532V11.5882H18.3912V12.4747H16.6532V14.5Z" fill="white"/>
</svg>
