<svg width="24" height="24" viewBox="0 0 24 24" fill="none" xmlns="http://www.w3.org/2000/svg">
<rect x="2" y="1" width="20" height="22" rx="3" fill="#CC5DE8"/>
<path d="M6.03213 18C5.70076 18 5.43213 17.7314 5.43213 17.4V6.6C5.43213 6.26863 5.70076 6 6.03213 6C6.3635 6 6.63213 6.26863 6.63213 6.6V17.4C6.63213 17.7314 6.3635 18 6.03213 18Z" fill="white"/>
<path d="M13.3892 17.4C13.3892 17.7314 13.6578 18 13.9892 18C14.3205 18 14.5892 17.7314 14.5892 17.4V6.6C14.5892 6.26863 14.3205 6 13.9892 6C13.6578 6 13.3892 6.26863 13.3892 6.6V17.4Z" fill="white"/>
<path d="M10.0106 14C9.67927 14 9.41064 13.7314 9.41064 13.4V10.6C9.41064 10.2686 9.67927 10 10.0106 10C10.342 10 10.6106 10.2686 10.6106 10.6V13.4C10.6106 13.7314 10.342 14 10.0106 14Z" fill="white"/>
<path d="M17.9677 14C17.6363 14 17.3677 13.7314 17.3677 13.4V10.6C17.3677 10.2686 17.6363 10 17.9677 10C18.299 10 18.5677 10.2686 18.5677 10.6V13.4C18.5677 13.7314 18.299 14 17.9677 14Z" fill="white"/>
<path d="M15.3784 15.4C15.3784 15.7314 15.647 16 15.9784 16C16.3098 16 16.5784 15.7314 16.5784 15.4V8.6C16.5784 8.26863 16.3098 8 15.9784 8C15.647 8 15.3784 8.26863 15.3784 8.6V15.4Z" fill="white"/>
<path d="M11.9999 16C11.6685 16 11.3999 15.7314 11.3999 15.4V8.6C11.3999 8.26863 11.6685 8 11.9999 8C12.3313 8 12.5999 8.26863 12.5999 8.6V15.4C12.5999 15.7314 12.3313 16 11.9999 16Z" fill="white"/>
<path d="M7.42139 15.4C7.42139 15.7314 7.69002 16 8.02139 16C8.35276 16 8.62139 15.7314 8.62139 15.4V8.6C8.62139 8.26863 8.35276 8 8.02139 8C7.69002 8 7.42139 8.26863 7.42139 8.6V15.4Z" fill="white"/>
</svg>
