<svg width="24" height="24" viewBox="0 0 24 24" fill="none" xmlns="http://www.w3.org/2000/svg">
<path d="M11.997 15.2043L5.45974 2.12734L18.5342 2.12734L11.997 15.2043Z" fill="#FF6B6B"/>
<path d="M5 1C3.34315 1 2 2.34315 2 4V19.9973C2 21.6542 3.34315 22.9973 5 22.9973H19C20.6569 22.9973 22 21.6542 22 19.9973V4C22 2.34315 20.6569 1 19 1H16.5C16.5 1 12.8297 3.94874 12.4264 11.0247C12.1447 11.3173 11.8849 11.3025 11.5755 11.0247C11.0046 3.91723 7 1 7 1H5Z" fill="#81A3C5"/>
<path fill-rule="evenodd" clip-rule="evenodd" d="M6.1903 1L5.84118 1.34685C5.60611 1.58041 5.60487 1.9603 5.83842 2.19538C6.07197 2.43045 6.45187 2.43169 6.68694 2.19814L7.3283 1.56095C7.51223 1.7618 7.69814 1.97398 7.88384 2.19734L7.16905 2.74102C6.90531 2.94163 6.85413 3.31807 7.05474 3.58181C7.25535 3.84556 7.63178 3.89674 7.89553 3.69613L8.61805 3.14657C8.78504 3.37931 8.94941 3.62133 9.10947 3.8725L8.33964 4.29024C8.04839 4.44828 7.9404 4.81251 8.09845 5.10376C8.25649 5.39502 8.62072 5.503 8.91197 5.34496L9.71417 4.90965C9.83152 5.131 9.94463 5.35817 10.0526 5.59107L9.23216 5.91252C8.92362 6.03341 8.7715 6.38152 8.89239 6.69005C9.01327 6.99859 9.36138 7.15071 9.66992 7.02983L10.5093 6.70096C10.5966 6.94319 10.6778 7.19071 10.7521 7.44345L9.8859 7.65785C9.56423 7.73746 9.36801 8.06277 9.44763 8.38443C9.52725 8.70609 9.85255 8.90231 10.1742 8.8227L11.0363 8.60933C11.0575 8.71888 11.0774 8.82929 11.0959 8.94055C11.0327 9.0717 10.9973 9.21877 10.9973 9.3741V9.52462H10.2969C9.96553 9.52462 9.6969 9.79325 9.6969 10.1246C9.6969 10.456 9.96553 10.7246 10.2969 10.7246H10.9973V11.3318C9.83214 11.7436 8.99733 12.8549 8.99733 14.1611V17.1611C8.99733 17.7134 9.44505 18.1611 9.99733 18.1611H13.9973C14.5496 18.1611 14.9973 17.7134 14.9973 17.1611V14.1611C14.9973 12.8549 14.1625 11.7436 12.9973 11.3318V9.69337H13.6975C14.0288 9.69337 14.2975 9.42474 14.2975 9.09337C14.2975 8.762 14.0288 8.49337 13.6975 8.49337H12.9605C13.0027 8.23162 13.0531 7.97476 13.111 7.72285L13.9806 7.95352C14.3009 8.03847 14.6294 7.84769 14.7144 7.52739C14.7993 7.2071 14.6086 6.87858 14.2883 6.79362L13.4373 6.56791C13.5347 6.27813 13.6415 5.99597 13.7561 5.72156L14.5555 6.09989C14.855 6.24165 15.2127 6.11375 15.3545 5.81423C15.4962 5.51471 15.3683 5.15698 15.0688 5.01523L14.2684 4.63644C14.4131 4.36228 14.5647 4.09742 14.7213 3.84201L15.4632 4.33575C15.7391 4.51934 16.1115 4.44454 16.2951 4.16868C16.4787 3.89282 16.4039 3.52035 16.128 3.33676L15.3892 2.84503C15.5695 2.59738 15.7528 2.36102 15.9366 2.13615L16.6091 2.73915C16.8558 2.96036 17.2352 2.93969 17.4564 2.69297C17.6776 2.44625 17.6569 2.06691 17.4102 1.8457L16.7288 1.23476C16.8046 1.15443 16.8799 1.07617 16.9545 1H15.8574C15.8262 1.03476 15.7949 1.06984 15.7635 1.10526C14.9004 2.08038 13.9989 3.31537 13.2957 4.79138C13.2886 4.80402 13.2819 4.81701 13.2756 4.83035C13.2691 4.84389 13.2633 4.85756 13.258 4.87132C12.7642 5.92477 12.3724 7.0994 12.1671 8.38846C12.1119 8.37902 12.0552 8.3741 11.9973 8.3741C11.9329 8.3741 11.8699 8.3802 11.8088 8.39184C11.1802 5.23533 9.50654 2.77154 7.97906 1.08733C7.95245 1.058 7.92588 1.02889 7.89935 1H6.1903ZM11.9973 13.1955C11.5923 13.1955 11.2434 12.9546 11.0863 12.6083C10.5543 12.9211 10.1973 13.4994 10.1973 14.1611V16.9611H13.7973V14.1611C13.7973 13.4994 13.4403 12.9211 12.9084 12.6083C12.7512 12.9546 12.4024 13.1955 11.9973 13.1955Z" fill="white"/>
</svg>
