<svg width="24" height="24" viewBox="0 0 24 24" fill="none" xmlns="http://www.w3.org/2000/svg">
<rect x="2" y="1" width="20" height="22" rx="3" fill="#228BE6"/>
<path d="M6 7.9999C6 7.66853 6.26863 7.3999 6.6 7.3999H17.4C17.7314 7.3999 18 7.66853 18 7.9999C18 8.33127 17.7314 8.5999 17.4 8.5999H6.6C6.26863 8.5999 6 8.33127 6 7.9999Z" fill="white"/>
<path d="M6 11.9999C6 11.6685 6.26863 11.3999 6.6 11.3999H17.4C17.7314 11.3999 18 11.6685 18 11.9999C18 12.3313 17.7314 12.5999 17.4 12.5999H6.6C6.26863 12.5999 6 12.3313 6 11.9999Z" fill="white"/>
<path d="M6.6 15.3999C6.26863 15.3999 6 15.6685 6 15.9999C6 16.3313 6.26863 16.5999 6.6 16.5999H14.4C14.7314 16.5999 15 16.3313 15 15.9999C15 15.6685 14.7314 15.3999 14.4 15.3999H6.6Z" fill="white"/>
</svg>
