<svg width="110" height="32" viewBox="0 0 110 32" fill="none" xmlns="http://www.w3.org/2000/svg">
<g clip-path="url(#clip0_939_11669)">
<path d="M23.6591 16.0001C23.6591 20.0461 20.3792 23.326 16.3333 23.326C12.2873 23.326 9.00745 20.0461 9.00745 16.0001C9.00745 11.9542 12.2873 8.67432 16.3333 8.67432C20.3792 8.67432 23.6591 11.9542 23.6591 16.0001ZM11.2466 16.0001C11.2466 18.8094 13.524 21.0868 16.3333 21.0868C19.1426 21.0868 21.42 18.8094 21.42 16.0001C21.42 13.1908 19.1426 10.9134 16.3333 10.9134C13.524 10.9134 11.2466 13.1908 11.2466 16.0001Z" fill="white"/>
<path d="M31.9767 12.6405C32.5896 15.4944 32.4101 18.4615 31.4577 21.2207C30.5053 23.9799 28.8162 26.4259 26.5734 28.294L20.3777 20.8556C21.2635 20.1178 21.9306 19.1517 22.3068 18.0619C22.683 16.9722 22.7539 15.8003 22.5118 14.6732L31.9767 12.6405Z" fill="#DA77F2"/>
<path d="M27.6471 4.68629C29.8712 6.91035 31.3904 9.74059 32.0149 12.8233L22.5269 14.7453C22.2802 13.5278 21.6802 12.41 20.8018 11.5316L27.6471 4.68629Z" fill="#FFA94D"/>
<path d="M16.0443 0.00261191C18.2906 -0.0379809 20.5202 0.394937 22.5881 1.27318C24.6559 2.15143 26.5157 3.45532 28.0462 5.09996L20.9594 11.695C20.3549 11.0454 19.6204 10.5305 18.8037 10.1836C17.987 9.83672 17.1064 9.66573 16.2192 9.68177L16.0443 0.00261191Z" fill="#FCC419"/>
<path d="M25.8681 3.1513C26.8511 3.88076 27.7472 4.72063 28.5387 5.65441L21.1539 11.914C20.8413 11.5452 20.4874 11.2135 20.0992 10.9254L25.8681 3.1513Z" fill="#3BC9DB"/>
<path d="M11.5115 31.2561C8.77789 30.3921 6.32664 28.8095 4.41409 26.6738C2.50155 24.5381 1.19797 21.9278 0.639682 19.1158L10.1351 17.2306C10.3556 18.3412 10.8704 19.3722 11.6258 20.2157C12.3812 21.0592 13.3493 21.6842 14.429 22.0255L11.5115 31.2561Z" fill="#51CF66"/>
<path d="M2.42209 8.09582C3.81747 5.63996 5.83811 3.59727 8.27867 2.17532C10.7192 0.753373 13.4927 0.00284454 16.3173 8.06746e-06L16.327 9.68074C15.2115 9.68186 14.1161 9.97828 13.1521 10.5399C12.1882 11.1015 11.3902 11.9083 10.8391 12.8782L2.42209 8.09582Z" fill="#FFD43B"/>
<path d="M27.6471 27.3137C26.1614 28.7994 24.3975 29.978 22.4563 30.7821C20.5151 31.5861 18.4345 32 16.3334 32L16.3334 22.3193C17.1632 22.3193 17.985 22.1558 18.7517 21.8382C19.5184 21.5207 20.215 21.0552 20.8018 20.4684L27.6471 27.3137Z" fill="#339AF0"/>
<path d="M29.8511 24.5599C29.1648 25.6437 28.3506 26.6411 27.426 27.5305L20.7145 20.554C21.0796 20.2028 21.4012 19.8088 21.6723 19.3808L29.8511 24.5599Z" fill="#BE4BDB"/>
<path d="M0.875906 20.1312C0.271357 17.8692 0.170632 15.502 0.580841 13.1968C0.991051 10.8916 1.9022 8.70457 3.24997 6.78997L11.166 12.3625C10.6337 13.1186 10.2739 13.9824 10.1119 14.8929C9.94984 15.8033 9.98962 16.7382 10.2284 17.6316L0.875906 20.1312Z" fill="#FF922B"/>
<path d="M0.878561 11.8589C1.56739 9.28815 2.88661 6.92984 4.71676 4.99754L11.7454 11.6545C11.0225 12.4177 10.5015 13.3491 10.2294 14.3645L0.878561 11.8589Z" fill="#FFA94D"/>
<path d="M16.3334 32C14.3354 32 12.3551 31.6258 10.4949 30.8967L14.0274 21.8835C14.7621 22.1715 15.5443 22.3193 16.3334 22.3193L16.3334 32Z" fill="#22B8CF"/>
<path d="M51.1469 21.9415L55.1469 12.1282C55.1877 12.0875 55.1469 12.0128 55.0722 12.0128H51.5001C51.4729 12.0128 51.448 11.9992 51.4254 11.9721L50.1962 9.99582C50.1554 9.95507 50.1962 9.88037 50.2709 9.88037H57.5714C57.6121 9.88037 57.6461 9.92112 57.6461 9.96186V11.5035L53.5714 22.0637C53.5714 22.1045 53.5306 22.1045 53.4967 22.1045H51.2692C51.1537 22.0637 51.113 22.023 51.1537 21.9483L51.1469 21.9415Z" fill="#333333"/>
<path d="M56.9734 17.9075L57.6321 16.0332C57.6321 15.9924 57.6661 15.9924 57.7 15.9924H60.9598C60.9937 15.9924 61.0277 16.0332 61.0277 16.0739V17.9483C61.0277 17.989 60.9937 18.0298 60.9598 18.0298H57.0005C56.9666 17.989 56.9326 17.9483 56.9666 17.9075H56.9734Z" fill="#333333"/>
<path d="M50.1687 13.6358C50.1687 14.9397 49.7544 15.9313 48.8784 16.6443C48.0023 17.3167 46.7935 17.6698 45.2111 17.6698H44.0431V22.0976H41.3334V9.87354H45.4149C46.9565 9.87354 48.1246 10.1927 48.9531 10.8243C49.7476 11.4559 50.1619 12.4066 50.1619 13.6358H50.1687ZM44.0498 15.5713H44.9259C45.7612 15.5713 46.386 15.4151 46.8003 15.0959C47.2145 14.7768 47.4251 14.3421 47.4251 13.7513C47.4251 13.1605 47.2553 12.7258 46.9225 12.4066C46.5897 12.1282 46.0465 11.972 45.2994 11.972H44.0498V15.5713Z" fill="#333333"/>
<path d="M72.2269 9.87329V19.9378H73.8568V24.2977H71.3576V22.0906H63.6972V24.2977H61.198V19.9378H62.142C62.4612 19.2994 62.7668 18.6339 63.0588 17.9208C63.3576 17.2145 63.6292 16.4539 63.8873 15.639C64.1454 14.8241 64.3763 13.9412 64.58 12.9904C64.7837 12.0397 64.9603 11.0006 65.0961 9.87329H72.2201H72.2269ZM69.6462 12.0329H67.1607C67.0792 12.6237 66.9637 13.2553 66.8211 13.9208C66.6785 14.5932 66.5019 15.2723 66.305 15.965C66.108 16.6577 65.8839 17.3436 65.6462 18.0159C65.4017 18.6882 65.1437 19.3334 64.872 19.9378H69.6462V12.0261V12.0329Z" fill="#333333"/>
<path d="M75.4119 9.87329H77.7413V15.7748C77.7413 16.0668 77.7413 16.386 77.7277 16.7392C77.7209 17.0923 77.7074 17.4319 77.6938 17.7714C77.6802 18.111 77.6666 18.403 77.653 18.6543C77.6394 18.9055 77.6327 19.0753 77.6191 19.1568H77.6666L83.3101 9.87329H86.4136V22.0974H84.1046V16.2298C84.1046 15.9174 84.1046 15.5779 84.125 15.2112C84.1454 14.8444 84.1522 14.4845 84.1726 14.1381C84.1929 13.7918 84.2065 13.493 84.2269 13.2417C84.2405 12.9904 84.2541 12.8207 84.2608 12.7324H84.1929L78.5223 22.0974H75.4052V9.87329H75.4119Z" fill="#333333"/>
<path d="M94.2031 11.8564C93.7074 11.8564 93.266 11.9515 92.8857 12.1416C92.5053 12.3318 92.1862 12.6102 91.9213 12.977C91.6565 13.3437 91.4663 13.7783 91.3305 14.2877C91.1947 14.8038 91.1335 15.3742 91.1335 16.0194C91.1335 16.8819 91.2422 17.6221 91.4527 18.2333C91.67 18.8445 92.0028 19.3063 92.451 19.6323C92.8992 19.9515 93.4833 20.1145 94.1964 20.1145C94.6921 20.1145 95.1879 20.0602 95.6904 19.9447C96.1862 19.836 96.7295 19.6731 97.3135 19.4693V21.6425C96.7702 21.8666 96.2405 22.0228 95.7176 22.1247C95.1947 22.2197 94.6038 22.2673 93.9519 22.2673C92.6887 22.2673 91.6564 22.0092 90.8483 21.4863C90.0401 20.9634 89.4357 20.2367 89.0486 19.2927C88.6548 18.3556 88.4646 17.2554 88.4646 16.0058C88.4646 15.0822 88.5868 14.2333 88.8381 13.4659C89.0894 12.6985 89.4561 12.033 89.9383 11.4693C90.4205 10.9056 91.0249 10.471 91.7379 10.1654C92.451 9.85981 93.2728 9.70361 94.1964 9.70361C94.8008 9.70361 95.412 9.77832 96.0232 9.93451C96.6344 10.0907 97.2184 10.3012 97.7753 10.5661L96.94 12.6714C96.485 12.454 96.0232 12.2639 95.5614 12.1009C95.0996 11.9379 94.6446 11.8564 94.1964 11.8564H94.2031Z" fill="#333333"/>
<path d="M109.429 22.0974H106.488L102.06 15.9039V22.0974H99.4662V9.87329H102.06V15.7952L106.441 9.87329H109.198L104.743 15.7409L109.436 22.0974H109.429Z" fill="#333333"/>
</g>
<defs>
<clipPath id="clip0_939_11669">
<rect width="109.436" height="32" fill="white"/>
</clipPath>
</defs>
</svg>
