<svg width="270" height="270" viewBox="0 0 270 270" fill="none" xmlns="http://www.w3.org/2000/svg">
<g opacity="0.9">
<path opacity="0.806" fill-rule="evenodd" clip-rule="evenodd" d="M157.381 17.2422C158.359 17.2422 159.338 17.2422 160.316 17.2422C161.985 20.5578 161.007 22.5142 157.381 23.1118C156.37 21.7988 155.637 20.3314 155.18 18.7096C155.988 18.2138 156.722 17.7247 157.381 17.2422Z" fill="#339AF0"/>
<path opacity="0.906" fill-rule="evenodd" clip-rule="evenodd" d="M95.0136 22.378C101.062 22.1782 102.775 24.7461 100.149 30.0818C96.131 31.9855 93.6849 30.7627 92.8125 26.4133C93.0788 24.8049 93.8125 23.4598 95.0136 22.378Z" fill="#1E225E"/>
<path opacity="0.925" fill-rule="evenodd" clip-rule="evenodd" d="M135.366 22.3779C137.178 25.9722 138.645 29.7629 139.768 33.7502C136.375 34.922 132.951 36.0225 129.496 37.0518C128.655 36.8187 128.043 36.3296 127.662 35.5845C126.337 32.4882 125.603 29.3089 125.461 26.0464C128.886 24.983 132.187 23.7602 135.366 22.3779Z" fill="#E94A46"/>
<path opacity="0.522" fill-rule="evenodd" clip-rule="evenodd" d="M185.255 31.1822C189.084 30.7468 189.574 31.4805 186.723 33.3832C185.682 33.0129 185.193 32.2792 185.255 31.1822Z" fill="#339AF0"/>
<path opacity="0.868" fill-rule="evenodd" clip-rule="evenodd" d="M195.532 31.1817C197.019 31.0627 198.487 31.185 199.934 31.5485C202.019 33.8661 201.529 35.5781 198.467 36.6844C197.733 37.1736 196.999 37.1736 196.266 36.6844C193.966 34.9698 193.722 33.1356 195.532 31.1817Z" fill="#339AF0"/>
<path opacity="0.873" fill-rule="evenodd" clip-rule="evenodd" d="M175.723 34.1172C177.496 35.1564 178.963 36.6238 180.125 38.5194C178.64 39.8826 177.05 41.1055 175.356 42.1878C174.397 40.6167 173.296 39.1493 172.055 37.7857C173.16 36.3906 174.383 35.1678 175.723 34.1172Z" fill="#339AF0"/>
<path opacity="0.889" fill-rule="evenodd" clip-rule="evenodd" d="M209.474 33.3828C215.045 35.7406 215.167 38.1862 209.841 40.7198C208.414 39.8485 207.314 38.6257 206.539 37.0513C207.535 35.8146 208.513 34.5917 209.474 33.3828Z" fill="#339AF0"/>
<path opacity="0.913" fill-rule="evenodd" clip-rule="evenodd" d="M186.723 37.7852C191.415 40.5403 191.415 43.2305 186.723 45.8558C185.105 44.8501 183.882 43.505 183.055 41.8205C184.256 40.4793 185.478 39.1341 186.723 37.7852Z" fill="#339AF0"/>
<path opacity="0.845" fill-rule="evenodd" clip-rule="evenodd" d="M219.739 37.7852C226.121 39.7592 226.365 42.2049 220.473 45.1221C219.258 43.6839 218.035 42.2165 216.805 40.7199C218.043 39.9706 219.021 38.9924 219.739 37.7852Z" fill="#339AF0"/>
<path opacity="0.9" fill-rule="evenodd" clip-rule="evenodd" d="M163.982 42.9209C166.415 43.267 168.127 44.6121 169.118 46.9562C167.782 48.2353 166.315 49.3358 164.716 50.2579C160.574 47.9389 160.329 45.4933 163.982 42.9209Z" fill="#339AF0"/>
<path opacity="0.882" fill-rule="evenodd" clip-rule="evenodd" d="M198.466 42.1875C204.016 44.2642 204.139 46.7098 198.833 49.5245C197.462 48.3988 196.362 47.0537 195.531 45.4891C196.341 44.2306 197.32 43.1301 198.466 42.1875Z" fill="#339AF0"/>
<path opacity="0.544" fill-rule="evenodd" clip-rule="evenodd" d="M230.016 44.3887C231.032 45.2059 232.132 45.9396 233.317 46.5898C233.867 47.4225 233.745 48.1562 232.95 48.7908C231.603 47.5609 230.625 46.0935 230.016 44.3887Z" fill="#339AF0"/>
<path opacity="0.943" fill-rule="evenodd" clip-rule="evenodd" d="M152.244 52.4591C152.244 53.4374 152.244 54.4157 152.244 55.3939C147.327 55.1596 142.681 56.1379 138.304 58.3287C138.06 58.3287 137.815 58.3287 137.57 58.3287C137.649 53.0346 139.85 48.9992 144.174 46.2227C148.753 45.825 151.443 47.9038 152.244 52.4591Z" fill="#F1A09C"/>
<path opacity="0.968" fill-rule="evenodd" clip-rule="evenodd" d="M175.723 46.5898C180.717 49.3815 180.594 52.0717 175.356 54.6605C174.077 53.3244 172.977 51.857 172.055 50.2583C173.069 48.7553 174.291 47.5324 175.723 46.5898Z" fill="#339AF0"/>
<path opacity="0.934" fill-rule="evenodd" clip-rule="evenodd" d="M209.473 45.8564C214.766 48.298 214.889 50.7436 209.84 53.1934C208.092 52.281 206.747 50.9359 205.805 49.1581C207.081 48.0451 208.304 46.9445 209.473 45.8564Z" fill="#339AF0"/>
<path opacity="0.904" fill-rule="evenodd" clip-rule="evenodd" d="M221.942 49.5244C227.235 51.9659 227.357 54.4116 222.309 56.8614C220.561 55.9489 219.216 54.6039 218.273 52.826C219.827 52.0563 221.05 50.9558 221.942 49.5244Z" fill="#339AF0"/>
<path opacity="0.915" fill-rule="evenodd" clip-rule="evenodd" d="M188.192 50.2578C193.185 53.0495 193.063 55.7397 187.825 58.3285C186.546 56.9923 185.446 55.5249 184.523 53.9263C185.537 52.4232 186.76 51.2004 188.192 50.2578Z" fill="#339AF0"/>
<path opacity="0.906" fill-rule="evenodd" clip-rule="evenodd" d="M199.2 53.9268C200.409 55.3423 201.632 56.8097 202.868 58.3289C199.938 63.1396 197.492 63.0173 195.531 57.9621C196.442 56.2949 197.665 54.9498 199.2 53.9268Z" fill="#339AF0"/>
<path fill-rule="evenodd" clip-rule="evenodd" d="M158.109 64.9324C159.189 68.6586 160.411 72.327 161.778 75.9378C161.288 76.6715 160.8 77.4052 160.31 78.1389C158.668 74.6788 157.445 71.0104 156.642 67.1335C147.56 69.7098 138.511 72.4 129.495 75.2041C129.097 75.1601 128.853 74.9158 128.762 74.4704C129.676 73.1329 130.166 71.6655 130.229 70.0683C128.21 70.1255 126.254 70.2477 124.359 70.4351C127.05 69.2123 129.74 67.9895 132.43 66.7666C134.834 64.2446 136.79 61.4321 138.3 58.3291C142.676 56.1383 147.323 55.16 152.24 55.3944C152.24 54.4161 152.24 53.4378 152.24 52.4596C152.96 51.9894 153.694 51.5003 154.441 50.9922C155.656 52.4304 156.879 53.8978 158.109 55.3944C157.382 56.2493 156.649 57.1053 155.908 57.9623C157.014 60.1789 157.748 62.5023 158.109 64.9324Z" fill="#339AF0"/>
<path opacity="0.882" fill-rule="evenodd" clip-rule="evenodd" d="M163.982 55.3936C169.468 57.5505 169.59 59.9961 164.349 62.7305C162.978 61.6049 161.877 60.2598 161.047 58.6952C162.161 57.7043 163.139 56.6037 163.982 55.3936Z" fill="#339AF0"/>
<path opacity="0.913" fill-rule="evenodd" clip-rule="evenodd" d="M233.684 54.6602C238.376 57.4153 238.376 60.1055 233.684 62.7308C231.931 61.7104 230.707 60.243 230.016 58.3286C231.405 57.2682 232.628 56.0453 233.684 54.6602Z" fill="#339AF0"/>
<path opacity="0.982" fill-rule="evenodd" clip-rule="evenodd" d="M137.568 58.3291C137.812 58.3291 138.057 58.3291 138.301 58.3291C136.792 61.432 134.836 64.2445 132.432 66.7666C129.741 67.9895 127.052 69.2122 124.361 70.4351C126.255 70.2477 128.212 70.1255 130.231 70.0682C130.168 71.6655 129.678 73.1329 128.763 74.4704C128.854 74.9158 129.099 75.1601 129.497 75.2041C121.823 77.9657 113.997 80.5337 106.019 82.9079C105.683 83.2117 105.438 83.5785 105.285 84.0084C113.262 108.429 121.088 132.885 128.763 157.378C127.259 156.104 125.914 154.636 124.728 152.976C122.965 142.184 119.663 131.912 114.823 122.161C110.064 106.796 105.418 91.3887 100.883 75.9378C101.05 74.6854 101.295 73.4623 101.617 72.2693C102.247 70.1034 103.714 68.7583 106.019 68.234C116.526 64.8537 127.042 61.5521 137.568 58.3291Z" fill="#339AF0"/>
<path opacity="0.895" fill-rule="evenodd" clip-rule="evenodd" d="M210.934 58.3291C216.725 60.6501 216.725 63.0958 210.934 65.6661C207.116 63.0809 207.116 60.6353 210.934 58.3291Z" fill="#339AF0"/>
<path opacity="0.919" fill-rule="evenodd" clip-rule="evenodd" d="M176.45 59.0625C178.768 59.3683 180.236 60.7135 180.853 63.0978C177.985 67.7133 175.539 67.4687 173.516 62.3641C174.629 61.3732 175.607 60.2727 176.45 59.0625Z" fill="#339AF0"/>
<path opacity="0.699" fill-rule="evenodd" clip-rule="evenodd" d="M243.218 60.5303C244.948 61.7541 246.17 63.466 246.887 65.6661C244.717 65.7328 243.25 64.51 242.484 61.9977C242.751 61.4962 242.995 61.0071 243.218 60.5303Z" fill="#339AF0"/>
<path opacity="0.899" fill-rule="evenodd" clip-rule="evenodd" d="M187.458 62.7314C189.627 63.4324 191.094 64.8998 191.86 67.1336C190.476 68.2638 189.131 69.4867 187.825 70.8021C186.141 69.6088 185.041 68.0192 184.523 66.0331C185.637 65.0421 186.615 63.9416 187.458 62.7314Z" fill="#339AF0"/>
<path opacity="0.94" fill-rule="evenodd" clip-rule="evenodd" d="M158.109 64.9316C160.841 65.5162 163.531 66.2499 166.18 67.1327C165.62 68.6496 164.642 69.8724 163.245 70.8012C163.523 72.0581 164.257 72.7918 165.446 73.0023C164.242 73.9583 163.019 74.9363 161.778 75.9371C160.411 72.3263 159.189 68.6578 158.109 64.9316Z" fill="#D4D9D9"/>
<path opacity="0.976" fill-rule="evenodd" clip-rule="evenodd" d="M222.676 63.4648C227.607 66.1535 227.484 68.5992 222.309 70.8018C221.09 69.7037 219.989 68.4808 219.008 67.1333C220.022 65.6303 221.244 64.4074 222.676 63.4648Z" fill="#339AF0"/>
<path opacity="0.946" fill-rule="evenodd" clip-rule="evenodd" d="M185.994 77.4048C185.505 77.4048 185.261 77.6492 185.261 78.1385C181.74 78.5003 178.316 79.234 174.989 80.3396C174.192 76.4811 172.969 72.8129 171.32 69.3342C174.774 68.5098 178.197 67.5316 181.592 66.3994C182.081 66.644 182.57 66.8886 183.059 67.1331C184.19 70.5236 185.168 73.9477 185.994 77.4048Z" fill="#2173D8"/>
<path opacity="0.896" fill-rule="evenodd" clip-rule="evenodd" d="M199.935 66.3994C202.04 67.1536 203.508 68.621 204.337 70.8016C202.952 71.9318 201.608 73.1546 200.302 74.4701C198.778 73.3139 197.677 71.8465 197 70.0679C197.996 68.8312 198.974 67.6083 199.935 66.3994Z" fill="#339AF0"/>
<path fill-rule="evenodd" clip-rule="evenodd" d="M160.316 78.1382C158.127 80.5528 156.293 83.2433 154.814 86.2089C154.183 94.0294 157.484 96.7198 164.718 94.2796C165.382 94.7997 165.626 95.5334 165.452 96.4806C164.054 99.725 162.464 102.905 160.683 106.019C158.742 112.391 161.065 115.203 167.653 114.456C160.741 125.12 163.187 128.422 174.99 124.361C177.942 134.808 181.122 145.202 184.528 155.543C184.284 155.91 184.039 156.277 183.794 156.644C168.705 161.266 153.786 166.158 139.039 171.318C136.162 166.307 132.737 161.661 128.767 157.377C121.092 132.884 113.267 108.428 105.289 84.0078C105.442 83.5779 105.687 83.211 106.023 82.9073C114.001 80.533 121.827 77.9651 129.501 75.2035C138.517 72.3994 147.565 69.7091 156.648 67.1328C157.451 71.0097 158.673 74.6781 160.316 78.1382Z" fill="#FEFEFE"/>
<path opacity="0.903" fill-rule="evenodd" clip-rule="evenodd" d="M235.153 67.1328C236.945 67.8656 238.168 69.2106 238.821 71.1681C237.909 72.9156 236.564 74.2607 234.786 75.2035C233.826 73.6326 232.726 72.1649 231.484 70.8013C232.498 69.2982 233.721 68.0754 235.153 67.1328Z" fill="#339AF0"/>
<path fill-rule="evenodd" clip-rule="evenodd" d="M166.185 67.1328C166.674 67.3774 167.163 67.622 167.652 67.8665C168.054 69.2558 168.788 70.4787 169.853 71.535C169.224 72.2138 168.491 72.703 167.652 73.0024C166.918 73.0024 166.185 73.0024 165.451 73.0024C164.262 72.7919 163.528 72.0582 163.25 70.8013C164.647 69.8725 165.625 68.6497 166.185 67.1328Z" fill="#339AF0"/>
<path opacity="0.989" fill-rule="evenodd" clip-rule="evenodd" d="M167.652 67.8672C168.875 68.3563 170.098 68.8454 171.321 69.3346C172.969 72.8133 174.192 76.4815 174.989 80.34C178.316 79.2343 181.74 78.5006 185.261 78.1389C185.505 78.1389 185.75 78.1389 185.995 78.1389C186.744 80.3562 188.212 81.8235 190.397 82.5411C193.991 86.0694 197.415 89.7379 200.668 93.5465C198.552 96.8489 199.531 98.8057 203.603 99.4161C206.632 103.761 209.077 108.408 210.94 113.356C211.448 116.364 212.182 119.299 213.141 122.161C212.562 123.11 211.828 123.966 210.94 124.729C212.015 126.03 212.993 127.376 213.875 128.764C214.29 130.563 214.779 132.275 215.342 133.9C214.473 134.895 213.739 135.996 213.141 137.201C213.812 138.233 214.301 139.334 214.609 140.503C212.199 176.778 193.856 200.869 159.582 212.772C155.216 213.865 150.814 214.721 146.375 215.34C148.036 200.786 153.906 188.314 163.984 177.922C169.89 175.504 176.004 173.425 182.326 171.685C187.743 169.781 189.822 165.991 188.563 160.313C184.592 147.792 180.557 135.319 176.457 122.894C183.402 119.333 184.87 114.197 180.859 107.487C179.518 106.537 178.05 105.803 176.457 105.286C176.717 104.536 177.206 104.046 177.924 103.818C177.968 104.217 178.212 104.461 178.658 104.552C179.881 103.574 181.103 102.595 182.326 101.617C181.297 100.098 180.074 98.8754 178.658 97.9487C175.202 86.9271 170.8 86.4378 165.451 96.4813C165.625 95.5341 165.381 94.8004 164.717 94.2802C166.646 91.983 168.725 89.7819 170.954 87.677C173.064 82.051 171.963 77.1594 167.652 73.0031C168.491 72.7036 169.224 72.2145 169.853 71.5357C168.788 70.4794 168.054 69.2565 167.652 67.8672Z" fill="#D8D9DB"/>
<path opacity="0.935" fill-rule="evenodd" clip-rule="evenodd" d="M246.153 70.8018C251.268 73.9515 251.024 76.642 245.419 78.8724C244.289 77.6222 243.31 76.2773 242.484 74.8371C243.396 73.1699 244.618 71.8248 246.153 70.8018Z" fill="#339AF0"/>
<path opacity="0.99" fill-rule="evenodd" clip-rule="evenodd" d="M101.613 72.2686C101.292 73.4615 101.047 74.6846 100.879 75.937C105.414 91.3879 110.061 106.796 114.82 122.16C112.716 118.925 110.27 115.99 107.483 113.356C109.078 106.319 107.977 99.7161 104.181 93.5457C103.381 99.4006 102.769 105.27 102.347 111.154C100.375 110.909 98.6629 111.398 97.2109 112.622C97.7385 105.994 98.4722 99.3911 99.412 92.812C97.4553 93.3014 95.4992 93.79 93.5425 94.2794C93.1066 99.1768 92.618 104.068 92.0751 108.953C89.8997 108.048 87.6986 108.048 85.4718 108.953C84.8386 107.544 84.35 106.077 84.0044 104.551C92.257 100.332 91.7684 98.62 82.537 99.4153C81.6889 96.7571 80.9552 94.0674 80.3359 91.3446C82.785 90.4781 85.1086 89.2558 87.306 87.6762C87.8637 85.8559 87.2518 84.6335 85.4718 84.0077C90.232 79.2482 95.6122 75.3354 101.613 72.2686Z" fill="#D8D9DB"/>
<path fill-rule="evenodd" clip-rule="evenodd" d="M165.449 73.0029C166.183 73.0029 166.916 73.0029 167.65 73.0029C171.961 77.1593 173.062 82.0509 170.952 87.6768C168.723 89.7818 166.644 91.9829 164.715 94.2801C157.481 96.7204 154.179 94.0299 154.81 86.2095C156.289 83.2439 158.124 80.5534 160.313 78.1388C160.802 77.4051 161.291 76.6714 161.78 75.9377C163.021 74.937 164.244 73.9589 165.449 73.0029Z" fill="#FEC0B9"/>
<path opacity="0.94" fill-rule="evenodd" clip-rule="evenodd" d="M210.938 72.2686C213.37 72.6146 215.083 73.9597 216.074 76.3039C214.503 77.2636 213.036 78.3641 211.672 79.6055C207.505 77.2518 207.26 74.8064 210.938 72.2686Z" fill="#339AF0"/>
<path opacity="0.914" fill-rule="evenodd" clip-rule="evenodd" d="M190.394 82.5411C188.209 81.8235 186.742 80.3561 185.992 78.1389C185.992 77.8946 185.992 77.6495 185.992 77.4052C187.388 76.7683 188.733 76.0346 190.028 75.2041C191.247 76.3024 192.347 77.5248 193.329 78.8726C192.334 80.1096 191.356 81.3319 190.394 82.5411Z" fill="#339AF0"/>
<path opacity="0.925" fill-rule="evenodd" clip-rule="evenodd" d="M223.407 75.9375C225.839 76.2838 227.551 77.6287 228.543 79.9728C226.972 80.9325 225.504 82.033 224.14 83.2745C219.974 80.9208 219.729 78.4754 223.407 75.9375Z" fill="#339AF0"/>
<path opacity="0.587" fill-rule="evenodd" clip-rule="evenodd" d="M78.8695 84.0079C78.9868 85.2545 78.8651 86.4776 78.5026 87.6764C78.3485 86.5333 77.9817 85.5553 77.4021 84.7416C76.5847 82.7775 76.5847 80.8208 77.4021 78.8721C78.2348 80.4913 78.7235 82.203 78.8695 84.0079Z" fill="#428AF8"/>
<path opacity="0.872" fill-rule="evenodd" clip-rule="evenodd" d="M234.419 79.6064C239.99 81.9645 240.112 84.41 234.786 86.9434C233.263 85.994 232.162 84.6491 231.484 82.9081C232.598 81.9169 233.576 80.8163 234.419 79.6064Z" fill="#339AF0"/>
<path opacity="0.899" fill-rule="evenodd" clip-rule="evenodd" d="M200.668 80.3398C202.354 81.3193 203.821 82.6642 205.071 84.3752C203.696 85.9959 202.107 87.3408 200.302 88.4105C199.342 86.8397 198.241 85.3723 197 84.0083C198.105 82.6136 199.328 81.3905 200.668 80.3398Z" fill="#339AF0"/>
<path opacity="0.97" fill-rule="evenodd" clip-rule="evenodd" d="M85.4782 84.0084C87.2582 84.6342 87.8701 85.8565 87.3125 87.6768C85.115 89.2565 82.7914 90.4788 80.3423 91.3453C79.6145 91.2191 79.1259 91.4642 78.875 92.079C78.6306 92.079 78.3856 92.079 78.1413 92.079C75.6834 92.2001 73.2378 92.0775 70.8043 91.7122C69.683 89.5984 70.1721 87.8867 72.2717 86.5763C73.8491 85.5411 75.5616 84.9292 77.4076 84.7421C77.9872 85.5557 78.354 86.5337 78.5081 87.6768C78.8705 86.478 78.9923 85.2549 78.875 84.0084C81.1545 83.5858 83.3556 83.5858 85.4782 84.0084Z" fill="#1E225E"/>
<path opacity="0.869" fill-rule="evenodd" clip-rule="evenodd" d="M213.137 84.0078C214.91 85.0467 216.377 86.5141 217.539 88.41C216.054 89.7732 214.464 90.9963 212.77 92.0785C211.811 90.5076 210.71 89.0402 209.469 87.6763C210.574 86.2815 211.797 85.0585 213.137 84.0078Z" fill="#339AF0"/>
<path opacity="0.865" fill-rule="evenodd" clip-rule="evenodd" d="M246.888 83.2744C252.544 85.6963 252.666 88.3868 247.255 91.3451C245.976 90.009 244.875 88.5416 243.953 86.9429C244.949 85.7059 245.927 84.4835 246.888 83.2744Z" fill="#339AF0"/>
<path fill-rule="evenodd" clip-rule="evenodd" d="M177.922 84.0078C182.381 86.0519 182.503 88.253 178.289 90.6111C175.02 88.5318 174.898 86.3307 177.922 84.0078Z" fill="#339AF0"/>
<path opacity="0.993" fill-rule="evenodd" clip-rule="evenodd" d="M49.5216 85.4759C49.4404 85.9286 49.1959 86.2954 48.7879 86.5764C59.1124 104.66 69.1396 122.88 78.8695 141.237C74.4724 140.871 70.0701 140.504 65.6629 140.136C62.392 138.126 60.0687 135.314 58.6928 131.699C55.9905 127.223 52.1997 125.756 47.3205 127.297C48.5459 125.238 48.3013 123.404 46.5868 121.794C43.8559 121.619 41.1656 121.252 38.5162 120.693C37.4551 118.256 37.8219 116.055 39.6167 114.09C40.1059 112.867 40.1059 111.645 39.6167 110.422C36.9524 109.616 34.5068 108.394 32.2798 106.753C29.7806 94.4079 34.7942 87.0709 47.3205 84.7422C48.1157 84.8779 48.8493 85.1222 49.5216 85.4759Z" fill="#339AF0"/>
<path opacity="0.915" fill-rule="evenodd" clip-rule="evenodd" d="M224.145 87.6768C229.062 90.6431 228.939 93.3336 223.778 95.7474C222.408 94.6219 221.307 93.2771 220.477 91.7121C221.678 90.3709 222.9 89.026 224.145 87.6768Z" fill="#339AF0"/>
<path fill-rule="evenodd" clip-rule="evenodd" d="M178.654 97.948C178.599 99.9334 178.355 101.89 177.92 103.818C177.203 104.046 176.713 104.535 176.453 105.285C178.046 105.802 179.514 106.536 180.855 107.486C184.866 114.196 183.399 119.332 176.453 122.894C175.719 123.138 175.23 123.627 174.985 124.361C163.182 128.422 160.736 125.12 167.649 114.456C161.061 115.203 158.737 112.391 160.678 106.019C162.46 102.905 164.049 99.725 165.447 96.4806C170.796 86.4371 175.198 86.9264 178.654 97.948Z" fill="#FEC0B8"/>
<path fill-rule="evenodd" clip-rule="evenodd" d="M188.928 89.8779C191.105 89.9704 192.573 91.0709 193.33 93.1796C190.852 96.6382 188.651 96.5157 186.727 92.8127C187.478 91.8208 188.212 90.8427 188.928 89.8779Z" fill="#339AF0"/>
<path opacity="0.92" fill-rule="evenodd" clip-rule="evenodd" d="M78.1352 92.0791C78.3795 92.0791 78.6246 92.0791 78.8689 92.0791C79.8711 93.9786 80.6048 96.0572 81.07 98.3155C81.0186 98.8768 80.7743 99.2436 80.3363 99.4161C79.775 99.1057 79.1638 98.8607 78.502 98.6824C76.3406 99.5811 74.2613 100.559 72.2656 101.617C74.0382 98.3148 75.995 95.1357 78.1352 92.0791Z" fill="#D6DBDB"/>
<path opacity="0.908" fill-rule="evenodd" clip-rule="evenodd" d="M235.88 92.0791C241.431 94.1555 241.553 96.6016 236.247 99.4161C234.876 98.2906 233.776 96.9457 232.945 95.3807C233.755 94.1224 234.734 93.0219 235.88 92.0791Z" fill="#339AF0"/>
<path fill-rule="evenodd" clip-rule="evenodd" d="M78.875 92.0784C79.1259 91.4635 79.6146 91.2185 80.3424 91.3447C80.9616 94.0674 81.6953 96.7572 82.5435 99.4153C82.6528 100.187 82.531 100.921 82.1766 101.616C81.8707 100.695 81.2595 100.206 80.3424 100.149C80.3424 99.9047 80.3424 99.6597 80.3424 99.4153C80.7804 99.2429 81.0247 98.8761 81.0761 98.3148C80.6109 96.0565 79.8772 93.9779 78.875 92.0784Z" fill="#6598EC"/>
<path fill-rule="evenodd" clip-rule="evenodd" d="M97.212 112.622C96.4181 113.425 95.9295 114.403 95.7446 115.557C96.2486 116.787 96.738 118.011 97.212 119.226C95.1664 121.042 92.7203 121.776 89.875 121.427C89.875 121.182 89.875 120.937 89.875 120.693C91.8318 119.465 93.2992 117.753 94.2772 115.557C93.6755 114.375 92.6968 113.886 91.3424 114.09C92.7019 112.482 92.947 110.77 92.0761 108.954C92.619 104.069 93.1077 99.1773 93.5435 94.2799C95.5002 93.7905 97.4563 93.3019 99.413 92.8125C98.4732 99.3915 97.7395 105.995 97.212 112.622Z" fill="#FEFEFE"/>
<path opacity="0.932" fill-rule="evenodd" clip-rule="evenodd" d="M203.599 99.4154C199.526 98.8049 198.547 96.8482 200.664 93.5458C201.572 92.8767 202.551 92.7542 203.599 93.179C204.577 94.402 205.555 95.6244 206.533 96.8474C205.63 97.8783 204.652 98.7338 203.599 99.4154Z" fill="#339AF0"/>
<path fill-rule="evenodd" clip-rule="evenodd" d="M107.487 113.356C105.64 112.795 103.928 112.061 102.352 111.155C102.774 105.27 103.386 99.4008 104.186 93.5459C107.982 99.7163 109.082 106.32 107.487 113.356Z" fill="#FEFEFE"/>
<path opacity="0.959" fill-rule="evenodd" clip-rule="evenodd" d="M213.137 96.4814C218.042 99.4309 217.919 102.121 212.77 104.552C211.492 103.216 210.391 101.749 209.469 100.15C210.483 98.6466 211.705 97.4242 213.137 96.4814Z" fill="#339AF0"/>
<path opacity="0.931" fill-rule="evenodd" clip-rule="evenodd" d="M246.887 95.7471C252.18 98.1888 252.303 100.634 247.254 103.084C245.506 102.171 244.162 100.826 243.219 99.0487C244.495 97.9357 245.718 96.8351 246.887 95.7471Z" fill="#339AF0"/>
<path fill-rule="evenodd" clip-rule="evenodd" d="M178.656 97.9482C180.072 98.8749 181.295 100.098 182.324 101.617C181.101 102.595 179.879 103.573 178.656 104.552C178.21 104.461 177.966 104.216 177.922 103.818C178.356 101.89 178.601 99.9336 178.656 97.9482Z" fill="#339AF0"/>
<path fill-rule="evenodd" clip-rule="evenodd" d="M84.0084 104.552C83.7641 104.552 83.519 104.552 83.2747 104.552C82.7853 104.552 82.2967 104.552 81.8073 104.552C80.3201 104.671 78.8527 104.548 77.4051 104.185C76.9502 102.039 77.929 100.694 80.3399 100.149C81.257 100.206 81.8682 100.695 82.1742 101.617C82.5285 100.921 82.6503 100.188 82.541 99.4158C91.7724 98.6205 92.261 100.332 84.0084 104.552Z" fill="#1E225E"/>
<path opacity="0.996" fill-rule="evenodd" clip-rule="evenodd" d="M49.5228 85.4756C53.3307 85.7881 56.7547 87.133 59.7945 89.5109C62.0601 93.0642 64.5058 96.4876 67.1315 99.7827C68.7092 100.818 70.4211 101.43 72.2673 101.617C74.263 100.559 76.3423 99.5809 78.5037 98.6821C79.1655 98.8604 79.7767 99.1054 80.338 99.4158C80.338 99.6601 80.338 99.9052 80.338 100.149C77.9271 100.694 76.9483 102.039 77.4032 104.185C78.8508 104.548 80.3182 104.671 81.8054 104.552C80.7716 105.876 80.4047 107.343 80.7048 108.954C81.8905 109.908 82.991 109.908 84.0065 108.954C85.1143 111.289 86.0924 113.735 86.9412 116.291C85.096 117.525 83.6286 119.114 82.5391 121.06C82.6616 122.16 83.2728 122.772 84.3733 122.894C85.694 122.292 87.0396 121.804 88.4086 121.427C89.876 124.117 91.3434 126.807 92.8108 129.497C93.3339 131.767 94.0676 133.968 95.0119 136.101C93.3765 136.508 92.1541 137.487 91.3434 139.035C91.6274 139.93 92.2385 140.42 93.1777 140.503C94.2342 140.027 95.3347 139.783 96.4793 139.769C98.7956 142.928 100.752 146.352 102.349 150.041C102.349 150.774 102.349 151.508 102.349 152.242C95.4176 146.592 87.5913 142.924 78.8706 141.236C69.1408 122.879 59.1136 104.66 48.7891 86.5761C49.197 86.2951 49.4415 85.9283 49.5228 85.4756Z" fill="#339AF0"/>
<path opacity="0.938" fill-rule="evenodd" clip-rule="evenodd" d="M225.614 100.149C230.519 103.099 230.396 105.789 225.247 108.22C223.968 106.884 222.868 105.417 221.945 103.818C222.959 102.315 224.182 101.092 225.614 100.149Z" fill="#339AF0"/>
<path fill-rule="evenodd" clip-rule="evenodd" d="M191.13 101.617C195.828 103.896 195.828 106.097 191.13 108.22C189.983 107.16 189.005 105.938 188.195 104.552C189.198 103.569 190.176 102.591 191.13 101.617Z" fill="#339AF0"/>
<path opacity="0.899" fill-rule="evenodd" clip-rule="evenodd" d="M236.613 103.818C237.822 105.234 239.045 106.701 240.282 108.221C239.261 109.974 237.794 111.197 235.879 111.889C234.75 110.505 233.526 109.16 232.211 107.854C233.602 106.336 235.069 104.992 236.613 103.818Z" fill="#339AF0"/>
<path fill-rule="evenodd" clip-rule="evenodd" d="M202.13 105.285C206.79 108.025 206.668 110.226 201.763 111.888C200.635 111.004 199.779 109.904 199.195 108.587C200.309 107.596 201.287 106.495 202.13 105.285Z" fill="#339AF0"/>
<path fill-rule="evenodd" clip-rule="evenodd" d="M81.8034 104.552C82.2927 104.552 82.7814 104.552 83.2708 104.552C83.5151 106.019 83.7601 107.487 84.0045 108.954C82.989 109.908 81.8885 109.908 80.7028 108.954C80.4027 107.343 80.7696 105.876 81.8034 104.552Z" fill="#E3E9EF"/>
<path fill-rule="evenodd" clip-rule="evenodd" d="M92.0798 108.953C92.9507 110.769 92.7057 112.482 91.3461 114.089C90.2089 114.78 88.9866 115.268 87.6776 115.557C86.7987 113.41 86.065 111.209 85.4766 108.953C87.7033 108.048 89.9044 108.048 92.0798 108.953Z" fill="#339AF0"/>
<path opacity="0.928" fill-rule="evenodd" clip-rule="evenodd" d="M210.938 113.356C213.23 107.813 215.676 107.69 218.274 112.989C217.325 114.512 215.98 115.613 214.239 116.29C213.248 115.177 212.147 114.199 210.938 113.356Z" fill="#339AF0"/>
<path opacity="0.776" fill-rule="evenodd" clip-rule="evenodd" d="M248.356 108.22C248.754 108.264 248.999 108.508 249.09 108.953C248.406 110.637 247.795 112.35 247.255 114.089C246.399 113.233 245.544 112.378 244.688 111.521C245.834 110.248 247.057 109.147 248.356 108.22Z" fill="#339AF0"/>
<path fill-rule="evenodd" clip-rule="evenodd" d="M83.2734 104.552C83.5178 104.552 83.7628 104.552 84.0071 104.552C84.3527 106.077 84.8413 107.545 85.4745 108.954C86.0629 111.209 86.7966 113.41 87.6756 115.557C87.7042 116.822 87.4599 117.066 86.9419 116.291C86.093 113.735 85.115 111.289 84.0071 108.954C83.7628 107.487 83.5178 106.019 83.2734 104.552Z" fill="#619CF9"/>
<path opacity="0.951" fill-rule="evenodd" clip-rule="evenodd" d="M224.88 112.622C226.986 113.376 228.453 114.844 229.282 117.024C227.898 118.154 226.553 119.377 225.247 120.693C223.563 119.5 222.463 117.91 221.945 115.924C223.059 114.932 224.037 113.832 224.88 112.622Z" fill="#339AF0"/>
<path fill-rule="evenodd" clip-rule="evenodd" d="M191.131 114.09C195.03 116.261 195.03 118.462 191.131 120.693C187.352 118.336 187.352 116.135 191.131 114.09Z" fill="#339AF0"/>
<path fill-rule="evenodd" clip-rule="evenodd" d="M91.3434 114.09C92.6978 113.886 93.6766 114.375 94.2782 115.557C93.3002 117.753 91.8328 119.466 89.876 120.693C89.1482 120.567 88.6596 120.812 88.4086 121.427C87.0396 121.804 85.694 122.293 84.3733 122.894C83.2728 122.772 82.6616 122.161 82.5391 121.06C83.6286 119.114 85.096 117.525 86.9412 116.291C87.4592 117.067 87.7035 116.822 87.6749 115.557C88.9838 115.269 90.2062 114.78 91.3434 114.09Z" fill="#1E225E"/>
<path opacity="0.901" fill-rule="evenodd" clip-rule="evenodd" d="M237.349 116.291C239.455 117.045 240.922 118.513 241.751 120.693C240.367 121.823 239.022 123.046 237.716 124.362C236.192 123.205 235.091 121.738 234.414 119.959C235.41 118.722 236.388 117.5 237.349 116.291Z" fill="#339AF0"/>
<path fill-rule="evenodd" clip-rule="evenodd" d="M203.6 117.758C207.499 119.929 207.499 122.13 203.6 124.361C199.821 122.004 199.821 119.803 203.6 117.758Z" fill="#339AF0"/>
<path fill-rule="evenodd" clip-rule="evenodd" d="M155.907 100.149C156.55 100.053 157.039 100.297 157.374 100.883C155.155 110.25 152.709 119.543 150.037 128.763C147.244 130.308 144.309 131.164 141.233 131.331C136.22 127.296 131.206 123.261 126.192 119.225C125.759 118.504 126.004 118.015 126.926 117.758C129.032 117.097 131.111 116.363 133.162 115.557C136.341 118.002 139.521 120.448 142.7 122.894C144.51 116.604 146.1 110.245 147.469 103.818C150.313 102.509 153.125 101.286 155.907 100.149Z" fill="#E04741"/>
<path opacity="0.958" fill-rule="evenodd" clip-rule="evenodd" d="M213.872 128.764C212.99 127.376 212.012 126.03 210.938 124.728C211.825 123.966 212.559 123.11 213.139 122.16C213.7 121.85 214.311 121.605 214.973 121.427C219.448 124.486 219.082 126.932 213.872 128.764Z" fill="#339AF0"/>
<path fill-rule="evenodd" clip-rule="evenodd" d="M88.4141 121.427C88.665 120.812 89.1536 120.567 89.8815 120.693C89.8815 120.938 89.8815 121.183 89.8815 121.427C91.15 124.01 92.128 126.7 92.8162 129.498C91.3488 126.807 89.8815 124.117 88.4141 121.427Z" fill="#5B99F8"/>
<path fill-rule="evenodd" clip-rule="evenodd" d="M176.458 122.894C180.558 135.319 184.593 147.792 188.564 160.312C189.823 165.99 187.744 169.78 182.327 171.684C176.005 173.425 169.891 175.503 163.985 177.921C157.482 179.437 151.123 181.393 144.909 183.79C143.171 179.58 141.215 175.422 139.039 171.317C153.786 166.157 168.705 161.266 183.794 156.644C184.039 156.277 184.284 155.91 184.528 155.543C181.122 145.202 177.942 134.808 174.99 124.361C175.234 123.627 175.724 123.138 176.458 122.894Z" fill="#339AF0"/>
<path opacity="0.921" fill-rule="evenodd" clip-rule="evenodd" d="M226.349 125.095C231.863 127.319 231.986 129.765 226.716 132.432C225.193 131.482 224.092 130.137 223.414 128.396C224.224 127.138 225.203 126.038 226.349 125.095Z" fill="#339AF0"/>
<path opacity="0.986" fill-rule="evenodd" clip-rule="evenodd" d="M78.8761 141.236C87.5968 142.924 95.4231 146.592 102.354 152.242C102.354 152.731 102.354 153.22 102.354 153.709C101.638 155.754 101.393 157.955 101.621 160.312C95.9051 158.349 90.0356 157.738 84.0119 158.478C78.2077 160.403 72.5827 162.726 67.1369 165.448C61.576 166.902 57.2962 165.191 54.2973 160.312C52.9842 157.504 52.1282 154.57 51.7293 151.508C47.6883 152.981 43.8976 154.938 40.357 157.377C37.5912 156.829 36.3684 155.117 36.6886 152.242C36.2372 151.056 35.5035 150.078 34.4875 149.307C33.1244 151.443 31.2902 152.544 28.9848 152.608C27.0262 150.161 25.9257 147.349 25.6831 144.171C24.4115 138.546 25.512 133.532 28.9848 129.13C33.4818 126.629 37.884 126.751 42.1913 129.497C44.0037 128.956 45.7157 128.223 47.3272 127.296C52.2063 125.755 55.9971 127.223 58.6994 131.698C60.0753 135.313 62.3986 138.125 65.6695 140.136C70.0767 140.503 74.479 140.87 78.8761 141.236Z" fill="#FEFEFE"/>
<path fill-rule="evenodd" clip-rule="evenodd" d="M191.865 126.562C192.637 126.453 193.371 126.575 194.066 126.929C194.622 128.038 195.355 129.017 196.267 129.864C193.534 134.049 191.333 133.927 189.664 129.497C190.415 128.505 191.149 127.527 191.865 126.562Z" fill="#339AF0"/>
<path fill-rule="evenodd" clip-rule="evenodd" d="M102.353 111.155C103.93 112.062 105.642 112.796 107.489 113.356C110.276 115.991 112.723 118.926 114.826 122.161C119.666 131.912 122.968 142.184 124.731 152.976C125.917 154.636 127.262 156.104 128.766 157.378C132.736 161.661 136.16 166.308 139.038 171.318C141.214 175.422 143.17 179.58 144.908 183.791C144.908 184.28 144.908 184.769 144.908 185.258C145.004 185.801 144.881 186.29 144.541 186.726C131.744 171.264 118.415 155.368 104.554 139.036C104.99 131.286 102.544 124.682 97.2174 119.226C96.7434 118.011 96.254 116.788 95.75 115.557C95.9349 114.403 96.4235 113.425 97.2174 112.623C98.6694 111.399 100.381 110.91 102.353 111.155Z" fill="#FCBAB3"/>
<path fill-rule="evenodd" clip-rule="evenodd" d="M202.867 130.231C207.326 132.276 207.448 134.477 203.234 136.835C199.965 134.755 199.844 132.554 202.867 130.231Z" fill="#339AF0"/>
<path fill-rule="evenodd" clip-rule="evenodd" d="M92.8125 129.497C93.8551 131.338 95.0782 133.05 96.481 134.633C96.5962 135.64 96.4736 136.619 96.1141 137.568C95.9102 136.896 95.5433 136.407 95.0136 136.1C94.0693 133.968 93.3356 131.767 92.8125 129.497Z" fill="#528EEF"/>
<path opacity="0.047" fill-rule="evenodd" clip-rule="evenodd" d="M233.68 132.432C233.971 131.68 234.46 131.558 235.147 132.066C234.711 132.406 234.222 132.529 233.68 132.432Z" fill="#7BA7E8"/>
<path opacity="0.888" fill-rule="evenodd" clip-rule="evenodd" d="M214.608 140.503C214.3 139.333 213.811 138.233 213.141 137.201C213.739 135.996 214.472 134.895 215.342 133.9C215.794 133.818 216.161 133.574 216.442 133.166C221.067 137.318 220.456 139.763 214.608 140.503Z" fill="#339AF0"/>
<path fill-rule="evenodd" clip-rule="evenodd" d="M97.947 139.035C97.2192 138.909 96.7305 139.154 96.4796 139.769C95.3351 139.783 94.2345 140.027 93.178 140.503C92.2389 140.42 91.6277 139.93 91.3438 139.035C92.1545 137.486 93.3768 136.508 95.0122 136.1C95.542 136.407 95.9088 136.896 96.1128 137.568C96.4723 136.619 96.5948 135.64 96.4796 134.633C98.1062 133.995 99.8179 133.751 101.615 133.899C101.247 136.224 100.024 137.936 97.947 139.035Z" fill="#1E225E"/>
<path fill-rule="evenodd" clip-rule="evenodd" d="M97.212 119.226C102.539 124.682 104.985 131.285 104.549 139.035C104.294 142.012 103.805 144.947 103.082 147.84C101.01 145.172 99.2986 142.237 97.9457 139.035C100.023 137.936 101.246 136.225 101.614 133.899C99.8166 133.751 98.1049 133.996 96.4783 134.633C95.0754 133.051 93.8524 131.338 92.8098 129.497C92.1216 126.7 91.1436 124.01 89.875 121.427C92.7203 121.776 95.1664 121.042 97.212 119.226Z" fill="#339AF0"/>
<path opacity="0.432" fill-rule="evenodd" clip-rule="evenodd" d="M226.344 137.568C227.692 137.67 227.936 138.16 227.078 139.036C221.459 141.968 221.215 141.479 226.344 137.568Z" fill="#339AF0"/>
<path fill-rule="evenodd" clip-rule="evenodd" d="M96.4844 139.769C96.7353 139.154 97.2239 138.909 97.9518 139.035C99.3047 142.237 101.016 145.172 103.088 147.839C103.262 148.787 103.017 149.52 102.354 150.041C100.757 146.352 98.8007 142.928 96.4844 139.769Z" fill="#5E9AF8"/>
<path fill-rule="evenodd" clip-rule="evenodd" d="M204.333 142.704C206.915 143.298 207.893 144.765 207.268 147.106C204.765 148.282 202.808 147.67 201.398 145.272C202.567 144.576 203.545 143.72 204.333 142.704Z" fill="#339AF0"/>
<path fill-rule="evenodd" clip-rule="evenodd" d="M104.553 139.035C118.413 155.367 131.742 171.263 144.539 186.725C144.879 186.29 145.002 185.8 144.906 185.258C148.27 193.325 145.579 197.605 136.835 198.098C125.164 184.599 113.67 171.026 102.352 157.378C102.352 156.154 102.352 154.932 102.352 153.709C102.352 153.22 102.352 152.731 102.352 152.242C102.352 151.508 102.352 150.774 102.352 150.041C103.015 149.52 103.259 148.787 103.085 147.84C103.809 144.947 104.297 142.012 104.553 139.035Z" fill="#F7ADA7"/>
<path opacity="0.989" fill-rule="evenodd" clip-rule="evenodd" d="M102.35 153.709C102.35 154.932 102.35 156.154 102.35 157.377C102.426 162.045 102.793 166.691 103.451 171.318C105.435 176.536 107.269 181.795 108.953 187.092C108.058 191.981 106.713 196.751 104.918 201.399C104.165 203.409 103.065 205.121 101.617 206.535C85.3527 196.872 73.8579 183.176 67.1328 165.448C72.5786 162.726 78.2035 160.403 84.0078 158.478C90.0315 157.738 95.901 158.349 101.617 160.312C101.389 157.955 101.633 155.754 102.35 153.709Z" fill="#D8D9DB"/>
<path opacity="0.989" fill-rule="evenodd" clip-rule="evenodd" d="M102.35 157.378C113.669 171.026 125.163 184.6 136.834 198.098C145.578 197.606 148.269 193.325 144.905 185.258C144.905 184.769 144.905 184.28 144.905 183.791C151.119 181.393 157.478 179.437 163.981 177.921C153.903 188.313 148.033 200.786 146.372 215.34C144.006 227.25 140.948 238.989 137.201 250.557C135.389 252.015 133.31 252.382 130.964 251.658C115.103 248.245 99.4514 244.088 84.0078 239.185C90.9361 228.874 96.8057 217.991 101.617 206.536C103.065 205.121 104.165 203.409 104.918 201.4C106.713 196.751 108.058 191.982 108.953 187.093C107.269 181.795 105.435 176.537 103.451 171.318C102.793 166.691 102.426 162.045 102.35 157.378Z" fill="#F2A19C"/>
<path opacity="0.883" fill-rule="evenodd" clip-rule="evenodd" d="M34.8475 191.128C39.5234 191.031 41.3576 193.232 40.3502 197.731C39.0149 199.715 37.1806 200.326 34.8475 199.566C31.155 196.8 31.155 193.987 34.8475 191.128Z" fill="#E94945"/>
<path opacity="0.939" fill-rule="evenodd" clip-rule="evenodd" d="M207.269 205.068C209.437 206.258 211.394 207.726 213.139 209.471C212.057 211.903 210.467 213.859 208.37 215.34C206.359 214.394 204.525 213.172 202.867 211.672C204.354 209.457 205.821 207.256 207.269 205.068Z" fill="#1E225E"/>
<path opacity="0.835" fill-rule="evenodd" clip-rule="evenodd" d="M76.6677 214.606C78.0933 216.419 78.827 218.62 78.8688 221.21C73.7476 222.345 71.5467 220.388 72.2655 215.34C73.9053 215.557 75.3727 215.312 76.6677 214.606Z" fill="#339AF0"/>
</g>
</svg>
