<svg width="368" height="245" viewBox="0 0 368 245" fill="none" xmlns="http://www.w3.org/2000/svg">
<g opacity="0.9">
<path opacity="0.977" fill-rule="evenodd" clip-rule="evenodd" d="M308 33.5C307.003 33.5299 306.336 33.0299 306 32C307.12 30.2626 308.12 28.4292 309 26.5C307.604 24.2086 305.771 23.8753 303.5 25.5C301.763 24.3802 299.929 23.3802 298 22.5C294.899 23.8568 291.899 25.1901 289 26.5C281.641 26.3038 277.974 22.8038 278 16C290.342 14.6352 302.675 13.6352 315 13C317.92 21.6545 315.586 28.4878 308 33.5Z" fill="#24286A"/>
<path opacity="0.988" fill-rule="evenodd" clip-rule="evenodd" d="M308 33.5C308 34.1667 308 34.8333 308 35.5C308.661 40.1679 306.661 42.1679 302 41.5C301.266 40.2921 300.933 38.9587 301 37.5C298.765 37.7947 296.765 37.4614 295 36.5C294.21 35.5987 293.21 34.9321 292 34.5C290.932 33.5655 289.599 33.2322 288 33.5C288.493 31.1944 288.826 28.861 289 26.5C291.899 25.1901 294.899 23.8568 298 22.5C299.929 23.3802 301.763 24.3802 303.5 25.5C305.771 23.8753 307.604 24.2086 309 26.5C308.12 28.4292 307.12 30.2626 306 32C306.336 33.0299 307.003 33.5299 308 33.5Z" fill="#F9B7B1"/>
<path fill-rule="evenodd" clip-rule="evenodd" d="M294.803 29.4674C294.803 29.7119 294.803 29.9565 294.803 30.2011C293.556 30.3186 292.333 30.1963 291.134 29.8342C290.437 29.3078 290.315 28.6964 290.767 28C291.827 29.2146 293.173 29.7036 294.803 29.4674Z" fill="#705F84"/>
<path opacity="0.95" fill-rule="evenodd" clip-rule="evenodd" d="M104 51.4998C104.157 50.1264 103.99 48.793 103.5 47.4998C101.651 48.5606 99.6509 49.2273 97.5 49.4998C90.2156 46.9757 85.2156 49.309 82.5 56.4998C80.6295 54.7809 78.4628 53.7809 76 53.4998C71.8957 49.5955 69.3957 44.9288 68.5 39.4998C71.4304 37.9335 74.5971 37.1002 78 36.9998C91.5429 26.3459 101.21 29.1793 107 45.4998C106.499 47.8355 105.499 49.8355 104 51.4998Z" fill="#E94A47"/>
<path opacity="0.11" fill-rule="evenodd" clip-rule="evenodd" d="M292 34.5C293.21 34.9321 294.21 35.5987 295 36.5C293.321 36.7148 292.321 36.0481 292 34.5Z" fill="#312E69"/>
<path opacity="0.995" fill-rule="evenodd" clip-rule="evenodd" d="M308 35.5C320.209 38.883 329.709 45.883 336.5 56.5C341.134 60.1321 345.467 64.1321 349.5 68.5C352.862 74.8403 353.695 81.5069 352 88.5C348.294 91.8527 343.961 93.8527 339 94.5C330.792 96.4671 322.459 97.6338 314 98C310.783 103.715 306.449 108.215 301 111.5C299.414 112.413 297.914 112.413 296.5 111.5C295.622 107.948 294.456 104.614 293 101.5C292.733 99.0347 292.066 96.7014 291 94.5C291.237 93.209 290.904 92.209 290 91.5C290.237 90.209 289.904 89.209 289 88.5C291.667 86.1667 294.333 83.8333 297 81.5C304.453 76.4846 307.286 69.4846 305.5 60.5C304.652 54.0936 303.485 47.7602 302 41.5C306.661 42.1679 308.661 40.1679 308 35.5Z" fill="#222768"/>
<path opacity="0.988" fill-rule="evenodd" clip-rule="evenodd" d="M104 51.5C103.025 54.0667 102.358 56.7334 102 59.5C98.65 59.6135 95.3167 59.9469 92 60.5C89.5741 60.5965 87.4074 59.9298 85.5 58.5C84.1288 60.0414 82.6288 61.3747 81 62.5C77.7694 60.4793 76.1027 57.4793 76 53.5C78.4628 53.7811 80.6295 54.7811 82.5 56.5C85.2156 49.3092 90.2156 46.9759 97.5 49.5C99.6509 49.2275 101.651 48.5608 103.5 47.5C103.99 48.7932 104.157 50.1266 104 51.5Z" fill="#FBB7B1"/>
<path fill-rule="evenodd" clip-rule="evenodd" d="M101.803 53.4674C101.803 53.7119 101.803 53.9565 101.803 54.2011C100.556 54.3186 99.3332 54.1963 98.1343 53.8342C97.4366 53.3078 97.3148 52.6964 97.7674 52C98.8269 53.2146 100.173 53.7036 101.803 53.4674Z" fill="#705F84"/>
<path opacity="0.988" fill-rule="evenodd" clip-rule="evenodd" d="M75.999 53.5002C76.1017 57.4795 77.7684 60.4795 80.999 62.5002C73.3814 70.0567 68.0481 79.0567 64.999 89.5002C65.2179 90.9382 65.7179 92.2715 66.499 93.5002C70.5084 97.3427 74.3417 101.342 77.999 105.5C73.9249 108.245 70.9249 111.912 68.999 116.5C66.7723 118.607 64.7723 120.94 62.999 123.5C61.0183 125.144 59.0183 126.81 56.999 128.5C51.5893 126.424 47.9226 122.757 45.999 117.5C45.812 115.436 45.312 113.436 44.499 111.5C41.4672 106.48 38.4672 101.48 35.499 96.5002C35.0938 92.7874 35.0938 89.1208 35.499 85.5002C30.5162 81.9371 25.6828 78.2704 20.999 74.5002C14.4158 68.7133 15.0824 63.5466 22.999 59.0002C32.5574 57.5192 41.8908 55.1858 50.999 52.0002C59.4282 51.1529 67.7616 51.6529 75.999 53.5002Z" fill="#222769"/>
<path opacity="0.993" fill-rule="evenodd" clip-rule="evenodd" d="M255.999 81.5C255.29 82.404 254.29 82.7373 252.999 82.5C252.999 84.5 252.999 86.5 252.999 88.5C235.332 88.5 221.166 89.5 203.499 89.5C202.667 105.995 252.999 114.5 198.499 138.5C197.33 144.186 196.163 149.853 194.999 155.5C194.065 156.568 193.731 157.901 193.999 159.5C193.001 130.671 192.668 101.671 192.999 72.5C206.003 72.3334 219.003 72.5001 231.999 73C234.811 75.9015 237.811 78.5681 240.999 81C245.988 81.4993 250.988 81.6659 255.999 81.5Z" fill="#7CADFF"/>
<path opacity="0.976" fill-rule="evenodd" clip-rule="evenodd" d="M21.0028 74.5C25.6866 78.2702 30.52 81.9369 35.5028 85.5C35.0976 89.1206 35.0976 92.7872 35.5028 96.5C38.471 101.48 41.471 106.48 44.5028 111.5C45.3158 113.436 45.8158 115.436 46.0028 117.5C47.412 131.476 48.412 145.476 49.0028 159.5C48.6287 176.572 47.9621 193.572 47.0028 210.5C42.5328 211.486 37.8661 211.819 33.0028 211.5C29.1552 207.145 26.3219 202.145 24.5028 196.5C21.7832 174.239 20.1165 151.906 19.5028 129.5C15.3608 117.132 13.6941 104.465 14.5028 91.5C15.5788 85.3595 17.7454 79.6928 21.0028 74.5Z" fill="#349BF0"/>
<path fill-rule="evenodd" clip-rule="evenodd" d="M200.5 75.5C211.167 75.5 221.833 75.5 232.5 75.5C232.5 77.8333 232.5 80.1667 232.5 82.5C221.833 82.5 211.167 82.5 200.5 82.5C200.5 80.1667 200.5 77.8333 200.5 75.5Z" fill="#9ABEFA"/>
<path fill-rule="evenodd" clip-rule="evenodd" d="M201.5 76.5C211.5 76.5 221.5 76.5 231.5 76.5C231.5 78.1667 231.5 79.8333 231.5 81.5C221.5 81.5 211.5 81.5 201.5 81.5C201.5 79.8333 201.5 78.1667 201.5 76.5Z" fill="#7CADFE"/>
<path opacity="0.982" fill-rule="evenodd" clip-rule="evenodd" d="M256 81.5C269.667 81.5 283.333 81.5 297 81.5C294.333 83.8333 291.667 86.1667 289 88.5C277 88.5 265 88.5 253 88.5C253 86.5 253 84.5 253 82.5C254.291 82.7373 255.291 82.404 256 81.5Z" fill="#7CADFF"/>
<path fill-rule="evenodd" clip-rule="evenodd" d="M200.5 88.5C218.167 88.5 235.333 88.5 253 88.5C265 88.5 277 88.5 289 88.5C289.904 89.209 290.237 90.209 290 91.5C277.511 92.4954 264.844 92.8287 252 92.5C237.667 92.5 223.333 92.5 209 92.5C206.33 104.848 203.497 117.181 200.5 129.5C200.5 88.5 201 129.5 200.5 88.5Z" fill="#D2D6DB"/>
<path fill-rule="evenodd" clip-rule="evenodd" d="M200.5 129.5C203.497 117.181 206.33 104.848 209 92.5C223.333 92.5 237.667 92.5 252 92.5C241.866 114.223 231.532 135.889 221 157.5C212.359 158.498 203.692 158.831 195 158.5C195 157.5 195 156.5 195 155.5C196.164 149.853 197.331 144.186 198.5 138.5C200.5 129.5 200.25 129.5 200.5 129.5Z" fill="#9ABEFA"/>
<path fill-rule="evenodd" clip-rule="evenodd" d="M159 98.5C156.965 100.709 154.632 102.709 152 104.5C151.001 116.148 150.668 127.814 151 139.5C152.599 139.232 153.932 139.566 155 140.5C155 141.833 155 143.167 155 144.5C153.667 144.5 152.333 144.5 151 144.5C150.021 141.375 149.687 138.042 150 134.5C150 122.5 150 110.5 150 98.5C128.333 98.5 106.667 98.5 85 98.5C85 96.8333 85 95.1667 85 93.5C86.3333 93.5 87.6667 93.5 89 93.5C89 92.1667 89 90.8333 89 89.5C112.333 89.5 135.667 89.5 159 89.5C159 92.5 159 95.5 159 98.5Z" fill="#9ABEFA"/>
<path opacity="0.989" fill-rule="evenodd" clip-rule="evenodd" d="M339 94.5C338.555 102.28 336.555 109.614 333 116.5C329.001 122.461 324.501 128.128 319.5 133.5C315.68 140.771 314.847 148.437 317 156.5C316.653 161.884 315.986 167.217 315 172.5C314.327 178.215 314.993 183.882 317 189.5C316.082 196.172 314.082 202.506 311 208.5C309.455 209.452 307.788 209.785 306 209.5C300.425 208.548 294.759 208.214 289 208.5C288.333 192.167 287.667 175.833 287 159.5C288.546 147.982 291.379 136.649 295.5 125.5C297.266 120.802 299.433 116.302 302 112C301.772 111.601 301.438 111.435 301 111.5C306.449 108.215 310.783 103.715 314 98C322.459 97.6338 330.792 96.4671 339 94.5Z" fill="#349BF0"/>
<path opacity="0.958" fill-rule="evenodd" clip-rule="evenodd" d="M158.999 98.5C158.999 112.5 158.999 126.5 158.999 140.5C157.666 140.5 156.332 140.5 154.999 140.5C153.931 139.566 152.598 139.232 150.999 139.5C150.667 127.814 151 116.148 151.999 104.5C154.631 102.709 156.964 100.709 158.999 98.5Z" fill="#9ABEFA"/>
<path opacity="0.998" fill-rule="evenodd" clip-rule="evenodd" d="M290.004 91.5C290.908 92.209 291.241 93.209 291.004 94.5C283.054 99.394 277.387 102.394 268.004 102.5C269.88 103.517 268.88 103.851 271.004 104.5C267.487 107.428 266.987 109.594 262.504 111C263.267 111.944 260.767 112.444 262.004 112.5C280.004 103 267.99 112.278 263.004 115C265.87 116.457 267.87 116.79 271.004 116C275.323 112.425 279.656 108.758 284.004 105C287.075 103.704 290.075 102.538 293.004 101.5C294.46 104.614 295.626 107.948 296.504 111.5C297.918 112.413 299.418 112.413 301.004 111.5C301.442 111.435 301.776 111.601 302.004 112C299.437 116.302 297.27 120.802 295.504 125.5C291.383 136.649 288.55 147.982 287.004 159.5C256.004 159.5 225.004 159.5 194.004 159.5C193.736 157.901 194.07 156.568 195.004 155.5C195.004 156.5 195.004 157.5 195.004 158.5C203.696 158.831 212.363 158.498 221.004 157.5C231.536 135.889 241.87 114.223 252.004 92.5C264.848 92.8287 277.515 92.4954 290.004 91.5Z" fill="#9ABEFA"/>
<path opacity="0.999" fill-rule="evenodd" clip-rule="evenodd" d="M85 98.5C106.667 98.5 128.333 98.5 150 98.5C150 110.5 150 122.5 150 134.5C145.667 134.5 141.333 134.5 137 134.5C136.333 143.833 135.667 143.833 135 134.5C130.667 134.5 126.333 134.5 122 134.5C121.667 143.833 121.333 143.833 121 134.5C116.667 134.5 112.333 134.5 108 134.5C107.954 143.714 107.287 143.714 106 134.5C102 134.5 98 134.5 94 134.5C93.3333 143.833 92.6667 143.833 92 134.5C87.9975 134.036 84.3309 134.702 81 136.5C81 130.833 81 125.167 81 119.5C87.3569 123.008 94.0235 126.008 101 128.5C105.429 127.738 105.763 126.405 108 122.5C103.115 121.091 101.448 118.091 97 115.5C97.9803 114.019 99.147 112.685 100.5 111.5C101.249 110.365 101.083 110.365 100 109.5C97.2443 112.427 94.0777 113.76 90.5 115.5C86.2469 114.385 83.0802 112.051 81 108.5C81 105.167 81 101.833 81 98.5C82.3333 98.5 83.6667 98.5 85 98.5Z" fill="#E0E0E1"/>
<path opacity="0.99" fill-rule="evenodd" clip-rule="evenodd" d="M78 105.5C78.6667 106.833 79.6667 107.833 81 108.5C83.0802 112.051 86.2469 114.385 90.5 115.5C93.5279 114.027 96.2613 112.13 98.7004 109.807C99.4547 109.089 100.857 108.982 100.953 110.019C100.996 110.484 100.845 110.978 100.5 111.5C99.147 112.685 97.9803 114.019 97 115.5C100.332 117.441 103.787 119.05 107.365 120.328C109.196 120.982 110.078 123.161 108.724 124.556C106.692 126.649 104.117 127.964 101 128.5C94.0235 126.008 87.3569 123.008 81 119.5C77.1781 117.878 73.1781 116.878 69 116.5C70.9259 111.912 73.9259 108.245 78 105.5Z" fill="#FDBEB6"/>
<path fill-rule="evenodd" clip-rule="evenodd" d="M291 94.5C292.066 96.7014 292.733 99.0347 293 101.5C290.071 102.538 287.071 103.704 284 105C279.652 108.758 275.319 112.425 271 116C269.289 116.342 266.642 116.918 264.5 116.447C263.912 116.318 263.363 116.11 262.881 115.796C262.36 115.457 262.499 114.726 263.033 114.407C268.188 111.329 276.02 105.023 262 112.5C261.821 112.492 261.647 112.475 261.478 112.448C260.084 112.228 260.459 110.539 261.767 110.011C265.146 108.648 268.223 106.812 271 104.5C270.143 104.238 269.306 103.946 268.49 103.624C267.53 103.246 267.819 101.905 268.847 101.819C276.763 101.158 284.148 98.7181 291 94.5Z" fill="#F9BBB6"/>
<path opacity="0.993" fill-rule="evenodd" clip-rule="evenodd" d="M46 117.5C47.9236 122.757 51.5903 126.424 57 128.5C59.0193 126.81 61.0193 125.144 63 123.5C66.9787 130.767 69.9787 138.434 72 146.5C71.0041 146.414 70.1708 146.748 69.5 147.5C64.5572 155.075 59.3905 162.409 54 169.5C52.3162 166.132 50.6496 162.799 49 159.5C48.4092 145.476 47.4092 131.476 46 117.5Z" fill="#3482EE"/>
<path opacity="0.982" fill-rule="evenodd" clip-rule="evenodd" d="M150 134.5C149.687 138.042 150.021 141.375 151 144.5C151 145.833 151 147.167 151 148.5C127.667 148.5 104.333 148.5 81 148.5C81 144.5 81 140.5 81 136.5C84.3309 134.702 87.9975 134.036 92 134.5C92.6667 143.833 93.3333 143.833 94 134.5C98 134.5 102 134.5 106 134.5C107.287 143.714 107.954 143.714 108 134.5C112.333 134.5 116.667 134.5 121 134.5C121.333 143.833 121.667 143.833 122 134.5C126.333 134.5 130.667 134.5 135 134.5C135.667 143.833 136.333 143.833 137 134.5C141.333 134.5 145.667 134.5 150 134.5Z" fill="#EAEAEA"/>
<path opacity="0.983" fill-rule="evenodd" clip-rule="evenodd" d="M333 116.5C331.352 124.088 330.852 131.755 331.5 139.5C335.134 145.813 338.801 152.147 342.5 158.5C344.213 163.396 345.546 168.396 346.5 173.5C353.594 183.786 355.928 195.119 353.5 207.5C352.79 208.973 351.624 209.64 350 209.5C344.091 208.545 338.091 208.211 332 208.5C326.299 196.435 320.633 184.435 315 172.5C315.986 167.217 316.653 161.884 317 156.5C314.847 148.437 315.68 140.771 319.5 133.5C324.501 128.128 329.001 122.461 333 116.5Z" fill="#1F73D9"/>
<path opacity="0.959" fill-rule="evenodd" clip-rule="evenodd" d="M72 146.5C79.1962 168.089 86.1962 189.756 93 211.5C88.3333 211.5 83.6667 211.5 79 211.5C75.3362 207.668 71.8362 203.668 68.5 199.5C66.5 192.833 64.5 186.167 62.5 179.5C59.8314 176 56.998 172.667 54 169.5C59.3905 162.409 64.5572 155.075 69.5 147.5C70.1708 146.748 71.0041 146.414 72 146.5Z" fill="#3482EE"/>
<path opacity="0.979" fill-rule="evenodd" clip-rule="evenodd" d="M289 208.5C294.759 208.214 300.425 208.548 306 209.5C307.431 214.011 309.098 218.345 311 222.5C311.017 224.565 311.35 226.565 312 228.5C295.33 228.667 278.663 228.5 262 228C266.362 222.305 272.029 218.305 279 216C282.542 213.734 285.875 211.234 289 208.5Z" fill="#E84947"/>
<path opacity="0.913" fill-rule="evenodd" clip-rule="evenodd" d="M47 210.5C52.1237 215.57 58.1237 219.404 65 222C67.1509 223.405 68.8176 226.239 70 228.5C28 229 70 228.5 28 228.5C29.8651 222.903 31.5318 217.237 33 211.5C37.8633 211.819 42.53 211.486 47 210.5Z" fill="#A1C3FC"/>
<path opacity="0.913" fill-rule="evenodd" clip-rule="evenodd" d="M79 211.5C83.6667 211.5 88.3333 211.5 93 211.5C99.0056 215.838 105.339 219.671 112 223C113.519 224.351 114.852 226.851 116 228.5C74 228.5 96 228.5 74 228.5C75.3673 222.76 77.034 217.093 79 211.5Z" fill="#A1C3FC"/>
<path opacity="0.913" fill-rule="evenodd" clip-rule="evenodd" d="M332 208.5C338.091 208.211 344.091 208.545 350 209.5C352.404 215.713 354.404 222.046 356 228.5C341.333 228.5 326.667 228.5 312 228.5C311.35 226.565 311.017 224.565 311 222.5C318.897 219.06 325.897 214.394 332 208.5Z" fill="#DB3D48"/>
</g>
</svg>
