<svg width="270" height="270" viewBox="0 0 270 270" fill="none" xmlns="http://www.w3.org/2000/svg">
<g opacity="0.9">
<g clip-path="url(#clip0_3799_102598)">
<path opacity="0.966" fill-rule="evenodd" clip-rule="evenodd" d="M146.294 21.8164C146.171 21.8164 146.049 21.8164 145.927 21.8164C145.866 23.8999 145.927 25.9799 146.11 28.0562C146.901 31.4632 147.574 34.8889 148.129 38.3335C147.517 38.3335 146.905 38.3335 146.294 38.3335C146.294 44.451 146.294 50.5684 146.294 56.6859C150.209 56.6859 154.124 56.6859 158.039 56.6859C158.039 50.5684 158.039 44.451 158.039 38.3335C156.449 38.3335 154.858 38.3335 153.267 38.3335C153.392 36.1625 153.637 34.0214 154.002 31.9102C153.775 30.4923 153.469 29.0853 153.084 27.6892C152.027 31.1559 151.354 34.704 151.065 38.3335C149.856 34.1069 148.816 29.8247 147.945 25.4869C147.357 24.268 146.806 23.0445 146.294 21.8164Z" fill="#A1C3FB"/>
<path opacity="0.941" fill-rule="evenodd" clip-rule="evenodd" d="M134.555 21.8164C121.953 21.8164 109.351 21.8164 96.7488 21.8164C96.7488 33.4396 96.7488 45.0627 96.7488 56.6859C97.85 56.6859 98.9511 56.6859 100.052 56.6859C100.052 46.1639 100.052 35.6419 100.052 25.1198C110.452 25.1198 120.852 25.1198 131.251 25.1198C131.251 35.6419 131.251 46.1639 131.251 56.6859C132.352 56.6859 133.454 56.6859 134.555 56.6859C134.555 45.0627 134.555 33.4396 134.555 21.8164ZM100.052 56.6859C102.255 56.6859 104.457 56.6859 106.659 56.6859C105.698 55.9695 104.841 55.1131 104.09 54.1166C105.414 53.7535 106.76 53.6311 108.127 53.7495C106.168 51.2961 105.312 48.4821 105.558 45.3074C112.287 45.3074 119.016 45.3074 125.746 45.3074C126.14 48.5262 125.284 51.3402 123.176 53.7495C124.544 53.6311 125.89 53.7535 127.214 54.1166C126.594 54.9808 125.86 55.7149 125.011 56.3189C127.021 56.6818 129.101 56.8042 131.251 56.6859C131.251 46.1639 131.251 35.6419 131.251 25.1198C120.852 25.1198 110.452 25.1198 100.052 25.1198C100.052 35.6419 100.052 46.1639 100.052 56.6859Z" fill="#E5E5E5"/>
<path opacity="0.985" fill-rule="evenodd" clip-rule="evenodd" d="M108.124 53.7497C113.141 54.2391 118.157 54.2391 123.173 53.7497C125.281 51.3404 126.137 48.5264 125.743 45.3076C119.014 45.3076 112.284 45.3076 105.555 45.3076C105.309 48.4823 106.165 51.2963 108.124 53.7497Z" fill="#CEDFFC"/>
<path opacity="0.948" fill-rule="evenodd" clip-rule="evenodd" d="M123.173 53.7497C118.157 54.2391 113.141 54.2391 108.124 53.7497C106.757 53.6313 105.411 53.7537 104.087 54.1168C104.839 55.1133 105.695 55.9697 106.656 56.6861C112.802 56.8029 118.92 56.6805 125.009 56.3191C125.857 55.7151 126.591 54.981 127.211 54.1168C125.887 53.7537 124.541 53.6313 123.173 53.7497Z" fill="#A1C3FB"/>
<path opacity="0.998" fill-rule="evenodd" clip-rule="evenodd" d="M125.008 56.3193C118.919 56.6808 112.802 56.8031 106.656 56.6864C104.454 56.6864 102.251 56.6864 100.049 56.6864C98.9478 56.6864 97.8467 56.6864 96.7455 56.6864C92.8302 56.6864 88.9153 56.6864 85 56.6864C85 57.7875 85 58.8887 85 59.9898C104.698 59.9898 124.396 59.9898 144.095 59.9898C145.234 59.5218 146.335 59.5218 147.398 59.9898C153.883 59.9898 160.367 59.9898 166.852 59.9898C166.852 58.8887 166.852 57.7875 166.852 56.6864C163.915 56.6864 160.979 56.6864 158.042 56.6864C154.127 56.6864 150.212 56.6864 146.297 56.6864C142.382 56.6864 138.467 56.6864 134.551 56.6864C133.45 56.6864 132.349 56.6864 131.248 56.6864C129.098 56.8046 127.018 56.6823 125.008 56.3193Z" fill="#ECECED"/>
<path opacity="0.917" fill-rule="evenodd" clip-rule="evenodd" d="M144.093 59.9897C144.093 77.975 144.093 95.9603 144.093 113.946C140.3 113.946 136.507 113.946 132.714 113.946C126.877 114.431 121.005 114.431 115.096 113.946C107.021 113.946 98.9458 113.946 90.8707 113.946C90.8707 128.383 90.8707 142.82 90.8707 157.257C108.611 157.257 126.352 157.257 144.093 157.257C144.093 172.795 144.093 188.334 144.093 203.872C140.422 203.872 136.752 203.872 133.081 203.872C122.07 203.872 111.058 203.872 100.047 203.872C96.9883 203.872 93.9294 203.872 90.8707 203.872C90.8707 218.187 90.8707 232.502 90.8707 246.817C128.065 246.817 165.259 246.817 202.453 246.817C202.453 232.502 202.453 218.187 202.453 203.872C197.559 203.872 192.665 203.872 187.771 203.872C182.633 203.872 177.494 203.872 172.355 203.872C164.035 203.872 155.716 203.872 147.396 203.872C147.396 197.021 147.396 190.169 147.396 183.318C147.396 182.216 147.396 181.115 147.396 180.014C147.396 172.428 147.396 164.843 147.396 157.257C165.748 157.257 184.101 157.257 202.453 157.257C202.453 142.82 202.453 128.383 202.453 113.946C201.107 113.946 199.761 113.946 198.416 113.946C197.314 113.946 196.213 113.946 195.112 113.946C190.275 114.066 185.504 113.944 180.797 113.579C180.231 113.873 179.62 113.995 178.962 113.946C177.739 113.946 176.515 113.946 175.292 113.946C174.313 113.946 173.334 113.946 172.355 113.946C170.398 113.946 168.44 113.946 166.482 113.946C164.158 113.946 161.833 113.946 159.509 113.946C158.238 114.306 156.892 114.428 155.471 114.313C155.226 114.19 154.982 114.068 154.737 113.946C154.615 113.946 154.492 113.946 154.37 113.946C154.059 114.359 153.692 114.359 153.269 113.946C153.024 113.946 152.78 113.946 152.535 113.946C152.223 114.359 151.856 114.359 151.434 113.946C150.088 113.946 148.742 113.946 147.396 113.946C147.396 107.094 147.396 100.243 147.396 93.391C146.949 86.5382 146.949 79.6865 147.396 72.8363C147.396 68.554 147.396 64.272 147.396 59.9897C146.333 59.5217 145.232 59.5217 144.093 59.9897ZM97.1105 153.954C97.1105 151.017 97.1105 148.081 97.1105 145.145C97.8446 145.145 98.5787 145.145 99.3128 145.145C99.3128 144.533 99.3128 143.921 99.3128 143.309C98.1027 143.372 97.9801 143.128 98.9458 142.575C99.3081 141.376 99.4303 140.152 99.3128 138.905C97.4302 138.824 97.4302 138.58 99.3128 138.171C99.3778 137.26 99.0107 136.587 98.2117 136.152C99.7731 135.909 100.018 135.236 98.9458 134.133C99.8139 133.918 100.548 133.49 101.148 132.849C101.956 132.546 102.629 132.729 103.167 133.399C103.521 132.753 103.949 132.631 104.451 133.032C103.253 134.637 103.62 135.677 105.553 136.152C105.205 136.329 104.838 136.39 104.451 136.336C104.451 137.07 104.451 137.804 104.451 138.538C106.321 138.579 106.321 138.885 104.451 139.455C104.941 139.945 104.941 140.434 104.451 140.924C107.143 140.948 107.265 141.376 104.819 142.208C104.459 143.157 104.337 144.136 104.451 145.145C105.063 145.145 105.675 145.145 106.287 145.145C106.287 148.081 106.287 151.017 106.287 153.954C118.889 153.954 131.491 153.954 144.093 153.954C144.093 151.996 144.093 150.038 144.093 148.081C145.683 148.081 147.274 148.081 148.864 148.081C148.864 146.124 148.864 144.166 148.864 142.208C148.375 142.208 147.885 142.208 147.396 142.208C147.396 140.006 147.396 137.804 147.396 135.601C156.205 135.601 165.014 135.601 173.823 135.601C173.823 137.681 173.823 139.761 173.823 141.841C176.515 141.841 179.207 141.841 181.898 141.841C181.898 144.043 181.898 146.246 181.898 148.448C180.308 148.448 178.717 148.448 177.127 148.448C177.127 150.283 177.127 152.119 177.127 153.954C184.468 153.954 191.809 153.954 199.15 153.954C199.15 141.719 199.15 129.484 199.15 117.249C164.158 117.249 129.166 117.249 94.1742 117.249C94.1742 129.484 94.1742 141.719 94.1742 153.954C95.1531 153.954 96.1316 153.954 97.1105 153.954ZM162.078 243.88C162.078 237.396 162.078 230.911 162.078 224.427C163.917 224.488 165.752 224.426 167.584 224.243C167.217 223.876 166.85 223.509 166.482 223.142C166.911 222.714 167.339 222.286 167.767 221.858C167.815 219.503 168.059 217.179 168.501 214.884C172.148 210.13 175.941 210.008 179.88 214.517C180.931 216.838 181.42 219.285 181.348 221.858C182.455 222.597 182.516 223.393 181.531 224.243C183.24 224.426 184.953 224.488 186.67 224.427C186.67 230.911 186.67 237.396 186.67 243.88C190.83 243.88 194.99 243.88 199.15 243.88C199.15 231.646 199.15 219.41 199.15 207.176C181.898 207.176 164.647 207.176 147.396 207.176C147.396 219.41 147.396 231.646 147.396 243.88C152.29 243.88 157.184 243.88 162.078 243.88ZM120.602 243.88C119.754 243.492 118.898 243.064 118.032 242.596C121.082 234.058 124.202 225.555 127.392 217.086C128.493 217.575 129.594 218.065 130.695 218.554C130.739 217.793 131.106 217.304 131.797 217.086C132.821 217.418 133.861 217.663 134.916 217.82C134.916 215.985 134.916 214.15 134.916 212.314C137.241 212.314 139.566 212.314 141.89 212.314C141.89 222.836 141.89 233.358 141.89 243.88C142.624 243.88 143.359 243.88 144.093 243.88C144.093 231.646 144.093 219.41 144.093 207.176C127.453 207.176 110.814 207.176 94.1742 207.176C94.1742 219.41 94.1742 231.646 94.1742 243.88C102.983 243.88 111.792 243.88 120.602 243.88ZM174.925 213.782C173.245 213.807 171.96 214.542 171.071 215.985C170.078 218.599 170.383 220.985 171.988 223.142C171.893 223.605 171.648 223.972 171.254 224.243C173.456 224.488 175.659 224.488 177.861 224.243C177.494 223.876 177.127 223.509 176.76 223.142C178.719 221.504 179.148 219.485 178.044 217.086C177.425 215.55 176.385 214.449 174.925 213.782ZM128.677 243.88C130.757 243.88 132.836 243.88 134.916 243.88C134.978 235.804 134.916 227.729 134.733 219.655C132.712 227.737 130.694 235.812 128.677 243.88ZM129.044 224.794C126.582 231.074 124.258 237.436 122.07 243.88C123.37 243.995 124.593 243.873 125.74 243.513C125.373 243.513 125.006 243.513 124.639 243.513C126.165 237.286 127.633 231.047 129.044 224.794Z" fill="#E5E5E5"/>
<path opacity="0.964" fill-rule="evenodd" clip-rule="evenodd" d="M125.376 85.6824C125.273 86.1514 125.028 86.5185 124.642 86.7835C124.706 87.1476 124.583 87.3921 124.275 87.5176C124.422 89.8406 124.544 92.1651 124.642 94.4915C125.744 94.4915 126.845 94.4915 127.946 94.4915C129.62 92.548 131.7 91.1411 134.186 90.2704C136.993 87.6082 137.115 84.7945 134.553 81.8284C134.606 81.545 134.728 81.3002 134.92 81.0943C136.409 80.9555 137.694 80.4049 138.774 79.4425C139.019 79.0755 139.019 78.7085 138.774 78.3414C136.9 76.9074 137.144 76.051 139.508 75.7721C139.146 73.1719 137.739 71.2754 135.287 70.0828C132.105 69.192 130.331 70.3545 129.965 73.5698C128.944 74.3186 127.843 74.9304 126.661 75.405C126.403 76.0576 126.219 76.7308 126.111 77.4238C126.889 79.509 127.195 81.6503 127.028 83.8471C126.471 84.4858 125.921 85.0973 125.376 85.6824Z" fill="#DEEBFD"/>
<path opacity="0.736" fill-rule="evenodd" clip-rule="evenodd" d="M147.402 72.8359C146.954 79.6861 146.954 86.5378 147.402 93.3906C148.456 100.253 149.802 107.104 151.439 113.945C151.862 114.358 152.229 114.358 152.54 113.945C150.099 105.168 148.691 96.2363 148.319 87.1508C149.665 96.1431 151.317 105.074 153.274 113.945C153.697 114.358 154.064 114.358 154.375 113.945C153.853 112.007 153.547 110.049 153.458 108.072C154.098 109.987 154.526 111.945 154.742 113.945C154.987 114.067 155.232 114.19 155.477 114.312C155.445 112.713 155.322 111.123 155.11 109.541C153.418 104.373 151.889 99.1118 150.521 93.7576C149.625 87.4169 148.891 81.0545 148.319 74.6712C148.301 73.8475 147.995 73.2357 147.402 72.8359ZM152.54 113.945C152.785 113.945 153.029 113.945 153.274 113.945C151.317 105.074 149.665 96.1431 148.319 87.1508C148.691 96.2363 150.099 105.168 152.54 113.945ZM154.375 113.945C154.498 113.945 154.62 113.945 154.742 113.945C154.526 111.945 154.098 109.987 153.458 108.072C153.547 110.049 153.853 112.007 154.375 113.945Z" fill="#A1C3FB"/>
<path opacity="0.969" fill-rule="evenodd" clip-rule="evenodd" d="M155.102 109.541C155.315 111.123 155.438 112.713 155.47 114.313C156.89 114.428 158.236 114.306 159.507 113.946C159.14 113.946 158.773 113.946 158.406 113.946C158.406 101.711 158.406 89.4757 158.406 77.2409C170.641 77.2409 182.876 77.2409 195.111 77.2409C195.111 89.4757 195.111 101.711 195.111 113.946C196.212 113.946 197.313 113.946 198.414 113.946C198.414 100.61 198.414 87.2734 198.414 73.9375C183.977 73.9375 169.54 73.9375 155.102 73.9375C155.102 85.8052 155.102 97.6733 155.102 109.541ZM159.507 113.946C159.507 103.424 159.507 92.9017 159.507 82.3796C161.832 82.3796 164.156 82.3796 166.481 82.3796C166.481 84.2148 166.481 86.0501 166.481 87.8853C167.704 87.6405 168.928 87.396 170.151 87.1512C170.064 87.6251 170.187 87.9921 170.518 88.2523C171.511 88.0853 172.49 87.8405 173.455 87.5183C173.876 87.635 174.182 87.8794 174.372 88.2523C177.175 96.294 180.051 104.308 182.998 112.294C182.521 113.092 181.787 113.52 180.796 113.579C185.502 113.944 190.274 114.066 195.111 113.946C195.111 101.711 195.111 89.4757 195.111 77.2409C182.876 77.2409 170.641 77.2409 158.406 77.2409C158.406 89.4757 158.406 101.711 158.406 113.946C158.773 113.946 159.14 113.946 159.507 113.946ZM166.481 90.4546C166.481 98.2848 166.481 106.115 166.481 113.946C168.438 113.946 170.396 113.946 172.354 113.946C170.617 106.02 168.659 98.1894 166.481 90.4546ZM172.354 95.5933C173.758 101.577 175.104 107.572 176.391 113.579C175.917 113.492 175.55 113.614 175.29 113.946C176.513 113.946 177.737 113.946 178.961 113.946C176.968 107.721 174.766 101.604 172.354 95.5933Z" fill="#EDEDED"/>
<path opacity="0.935" fill-rule="evenodd" clip-rule="evenodd" d="M159.51 113.945C161.835 113.945 164.16 113.945 166.484 113.945C166.484 106.115 166.484 98.2842 166.484 90.4539C166.484 89.5976 166.484 88.7409 166.484 87.8846C166.484 86.0494 166.484 84.2141 166.484 82.3789C164.16 82.3789 161.835 82.3789 159.51 82.3789C159.51 92.9011 159.51 103.423 159.51 113.945Z" fill="#A1C3FB"/>
<path opacity="0.931" fill-rule="evenodd" clip-rule="evenodd" d="M166.48 87.8855C166.48 88.7418 166.48 89.5985 166.48 90.4548C168.659 98.1896 170.616 106.02 172.353 113.946C173.332 113.946 174.311 113.946 175.289 113.946C175.55 113.614 175.917 113.492 176.391 113.579C175.103 107.572 173.757 101.577 172.353 95.5935C172.021 95.3332 171.899 94.9662 171.986 94.4923C171.986 94.3701 171.986 94.2475 171.986 94.1253C171.678 93.9997 171.556 93.7553 171.619 93.3912C171.619 93.1464 171.619 92.9019 171.619 92.6571C171.374 92.6571 171.252 92.5349 171.252 92.29C170.854 90.9742 170.61 89.6286 170.518 88.2525C170.186 87.9923 170.064 87.6252 170.151 87.1514C168.927 87.3962 167.704 87.6406 166.48 87.8855Z" fill="#A1C3FB"/>
<path opacity="0.933" fill-rule="evenodd" clip-rule="evenodd" d="M170.52 88.2517C170.613 89.6277 170.857 90.9733 171.254 92.2892C171.499 92.2892 171.622 92.4114 171.622 92.6562C171.622 92.9011 171.622 93.1455 171.622 93.3903C171.929 93.5159 172.052 93.7603 171.989 94.1244C171.989 94.2467 171.989 94.3693 171.989 94.4915C172.32 94.7517 172.443 95.1188 172.356 95.5926C174.767 101.603 176.97 107.721 178.962 113.945C179.62 113.994 180.232 113.872 180.798 113.578C181.789 113.52 182.523 113.091 183 112.293C180.053 104.307 177.177 96.2933 174.374 88.2517C174.184 87.8788 173.878 87.6343 173.457 87.5176C172.491 87.8398 171.513 88.0847 170.52 88.2517Z" fill="#A1C3FB"/>
<path opacity="0.852" fill-rule="evenodd" clip-rule="evenodd" d="M123.543 89.7207C123.059 91.277 122.692 92.8674 122.442 94.4923C122.931 94.4923 123.421 94.4923 123.91 94.4923C124.027 92.8289 123.905 91.2381 123.543 89.7207Z" fill="#DBE8FD"/>
<path opacity="0.987" fill-rule="evenodd" clip-rule="evenodd" d="M123.536 89.7202C123.897 91.2376 124.02 92.8284 123.903 94.4919C123.414 94.4919 122.924 94.4919 122.435 94.4919C119.131 94.4919 115.828 94.4919 112.524 94.4919C113.347 100.981 114.203 107.465 115.094 113.945C121.003 114.431 126.875 114.431 132.712 113.945C133.759 107.472 134.738 100.988 135.648 94.4919C133.079 94.4919 130.51 94.4919 127.94 94.4919C126.839 94.4919 125.738 94.4919 124.637 94.4919C124.539 92.1655 124.417 89.841 124.27 87.518C124.207 87.1538 124.329 86.9094 124.637 86.7839C125.023 86.5189 125.268 86.1518 125.371 85.6827C125.082 85.094 124.593 84.8492 123.903 84.9486C123.556 83.3641 123.373 81.7733 123.352 80.177C124.03 79.9751 124.58 79.6081 125.004 79.0759C124.325 78.3579 123.468 77.9909 122.435 77.9747C122.336 76.7855 122.092 75.6234 121.701 74.4878C123.819 72.9719 123.574 72.1152 120.967 71.9184C120.688 71.3895 120.443 70.839 120.232 70.2667C123.411 67.8806 123.044 66.9016 119.131 67.3304C119.174 66.6021 118.929 65.9906 118.397 65.4951C117.935 66.1753 117.935 66.8481 118.397 67.5139C117.724 67.9422 117.051 68.3702 116.378 68.7985C116.199 69.2731 116.137 69.7628 116.195 70.2667C117.214 70.3717 118.254 70.4943 119.315 70.6338C119.498 71.1844 119.682 71.7349 119.865 72.2855C118.987 72.8548 118.497 73.6502 118.397 74.6713C119.254 74.6713 120.11 74.6713 120.967 74.6713C121.037 75.8095 121.281 76.9107 121.701 77.9747C120.495 78.0474 119.883 78.6593 119.865 79.81C120.599 79.9322 121.334 80.0548 122.068 80.177C122.311 81.5182 122.556 82.8638 122.802 84.2145C122.693 85.1266 122.204 85.7385 121.334 86.0498C121.762 86.68 122.374 86.9248 123.169 86.7839C123.386 87.7481 123.508 88.727 123.536 89.7202Z" fill="#A1C3FB"/>
<path opacity="0.915" fill-rule="evenodd" clip-rule="evenodd" d="M99.317 145.145C101.067 145.621 102.78 145.621 104.456 145.145C104.341 144.136 104.463 143.157 104.823 142.208C107.269 141.376 107.147 140.948 104.456 140.923C104.945 140.434 104.945 139.945 104.456 139.455C106.325 138.885 106.325 138.579 104.456 138.538C104.456 137.804 104.456 137.069 104.456 136.335C104.842 136.39 105.209 136.329 105.557 136.152C103.624 135.677 103.257 134.637 104.456 133.032C103.954 132.63 103.525 132.753 103.171 133.399C102.633 132.729 101.96 132.546 101.152 132.848C100.552 133.49 99.818 133.918 98.95 134.133C100.022 135.236 99.7773 135.909 98.2159 136.152C99.0149 136.587 99.382 137.26 99.317 138.171C97.4344 138.58 97.4344 138.824 99.317 138.905C99.4345 140.152 99.3123 141.376 98.95 142.575C97.9843 143.128 98.1069 143.372 99.317 143.309C99.317 143.921 99.317 144.533 99.317 145.145Z" fill="#A1C3FB"/>
<path opacity="0.989" fill-rule="evenodd" clip-rule="evenodd" d="M148.869 142.208C157.161 141.845 165.481 141.723 173.828 141.841C173.828 139.761 173.828 137.682 173.828 135.602C165.019 135.602 156.21 135.602 147.401 135.602C147.401 137.804 147.401 140.006 147.401 142.208C147.89 142.208 148.38 142.208 148.869 142.208Z" fill="#A1C3FB"/>
<path opacity="0.977" fill-rule="evenodd" clip-rule="evenodd" d="M173.823 141.841C165.476 141.723 157.157 141.845 148.864 142.208C148.864 144.166 148.864 146.124 148.864 148.081C158.258 148.445 167.679 148.567 177.127 148.448C178.717 148.448 180.308 148.448 181.898 148.448C181.898 146.246 181.898 144.044 181.898 141.841C179.207 141.841 176.515 141.841 173.823 141.841Z" fill="#E5E5E5"/>
<path opacity="0.961" fill-rule="evenodd" clip-rule="evenodd" d="M104.454 145.145C102.778 145.621 101.065 145.621 99.3152 145.145C98.5811 145.145 97.847 145.145 97.1129 145.145C97.1129 148.081 97.1129 151.017 97.1129 153.954C100.208 154.436 103.266 154.436 106.289 153.954C106.289 151.017 106.289 148.081 106.289 145.145C105.677 145.145 105.066 145.145 104.454 145.145Z" fill="#EDEDED"/>
<path opacity="0.982" fill-rule="evenodd" clip-rule="evenodd" d="M148.862 148.081C147.272 148.081 145.681 148.081 144.091 148.081C144.091 150.039 144.091 151.996 144.091 153.954C155.138 154.441 166.15 154.441 177.125 153.954C177.125 152.119 177.125 150.283 177.125 148.448C167.677 148.567 158.256 148.444 148.862 148.081Z" fill="#A1C3FB"/>
<path opacity="0.948" fill-rule="evenodd" clip-rule="evenodd" d="M165.013 180.014C166.359 180.504 167.704 180.504 169.05 180.014C168.989 175.241 169.05 170.47 169.234 165.699C170.877 170.444 172.406 175.216 173.822 180.014C174.629 180.222 175.485 180.222 176.391 180.014C177.011 179.719 177.623 179.352 178.227 178.913C176.287 172.973 174.207 167.1 171.987 161.295C171.048 161.628 170.131 161.995 169.234 162.396C169.057 162.048 168.996 161.681 169.05 161.295C167.704 161.295 166.359 161.295 165.013 161.295C165.013 167.535 165.013 173.775 165.013 180.014ZM169.05 180.014C170.641 180.014 172.232 180.014 173.822 180.014C172.406 175.216 170.877 170.444 169.234 165.699C169.05 170.47 168.989 175.241 169.05 180.014Z" fill="#A1C3FB"/>
<path opacity="0.945" fill-rule="evenodd" clip-rule="evenodd" d="M149.97 180.014C151.316 180.504 152.662 180.504 154.008 180.014C154.008 173.775 154.008 167.535 154.008 161.295C152.662 161.295 151.316 161.295 149.97 161.295C149.97 167.535 149.97 173.775 149.97 180.014Z" fill="#A1C3FB"/>
<path opacity="0.94" fill-rule="evenodd" clip-rule="evenodd" d="M159.877 180.014C161.308 180.488 162.776 180.488 164.281 180.014C164.281 173.775 164.281 167.535 164.281 161.295C162.813 161.295 161.345 161.295 159.877 161.295C159.877 167.535 159.877 173.775 159.877 180.014Z" fill="#A1C3FB"/>
<path opacity="0.948" fill-rule="evenodd" clip-rule="evenodd" d="M155.103 180.014C156.449 180.504 157.795 180.504 159.141 180.014C159.141 173.775 159.141 167.535 159.141 161.295C157.795 161.295 156.449 161.295 155.103 161.295C155.103 167.535 155.103 173.775 155.103 180.014Z" fill="#A1C3FB"/>
<path opacity="0.921" fill-rule="evenodd" clip-rule="evenodd" d="M176.397 180.014C175.491 180.222 174.635 180.222 173.828 180.014C172.238 180.014 170.647 180.014 169.056 180.014C167.71 180.503 166.365 180.503 165.019 180.014C164.774 180.014 164.53 180.014 164.285 180.014C162.779 180.488 161.311 180.488 159.88 180.014C159.635 180.014 159.391 180.014 159.146 180.014C157.8 180.503 156.454 180.503 155.109 180.014C154.741 180.014 154.374 180.014 154.007 180.014C152.661 180.503 151.316 180.503 149.97 180.014C149.114 180.014 148.257 180.014 147.401 180.014C147.401 181.115 147.401 182.216 147.401 183.317C169.668 183.317 191.936 183.317 214.203 183.317C214.203 182.216 214.203 181.115 214.203 180.014C201.601 180.014 188.999 180.014 176.397 180.014Z" fill="#EDEDED"/>
<path opacity="0.984" fill-rule="evenodd" clip-rule="evenodd" d="M104.817 198C114.301 197.878 123.722 198 133.08 198.367C134.67 198.367 136.261 198.367 137.852 198.367C137.852 196.164 137.852 193.962 137.852 191.76C126.84 191.76 115.829 191.76 104.817 191.76C104.817 193.84 104.817 195.92 104.817 198Z" fill="#A1C3FB"/>
<path opacity="0.942" fill-rule="evenodd" clip-rule="evenodd" d="M172.358 203.872C177.497 203.872 182.636 203.872 187.774 203.872C188.433 203.029 189.167 202.234 189.977 201.486C188.753 201.364 187.53 201.241 186.306 201.119C188.26 199.219 188.994 196.956 188.508 194.329C182.886 193.962 177.258 193.84 171.624 193.962C171.218 196.719 171.952 199.105 173.826 201.119C172.603 201.241 171.379 201.364 170.156 201.486C170.966 202.234 171.7 203.029 172.358 203.872Z" fill="#A1C3FB"/>
<path opacity="0.985" fill-rule="evenodd" clip-rule="evenodd" d="M104.823 198C103.233 198 101.642 198 100.052 198C100.052 199.957 100.052 201.915 100.052 203.872C111.063 203.872 122.075 203.872 133.086 203.872C133.086 202.037 133.086 200.202 133.086 198.367C123.728 198 114.307 197.878 104.823 198Z" fill="#CDDFFC"/>
<path opacity="0.983" fill-rule="evenodd" clip-rule="evenodd" d="M162.08 243.88C170.277 243.88 178.475 243.88 186.672 243.88C186.672 237.395 186.672 230.911 186.672 224.426C184.955 224.487 183.242 224.426 181.533 224.243C182.517 223.392 182.456 222.597 181.35 221.857C181.422 219.284 180.933 216.837 179.881 214.516C175.943 210.007 172.15 210.129 168.503 214.883C168.061 217.178 167.816 219.503 167.769 221.857C167.341 222.285 166.913 222.713 166.484 223.142C166.851 223.509 167.218 223.876 167.585 224.243C165.754 224.426 163.919 224.487 162.08 224.426C162.08 230.911 162.08 237.395 162.08 243.88ZM174.926 213.782C176.387 214.448 177.427 215.549 178.046 217.085C179.15 219.485 178.721 221.503 176.762 223.142C177.129 223.509 177.496 223.876 177.863 224.243C175.66 224.488 173.458 224.488 171.256 224.243C171.65 223.971 171.895 223.604 171.99 223.142C170.385 220.984 170.08 218.599 171.072 215.984C171.962 214.541 173.247 213.807 174.926 213.782Z" fill="#A1C3FB"/>
<path opacity="0.953" fill-rule="evenodd" clip-rule="evenodd" d="M120.602 243.881C121.091 243.881 121.581 243.881 122.07 243.881C124.258 237.436 126.583 231.074 129.044 224.794C127.634 231.047 126.166 237.287 124.639 243.513C125.006 243.513 125.373 243.513 125.741 243.513C126.678 243.839 127.657 243.962 128.677 243.881C130.694 235.812 132.713 227.737 134.733 219.655C134.917 227.729 134.978 235.804 134.917 243.881C137.241 243.881 139.566 243.881 141.891 243.881C141.891 233.358 141.891 222.837 141.891 212.314C139.566 212.314 137.241 212.314 134.917 212.314C134.917 214.15 134.917 215.985 134.917 217.82C133.861 217.663 132.821 217.419 131.797 217.086C131.106 217.304 130.739 217.793 130.696 218.554C129.595 218.065 128.493 217.575 127.392 217.086C124.202 225.555 121.082 234.058 118.033 242.596C118.898 243.064 119.755 243.492 120.602 243.881ZM128.677 243.881C130.757 243.881 132.837 243.881 134.917 243.881C134.978 235.804 134.917 227.729 134.733 219.655C132.713 227.737 130.694 235.812 128.677 243.881ZM129.044 224.794C126.583 231.074 124.258 237.436 122.07 243.881C123.37 243.995 124.594 243.873 125.741 243.513C125.373 243.513 125.006 243.513 124.639 243.513C126.166 237.287 127.634 231.047 129.044 224.794Z" fill="#A1C3FB"/>
</g>
<g clip-path="url(#clip1_3799_102598)">
<path opacity="0.928" fill-rule="evenodd" clip-rule="evenodd" d="M221.909 128.26C223.132 128.26 224.356 128.26 225.579 128.26C220.882 128.872 218.497 131.686 218.422 136.702C221.286 131.702 225.629 129.561 231.452 130.279C233.189 130.715 233.923 131.755 233.654 133.398C232.345 132.889 231.121 133.072 229.984 133.949C228.49 135.896 227.328 138.038 226.497 140.372C224.483 141.837 222.342 143.061 220.074 144.043C220.074 143.92 220.074 143.798 220.074 143.676C220.074 143.186 220.074 142.697 220.074 142.208C219.34 142.208 218.606 142.208 217.871 142.208C217.749 142.208 217.627 142.208 217.504 142.208C217.163 138.272 217.713 134.479 219.156 130.829C220.036 129.887 220.953 129.031 221.909 128.26Z" fill="#3482EE"/>
<path opacity="0.96" fill-rule="evenodd" clip-rule="evenodd" d="M217.5 142.208C217.622 142.208 217.744 142.208 217.867 142.208C218.387 142.557 218.999 142.679 219.702 142.575C219.615 143.049 219.737 143.416 220.069 143.676C220.069 143.799 220.069 143.921 220.069 144.043C220.069 144.41 220.069 144.777 220.069 145.144C219.046 145.503 217.945 145.625 216.765 145.511C216.852 145.038 216.73 144.671 216.398 144.41C216.398 143.676 216.398 142.942 216.398 142.208C216.765 142.208 217.133 142.208 217.5 142.208Z" fill="#E84A47"/>
<path fill-rule="evenodd" clip-rule="evenodd" d="M217.867 142.208C218.601 142.208 219.335 142.208 220.069 142.208C220.069 142.697 220.069 143.187 220.069 143.676C219.738 143.416 219.615 143.049 219.702 142.575C219 142.679 218.388 142.557 217.867 142.208Z" fill="#B65F7E"/>
<path opacity="0.972" fill-rule="evenodd" clip-rule="evenodd" d="M216.402 144.41C216.734 144.67 216.856 145.037 216.769 145.511C217.949 145.625 219.05 145.503 220.073 145.144C221.79 146.862 223.38 148.697 224.844 150.65C218.664 153.721 212.424 153.966 206.125 151.384C206.397 150.169 207.009 149.129 207.96 148.264C210.6 146.577 213.414 145.292 216.402 144.41Z" fill="#3482EE"/>
<path opacity="0.964" fill-rule="evenodd" clip-rule="evenodd" d="M225.208 151.384C225.208 151.873 225.208 152.363 225.208 152.852C222.887 153.188 220.562 153.372 218.234 153.403C220.555 152.69 222.88 152.017 225.208 151.384Z" fill="#3482EE"/>
<path fill-rule="evenodd" clip-rule="evenodd" d="M205.758 152.118C207.456 152.582 209.168 153.01 210.896 153.403C209.795 153.648 208.694 153.648 207.593 153.403C206.803 153.366 206.191 153.06 205.758 152.485C205.758 152.363 205.758 152.241 205.758 152.118Z" fill="#3482EE"/>
<path opacity="0.981" fill-rule="evenodd" clip-rule="evenodd" d="M205.391 153.586C207.198 154.007 209.033 154.251 210.896 154.32C215.548 154.075 220.197 153.831 224.844 153.586C224.477 154.075 224.11 154.565 223.743 155.054C221.307 156.183 218.738 156.795 216.035 156.889C212.749 156.343 209.446 155.976 206.125 155.788C205.773 155.127 205.528 154.393 205.391 153.586Z" fill="#3482EE"/>
<path fill-rule="evenodd" clip-rule="evenodd" d="M224.839 150.649C225.147 150.775 225.269 151.02 225.206 151.384C222.877 152.017 220.553 152.69 218.232 153.402C220.56 153.372 222.884 153.188 225.206 152.852C225.269 153.216 225.147 153.46 224.839 153.586C220.192 153.83 215.543 154.075 210.891 154.32C209.028 154.251 207.193 154.007 205.385 153.586C204.877 153.055 204.999 152.688 205.753 152.485C206.186 153.06 206.798 153.366 207.588 153.402C208.689 153.647 209.79 153.647 210.891 153.402C209.163 153.009 207.45 152.581 205.753 152.118C205.291 151.706 205.413 151.461 206.12 151.384C212.419 153.966 218.659 153.721 224.839 150.649Z" fill="#D6525D"/>
<path opacity="0.988" fill-rule="evenodd" clip-rule="evenodd" d="M223.743 155.055C224.596 155.849 225.574 156.461 226.68 156.89C227.048 158.743 226.864 160.578 226.129 162.396C225.883 162.672 225.577 162.794 225.211 162.763C224.374 162.356 223.579 161.867 222.826 161.294C222.426 162.647 221.631 163.687 220.44 164.414C218.742 164.775 217.029 165.081 215.301 165.332C215.179 165.699 214.934 165.944 214.567 166.066C214.071 165.69 213.582 165.323 213.099 164.965C214.373 162.24 213.455 160.649 210.346 160.193C209.657 160.265 208.984 160.388 208.327 160.56C207.297 159.111 206.563 157.52 206.125 155.789C209.446 155.976 212.749 156.343 216.035 156.89C218.738 156.795 221.308 156.184 223.743 155.055Z" fill="#F9B4AD"/>
<path opacity="0.994" fill-rule="evenodd" clip-rule="evenodd" d="M229.611 157.623C230.668 161.962 230.178 166.121 228.143 170.103C227.36 168.395 226.198 166.927 224.656 165.699C224.499 164.663 224.682 163.684 225.206 162.762C225.572 162.794 225.878 162.671 226.124 162.395C226.859 160.578 227.043 158.742 226.675 156.889C226.627 156.568 226.749 156.323 227.042 156.155C227.904 156.655 228.761 157.144 229.611 157.623Z" fill="#3482EE"/>
<path opacity="0.995" fill-rule="evenodd" clip-rule="evenodd" d="M229.611 157.624C236.279 158.79 241.907 161.849 246.495 166.8C243.87 172.052 241.239 177.312 238.604 182.583C238.359 183.073 238.115 183.073 237.87 182.583C237.241 185.607 236.752 188.666 236.402 191.759C235.728 194.575 235.055 197.388 234.383 200.202C233.807 201.781 233.073 203.311 232.181 204.79C229.474 205.041 226.782 204.919 224.105 204.423C218.634 203.544 213.251 202.32 207.955 200.752C207.65 200.446 207.344 200.14 207.038 199.834C206.825 198.475 206.887 197.13 207.221 195.797C207.595 194.68 208.084 193.579 208.69 192.494C211.003 193.281 213.327 194.076 215.663 194.879C217.466 195.399 219.302 195.705 221.169 195.797C223.021 195.917 224.856 195.795 226.675 195.43C225.743 194.905 224.887 194.293 224.105 193.595C224.105 193.472 224.105 193.35 224.105 193.228C225.493 191.777 226.839 190.247 228.143 188.64C226.194 187.499 224.114 186.643 221.903 186.07C221.442 185.917 221.197 185.611 221.169 185.153C221.621 184.493 221.865 183.759 221.903 182.95C223.895 184.623 225.975 186.214 228.143 187.722C228.535 185.969 228.779 184.195 228.877 182.4C228.533 178.306 228.289 174.207 228.143 170.104C230.179 166.122 230.668 161.962 229.611 157.624Z" fill="#A1C3FB"/>
<path opacity="0.854" fill-rule="evenodd" clip-rule="evenodd" d="M213.096 164.965C209.824 165.24 208.234 163.772 208.324 160.56C208.98 160.388 209.653 160.265 210.343 160.193C213.452 160.649 214.369 162.24 213.096 164.965ZM209.425 162.029C210.36 162.555 211.217 163.167 211.994 163.864C210.658 163.873 209.802 163.261 209.425 162.029Z" fill="#292A69"/>
<path opacity="0.948" fill-rule="evenodd" clip-rule="evenodd" d="M211.999 163.863C211.221 163.166 210.364 162.554 209.43 162.028C209.43 161.783 209.307 161.661 209.063 161.661C209.057 160.932 209.424 160.565 210.164 160.56C212.146 160.829 213.247 161.93 213.467 163.863C212.978 163.863 212.488 163.863 211.999 163.863Z" fill="#ECA6A4"/>
<path fill-rule="evenodd" clip-rule="evenodd" d="M212.299 162.323C212.381 162.43 212.369 162.526 212.261 162.609C211.917 163.311 211.496 163.378 211 162.809C211.504 162.865 211.937 162.703 212.299 162.323Z" fill="#6E5D83"/>
<path opacity="0.993" fill-rule="evenodd" clip-rule="evenodd" d="M246.495 166.8C249.41 168.838 251.735 171.408 253.469 174.508C253.148 174.46 252.903 174.582 252.735 174.875C249.615 181.115 246.495 187.354 243.375 193.594C243.122 193.14 242.939 193.14 242.825 193.594C241.954 191.296 241.037 188.971 240.072 186.62C239.956 191.916 238.794 196.932 236.585 201.669C235.751 201.324 235.017 200.835 234.383 200.201C235.055 197.388 235.728 194.574 236.402 191.759C236.752 188.666 237.241 185.607 237.87 182.583C238.115 183.072 238.359 183.072 238.604 182.583C241.239 177.312 243.87 172.051 246.495 166.8Z" fill="#A1C3FB"/>
<path opacity="0.991" fill-rule="evenodd" clip-rule="evenodd" d="M253.472 174.508C256.432 177.74 258.39 181.411 259.345 185.52C258.841 185.462 258.352 185.523 257.877 185.703C256.059 186.909 254.346 188.255 252.738 189.741C250.941 190.698 249.228 191.738 247.6 192.861C246.332 193.263 245.047 193.63 243.746 193.962C243.353 193.951 243.047 193.829 242.828 193.595C242.942 193.14 243.125 193.14 243.379 193.595C246.499 187.355 249.618 181.115 252.738 174.875C252.906 174.582 253.151 174.46 253.472 174.508Z" fill="#A1C3FB"/>
<path opacity="0.986" fill-rule="evenodd" clip-rule="evenodd" d="M205.759 180.014C207.922 180.961 210.124 181.879 212.366 182.767C211.284 183.063 210.306 183.552 209.429 184.235C209.106 184.733 208.984 185.283 209.062 185.887C210.462 185.644 211.807 185.216 213.1 184.602C215.655 184.163 218.102 184.469 220.441 185.52C220.691 185.386 220.936 185.264 221.175 185.153C221.203 185.611 221.448 185.917 221.909 186.07C224.12 186.643 226.2 187.5 228.149 188.64C226.844 190.247 225.498 191.777 224.111 193.228C223.866 193.228 223.744 193.35 223.744 193.595C222.67 194.056 221.813 194.79 221.175 195.797C219.307 195.705 217.472 195.399 215.669 194.879C213.333 194.076 211.008 193.281 208.695 192.494C207.066 191.049 205.476 189.52 203.924 187.905C201.823 186.792 199.621 185.997 197.317 185.52C197.238 186.123 197.361 186.674 197.684 187.171C198.951 187.621 200.174 188.172 201.354 188.823C201.729 189.007 201.79 189.252 201.538 189.557C198.727 188.274 195.852 187.173 192.912 186.254C191.221 185.408 189.508 184.552 187.773 183.684C188.046 183.434 188.291 183.189 188.508 182.95C192.373 181.397 196.227 179.806 200.07 178.179C202.01 178.683 203.906 179.295 205.759 180.014Z" fill="#E5E5E5"/>
<path opacity="0.993" fill-rule="evenodd" clip-rule="evenodd" d="M205.758 180.013C209.43 179.952 213.101 180.013 216.769 180.197C218.77 180.645 220.483 181.563 221.908 182.949C221.87 183.758 221.625 184.492 221.174 185.152C220.935 185.263 220.69 185.386 220.44 185.519C218.101 184.468 215.654 184.163 213.099 184.601C211.806 185.216 210.461 185.644 209.061 185.886C208.983 185.282 209.105 184.732 209.428 184.234C210.305 183.551 211.283 183.062 212.365 182.766C210.123 181.878 207.921 180.96 205.758 180.013Z" fill="#FCBBB3"/>
<path fill-rule="evenodd" clip-rule="evenodd" d="M201.717 180.748C202.184 180.96 202.184 181.204 201.717 181.482C200.17 182.381 198.579 183.054 196.945 183.501C198.559 182.573 200.149 181.656 201.717 180.748Z" fill="#75779F"/>
<path fill-rule="evenodd" clip-rule="evenodd" d="M202.817 183.317C203.506 183.277 203.628 183.461 203.184 183.867C200.442 185.068 200.32 184.884 202.817 183.317Z" fill="#72749D"/>
<path fill-rule="evenodd" clip-rule="evenodd" d="M208.689 192.493C208.084 193.578 207.594 194.68 207.221 195.797C204.397 195.478 201.583 195.356 198.779 195.43C198.02 193.458 197.224 191.5 196.393 189.557C195.627 189.082 194.832 188.654 194.007 188.272C193.398 187.726 193.031 187.053 192.906 186.254C195.846 187.173 198.721 188.274 201.532 189.557C201.784 189.252 201.723 189.007 201.348 188.823C200.168 188.172 198.945 187.621 197.678 187.171C197.355 186.674 197.232 186.123 197.311 185.52C199.615 185.997 201.817 186.792 203.918 187.905C205.47 189.52 207.06 191.049 208.689 192.493Z" fill="#FBB8B1"/>
<path opacity="0.985" fill-rule="evenodd" clip-rule="evenodd" d="M223.741 193.595C223.863 193.595 223.986 193.595 224.108 193.595C224.889 194.293 225.746 194.905 226.678 195.43C224.858 195.795 223.023 195.917 221.172 195.797C221.81 194.79 222.667 194.056 223.741 193.595Z" fill="#292D6F"/>
<path opacity="0.986" fill-rule="evenodd" clip-rule="evenodd" d="M259.347 185.519C261.459 191.063 262.437 196.813 262.283 202.77C260.274 203.925 258.072 204.414 255.676 204.238C252.697 204.328 249.883 203.716 247.234 202.403C247.945 199.223 248.067 196.042 247.601 192.86C249.23 191.737 250.943 190.697 252.74 189.74C254.348 188.254 256.06 186.908 257.879 185.703C258.353 185.523 258.843 185.461 259.347 185.519Z" fill="#3482EE"/>
<path opacity="0.997" fill-rule="evenodd" clip-rule="evenodd" d="M188.501 182.95C188.284 183.189 188.039 183.434 187.767 183.684C189.502 184.552 191.215 185.408 192.905 186.253C193.03 187.053 193.397 187.726 194.007 188.272C194.831 188.653 195.626 189.082 196.392 189.557C197.223 191.499 198.019 193.457 198.778 195.429C201.582 195.356 204.396 195.478 207.22 195.796C206.885 197.129 206.824 198.475 207.037 199.834C207.342 200.14 207.649 200.446 207.954 200.752C213.25 202.32 218.633 203.543 224.104 204.422C226.781 204.919 229.472 205.041 232.179 204.789C233.072 203.31 233.806 201.781 234.382 200.201C235.016 200.835 235.75 201.324 236.584 201.669C238.887 203.116 240.967 204.829 242.824 206.808C243.293 209.385 243.171 211.955 242.457 214.516C231.201 213.292 219.945 212.069 208.688 210.845C206.057 208.521 203.366 206.258 200.613 204.055C198.417 202.589 196.031 201.548 193.456 200.935C192.199 201.089 191.22 201.701 190.52 202.77C189.367 205.615 188.144 208.429 186.849 211.212C185.764 213.092 184.357 214.683 182.628 215.984C175.396 215.34 168.177 214.545 160.972 213.598C160.936 213.127 160.936 212.699 160.972 212.314C167.956 203.429 174.747 194.375 181.343 185.152C183.259 182.914 185.645 182.18 188.501 182.95Z" fill="#212667"/>
<path opacity="0.978" fill-rule="evenodd" clip-rule="evenodd" d="M208.695 210.846C212.108 214.749 215.657 218.542 219.339 222.224C217.341 221.163 215.384 220 213.467 218.737C207.897 214.27 202.024 210.232 195.848 206.625C194.594 206.303 193.676 206.732 193.095 207.909C192.718 209.899 191.984 211.734 190.893 213.415C188.536 216.14 185.844 218.465 182.818 220.389C182 223.091 180.899 225.661 179.515 228.097C177.056 230.984 174.426 233.675 171.623 236.172C168.687 236.172 165.75 236.172 162.814 236.172C157.244 236.293 151.738 236.171 146.297 235.805C148.115 231.434 150.317 227.274 152.904 223.325C159.391 224.152 165.876 225.008 172.357 225.895C173.125 224.805 173.676 223.582 174.009 222.224C174.544 221.321 175.217 220.526 176.028 219.838C178.313 218.637 180.516 217.352 182.635 215.984C184.364 214.683 185.771 213.093 186.856 211.213C188.151 208.429 189.374 205.615 190.526 202.771C191.227 201.701 192.205 201.089 193.462 200.936C196.038 201.549 198.423 202.589 200.62 204.055C203.372 206.258 206.064 208.522 208.695 210.846Z" fill="#181B4F"/>
<path opacity="0.997" fill-rule="evenodd" clip-rule="evenodd" d="M247.235 202.403C249.884 203.716 252.698 204.328 255.677 204.239C258.073 204.414 260.275 203.925 262.284 202.77C262.711 207.557 261.916 212.206 259.898 216.718C257.983 222.157 254.741 226.561 250.172 229.932C244.306 230.41 238.433 230.41 232.553 229.932C227.6 228.277 223.195 225.708 219.34 222.224C215.657 218.542 212.109 214.749 208.695 210.845C219.952 212.069 231.207 213.293 242.464 214.516C243.178 211.955 243.3 209.385 242.831 206.808C243.102 206.856 243.347 206.795 243.565 206.624C244.739 205.147 245.962 203.74 247.235 202.403Z" fill="#1D2260"/>
<path opacity="0.992" fill-rule="evenodd" clip-rule="evenodd" d="M160.973 212.313C160.938 212.699 160.938 213.126 160.973 213.598C168.179 214.545 175.397 215.34 182.629 215.984C180.51 217.352 178.308 218.636 176.022 219.838C175.212 220.525 174.539 221.321 174.004 222.224C173.67 223.581 173.12 224.805 172.352 225.894C165.87 225.007 159.386 224.151 152.898 223.325C155.415 219.51 158.107 215.84 160.973 212.313Z" fill="#1A1F59"/>
<path opacity="0.973" fill-rule="evenodd" clip-rule="evenodd" d="M232.546 229.932C238.426 230.41 244.299 230.41 250.165 229.932C254.692 229.932 259.219 229.932 263.745 229.932C263.745 230.544 263.745 231.155 263.745 231.767C253.713 231.767 243.68 231.767 233.648 231.767C233.648 233.235 233.648 234.703 233.648 236.171C243.68 236.171 253.713 236.171 263.745 236.171C263.745 236.783 263.745 237.395 263.745 238.007C261.665 238.007 259.586 238.007 257.506 238.007C248.846 237.644 240.159 237.521 231.445 237.64C231.445 235.07 231.445 232.501 231.445 229.932C231.812 229.932 232.179 229.932 232.546 229.932Z" fill="#D62D2C"/>
<path fill-rule="evenodd" clip-rule="evenodd" d="M263.746 231.768C263.746 233.236 263.746 234.704 263.746 236.172C253.714 236.172 243.681 236.172 233.648 236.172C233.648 234.704 233.648 233.236 233.648 231.768C243.681 231.768 253.714 231.768 263.746 231.768Z" fill="#E5E5E5"/>
<path opacity="0.99" fill-rule="evenodd" clip-rule="evenodd" d="M146.298 235.805C151.739 236.17 157.245 236.292 162.815 236.172C163.383 239.699 163.75 243.247 163.916 246.816C152.171 246.816 140.425 246.816 128.68 246.816C128.68 246.327 128.68 245.837 128.68 245.348C131.665 241.895 135.458 239.753 140.058 238.925C142.105 237.789 144.185 236.749 146.298 235.805Z" fill="#FAAF3A"/>
<path opacity="0.977" fill-rule="evenodd" clip-rule="evenodd" d="M162.812 236.172C165.749 236.172 168.685 236.172 171.622 236.172C172.298 239.687 172.666 243.235 172.723 246.816C169.786 246.816 166.85 246.816 163.914 246.816C163.747 243.247 163.38 239.699 162.812 236.172Z" fill="#F6931E"/>
<path opacity="0.937" fill-rule="evenodd" clip-rule="evenodd" d="M231.451 237.64C240.165 237.522 248.852 237.644 257.511 238.007C257.511 240.577 257.511 243.146 257.511 245.715C246.745 245.715 235.978 245.715 225.211 245.715C225.211 243.024 225.211 240.332 225.211 237.64C227.291 237.64 229.371 237.64 231.451 237.64Z" fill="#3482EE"/>
<path fill-rule="evenodd" clip-rule="evenodd" d="M245.761 239.842C242.091 239.842 238.42 239.842 234.75 239.842C234.75 240.944 234.75 242.045 234.75 243.146C238.42 243.146 242.091 243.146 245.761 243.146C242.035 243.511 238.242 243.633 234.383 243.513C234.383 242.167 234.383 240.821 234.383 239.475C238.242 239.355 242.035 239.478 245.761 239.842Z" fill="#98BDF4"/>
<path fill-rule="evenodd" clip-rule="evenodd" d="M245.761 239.842C245.761 240.943 245.761 242.044 245.761 243.145C242.091 243.145 238.42 243.145 234.75 243.145C234.75 242.044 234.75 240.943 234.75 239.842C238.42 239.842 242.091 239.842 245.761 239.842Z" fill="#EDEDEE"/>
<path fill-rule="evenodd" clip-rule="evenodd" d="M250.168 239.476C253.032 239.582 253.766 240.866 252.37 243.33C248.902 243.647 248.168 242.363 250.168 239.476Z" fill="#242B70"/>
</g>
<g clip-path="url(#clip2_3799_102598)">
<path opacity="0.99" fill-rule="evenodd" clip-rule="evenodd" d="M89.9207 132.059C91.2493 132.059 92.5778 132.059 93.9064 132.059C93.9064 134.235 93.9064 136.41 93.9064 138.586C92.6147 138.586 91.3231 138.586 90.0314 138.586C89.8838 138.586 89.7362 138.586 89.5886 138.586C87.3539 137.25 86.8925 135.443 88.2047 133.165C88.7029 132.668 89.2749 132.299 89.9207 132.059Z" fill="#3482EE"/>
<path fill-rule="evenodd" clip-rule="evenodd" d="M93.9062 132.059C95.5669 132.059 97.2276 132.059 98.8883 132.059C98.8883 134.235 98.8883 136.41 98.8883 138.586C100.918 138.586 102.948 138.586 104.977 138.586C107.359 138.55 109.72 138.587 112.063 138.697C111.251 138.697 110.439 138.697 109.627 138.697C105.863 138.697 102.099 138.697 98.3347 138.697C95.5478 138.734 92.78 138.697 90.0312 138.586C91.3229 138.586 92.6145 138.586 93.9062 138.586C93.9062 136.41 93.9062 134.235 93.9062 132.059Z" fill="#3482EE"/>
<path fill-rule="evenodd" clip-rule="evenodd" d="M98.8906 132.059C100.92 132.059 102.95 132.059 104.98 132.059C104.98 134.235 104.98 136.41 104.98 138.586C102.95 138.586 100.92 138.586 98.8906 138.586C98.8906 136.41 98.8906 134.235 98.8906 132.059Z" fill="#3483EF"/>
<path fill-rule="evenodd" clip-rule="evenodd" d="M104.977 132.059C108.113 132.059 111.25 132.059 114.387 132.059C114.387 132.501 114.387 132.944 114.387 133.386C112.689 133.368 110.992 133.386 109.294 133.442C107.713 134.041 107.325 135.092 108.132 136.595C108.439 136.961 108.827 137.201 109.294 137.314C110.992 137.369 112.689 137.388 114.387 137.369C114.387 137.775 114.387 138.181 114.387 138.586C116.712 138.586 119.037 138.586 121.362 138.586C118.281 138.697 115.181 138.734 112.062 138.697C109.719 138.587 107.358 138.55 104.977 138.586C104.977 136.41 104.977 134.235 104.977 132.059Z" fill="#3482EE"/>
<path fill-rule="evenodd" clip-rule="evenodd" d="M114.391 132.059C116.716 132.059 119.041 132.059 121.366 132.059C121.366 132.538 121.366 133.017 121.366 133.497C120.96 133.497 120.554 133.497 120.148 133.497C118.248 133.387 116.329 133.35 114.391 133.386C114.391 132.944 114.391 132.501 114.391 132.059Z" fill="#3482EE"/>
<path fill-rule="evenodd" clip-rule="evenodd" d="M114.391 133.387C116.329 133.35 118.248 133.387 120.148 133.497C119.004 133.497 117.859 133.497 116.715 133.497C115.459 133.461 114.204 133.497 112.951 133.608C112.747 134.813 112.526 136.011 112.287 137.204C113.578 137.259 114.87 137.278 116.162 137.259C117.49 137.259 118.819 137.259 120.148 137.259C118.248 137.369 116.329 137.406 114.391 137.37C112.693 137.388 110.995 137.37 109.298 137.314C108.83 137.201 108.443 136.961 108.135 136.595C107.329 135.093 107.716 134.042 109.298 133.442C110.995 133.387 112.693 133.368 114.391 133.387Z" fill="#E5E5E5"/>
<path fill-rule="evenodd" clip-rule="evenodd" d="M116.71 133.497C116.505 134.748 116.32 136.002 116.156 137.259C114.864 137.277 113.572 137.259 112.281 137.204C112.52 136.011 112.742 134.812 112.946 133.608C114.198 133.497 115.453 133.46 116.71 133.497Z" fill="#E5E5E5"/>
<path fill-rule="evenodd" clip-rule="evenodd" d="M116.71 133.497C117.854 133.497 118.998 133.497 120.142 133.497C120.142 134.751 120.142 136.005 120.142 137.259C118.813 137.259 117.485 137.259 116.156 137.259C116.32 136.002 116.505 134.748 116.71 133.497Z" fill="#E5E5E5"/>
<path fill-rule="evenodd" clip-rule="evenodd" d="M120.148 137.259C120.554 137.259 120.96 137.259 121.366 137.259C121.366 137.701 121.366 138.144 121.366 138.586C119.041 138.586 116.716 138.586 114.391 138.586C114.391 138.181 114.391 137.775 114.391 137.369C116.329 137.406 118.248 137.369 120.148 137.259Z" fill="#3482EE"/>
<path opacity="0.99" fill-rule="evenodd" clip-rule="evenodd" d="M121.362 138.586C123.776 138.492 125.141 139.635 125.458 142.016C125.039 144.498 123.563 145.604 121.03 145.336C118.815 145.336 116.601 145.336 114.387 145.336C111.176 145.336 107.966 145.336 104.755 145.336C102.209 145.336 99.6621 145.336 97.1157 145.336C94.5502 145.372 92.0038 145.335 89.4766 145.225C92.4289 145.225 95.3812 145.225 98.3336 145.225C102.098 145.225 105.862 145.225 109.626 145.225C109.626 144.819 109.626 144.414 109.626 144.008C113.778 144.045 117.912 144.008 122.026 143.897C123.529 143.549 124.064 142.627 123.631 141.131C123.391 140.744 123.078 140.431 122.69 140.191C119.264 140.028 115.832 139.973 112.394 140.025C111.472 140.025 110.549 140.025 109.626 140.025C109.626 139.582 109.626 139.14 109.626 138.697C110.438 138.697 111.25 138.697 112.062 138.697C115.181 138.734 118.281 138.697 121.362 138.586Z" fill="#A1C3FB"/>
<path fill-rule="evenodd" clip-rule="evenodd" d="M89.5846 138.587C89.7322 138.587 89.8799 138.587 90.0275 138.587C92.7762 138.697 95.5441 138.734 98.3309 138.698C98.3309 139.14 98.3309 139.583 98.3309 140.025C95.8392 139.989 93.3666 140.026 90.9132 140.136C90.4334 140.136 89.9537 140.136 89.4739 140.136C89.4385 139.598 89.4755 139.081 89.5846 138.587Z" fill="#A1C3FB"/>
<path fill-rule="evenodd" clip-rule="evenodd" d="M98.3359 138.697C102.1 138.697 105.864 138.697 109.629 138.697C109.629 139.14 109.629 139.582 109.629 140.025C108.817 140.025 108.005 140.025 107.193 140.025C104.757 140.025 102.322 140.025 99.8859 140.025C99.3692 140.025 98.8526 140.025 98.3359 140.025C98.3359 139.582 98.3359 139.14 98.3359 138.697Z" fill="#A1C3FB"/>
<path opacity="0.997" fill-rule="evenodd" clip-rule="evenodd" d="M98.3318 140.025C98.8485 140.025 99.3651 140.025 99.8818 140.025C99.8818 141.316 99.8818 142.607 99.8818 143.898C96.8925 143.898 93.9033 143.898 90.9141 143.898C90.9141 142.644 90.9141 141.39 90.9141 140.136C93.3675 140.026 95.8401 139.989 98.3318 140.025Z" fill="#E5E5E5"/>
<path opacity="0.998" fill-rule="evenodd" clip-rule="evenodd" d="M99.8828 140.025C102.318 140.025 104.754 140.025 107.19 140.025C107.19 141.316 107.19 142.607 107.19 143.898C104.754 143.898 102.318 143.898 99.8828 143.898C99.8828 142.607 99.8828 141.316 99.8828 140.025Z" fill="#E5E5E5"/>
<path opacity="0.999" fill-rule="evenodd" clip-rule="evenodd" d="M107.188 140.025C107.999 140.025 108.811 140.025 109.623 140.025C110.546 140.025 111.468 140.025 112.391 140.025C112.7 140.133 113.032 140.17 113.387 140.136C113.386 141.391 113.423 142.645 113.498 143.898C111.395 143.898 109.291 143.898 107.188 143.898C107.188 142.607 107.188 141.316 107.188 140.025Z" fill="#E5E5E5"/>
<path opacity="0.998" fill-rule="evenodd" clip-rule="evenodd" d="M112.398 140.025C115.836 139.973 119.268 140.028 122.695 140.191C123.082 140.43 123.396 140.744 123.636 141.131C124.069 142.627 123.534 143.549 122.03 143.897C119.189 143.897 116.347 143.897 113.506 143.897C113.43 142.645 113.393 141.391 113.395 140.135C113.039 140.17 112.707 140.133 112.398 140.025Z" fill="#E5E5E5"/>
<path fill-rule="evenodd" clip-rule="evenodd" d="M90.9158 143.897C93.9051 143.897 96.8943 143.897 99.8835 143.897C102.319 143.897 104.755 143.897 107.191 143.897C109.294 143.897 111.398 143.897 113.501 143.897C116.343 143.897 119.184 143.897 122.026 143.897C117.912 144.008 113.778 144.045 109.626 144.008C105.862 144.008 102.098 144.008 98.3336 144.008C98.3336 144.414 98.3336 144.819 98.3336 145.225C95.3812 145.225 92.4289 145.225 89.4766 145.225C89.4766 144.783 89.4766 144.34 89.4766 143.897C89.9563 143.897 90.4361 143.897 90.9158 143.897Z" fill="#A1C3FB"/>
<path fill-rule="evenodd" clip-rule="evenodd" d="M109.629 144.008C109.629 144.414 109.629 144.819 109.629 145.225C105.864 145.225 102.1 145.225 98.3359 145.225C98.3359 144.819 98.3359 144.414 98.3359 144.008C102.1 144.008 105.864 144.008 109.629 144.008Z" fill="#A1C3FB"/>
<path opacity="0.983" fill-rule="evenodd" clip-rule="evenodd" d="M89.4785 145.226C92.0058 145.336 94.5522 145.373 97.1177 145.336C97.1177 145.742 97.1177 146.148 97.1177 146.553C99.6641 146.553 102.21 146.553 104.757 146.553C107.968 146.553 111.178 146.553 114.389 146.553C116.327 146.517 118.246 146.554 120.146 146.664C117.231 146.664 114.315 146.664 111.4 146.664C109.37 146.664 107.34 146.664 105.31 146.664C102.949 146.664 100.587 146.664 98.2248 146.664C95.0511 146.664 91.8773 146.664 88.7036 146.664C88.2607 146.664 87.8179 146.664 87.375 146.664C87.375 146.185 87.375 145.705 87.375 145.226C88.0762 145.226 88.7774 145.226 89.4785 145.226Z" fill="#31326F"/>
<path fill-rule="evenodd" clip-rule="evenodd" d="M97.1172 145.336C99.6636 145.336 102.21 145.336 104.756 145.336C104.756 145.742 104.756 146.147 104.756 146.553C102.21 146.553 99.6636 146.553 97.1172 146.553C97.1172 146.147 97.1172 145.742 97.1172 145.336Z" fill="#1D2260"/>
<path fill-rule="evenodd" clip-rule="evenodd" d="M104.758 145.336C107.968 145.336 111.179 145.336 114.39 145.336C114.39 145.742 114.39 146.147 114.39 146.553C111.179 146.553 107.968 146.553 104.758 146.553C104.758 146.147 104.758 145.742 104.758 145.336Z" fill="#191E58"/>
<path opacity="0.967" fill-rule="evenodd" clip-rule="evenodd" d="M114.391 145.336C116.605 145.336 118.819 145.336 121.033 145.336C123.315 146.479 123.887 148.212 122.749 150.536C122.327 151.052 121.828 151.458 121.255 151.753C121.107 151.753 120.96 151.753 120.812 151.753C118.672 151.753 116.531 151.753 114.391 151.753C114.391 151.347 114.391 150.942 114.391 150.536C116.421 150.555 118.45 150.536 120.48 150.481C121.8 149.879 122.188 148.901 121.642 147.549C121.283 147.01 120.785 146.715 120.148 146.664C118.248 146.553 116.329 146.516 114.391 146.553C114.391 146.147 114.391 145.742 114.391 145.336Z" fill="#161B51"/>
<path fill-rule="evenodd" clip-rule="evenodd" d="M88.7031 146.663C91.8769 146.663 95.0506 146.663 98.2244 146.663C98.2244 147.954 98.2244 149.245 98.2244 150.536C97.8554 150.536 97.4863 150.536 97.1173 150.536C94.3126 150.536 91.5078 150.536 88.7031 150.536C88.7031 149.245 88.7031 147.954 88.7031 146.663Z" fill="#E5E5E5"/>
<path fill-rule="evenodd" clip-rule="evenodd" d="M98.2266 146.663C100.588 146.663 102.95 146.663 105.312 146.663C105.312 147.954 105.312 149.245 105.312 150.536C105.128 150.536 104.943 150.536 104.759 150.536C102.581 150.536 100.404 150.536 98.2266 150.536C98.2266 149.245 98.2266 147.954 98.2266 146.663Z" fill="#E5E5E5"/>
<path fill-rule="evenodd" clip-rule="evenodd" d="M105.312 146.663C107.342 146.663 109.372 146.663 111.402 146.663C111.402 147.954 111.402 149.245 111.402 150.536C109.372 150.536 107.342 150.536 105.312 150.536C105.312 149.245 105.312 147.954 105.312 146.663Z" fill="#E5E5E5"/>
<path fill-rule="evenodd" clip-rule="evenodd" d="M111.398 146.663C114.314 146.663 117.229 146.663 120.145 146.663C120.782 146.714 121.28 147.009 121.639 147.548C122.185 148.901 121.797 149.878 120.477 150.48C118.448 150.536 116.418 150.554 114.388 150.536C113.391 150.536 112.395 150.536 111.398 150.536C111.398 149.245 111.398 147.954 111.398 146.663Z" fill="#E5E5E5"/>
<path opacity="0.98" fill-rule="evenodd" clip-rule="evenodd" d="M88.7036 150.536C91.5083 150.536 94.313 150.536 97.1177 150.536C97.1177 150.942 97.1177 151.347 97.1177 151.753C99.6641 151.753 102.21 151.753 104.757 151.753C107.968 151.753 111.178 151.753 114.389 151.753C116.529 151.753 118.67 151.753 120.81 151.753C116.438 151.864 112.046 151.901 107.635 151.864C104.609 151.864 101.583 151.864 98.557 151.864C95.3066 151.831 92.0591 151.867 88.8143 151.974C88.3345 151.974 87.8548 151.974 87.375 151.974C87.375 151.495 87.375 151.016 87.375 150.536C87.8179 150.536 88.2607 150.536 88.7036 150.536Z" fill="#262C6D"/>
<path fill-rule="evenodd" clip-rule="evenodd" d="M97.1172 150.536C97.4862 150.536 97.8553 150.536 98.2243 150.536C100.402 150.536 102.579 150.536 104.756 150.536C104.756 150.942 104.756 151.347 104.756 151.753C102.21 151.753 99.6636 151.753 97.1172 151.753C97.1172 151.347 97.1172 150.942 97.1172 150.536Z" fill="#1D2260"/>
<path fill-rule="evenodd" clip-rule="evenodd" d="M104.758 150.536C104.942 150.536 105.127 150.536 105.311 150.536C107.341 150.536 109.371 150.536 111.401 150.536C112.397 150.536 113.393 150.536 114.39 150.536C114.39 150.942 114.39 151.347 114.39 151.753C111.179 151.753 107.968 151.753 104.758 151.753C104.758 151.347 104.758 150.942 104.758 150.536Z" fill="#191E58"/>
<path opacity="0.994" fill-rule="evenodd" clip-rule="evenodd" d="M98.5519 151.863C97.4462 154 96.3391 156.139 95.2305 158.281C96.2075 158.354 97.167 158.428 98.1091 158.502C96.2639 158.502 94.4187 158.502 92.5734 158.502C91.3854 158.546 90.2044 158.491 89.0306 158.336C87.2055 157.472 86.5228 156.053 86.9825 154.076C87.3005 153.114 87.9094 152.413 88.8092 151.974C92.054 151.867 95.3016 151.83 98.5519 151.863Z" fill="#A1C3FB"/>
<path opacity="0.993" fill-rule="evenodd" clip-rule="evenodd" d="M98.5558 151.863C101.582 151.863 104.608 151.863 107.634 151.863C107.388 152.281 107.204 152.724 107.081 153.191C105.618 153.048 104.733 153.694 104.424 155.127C104.482 155.704 104.703 156.202 105.088 156.621C104.861 157.185 104.603 157.738 104.313 158.28C105.881 158.354 107.431 158.428 108.963 158.502C107.892 158.502 106.822 158.502 105.752 158.502C103.206 158.502 100.659 158.502 98.1129 158.502C97.1708 158.428 96.2113 158.354 95.2344 158.28C96.3429 156.138 97.4501 153.999 98.5558 151.863Z" fill="#A1C3FB"/>
<path opacity="0.986" fill-rule="evenodd" clip-rule="evenodd" d="M120.806 151.753C120.954 151.753 121.102 151.753 121.249 151.753C121.729 151.753 122.209 151.753 122.689 151.753C122.689 152.232 122.689 152.712 122.689 153.191C122.246 153.191 121.803 153.191 121.36 153.191C119.662 153.191 117.965 153.191 116.267 153.191C114.127 153.191 111.986 153.191 109.846 153.191C108.923 153.191 108.001 153.191 107.078 153.191C107.201 152.724 107.386 152.281 107.632 151.864C112.042 151.9 116.434 151.863 120.806 151.753Z" fill="#A1C3FB"/>
<path opacity="0.991" fill-rule="evenodd" clip-rule="evenodd" d="M107.079 153.191C108.002 153.191 108.924 153.191 109.847 153.191C110.08 153.298 110.338 153.335 110.622 153.302C110.548 154.556 110.474 155.81 110.4 157.064C111.95 157.064 113.5 157.064 115.05 157.064C117.154 157.064 119.257 157.064 121.361 157.064C116.25 157.193 111.12 157.211 105.972 157.119C105.656 156.98 105.36 156.814 105.086 156.621C104.702 156.202 104.48 155.704 104.422 155.128C104.731 153.694 105.617 153.048 107.079 153.191Z" fill="#E5E5E5"/>
<path opacity="0.98" fill-rule="evenodd" clip-rule="evenodd" d="M109.852 153.191C111.992 153.191 114.132 153.191 116.273 153.191C115.964 153.3 115.632 153.336 115.276 153.302C115.222 154.558 115.148 155.812 115.055 157.064C113.505 157.064 111.955 157.064 110.405 157.064C110.479 155.81 110.553 154.556 110.627 153.302C110.343 153.335 110.085 153.299 109.852 153.191Z" fill="#E5E5E5"/>
<path opacity="0.983" fill-rule="evenodd" clip-rule="evenodd" d="M116.273 153.191C117.97 153.191 119.668 153.191 121.365 153.191C121.365 154.482 121.365 155.773 121.365 157.064C119.262 157.064 117.158 157.064 115.055 157.064C115.148 155.812 115.222 154.558 115.276 153.302C115.632 153.336 115.964 153.3 116.273 153.191Z" fill="#E5E5E5"/>
<path opacity="0.954" fill-rule="evenodd" clip-rule="evenodd" d="M105.087 156.621C105.362 156.814 105.657 156.98 105.973 157.119C111.122 157.211 116.251 157.193 121.362 157.064C121.842 157.064 122.322 157.064 122.802 157.064C122.802 157.506 122.802 157.949 122.802 158.391C118.197 158.501 113.583 158.538 108.962 158.502C107.43 158.428 105.88 158.355 104.312 158.281C104.602 157.738 104.861 157.185 105.087 156.621Z" fill="#A1C3FB"/>
<path opacity="0.991" fill-rule="evenodd" clip-rule="evenodd" d="M92.5735 158.502C94.4187 158.502 96.264 158.502 98.1092 158.502C100.656 158.502 103.202 158.502 105.748 158.502C105.603 158.935 105.492 159.378 105.416 159.83C101.357 159.811 97.2971 159.83 93.2378 159.885C91.5641 160.683 91.2689 161.826 92.3521 163.315C92.6165 163.521 92.9117 163.668 93.2378 163.757C96.8542 163.813 100.471 163.831 104.088 163.813C103.954 164.212 103.844 164.618 103.756 165.03C99.9913 165.03 96.2271 165.03 92.4628 165.03C90.1939 163.882 89.6219 162.149 90.7468 159.83C91.2592 159.235 91.8682 158.792 92.5735 158.502Z" fill="#A1C3FB"/>
<path fill-rule="evenodd" clip-rule="evenodd" d="M122.804 158.392C123.911 158.392 125.018 158.392 126.125 158.392C126.125 158.908 126.125 159.424 126.125 159.941C125.572 159.941 125.018 159.941 124.464 159.941C118.136 159.83 111.788 159.793 105.422 159.83C105.498 159.378 105.609 158.936 105.754 158.502C106.824 158.502 107.894 158.502 108.965 158.502C113.586 158.538 118.199 158.502 122.804 158.392Z" fill="#A1C3FB"/>
<path fill-rule="evenodd" clip-rule="evenodd" d="M105.421 159.83C111.787 159.793 118.135 159.83 124.464 159.941C119.814 159.941 115.164 159.941 110.514 159.941C107.599 159.941 104.683 159.941 101.768 159.941C101.768 161.195 101.768 162.449 101.768 163.703C103.927 163.666 106.068 163.703 108.189 163.813C106.824 163.813 105.458 163.813 104.093 163.813C100.476 163.832 96.8593 163.813 93.2428 163.758C92.9167 163.669 92.6215 163.521 92.3571 163.315C91.274 161.827 91.5692 160.683 93.2428 159.885C97.3021 159.83 101.362 159.812 105.421 159.83Z" fill="#E5E5E5"/>
<path fill-rule="evenodd" clip-rule="evenodd" d="M110.512 159.94C110.522 161.196 110.485 162.45 110.401 163.702C115.088 163.702 119.775 163.702 124.462 163.702C119.056 163.813 113.631 163.85 108.187 163.813C106.066 163.703 103.925 163.666 101.766 163.702C101.766 162.448 101.766 161.194 101.766 159.94C104.681 159.94 107.597 159.94 110.512 159.94Z" fill="#E5E5E5"/>
<path fill-rule="evenodd" clip-rule="evenodd" d="M110.509 159.94C115.159 159.94 119.809 159.94 124.459 159.94C124.459 161.194 124.459 162.448 124.459 163.702C119.772 163.702 115.085 163.702 110.398 163.702C110.482 162.45 110.519 161.196 110.509 159.94Z" fill="#E5E5E5"/>
<path opacity="0.994" fill-rule="evenodd" clip-rule="evenodd" d="M124.461 163.702C124.978 163.702 125.494 163.702 126.011 163.702C126.011 164.182 126.011 164.661 126.011 165.14C125.347 165.14 124.683 165.14 124.018 165.14C123.797 165.14 123.575 165.14 123.354 165.14C116.841 165.03 110.309 164.993 103.758 165.03C103.846 164.618 103.957 164.212 104.09 163.813C105.455 163.813 106.821 163.813 108.186 163.813C113.63 163.85 119.055 163.813 124.461 163.702Z" fill="#A1C3FB"/>
<path opacity="0.98" fill-rule="evenodd" clip-rule="evenodd" d="M92.4629 165.03C96.2271 165.03 99.9914 165.03 103.756 165.03C110.306 164.994 116.838 165.03 123.352 165.141C122.835 165.141 122.318 165.141 121.802 165.141C120.215 165.141 118.628 165.141 117.041 165.141C115.307 165.141 113.572 165.141 111.838 165.141C107.926 165.141 104.014 165.141 100.102 165.141C100.102 165.547 100.102 165.952 100.102 166.358C97.2784 166.321 94.4736 166.358 91.6879 166.469C91.651 166.469 91.6141 166.469 91.5772 166.469C91.1713 166.469 90.7653 166.469 90.3594 166.469C90.3594 165.989 90.3594 165.51 90.3594 165.03C91.0606 165.03 91.7617 165.03 92.4629 165.03Z" fill="#3482EE"/>
<path fill-rule="evenodd" clip-rule="evenodd" d="M111.845 165.141C111.845 167.317 111.845 169.492 111.845 171.668C109.668 171.668 107.49 171.668 105.313 171.668C105.313 171.226 105.313 170.783 105.313 170.341C106.384 170.359 107.454 170.341 108.524 170.285C109.69 169.855 110.151 169.025 109.907 167.796C109.626 166.981 109.054 166.521 108.191 166.413C105.498 166.358 102.804 166.339 100.109 166.358C100.109 165.952 100.109 165.546 100.109 165.141C104.021 165.141 107.933 165.141 111.845 165.141Z" fill="#3482EE"/>
<path fill-rule="evenodd" clip-rule="evenodd" d="M111.844 165.141C113.578 165.141 115.313 165.141 117.047 165.141C117.047 167.317 117.047 169.492 117.047 171.668C115.313 171.668 113.578 171.668 111.844 171.668C111.844 169.492 111.844 167.317 111.844 165.141Z" fill="#3482EE"/>
<path fill-rule="evenodd" clip-rule="evenodd" d="M117.047 165.141C118.634 165.141 120.221 165.141 121.808 165.141C121.808 167.317 121.808 169.492 121.808 171.668C121.66 171.668 121.512 171.668 121.365 171.668C119.925 171.668 118.486 171.668 117.047 171.668C117.047 169.492 117.047 167.317 117.047 165.141Z" fill="#3482EE"/>
<path opacity="0.977" fill-rule="evenodd" clip-rule="evenodd" d="M121.802 165.141C122.319 165.141 122.836 165.141 123.352 165.141C123.574 165.141 123.795 165.141 124.016 165.141C125.104 165.638 125.842 166.449 126.231 167.575C126.231 168.128 126.231 168.681 126.231 169.234C125.747 170.73 124.714 171.56 123.131 171.724C122.541 171.779 121.951 171.797 121.359 171.779C121.359 171.742 121.359 171.705 121.359 171.668C121.507 171.668 121.655 171.668 121.802 171.668C121.802 169.492 121.802 167.317 121.802 165.141Z" fill="#3482EE"/>
<path fill-rule="evenodd" clip-rule="evenodd" d="M91.5781 166.469C91.615 166.469 91.6519 166.469 91.6888 166.469C95.2316 166.469 98.7744 166.469 102.317 166.469C102.317 167.76 102.317 169.05 102.317 170.341C98.7186 170.378 95.1389 170.341 91.5781 170.231C91.5781 168.977 91.5781 167.723 91.5781 166.469Z" fill="#E5E5E5"/>
<path opacity="0.999" fill-rule="evenodd" clip-rule="evenodd" d="M91.6953 166.468C94.481 166.358 97.2857 166.321 100.109 166.357C102.804 166.339 105.498 166.357 108.191 166.413C109.054 166.52 109.626 166.981 109.908 167.796C110.151 169.025 109.69 169.854 108.524 170.285C107.454 170.341 106.384 170.359 105.313 170.341C104.317 170.341 103.32 170.341 102.324 170.341C102.324 169.05 102.324 167.759 102.324 166.468C98.7809 166.468 95.2381 166.468 91.6953 166.468Z" fill="#E5E5E5"/>
<path opacity="0.998" fill-rule="evenodd" clip-rule="evenodd" d="M91.5772 170.23C95.138 170.341 98.7177 170.378 102.316 170.341C103.313 170.341 104.309 170.341 105.306 170.341C105.306 170.784 105.306 171.226 105.306 171.669C100.324 171.669 95.3414 171.669 90.3594 171.669C90.3594 171.189 90.3594 170.71 90.3594 170.23C90.7653 170.23 91.1713 170.23 91.5772 170.23Z" fill="#3482EE"/>
<path opacity="0.988" fill-rule="evenodd" clip-rule="evenodd" d="M90.3635 171.669C91.1179 171.778 91.8929 171.815 92.6885 171.779C92.6885 172.185 92.6885 172.591 92.6885 172.996C91.1673 172.947 89.6543 173.002 88.1493 173.162C86.9034 173.83 86.5897 174.807 87.2082 176.094C87.4495 176.372 87.7263 176.612 88.0386 176.813C89.5435 176.973 91.0566 177.029 92.5778 176.979C92.6069 177.433 92.57 177.876 92.4671 178.307C90.954 178.307 89.4409 178.307 87.9279 178.307C86.7129 177.904 85.901 177.093 85.4922 175.873C85.4922 175.283 85.4922 174.693 85.4922 174.103C86.4262 172.016 88.05 171.205 90.3635 171.669Z" fill="#171C53"/>
<path fill-rule="evenodd" clip-rule="evenodd" d="M92.6875 171.779C99.5148 171.779 106.342 171.779 113.169 171.779C113.169 172.185 113.169 172.591 113.169 172.996C106.342 172.996 99.5148 172.996 92.6875 172.996C92.6875 172.591 92.6875 172.185 92.6875 171.779Z" fill="#1C215E"/>
<path opacity="0.985" fill-rule="evenodd" clip-rule="evenodd" d="M90.3594 171.668C95.3414 171.668 100.324 171.668 105.306 171.668C107.483 171.668 109.66 171.668 111.838 171.668C113.572 171.668 115.307 171.668 117.041 171.668C118.48 171.668 119.92 171.668 121.359 171.668C121.359 171.705 121.359 171.742 121.359 171.779C121.359 172.221 121.359 172.664 121.359 173.106C120.99 173.106 120.621 173.106 120.252 173.106C117.909 172.996 115.547 172.959 113.166 172.996C113.166 172.59 113.166 172.184 113.166 171.779C106.339 171.779 99.5117 171.779 92.6843 171.779C91.8887 171.815 91.1137 171.778 90.3594 171.668Z" fill="#21286A"/>
<path fill-rule="evenodd" clip-rule="evenodd" d="M92.6865 172.996C99.5139 172.996 106.341 172.996 113.168 172.996C115.549 172.959 117.911 172.996 120.254 173.107C116.933 173.107 113.611 173.107 110.29 173.107C106.895 173.107 103.5 173.107 100.104 173.107C100.104 174.361 100.104 175.615 100.104 176.868C102.78 176.832 105.438 176.869 108.076 176.979C102.909 176.979 97.7424 176.979 92.5758 176.979C91.0546 177.028 89.5416 176.973 88.0366 176.813C87.7243 176.611 87.4475 176.372 87.2063 176.094C86.5877 174.806 86.9014 173.829 88.1473 173.162C89.6523 173.002 91.1653 172.947 92.6865 172.996Z" fill="#E5E5E5"/>
<path opacity="0.998" fill-rule="evenodd" clip-rule="evenodd" d="M110.295 173.106C110.295 174.36 110.295 175.614 110.295 176.868C112.75 176.832 115.185 176.869 117.602 176.979C116.052 176.979 114.502 176.979 112.952 176.979C111.328 176.979 109.705 176.979 108.081 176.979C105.443 176.868 102.786 176.832 100.109 176.868C100.109 175.614 100.109 174.36 100.109 173.106C103.505 173.106 106.9 173.106 110.295 173.106Z" fill="#E5E5E5"/>
<path opacity="0.993" fill-rule="evenodd" clip-rule="evenodd" d="M110.289 173.106C113.61 173.106 116.932 173.106 120.253 173.106C120.253 174.36 120.253 175.614 120.253 176.868C119.388 176.978 118.502 177.015 117.596 176.979C115.18 176.869 112.744 176.832 110.289 176.868C110.289 175.614 110.289 174.36 110.289 173.106Z" fill="#E5E5E5"/>
<path fill-rule="evenodd" clip-rule="evenodd" d="M92.5795 176.979C97.7461 176.979 102.913 176.979 108.079 176.979C109.703 176.979 111.327 176.979 112.951 176.979C112.951 177.422 112.951 177.865 112.951 178.307C106.123 178.307 99.2961 178.307 92.4688 178.307C92.5717 177.876 92.6086 177.433 92.5795 176.979Z" fill="#1C215E"/>
<path opacity="0.99" fill-rule="evenodd" clip-rule="evenodd" d="M120.252 176.868C120.621 176.868 120.99 176.868 121.359 176.868C121.359 177.348 121.359 177.827 121.359 178.306C118.555 178.306 115.75 178.306 112.945 178.306C112.945 177.864 112.945 177.421 112.945 176.979C114.495 176.979 116.045 176.979 117.595 176.979C118.501 177.015 119.387 176.978 120.252 176.868Z" fill="#202566"/>
</g>
<g clip-path="url(#clip3_3799_102598)">
<path opacity="0.978" fill-rule="evenodd" clip-rule="evenodd" d="M68.4655 87.2322C67.8704 88.1722 67.3322 89.1653 66.8512 90.2115C66.0745 93.0783 65.4122 95.9749 64.8643 98.9013C64.5556 99.4805 64.1418 99.6461 63.6225 99.3979C63.6593 96.7507 63.6593 94.1024 63.6225 91.4529C63.4569 91.784 63.2915 92.115 63.1258 92.4461C62.6957 95.2403 62.4885 98.0541 62.5049 100.888C62.5049 101.053 62.5049 101.219 62.5049 101.384C61.6548 101.477 61.0339 101.145 60.6423 100.391C60.006 98.1996 59.592 95.9651 59.4005 93.6875C59.1824 92.8055 58.8929 91.9779 58.5312 91.2047C58.5312 90.7081 58.5312 90.2115 58.5312 89.715C59.2689 89.776 59.5999 90.1898 59.5247 90.9564C60.1773 93.6505 60.6326 96.3816 60.8906 99.1496C61.0764 99.6046 61.3248 100.018 61.6357 100.391C61.8232 98.0753 61.9889 95.758 62.1324 93.4392C62.301 92.5605 62.5909 91.7329 63.0016 90.9564C63.2835 90.531 63.6975 90.3655 64.2434 90.4598C64.3485 92.9311 64.39 95.4139 64.3676 97.9082C64.8482 94.3597 65.8004 90.9666 67.2237 87.7287C67.4946 87.0604 67.9084 86.8949 68.4655 87.2322Z" fill="#ED4546"/>
<path opacity="0.994" fill-rule="evenodd" clip-rule="evenodd" d="M72.9396 85.7422C74.4298 85.7422 75.9199 85.7422 77.41 85.7422C80.1442 86.3645 82.545 87.6473 84.6123 89.5905C83.8402 90.9813 82.9295 92.2641 81.8804 93.4389C80.4718 94.5992 79.0643 95.7578 77.6584 96.9148C76.8493 97.2643 76.063 97.6781 75.299 98.1562C74.4087 96.7901 73.5806 95.3832 72.8155 93.9354C72.5937 93.6347 72.3868 93.6347 72.1946 93.9354C69.6715 97.6946 68.5127 101.833 68.7176 106.349C67.5084 106.076 66.4322 105.538 65.489 104.736C64.3403 103.548 63.3469 102.265 62.5087 100.887C62.4923 98.0538 62.6995 95.24 63.1296 92.4458C63.2953 92.1147 63.4607 91.7837 63.6263 91.4526C63.6631 94.1021 63.6631 96.7504 63.6263 99.3976C64.1456 99.6458 64.5594 99.4802 64.8681 98.901C65.416 95.9746 66.0783 93.078 66.8549 90.2112C67.336 89.165 67.8742 88.1719 68.4692 87.2319C69.3852 87.1621 70.2959 87.0379 71.2012 86.8594C71.7207 86.3539 72.3004 85.9815 72.9396 85.7422Z" fill="#171D61"/>
<path opacity="0.989" fill-rule="evenodd" clip-rule="evenodd" d="M59.5234 90.9561C60.6825 90.9561 61.8413 90.9561 63.0004 90.9561C62.5896 91.7326 62.2998 92.5602 62.1312 93.4389C61.9876 95.7577 61.822 98.075 61.6345 100.391C61.3235 100.018 61.0752 99.6043 60.8894 99.1493C60.6314 96.3812 60.1761 93.6502 59.5234 90.9561Z" fill="#171856"/>
<path opacity="0.996" fill-rule="evenodd" clip-rule="evenodd" d="M58.5304 91.2041C58.892 91.9773 59.1816 92.8049 59.3997 93.6869C59.5912 95.9646 60.0052 98.1991 60.6414 100.39C61.0331 101.145 61.654 101.476 62.5041 101.384C62.1264 103.472 61.878 105.583 61.759 107.715C61.9826 111.422 62.3966 115.105 63.0008 118.763C60.8424 118.458 58.6899 118.458 56.5436 118.763C56.7075 109.904 56.5418 101.131 56.0469 92.4455C56.8312 91.9364 57.6592 91.5226 58.5304 91.2041Z" fill="#111859"/>
<path fill-rule="evenodd" clip-rule="evenodd" d="M67.2225 87.7285C65.7991 90.9664 64.8469 94.3595 64.3664 97.908C64.3887 95.4137 64.3472 92.9309 64.2422 90.4596C65.0737 89.3803 66.0671 88.47 67.2225 87.7285Z" fill="#271C5B"/>
<path opacity="0.992" fill-rule="evenodd" clip-rule="evenodd" d="M56.0502 92.4453C56.5451 101.131 56.7108 109.904 56.5469 118.763C54.944 118.749 53.3709 118.915 51.8281 119.26C52.3169 111.353 52.4825 103.408 52.3248 95.4247C53.2788 94.0558 54.5205 93.0627 56.0502 92.4453Z" fill="#131C60"/>
<path opacity="0.997" fill-rule="evenodd" clip-rule="evenodd" d="M81.882 93.4385C81.7715 94.1497 81.9371 94.7704 82.3787 95.3006C83.6053 95.6997 84.8059 96.1549 85.9799 96.6661C86.1455 96.9971 86.3109 97.3282 86.4766 97.6592C86.8074 100.889 86.228 103.951 84.7381 106.846C83.3945 108.2 81.7802 109.069 79.8952 109.453C78.9993 110.706 78.337 112.071 77.9083 113.549C77.1218 112.805 76.294 112.101 75.4248 111.439C74.8908 111.088 74.3111 110.881 73.6863 110.818C72.4825 110.54 71.2407 110.54 69.9609 110.818C70.2408 109.916 70.4892 109.005 70.706 108.087C72.9201 109.035 75.238 109.449 77.66 109.328C77.66 105.19 77.66 101.052 77.66 96.9144C79.0659 95.7574 80.4733 94.5988 81.882 93.4385Z" fill="#FDB2AC"/>
<path fill-rule="evenodd" clip-rule="evenodd" d="M82.3213 95.8259C82.5335 96.1013 82.502 96.3449 82.2265 96.5572C81.3444 98.3538 80.2691 98.5241 79 97.0684C80.2892 97.2132 81.3964 96.7989 82.3213 95.8259Z" fill="#6E5D83"/>
<path fill-rule="evenodd" clip-rule="evenodd" d="M77.6592 96.9149C77.6592 101.053 77.6592 105.191 77.6592 109.329C75.2372 109.45 72.9193 109.036 70.7052 108.087C69.8896 107.686 69.2273 107.107 68.7184 106.35C68.5135 101.833 69.6723 97.6947 72.1954 93.9355C72.3876 93.6348 72.5945 93.6348 72.8163 93.9355C73.5814 95.3833 74.4095 96.7902 75.2998 98.1563C76.0638 97.6781 76.8501 97.2643 77.6592 96.9149Z" fill="#FDB2AC"/>
<path opacity="0.992" fill-rule="evenodd" clip-rule="evenodd" d="M52.321 95.4248C52.4787 103.408 52.3131 111.353 51.8243 119.26C49.8298 119.468 47.8842 119.882 45.988 120.501C45.5521 115.051 45.9661 109.672 47.2297 104.363C48.1032 100.874 49.8002 97.895 52.321 95.4248Z" fill="#182067"/>
<path fill-rule="evenodd" clip-rule="evenodd" d="M84.1139 100.887C84.706 101.956 84.7475 103.115 84.2381 104.363C83.6626 105.007 82.959 105.214 82.1271 104.983C80.9141 104.432 79.8377 103.687 78.8984 102.749C80.9394 102.883 82.6779 102.262 84.1139 100.887Z" fill="#FFFCFC"/>
<path opacity="0.994" fill-rule="evenodd" clip-rule="evenodd" d="M73.6826 110.818C74.3074 110.881 74.8871 111.088 75.4211 111.439C76.2903 112.101 77.1181 112.805 77.9046 113.549C78.7018 114.565 79.1571 115.724 79.2706 117.025C79.3471 120.176 79.2229 123.321 78.898 126.46C78.4294 125.696 77.8912 124.951 77.2837 124.225C74.1246 121.026 71.1029 117.716 68.2188 114.294C69.2569 111.873 71.0781 110.714 73.6826 110.818Z" fill="#3482EE"/>
<path opacity="0.996" fill-rule="evenodd" clip-rule="evenodd" d="M73.6842 110.819C71.0797 110.715 69.2585 111.874 68.2204 114.295C71.1045 117.717 74.1263 121.027 77.2854 124.226C77.8928 124.951 78.431 125.696 78.8997 126.46C78.4231 130.52 77.9264 134.576 77.4095 138.626C73.0675 133.927 68.7213 129.21 64.3709 124.474C63.7972 126.412 63.5076 128.398 63.5016 130.433C63.6844 136.307 63.8086 142.183 63.8742 148.061C63.9283 148.787 64.0525 149.491 64.2467 150.171C65.0971 150.357 65.9248 150.315 66.7303 150.047C67.8128 151.706 68.8892 153.362 69.9589 155.013C67.5017 163.597 65.4736 172.287 63.8742 181.082C63.4458 180.843 62.9903 180.677 62.5082 180.585C61.3951 180.028 60.236 179.614 59.0312 179.344C59.2796 179.344 59.528 179.344 59.7763 179.344C59.941 161.88 59.7756 144.5 59.2796 127.205C62.651 122.95 65.2588 118.233 67.1028 113.053C67.7592 111.92 68.7114 111.175 69.9589 110.819C71.2387 110.541 72.4804 110.541 73.6842 110.819Z" fill="#3482EE"/>
<path opacity="0.998" fill-rule="evenodd" clip-rule="evenodd" d="M77.4079 138.626C77.3394 140.657 77.1737 142.643 76.9112 144.584C76.6358 144.598 76.3874 144.681 76.1661 144.833C74.0201 145.988 71.9505 147.271 69.9572 148.681C68.933 149.276 67.8569 149.731 66.7286 150.046C65.9232 150.315 65.0954 150.356 64.2451 150.171C64.0509 149.49 63.9267 148.787 63.8725 148.06C63.807 142.183 63.6828 136.307 63.5 130.432C63.506 128.398 63.7955 126.411 64.3692 124.474C68.7197 129.209 73.0659 133.927 77.4079 138.626Z" fill="#3482EE"/>
<path opacity="0.999" fill-rule="evenodd" clip-rule="evenodd" d="M59.2796 127.205C59.7756 144.5 59.941 161.88 59.7763 179.344C59.528 179.344 59.2796 179.344 59.0313 179.344C57.6909 179.174 56.3662 178.926 55.0576 178.599C53.1832 178.112 51.3618 177.533 49.5938 176.861C49.9241 164.72 49.9241 152.554 49.5938 140.364C52.7203 135.913 55.9489 131.526 59.2796 127.205Z" fill="#3482EE"/>
<path opacity="0.98" fill-rule="evenodd" clip-rule="evenodd" d="M76.9153 144.584C77.0981 147.657 78.0503 150.47 79.7714 153.026C80.93 154.72 82.1303 156.375 83.3725 157.991C83.6544 161.787 83.6959 165.594 83.4967 169.412C83.3301 169.225 83.1232 169.142 82.8758 169.164C80.8172 166.444 78.4993 163.961 75.9219 161.715C76.1695 156.13 76.2524 150.503 76.1702 144.832C76.3915 144.681 76.6399 144.598 76.9153 144.584Z" fill="#FFB2AB"/>
<path opacity="0.991" fill-rule="evenodd" clip-rule="evenodd" d="M76.1641 144.833C76.2463 150.503 76.1633 156.131 75.9157 161.716C73.7443 159.629 71.7575 157.395 69.9552 155.012C68.8855 153.362 67.8091 151.706 66.7266 150.047C67.8548 149.732 68.931 149.276 69.9552 148.681C71.9485 147.271 74.018 145.989 76.1641 144.833Z" fill="#FEB8B1"/>
<path opacity="0.995" fill-rule="evenodd" clip-rule="evenodd" d="M49.5946 140.363C49.9249 152.553 49.9249 164.719 49.5946 176.86C45.4165 175.351 41.4429 173.448 37.6736 171.15C35.8541 169.991 34.1156 168.708 32.4581 167.302C32.0332 167.02 31.909 166.648 32.0856 166.184C37.4992 157.261 43.3356 148.655 49.5946 140.363Z" fill="#3482EE"/>
<path opacity="0.978" fill-rule="evenodd" clip-rule="evenodd" d="M83.3717 157.991C86.2469 161.372 88.6478 165.096 90.574 169.164C93.3064 171.317 95.8729 173.634 98.273 176.116C98.273 176.447 98.273 176.778 98.273 177.109C95.9753 176.953 94.0711 176.002 92.5609 174.254C92.3952 174.088 92.2298 174.088 92.0641 174.254C92.918 176.648 93.8699 179.006 94.9202 181.33C95.5598 183.213 94.9389 183.917 93.0576 183.44C92.6729 183.139 92.3833 182.766 92.1883 182.323C90.5219 182.837 89.1559 182.382 88.0905 180.957C86.0003 181.144 85.0069 180.192 85.1102 178.102C85.3538 176.202 85.3951 174.298 85.2344 172.391C84.4898 171.276 83.7033 170.2 82.875 169.164C83.1224 169.142 83.3292 169.225 83.4959 169.412C83.6951 165.594 83.6536 161.787 83.3717 157.991Z" fill="#FFAAA4"/>
<path opacity="0.994" fill-rule="evenodd" clip-rule="evenodd" d="M55.0573 178.599C56.3659 178.926 57.6906 179.174 59.031 179.343C60.2357 179.614 61.3948 180.028 62.5079 180.585C60.9215 199.205 59.3484 217.826 57.7892 236.448C56.3217 236.685 54.8315 236.768 53.3188 236.696C49.8428 236.516 46.3658 236.35 42.8879 236.2C42.523 234.476 42.3574 232.697 42.3912 230.862C41.9724 226.479 42.8417 222.383 44.9989 218.572C45.3235 217.688 45.5304 216.777 45.6198 215.841C45.0945 213.065 44.3907 210.334 43.5088 207.647C43.3431 206.82 43.3431 205.992 43.5088 205.165C44.7664 201.186 46.0497 197.213 47.3583 193.247C47.5262 192.661 47.733 192.082 47.9792 191.509C50.5034 187.291 52.8628 182.987 55.0573 178.599Z" fill="#0A134F"/>
<path opacity="0.993" fill-rule="evenodd" clip-rule="evenodd" d="M37.6723 171.15C41.4416 173.448 45.4153 175.352 49.5933 176.861C51.3614 177.532 53.1828 178.112 55.0572 178.599C52.8627 182.988 50.5033 187.291 47.979 191.509C47.7329 192.082 47.526 192.662 47.3582 193.247C46.1405 195.1 44.9814 197.004 43.8812 198.958C43.528 198.906 43.197 198.782 42.8878 198.585C38.4467 195.251 33.9763 191.982 29.4766 188.778C33.2021 183.397 35.9341 177.521 37.6723 171.15Z" fill="#141D62"/>
<path opacity="0.993" fill-rule="evenodd" clip-rule="evenodd" d="M29.4753 188.778C33.975 191.982 38.4454 195.251 42.8865 198.585C43.1957 198.782 43.5268 198.906 43.8799 198.958C42.848 200.689 41.8131 202.427 40.7755 204.172C37.7677 208.212 34.9116 212.35 32.2072 216.586C28.4109 213.949 24.6855 211.218 21.0312 208.392C21.6743 204.989 22.378 201.596 23.1423 198.213C24.9191 194.827 27.0301 191.682 29.4753 188.778Z" fill="#0E1756"/>
<path opacity="0.994" fill-rule="evenodd" clip-rule="evenodd" d="M21.0355 208.393C24.6897 211.218 28.4151 213.949 32.2115 216.586C29.0759 221.449 26.6751 226.663 25.0091 232.227C24.8477 232.303 24.6822 232.386 24.5124 232.476C22.7373 231.713 20.9988 230.885 19.297 229.993C16.6179 228.778 14.0515 227.371 11.598 225.772C11.3673 225.477 11.2845 225.146 11.3496 224.779C12.3678 221.335 13.7338 218.025 15.4475 214.848C17.4622 212.795 19.3248 210.643 21.0355 208.393Z" fill="#0A134F"/>
<path opacity="0.992" fill-rule="evenodd" clip-rule="evenodd" d="M11.3454 224.779C11.2803 225.146 11.3631 225.477 11.5938 225.772C14.0473 227.372 16.6137 228.778 19.2928 229.993C18.0016 233.038 16.7599 236.1 15.5674 239.18C12.64 238.006 9.74256 236.765 6.875 235.455C6.875 235.207 6.875 234.959 6.875 234.71C7.955 231.226 9.44513 227.916 11.3454 224.779Z" fill="#3482EE"/>
<path opacity="0.973" fill-rule="evenodd" clip-rule="evenodd" d="M19.2956 229.993C20.9974 230.885 22.7359 231.713 24.5111 232.476C24.6809 232.386 24.8464 232.303 25.0078 232.228C28.8467 235.034 31.62 238.676 33.3277 243.152C33.7984 244.35 34.0052 245.591 33.9486 246.876C33.5346 246.876 33.1208 246.876 32.7068 246.876C27.0241 244.242 21.3119 241.677 15.5703 239.18C16.7627 236.1 18.0045 233.038 19.2956 229.993Z" fill="#3482EE"/>
<path opacity="0.995" fill-rule="evenodd" clip-rule="evenodd" d="M42.8898 236.2C46.3678 236.351 49.8448 236.516 53.3207 236.697C53.586 236.929 53.917 237.012 54.3142 236.945C54.3142 240.173 54.3142 243.4 54.3142 246.628C50.5061 246.628 46.6978 246.628 42.8898 246.628C42.5992 243.137 42.5992 239.661 42.8898 236.2Z" fill="#3482EE"/>
<path opacity="0.992" fill-rule="evenodd" clip-rule="evenodd" d="M57.7907 236.448C59.447 236.757 61.0198 237.254 62.5095 237.938C62.5 240.758 62.5 243.655 62.5095 246.628C59.7776 246.628 57.0456 246.628 54.3137 246.628C54.3137 243.4 54.3137 240.172 54.3137 236.945C53.9166 237.011 53.5856 236.928 53.3203 236.697C54.833 236.768 56.3232 236.685 57.7907 236.448Z" fill="#3482EE"/>
<path opacity="0.976" fill-rule="evenodd" clip-rule="evenodd" d="M62.5071 237.938C64.7512 238.604 66.7381 239.721 68.4676 241.289C70.0757 242.646 71.4002 244.219 72.4413 246.007C72.4053 246.198 72.3226 246.364 72.1929 246.503C68.9653 246.627 65.7367 246.669 62.5071 246.627C62.4976 243.654 62.4976 240.758 62.5071 237.938Z" fill="#3482EE"/>
</g>
</g>
<defs>
<clipPath id="clip0_3799_102598">
<rect width="135.073" height="225" fill="white" transform="matrix(-1 0 0 1 216.953 22)"/>
</clipPath>
<clipPath id="clip1_3799_102598">
<rect width="135.073" height="118.556" fill="white" transform="translate(128.859 128.443)"/>
</clipPath>
<clipPath id="clip2_3799_102598">
<rect width="40.7423" height="46.248" fill="white" transform="translate(85.5469 132.114)"/>
</clipPath>
<clipPath id="clip3_3799_102598">
<rect width="91.3948" height="161.134" fill="white" transform="translate(7 85.8662)"/>
</clipPath>
</defs>
</svg>
