<svg width="270" height="270" viewBox="0 0 270 270" fill="none" xmlns="http://www.w3.org/2000/svg">
<g opacity="0.9">
<g clip-path="url(#clip0_3799_101542)">
<path opacity="0.991" fill-rule="evenodd" clip-rule="evenodd" d="M45.3186 34.874C49.3621 34.874 53.4056 34.874 57.4491 34.874C57.0634 39.866 57.3161 39.866 58.2072 34.874C58.2914 34.874 58.3758 34.874 58.4599 34.874C58.5352 39.8588 56.2608 43.3142 51.6366 45.2401C49.9067 45.8681 48.1796 45.8681 46.4559 45.2401C45.2491 46.0248 44.1119 46.9097 43.0442 47.8948C42.4101 48.2327 41.7361 48.4434 41.0224 48.5269C39.1819 48.0653 37.3287 47.7703 35.4627 47.6419C34.5769 48.4485 34.4927 49.3334 35.2099 50.2967C35.8799 50.8402 36.5117 51.4302 37.1053 52.0665C37.2739 52.3193 37.2739 52.5721 37.1053 52.825C36.8412 53.0458 36.6307 53.2986 36.4735 53.5835C36.2228 53.5401 36.0545 53.6244 35.9681 53.8363C34.0328 53.8585 32.4743 53.1 31.2928 51.5608C28.5951 47.3433 27.6684 42.7923 28.5129 37.908C29.5893 36.2098 31.1478 35.3249 33.1882 35.2533C37.2751 35.2107 41.3186 35.0842 45.3186 34.874Z" fill="#23286B"/>
<path opacity="0.993" fill-rule="evenodd" clip-rule="evenodd" d="M51.6346 45.2393C51.8312 47.5241 52.0417 49.7996 52.2664 52.0657C50.5355 52.1138 49.2297 52.8723 48.3493 54.3411C48.1807 54.3411 48.0965 54.4254 48.0965 54.594C47.2072 54.4643 46.6174 53.9587 46.3275 53.077C46.0538 53.2957 46.0119 53.5485 46.2012 53.8355C46.4688 54.3814 46.8479 54.8028 47.3384 55.0996C45.9694 56.4204 44.3687 56.9261 42.5368 56.6166C40.1592 56.2701 38.1375 55.2588 36.4715 53.5827C36.6287 53.2978 36.8393 53.045 37.1033 52.8242C37.2719 52.5713 37.2719 52.3185 37.1033 52.0657C36.5097 51.4293 35.8779 50.8394 35.208 50.2959C34.4907 49.3326 34.5749 48.4477 35.4607 47.6411C37.3267 47.7695 39.1799 48.0645 41.0205 48.5261C41.7341 48.4426 42.4081 48.2319 43.0422 47.894C44.1099 46.9089 45.2472 46.024 46.4539 45.2393C48.1777 45.8673 49.9047 45.8673 51.6346 45.2393Z" fill="#FDBCB5"/>
<path opacity="0.706" fill-rule="evenodd" clip-rule="evenodd" d="M48.0975 54.5941C48.2661 54.5941 48.3502 54.5099 48.3502 54.3413C48.6239 54.3313 48.8766 54.247 49.1084 54.0885C49.4195 54.3794 49.4195 54.6744 49.1084 54.9734C48.5246 55.0989 47.935 55.1411 47.3393 55.0998C46.8488 54.8029 46.4697 54.3816 46.2021 53.8356C46.0128 53.5487 46.0548 53.2958 46.3285 53.0771C46.6183 53.9588 47.2082 54.4645 48.0975 54.5941Z" fill="#2E316D"/>
<path opacity="0.978" fill-rule="evenodd" clip-rule="evenodd" d="M36.4772 53.5833C38.1432 55.2595 40.1649 56.2708 42.5425 56.6173C42.525 57.9709 42.4409 59.3193 42.2897 60.6626C41.7221 60.4211 41.1325 60.2525 40.5207 60.1569C38.7525 59.4192 36.8993 58.9135 34.9609 58.6399C35.4846 57.0802 35.8217 55.4789 35.9718 53.8362C36.0582 53.6242 36.2265 53.5399 36.4772 53.5833Z" fill="#F5AAA5"/>
<path opacity="0.989" fill-rule="evenodd" clip-rule="evenodd" d="M40.5165 60.1562C41.1283 60.2519 41.7179 60.4205 42.2855 60.6619C44.9428 72.7277 47.6383 84.7794 50.3724 96.8166C47.6669 95.4154 45.6871 93.3084 44.4336 90.4959C42.7098 86.6316 41.6989 82.5863 41.401 78.36C41.2324 73.7249 41.2324 69.0895 41.401 64.4544C41.4611 63.5133 41.5875 62.5862 41.7801 61.6732C41.5435 61.3006 41.2064 61.0477 40.7692 60.9147C40.5453 60.7062 40.4611 60.4533 40.5165 60.1562Z" fill="#2779E2"/>
<path opacity="0.997" fill-rule="evenodd" clip-rule="evenodd" d="M34.958 58.6396C36.8963 58.9133 38.7495 59.4189 40.5178 60.1566C40.4624 60.4537 40.5466 60.7065 40.7705 60.9151C41.2077 61.0481 41.5448 61.3009 41.7813 61.6736C41.5888 62.5866 41.4624 63.5137 41.4023 64.4547C41.2337 69.0899 41.2337 73.7253 41.4023 78.3604C41.7002 82.5867 42.7111 86.632 44.4349 90.4963C45.6884 93.3087 47.6681 95.4158 50.3737 96.817C50.6795 96.9262 50.9322 97.0949 51.1319 97.3227C55.1915 108.243 59.1509 119.199 63.0096 130.191C60.3482 129.946 57.8211 129.23 55.4281 128.042C53.1124 126.272 50.838 124.46 48.6047 122.606C48.4362 122.353 48.2678 122.1 48.0993 121.847C41.916 104.427 35.5559 87.0661 29.0191 69.7642C28.3185 70.887 27.7288 72.067 27.2501 73.3038C27.1659 70.5227 27.0816 67.7415 26.9974 64.9604C26.7447 65.2132 26.4919 65.4661 26.2392 65.7189C26.1384 65.6612 26.0963 65.5768 26.1129 65.4661C28.6486 62.6404 31.5968 60.365 34.958 58.6396Z" fill="#3482EE"/>
<path opacity="0.999" fill-rule="evenodd" clip-rule="evenodd" d="M48.0971 121.847C47.9286 121.847 47.7603 121.847 47.5917 121.847C46.9746 121.41 46.3006 121.031 45.57 120.709C44.0332 120.277 42.5169 119.897 41.0211 119.571C41.1719 119.512 41.2561 119.385 41.2738 119.192C36.1403 105.216 30.9596 91.2685 25.7317 77.3486C24.7738 79.7187 24.0156 82.1625 23.4572 84.6807C23.4122 79.3528 23.2858 74.0434 23.0781 68.7524C23.9101 67.4984 24.921 66.4029 26.1107 65.4656C26.0942 65.5764 26.1363 65.6608 26.2371 65.7185C26.4898 65.4656 26.7425 65.2128 26.9952 64.96C27.0795 67.7411 27.1637 70.5222 27.248 73.3034C27.7267 72.0665 28.3164 70.8866 29.017 69.7637C35.5538 87.0657 41.9139 104.427 48.0971 121.847Z" fill="#3482EE"/>
<path fill-rule="evenodd" clip-rule="evenodd" d="M23.0785 68.7529C23.2862 74.0439 23.4126 79.3533 23.4576 84.6812C24.016 82.163 24.7742 79.7192 25.7321 77.3492C30.96 91.269 36.1407 105.217 41.2742 119.193C41.2565 119.386 41.1723 119.512 41.0215 119.572C34.1 119.902 28.7929 117.163 25.1003 111.355C22.1171 111.195 19.1687 110.816 16.2552 110.217C12.4452 109.643 8.73871 108.674 5.1356 107.31C3.83854 103.316 4.21762 99.4812 6.27282 95.8058C8.36565 92.7847 10.5559 89.8352 12.8435 86.9567C14.444 83.3329 16.0446 79.7088 17.6451 76.085C19.2151 73.4434 21.0262 70.9996 23.0785 68.7529Z" fill="#3482EE"/>
<path opacity="0.992" fill-rule="evenodd" clip-rule="evenodd" d="M51.1328 97.3223C56.5678 99.528 62.1275 101.382 67.8122 102.885C67.8122 104.149 67.8122 105.413 67.8122 106.677C67.565 109.606 67.4808 112.556 67.5594 115.526C67.5696 120.5 67.4854 125.473 67.3067 130.443C65.8632 130.49 64.4311 130.406 63.0105 130.19C59.1518 119.199 55.1925 108.243 51.1328 97.3223Z" fill="#3482EE"/>
<path opacity="0.991" fill-rule="evenodd" clip-rule="evenodd" d="M96.8726 109.459C96.8726 109.964 96.8726 110.47 96.8726 110.976C91.629 115.406 85.9009 116.164 79.6878 113.251C79.333 110.407 79.0803 107.542 78.9297 104.655C81.6401 103.616 84.42 103.406 87.2694 104.023C90.9044 105.123 94.1054 106.935 96.8726 109.459Z" fill="#FDBCB5"/>
<path opacity="0.981" fill-rule="evenodd" clip-rule="evenodd" d="M78.932 104.654C79.0826 107.541 79.3353 110.407 79.6901 113.251C76.8577 112.148 74.0778 112.275 71.3505 113.63C70.0801 114.265 68.8165 114.897 67.5597 115.526C67.4811 112.556 67.5653 109.606 67.8124 106.677C69.7518 106.719 71.6894 106.677 73.6249 106.551C75.3876 105.893 77.1567 105.261 78.932 104.654Z" fill="#FDBCB5"/>
<path opacity="0.998" fill-rule="evenodd" clip-rule="evenodd" d="M16.2582 110.217C19.1717 110.815 22.1201 111.194 25.1033 111.355C28.7959 117.163 34.103 119.902 41.0245 119.572C42.5203 119.898 44.0366 120.277 45.5734 120.709C46.304 121.031 46.978 121.411 47.5951 121.847C46.6398 135.664 45.6709 149.486 44.6889 163.311C41.17 175.322 36.8738 187.036 31.8003 198.455C31.427 199.448 31.1321 200.459 30.9158 201.489C28.1756 207.685 25.48 213.921 22.8288 220.198C18.6168 220.198 14.4049 220.198 10.1929 220.198C8.19283 220.442 6.17109 220.527 4.12772 220.451C4.1954 220.046 4.11116 219.709 3.875 219.439C3.875 216.068 3.875 212.697 3.875 209.326C4.14105 206.659 4.77285 204.047 5.77038 201.489C8.21332 197.443 10.6562 193.398 13.0992 189.353C13.3069 188.774 13.4754 188.184 13.6046 187.583C13.6888 184.633 13.7731 181.684 13.8573 178.734C15.0012 172.35 17.1914 166.366 20.428 160.783C21.2595 157.147 21.1752 153.523 20.1753 149.911C18.981 145.231 17.6332 140.596 16.1318 136.005C13.9244 127.395 13.9665 118.799 16.2582 110.217Z" fill="#23286B"/>
<path opacity="0.996" fill-rule="evenodd" clip-rule="evenodd" d="M47.592 121.848C47.7606 121.848 47.9289 121.848 48.0974 121.848C48.266 122.1 48.4343 122.353 48.6029 122.606C49.0451 126.062 49.5086 129.517 49.9928 132.972C51.4055 139.871 52.7535 146.781 54.0363 153.704C54.6102 157.56 54.9051 161.437 54.9208 165.334C54.6994 165.301 54.5309 165.386 54.4154 165.587C46.8225 180.275 39.241 194.939 31.6708 209.58C31.0633 206.92 30.8106 204.223 30.9127 201.489C31.129 200.46 31.4239 199.449 31.7972 198.455C36.8707 187.037 41.1669 175.322 44.6858 163.312C45.6678 149.487 46.6367 135.665 47.592 121.848Z" fill="#181D55"/>
<path opacity="0.994" fill-rule="evenodd" clip-rule="evenodd" d="M54.9219 165.334C55.0379 183.633 54.701 201.921 53.911 220.198C51.7207 220.198 49.5307 220.198 47.3404 220.198C45.4028 220.198 43.4654 220.198 41.5279 220.198C39.4151 220.282 37.3092 220.198 35.2099 219.945C33.8268 216.553 32.6476 213.098 31.6719 209.579C39.242 194.939 46.8235 180.275 54.4164 165.587C54.5319 165.385 54.7005 165.301 54.9219 165.334Z" fill="#1B205B"/>
<path opacity="0.99" fill-rule="evenodd" clip-rule="evenodd" d="M10.1899 220.198C14.4018 220.198 18.6138 220.198 22.8257 220.198C27.2976 224.291 32.3519 227.494 37.9888 229.806C40.5716 231.377 42.7619 233.4 44.5594 235.874C31.334 235.874 18.1083 235.874 4.88281 235.874C6.65183 230.648 8.42086 225.423 10.1899 220.198Z" fill="#E84946"/>
<path opacity="0.992" fill-rule="evenodd" clip-rule="evenodd" d="M41.5302 220.198C43.4678 220.198 45.4051 220.198 47.3427 220.198C47.3427 225.423 47.3427 230.648 47.3427 235.874C46.416 235.874 45.4896 235.874 44.5628 235.874C42.7653 233.4 40.575 231.377 37.9922 229.806C39.2158 226.64 40.3953 223.438 41.5302 220.198Z" fill="#D92F2E"/>
<path opacity="0.996" fill-rule="evenodd" clip-rule="evenodd" d="M47.3438 220.198C49.5341 220.198 51.7241 220.198 53.9144 220.198C56.5399 222.32 59.2356 224.343 62.0014 226.266C62.0014 229.384 62.0014 232.503 62.0014 235.621C62.4055 235.553 62.7423 235.638 63.0122 235.874C57.7893 235.874 52.5667 235.874 47.3438 235.874C47.3438 230.648 47.3438 225.423 47.3438 220.198Z" fill="#D92F2E"/>
<path opacity="0.984" fill-rule="evenodd" clip-rule="evenodd" d="M62 226.266C64.5343 227.702 67.1456 229.008 69.8342 230.184C72.3897 231.519 74.4115 233.416 75.8995 235.873C71.6033 235.873 67.3071 235.873 63.0109 235.873C62.741 235.637 62.4041 235.553 62 235.62C62 232.502 62 229.384 62 226.266Z" fill="#D92F2E"/>
</g>
<g clip-path="url(#clip1_3799_101542)">
<path fill-rule="evenodd" clip-rule="evenodd" d="M169.05 83.7588C170.017 83.7588 170.985 83.7588 171.952 83.7588C173.479 85.7301 174.285 87.9819 174.371 90.5143C174.21 90.5143 174.048 90.5143 173.887 90.5143C171.101 90.6522 168.361 90.4914 165.664 90.0318C165.925 87.4158 167.054 85.3248 169.05 83.7588Z" fill="#DF3D3C"/>
<path opacity="0.992" fill-rule="evenodd" clip-rule="evenodd" d="M164.216 90.0317C164.348 92.33 164.187 94.5819 163.732 96.7873C162.765 96.7873 161.797 96.7873 160.83 96.7873C160.83 98.3957 160.83 100.004 160.83 101.613C161.797 101.613 162.765 101.613 163.732 101.613C163.117 105.923 162.794 110.266 162.765 114.641C158.774 114.995 156.678 113.226 156.477 109.333C156.955 103.693 157.519 98.0634 158.169 92.4444C159.522 89.9842 161.537 89.1799 164.216 90.0317Z" fill="#A1C3FB"/>
<path opacity="0.989" fill-rule="evenodd" clip-rule="evenodd" d="M164.217 90.0322C164.7 90.0322 165.184 90.0322 165.668 90.0322C168.364 90.4918 171.105 90.6526 173.891 90.5148C173.921 92.7841 173.76 95.036 173.407 97.2703C172.481 97.133 171.675 97.2939 170.988 97.7529C170.516 99.0977 170.355 100.545 170.505 102.096C170.988 102.096 171.472 102.096 171.956 102.096C171.956 102.739 171.956 103.383 171.956 104.026C171.311 104.026 170.666 104.026 170.021 104.026C168.086 104.026 166.151 104.026 164.217 104.026C165.19 108.163 167.448 108.967 170.988 106.439C171.295 109.086 171.295 111.821 170.988 114.642C170.182 114.642 169.376 114.642 168.57 114.642C167.603 114.642 166.635 114.642 165.668 114.642C164.7 114.642 163.733 114.642 162.766 114.642C162.795 110.266 163.118 105.923 163.733 101.613C164.217 101.613 164.7 101.613 165.184 101.613C165.345 100.005 165.507 98.3962 165.668 96.7878C165.023 96.7878 164.378 96.7878 163.733 96.7878C164.188 94.5824 164.349 92.3306 164.217 90.0322Z" fill="#A1C3FB"/>
<path opacity="0.954" fill-rule="evenodd" clip-rule="evenodd" d="M173.891 90.5146C174.052 90.5146 174.214 90.5146 174.375 90.5146C176.505 90.7594 178.601 91.1615 180.663 91.721C181.908 92.7892 182.553 94.1564 182.597 95.8226C182.087 101.617 181.522 107.408 180.905 113.194C180.502 114.24 179.776 114.963 178.728 115.365C177.286 115.606 175.834 115.686 174.375 115.607C172.44 115.285 170.505 114.963 168.57 114.642C169.377 114.642 170.182 114.642 170.989 114.642C171.295 111.821 171.295 109.086 170.989 106.438C171.344 105.856 171.505 105.212 171.472 104.508C170.848 104.623 170.364 104.462 170.021 104.026C170.666 104.026 171.311 104.026 171.956 104.026C171.956 103.382 171.956 102.739 171.956 102.096C172.924 102.096 173.891 102.096 174.858 102.096C174.858 100.648 174.858 99.2004 174.858 97.7527C173.568 97.7527 172.279 97.7527 170.989 97.7527C171.675 97.2938 172.481 97.1329 173.407 97.2702C173.76 95.0359 173.921 92.784 173.891 90.5146Z" fill="#A1C3FB"/>
<path fill-rule="evenodd" clip-rule="evenodd" d="M170.015 104.025C170.358 104.462 170.842 104.622 171.466 104.508C171.499 105.212 171.338 105.855 170.983 106.438C167.442 108.967 165.185 108.162 164.211 104.025C166.146 104.025 168.081 104.025 170.015 104.025Z" fill="#1D256F"/>
<path opacity="0.871" fill-rule="evenodd" clip-rule="evenodd" d="M100.367 107.403C99.7717 108.27 99.4492 109.236 99.3991 110.298C97.8422 109.562 96.3105 108.758 94.804 107.886C92.8262 108.806 90.8108 109.128 88.7578 108.851C88.7578 108.208 88.7578 107.564 88.7578 106.921C92.7307 104.843 96.6003 105.004 100.367 107.403Z" fill="#1A226C"/>
<path fill-rule="evenodd" clip-rule="evenodd" d="M107.139 111.264C106.427 113.277 104.975 114.242 102.786 114.159C100.318 114.07 99.1897 112.783 99.3997 110.299C99.4498 109.236 99.7722 108.271 100.367 107.404C104.609 105.199 106.866 106.486 107.139 111.264Z" fill="#3482EE"/>
<path opacity="0.931" fill-rule="evenodd" clip-rule="evenodd" d="M107.142 111.264C110.049 114.164 112.79 117.22 115.365 120.432C113.914 121.558 112.624 122.845 111.496 124.292C108.593 120.914 105.691 117.537 102.789 114.159C104.979 114.242 106.43 113.277 107.142 111.264Z" fill="#1B236C"/>
<path opacity="0.959" fill-rule="evenodd" clip-rule="evenodd" d="M165.664 114.642C166.631 114.642 167.599 114.642 168.566 114.642C170.501 114.963 172.436 115.285 174.371 115.607C174.964 118.302 175.286 121.036 175.338 123.81C173.778 124.165 172.165 124.487 170.501 124.775C169.373 124.775 168.244 124.775 167.115 124.775C166.893 121.354 166.409 117.977 165.664 114.642Z" fill="#1C246E"/>
<path opacity="0.962" fill-rule="evenodd" clip-rule="evenodd" d="M124.55 124.775C125.061 127.796 124.255 130.369 122.131 132.495C119.209 134.4 116.307 134.32 113.425 132.254C111.155 129.998 110.51 127.344 111.49 124.292C112.619 122.845 113.909 121.558 115.36 120.432C119.632 119.427 122.695 120.875 124.55 124.775Z" fill="#E5E5E5"/>
<path fill-rule="evenodd" clip-rule="evenodd" d="M199.524 135.391C197.422 137.323 195.003 138.61 192.269 139.251C191.174 138.904 190.045 138.744 188.883 138.769C184.711 136.067 183.018 132.207 183.804 127.188C184.621 125.66 185.508 124.212 186.465 122.845C191.755 119.681 196.35 120.486 200.25 125.258C201.981 128.829 201.739 132.207 199.524 135.391Z" fill="#DF3D3C"/>
<path fill-rule="evenodd" clip-rule="evenodd" d="M157.441 125.74C152.587 125.514 150.571 127.766 151.394 132.495C152.216 135.513 152.78 138.568 153.087 141.663C148.466 141.936 145.241 140.006 143.413 135.873C143.293 134.666 143.131 133.459 142.93 132.254C143.204 130.71 143.527 129.182 143.897 127.67C146.757 124.018 150.465 122.812 155.022 124.051C156.03 124.387 156.836 124.95 157.441 125.74Z" fill="#DF3D3C"/>
<path fill-rule="evenodd" clip-rule="evenodd" d="M186.462 122.845C185.505 124.212 184.619 125.66 183.802 127.188C183.015 132.207 184.708 136.067 188.88 138.769C188.578 146.01 188.175 153.249 187.671 160.483C187.389 162.448 186.341 163.735 184.527 164.343C181.005 164.09 177.458 164.251 173.886 164.826C172.844 151.468 171.716 138.118 170.5 124.775C172.164 124.487 173.777 124.165 175.337 123.81C179.058 123.604 182.766 123.282 186.462 122.845Z" fill="#A1C3FB"/>
<path opacity="0.955" fill-rule="evenodd" clip-rule="evenodd" d="M124.551 124.774C130.983 125.844 137.433 126.809 143.899 127.67C143.529 129.181 143.206 130.71 142.932 132.254C143.133 133.459 143.295 134.666 143.415 135.873C136.355 134.645 129.261 133.519 122.133 132.495C124.257 130.369 125.063 127.795 124.551 124.774Z" fill="#1C236C"/>
<path fill-rule="evenodd" clip-rule="evenodd" d="M167.115 124.774C168.244 124.774 169.373 124.774 170.501 124.774C171.717 138.117 172.846 151.467 173.887 164.825C171.325 165.199 168.746 165.36 166.148 165.308C165.342 165.308 164.536 165.308 163.73 165.308C162.746 151.945 161.618 138.595 160.344 125.257C162.594 125.017 164.851 124.856 167.115 124.774Z" fill="#A1C3FB"/>
<path fill-rule="evenodd" clip-rule="evenodd" d="M116.575 125.064C117.021 124.809 117.562 124.782 118.06 124.908C119.09 125.168 119.686 125.709 119.846 126.53C120.051 127.577 119.311 128.67 118.274 128.919C117.199 129.177 116.389 128.52 115.844 126.946C115.6 125.927 116.025 125.378 116.575 125.064Z" fill="#DF3D3C"/>
<path opacity="0.993" fill-rule="evenodd" clip-rule="evenodd" d="M160.346 125.257C161.62 138.595 162.749 151.945 163.732 165.308C164.538 165.308 165.344 165.308 166.151 165.308C166.151 165.469 166.151 165.63 166.151 165.79C164.647 165.677 163.196 165.837 161.797 166.273C160.513 166.031 159.465 165.388 158.653 164.343C156.821 156.716 154.967 149.156 153.091 141.663C152.783 138.568 152.219 135.513 151.398 132.495C150.575 127.766 152.59 125.514 157.444 125.74C158.353 125.334 159.32 125.173 160.346 125.257Z" fill="#A1C3FB"/>
<path opacity="0.957" fill-rule="evenodd" clip-rule="evenodd" d="M199.521 135.391C201.911 141.287 204.168 147.238 206.293 153.245C203.377 153.012 200.959 153.977 199.037 156.14C196.771 150.476 194.514 144.846 192.266 139.251C195 138.61 197.418 137.323 199.521 135.391Z" fill="#1D236C"/>
<path opacity="0.942" fill-rule="evenodd" clip-rule="evenodd" d="M206.296 153.244C209.412 153.94 211.186 155.87 211.617 159.034C211.622 160.947 211.138 162.717 210.166 164.342C207.454 166.993 204.39 167.395 200.976 165.549C197.953 162.899 197.308 159.763 199.041 156.139C200.962 153.976 203.38 153.011 206.296 153.244Z" fill="#E5E5E5"/>
<path fill-rule="evenodd" clip-rule="evenodd" d="M203.391 158.07C206.537 157.896 207.343 159.102 205.809 161.689C203.045 161.883 202.239 160.676 203.391 158.07Z" fill="#DF3D3C"/>
<path opacity="0.923" fill-rule="evenodd" clip-rule="evenodd" d="M211.615 159.035C215.143 159.607 218.691 160.09 222.256 160.483C220.77 162.015 220.447 163.784 221.289 165.791C217.572 165.353 213.864 164.871 210.164 164.343C211.137 162.717 211.62 160.948 211.615 159.035Z" fill="#1B236D"/>
<path opacity="0.987" fill-rule="evenodd" clip-rule="evenodd" d="M228.548 162.413C228.548 163.217 228.548 164.021 228.548 164.826C227.538 167.541 225.603 168.426 222.744 167.48C221.812 167.276 221.328 166.713 221.293 165.791C220.45 163.784 220.773 162.015 222.26 160.483C224.877 159.153 226.973 159.797 228.548 162.413Z" fill="#3682EE"/>
<path opacity="0.879" fill-rule="evenodd" clip-rule="evenodd" d="M235.319 162.895C235.396 163.692 235.718 164.336 236.286 164.825C236.368 165.463 236.207 166.026 235.802 166.514C234.328 167.246 232.876 167.488 231.449 167.238C232.333 166.547 233.139 165.742 233.868 164.825C232.61 164.175 231.481 164.337 230.482 165.307C229.965 164.857 229.32 164.696 228.547 164.825C228.547 164.021 228.547 163.217 228.547 162.412C230.078 162.284 231.61 162.123 233.142 161.93C234.103 161.963 234.828 162.284 235.319 162.895Z" fill="#24236B"/>
<path opacity="0.98" fill-rule="evenodd" clip-rule="evenodd" d="M184.529 164.343C187.106 169.525 186.703 174.512 183.32 179.301C181.965 180.579 180.433 181.544 178.725 182.196C176.074 183.057 173.333 183.378 170.502 183.162C170.071 182.867 169.587 182.707 169.051 182.679C169.524 177.088 169.685 171.459 169.534 165.79C168.406 165.79 167.277 165.79 166.148 165.79C166.148 165.629 166.148 165.468 166.148 165.308C168.746 165.36 171.325 165.199 173.888 164.825C177.46 164.25 181.007 164.09 184.529 164.343Z" fill="#E5E5E5"/>
<path fill-rule="evenodd" clip-rule="evenodd" d="M235.32 162.895C239.909 162.525 242.972 164.455 244.511 168.686C243.962 169.512 243.155 169.834 242.092 169.651C241.191 166.823 239.256 165.214 236.288 164.826C235.72 164.336 235.398 163.693 235.32 162.895Z" fill="#DF3D3C"/>
<path opacity="0.988" fill-rule="evenodd" clip-rule="evenodd" d="M260.469 174.476C259.949 175.337 259.143 175.9 258.05 176.165C255.732 176.748 253.475 177.472 251.279 178.336C248.338 179.207 245.436 180.172 242.572 181.232C241.291 180.106 239.921 180.106 238.461 181.232C238.227 181.689 238.147 182.172 238.219 182.679C235.471 183.512 232.731 184.397 229.996 185.333C229.726 185.683 229.564 186.085 229.512 186.539C231.318 192.184 233.172 197.814 235.075 203.428C235.399 203.791 235.802 203.952 236.284 203.911C232.745 205.33 229.118 206.617 225.401 207.771C222.208 198.297 219.064 188.806 215.969 179.301C216.123 178.748 216.445 178.345 216.936 178.095C220.77 176.74 224.64 175.533 228.545 174.476C229.465 174.333 230.272 174.011 230.963 173.511C234.672 172.224 238.38 170.938 242.088 169.651C243.151 169.834 243.958 169.512 244.507 168.686C248.654 167.548 252.765 166.261 256.841 164.825C258.564 167.807 259.774 171.023 260.469 174.476Z" fill="#3482EE"/>
<path opacity="0.979" fill-rule="evenodd" clip-rule="evenodd" d="M166.146 165.79C167.275 165.79 168.403 165.79 169.532 165.79C169.682 171.459 169.521 177.088 169.048 182.679C162.431 179.122 160.012 173.653 161.793 166.273C163.191 165.837 164.642 165.676 166.146 165.79Z" fill="#E5E5E5"/>
<path fill-rule="evenodd" clip-rule="evenodd" d="M231.447 167.239C230.445 169.278 230.283 171.369 230.963 173.512C230.271 174.012 229.465 174.334 228.545 174.477C227.504 171.011 228.148 167.955 230.479 165.308C231.479 164.338 232.608 164.176 233.865 164.826C233.137 165.743 232.33 166.548 231.447 167.239Z" fill="#DF3D3C"/>
<path opacity="0.997" fill-rule="evenodd" clip-rule="evenodd" d="M260.471 174.477C262.567 180.267 264.664 186.058 266.76 191.848C266.76 192.652 266.76 193.456 266.76 194.261C263.374 195.226 259.988 196.191 256.602 197.156C256.656 196.858 256.817 196.617 257.086 196.432C254.81 190.506 252.875 184.474 251.281 178.337C253.477 177.473 255.735 176.749 258.053 176.165C259.146 175.901 259.952 175.337 260.471 174.477Z" fill="#3482EE"/>
<path fill-rule="evenodd" clip-rule="evenodd" d="M242.574 181.232C242.735 182.197 242.897 183.162 243.058 184.127C241.879 184.25 240.75 184.572 239.672 185.092C239.093 184.298 238.61 183.494 238.221 182.679C238.149 182.172 238.229 181.689 238.463 181.232C239.923 180.106 241.293 180.106 242.574 181.232Z" fill="#E0E5EC"/>
<path opacity="0.952" fill-rule="evenodd" clip-rule="evenodd" d="M178.728 182.197C178.707 186.569 179.029 190.912 179.695 195.226C177.022 195.071 174.442 195.232 171.956 195.708C171.795 195.708 171.633 195.708 171.472 195.708C170.744 191.569 170.422 187.386 170.505 183.162C173.336 183.379 176.077 183.058 178.728 182.197Z" fill="#1B236D"/>
<path opacity="0.994" fill-rule="evenodd" clip-rule="evenodd" d="M251.282 178.337C252.876 184.474 254.81 190.506 257.086 196.432C256.817 196.617 256.656 196.858 256.603 197.156C249.968 199.684 243.196 201.936 236.287 203.912C235.806 203.953 235.403 203.792 235.078 203.429C233.175 197.815 231.321 192.185 229.516 186.54C229.568 186.086 229.729 185.684 229.999 185.334C232.734 184.398 235.475 183.513 238.222 182.68C238.611 183.495 239.095 184.299 239.673 185.092C240.751 184.573 241.88 184.251 243.059 184.127C242.898 183.162 242.736 182.197 242.575 181.232C245.439 180.172 248.342 179.207 251.282 178.337Z" fill="#3482EE"/>
<path opacity="0.983" fill-rule="evenodd" clip-rule="evenodd" d="M171.472 195.708C171.633 195.708 171.794 195.708 171.956 195.708C172.762 195.708 173.568 195.708 174.374 195.708C174.374 199.729 174.374 203.75 174.374 207.772C173.246 207.772 172.117 207.772 170.988 207.772C166.223 207.521 161.547 208.003 156.961 209.219C159.348 202.08 164.185 197.576 171.472 195.708Z" fill="#A1C3FB"/>
<path opacity="0.99" fill-rule="evenodd" clip-rule="evenodd" d="M171.952 195.708C174.438 195.231 177.018 195.07 179.691 195.225C190.561 197.603 196.205 204.359 196.62 215.492C195.898 226.345 190.254 233.101 179.691 235.758C178.724 235.758 177.756 235.758 176.789 235.758C176.789 231.255 176.789 226.751 176.789 222.247C182.518 221.113 184.534 217.735 182.835 212.114C181.981 210.679 180.772 209.634 179.207 208.977C176.394 208.587 173.653 208.185 170.984 207.771C172.113 207.771 173.242 207.771 174.37 207.771C174.37 203.75 174.37 199.729 174.37 195.708C173.564 195.708 172.758 195.708 171.952 195.708Z" fill="#A1C3FB"/>
<path opacity="0.95" fill-rule="evenodd" clip-rule="evenodd" d="M170.99 207.771C173.658 208.185 176.399 208.587 179.212 208.978C180.777 209.634 181.986 210.68 182.84 212.114C184.539 217.736 182.523 221.114 176.794 222.248C171.536 221.414 169.359 218.358 170.264 213.079C170.706 212.035 171.271 211.07 171.957 210.184C168.819 209.549 165.755 209.549 162.767 210.184C160.497 210.148 158.401 210.63 156.479 211.632C156.156 211.632 155.995 211.792 155.995 212.114C149.516 213.98 144.034 217.438 139.549 222.489C144.405 224.795 145.614 228.414 143.177 233.346C142.227 234.335 141.178 235.14 140.033 235.759C138.421 235.759 136.808 235.759 135.196 235.759C130.697 233.119 129.649 229.419 132.052 224.66C135.286 222.887 138.107 220.555 140.517 217.663C145.278 213.483 150.759 210.668 156.962 209.219C161.549 208.003 166.225 207.52 170.99 207.771Z" fill="#1D256E"/>
<path opacity="0.992" fill-rule="evenodd" clip-rule="evenodd" d="M162.765 210.185C164.055 210.185 165.345 210.185 166.635 210.185C166.635 217.905 166.635 225.626 166.635 233.346C158.74 228.533 155.193 221.455 155.993 212.115C156.316 212.115 156.477 211.954 156.477 211.632C158.399 210.631 160.496 210.148 162.765 210.185Z" fill="#A1C3FB"/>
<path fill-rule="evenodd" clip-rule="evenodd" d="M174.375 210.666C180.112 210.032 182.289 212.445 180.905 217.905C177.765 221.246 174.863 221.085 172.199 217.422C171.451 214.669 172.176 212.417 174.375 210.666Z" fill="#86AFF1"/>
<path opacity="0.979" fill-rule="evenodd" clip-rule="evenodd" d="M162.766 210.184C165.754 209.548 168.818 209.548 171.956 210.184C171.269 211.07 170.705 212.035 170.263 213.079C169.358 218.357 171.535 221.413 176.793 222.247C176.793 226.751 176.793 231.255 176.793 235.758C175.503 235.758 174.213 235.758 172.923 235.758C170.829 235.06 168.733 234.256 166.635 233.346C166.635 225.625 166.635 217.904 166.635 210.184C165.345 210.184 164.056 210.184 162.766 210.184Z" fill="#A1C3FB"/>
<rect x="160" y="96" width="6" height="6" fill="#1D256F"/>
<rect x="169" y="96" width="6" height="6" fill="#1D256F"/>
</g>
</g>
<defs>
<clipPath id="clip0_3799_101542">
<rect width="93" height="201" fill="white" transform="translate(4 35)"/>
</clipPath>
<clipPath id="clip1_3799_101542">
<rect width="178" height="152" fill="white" transform="translate(89 84)"/>
</clipPath>
</defs>
</svg>
