<svg width="270" height="270" viewBox="0 0 270 270" fill="none" xmlns="http://www.w3.org/2000/svg">
<g opacity="0.9">
<g clip-path="url(#clip0_3799_101419)">
<path opacity="0.99" fill-rule="evenodd" clip-rule="evenodd" d="M158.819 36.7949C159.913 36.7949 161.007 36.7949 162.101 36.7949C168.598 85.8393 175.163 134.821 181.797 183.739C181.797 184.693 181.797 185.649 181.797 186.604C139.084 192.339 96.4105 198.069 53.7751 203.795C52.6809 203.795 51.5867 203.795 50.4925 203.795C43.9959 154.751 37.4307 105.769 30.7969 56.8513C30.7969 55.8962 30.7969 54.9412 30.7969 53.9861C73.5143 48.2882 116.188 42.5578 158.819 36.7949Z" fill="#A0C2FB"/>
<path fill-rule="evenodd" clip-rule="evenodd" d="M155.121 47.8472C154.825 47.6763 154.62 47.4034 154.506 47.0286C151.528 81.3741 148.451 115.689 145.273 149.971C145.662 150.169 146.073 150.237 146.504 150.176C143.032 150.83 139.476 151.239 135.836 151.404C138.934 116.728 142.08 82.0728 145.273 47.4379C148.543 46.9306 151.825 46.5212 155.121 46.21C155.121 46.7557 155.121 47.3015 155.121 47.8472Z" fill="#2275DC"/>
<path fill-rule="evenodd" clip-rule="evenodd" d="M155.121 47.8469C159.43 81.1364 163.806 114.427 168.252 147.719C160.992 148.431 153.743 149.25 146.504 150.175C146.073 150.236 145.662 150.168 145.273 149.971C148.451 115.688 151.528 81.3738 154.506 47.0283C154.62 47.4032 154.825 47.6761 155.121 47.8469Z" fill="#2275DC"/>
<path fill-rule="evenodd" clip-rule="evenodd" d="M145.278 47.4375C142.085 82.0724 138.939 116.727 135.841 151.403C128.964 152.668 121.989 153.623 114.914 154.268C118.149 119.641 121.158 84.9855 123.941 50.3027C131.036 49.2498 138.149 48.2947 145.278 47.4375Z" fill="#2275DC"/>
<path fill-rule="evenodd" clip-rule="evenodd" d="M123.936 50.3027C121.153 84.9855 118.143 119.641 114.909 154.268C113.049 154.876 111.134 155.148 109.164 155.087C112.33 120.735 115.408 86.353 118.396 51.94C118.934 51.3682 119.549 50.9589 120.243 50.712C121.455 50.4424 122.686 50.306 123.936 50.3027Z" fill="#2275DC"/>
<path fill-rule="evenodd" clip-rule="evenodd" d="M120.246 50.7119C119.552 50.9588 118.937 51.3681 118.399 51.9399C115.411 86.3529 112.333 120.735 109.167 155.087C103.653 156.061 98.0448 156.743 92.3438 157.133C95.4138 123.377 98.4227 89.609 101.371 55.8283C101.436 54.8257 101.709 53.9389 102.192 53.1678C108.21 52.3492 114.228 51.5305 120.246 50.7119Z" fill="#2275DC"/>
<path fill-rule="evenodd" clip-rule="evenodd" d="M102.193 53.168C101.711 53.939 101.437 54.8259 101.372 55.8285C98.4241 89.6092 95.4152 123.378 92.3451 157.134C88.7584 158.026 85.0655 158.572 81.2663 158.771C80.7193 158.771 80.172 158.771 79.625 158.771C82.6339 124.252 85.6433 89.7332 88.6522 55.2145C93.0882 54.3867 97.6018 53.7046 102.193 53.168Z" fill="#2275DC"/>
<path fill-rule="evenodd" clip-rule="evenodd" d="M88.6471 55.2148C85.6382 89.7335 82.6288 124.253 79.6199 158.771C80.1669 158.771 80.7142 158.771 81.2612 158.771C76.0185 159.712 70.6843 160.395 65.2585 160.818C64.6521 160.925 64.105 160.789 63.6172 160.408C66.8047 126.183 69.8821 91.9372 72.8495 57.6707C73.1437 57.448 73.3489 57.1751 73.465 56.8521C78.5256 56.2722 83.5861 55.7264 88.6471 55.2148Z" fill="#2275DC"/>
<path fill-rule="evenodd" clip-rule="evenodd" d="M73.4701 56.8516C73.354 57.1746 73.1488 57.4474 72.8546 57.6702C69.8872 91.9367 66.8098 126.182 63.6223 160.408C64.1101 160.788 64.6572 160.924 65.2636 160.817C61.7799 161.51 58.2237 162.056 54.5951 162.454C54.4583 162.318 54.3215 162.181 54.1848 162.045C52.9643 154.717 52.0069 147.349 51.3125 139.942C53.5924 112.923 55.9176 85.9087 58.288 58.8981C63.3703 58.3503 68.431 57.6681 73.4701 56.8516Z" fill="#2275DC"/>
<path fill-rule="evenodd" clip-rule="evenodd" d="M58.2846 58.8984C55.9142 85.909 53.589 112.924 51.3091 139.943C47.46 113.709 43.9038 87.3768 40.6406 60.945C46.5529 60.4834 52.4343 59.8012 58.2846 58.8984Z" fill="#2275DC"/>
</g>
<g clip-path="url(#clip1_3799_101419)">
<path opacity="0.99" fill-rule="evenodd" clip-rule="evenodd" d="M80.4507 120.82C80.8094 120.82 81.1681 120.82 81.5268 120.82C98.5394 151.375 115.637 181.86 132.82 212.273C132.82 212.512 132.82 212.751 132.82 212.99C106.264 227.939 79.7208 242.883 53.1899 257.82C52.8312 257.82 52.4725 257.82 52.1138 257.82C35.1013 227.265 18.0034 196.781 0.820312 166.367C0.820312 166.128 0.820312 165.889 0.820312 165.65C27.3764 150.701 53.9198 135.758 80.4507 120.82Z" fill="#EDEDED"/>
<path fill-rule="evenodd" clip-rule="evenodd" d="M108.79 181.431C101.496 180.564 94.2026 179.668 86.9096 178.741C85.5943 178.502 84.2793 178.502 82.964 178.741C80.1637 183.923 77.4139 189.123 74.714 194.342C64.7724 191.034 54.7888 187.806 44.7629 184.659C44.2331 184.997 43.8744 185.475 43.6868 186.093C41.2954 195.179 38.9043 204.265 36.5129 213.35C36.3348 214.178 36.275 215.015 36.3336 215.86C27.4691 200.284 18.8006 184.624 10.3281 168.879C33.5818 155.939 56.7774 142.909 79.9151 129.787C89.776 146.877 99.4009 164.091 108.79 181.431Z" fill="#A1C2FB"/>
<path fill-rule="evenodd" clip-rule="evenodd" d="M64.6654 148.435C70.7553 147.778 74.8803 150.288 77.0404 155.967C77.8571 165.041 73.7321 169.285 64.6654 168.698C58.729 166.702 56.1582 162.577 56.9534 156.325C58.155 152.315 60.7258 149.685 64.6654 148.435Z" fill="#FEFEFE"/>
<path fill-rule="evenodd" clip-rule="evenodd" d="M108.787 181.431C110.044 183.225 111.12 185.137 112.015 187.169C102.968 190.784 93.7613 194.131 84.3957 197.211C81.1484 196.31 77.9202 195.353 74.7109 194.342C77.4108 189.123 80.1606 183.923 82.9609 178.741C84.2763 178.502 85.5913 178.502 86.9066 178.741C94.1996 179.667 101.493 180.564 108.787 181.431Z" fill="#161B50"/>
<path fill-rule="evenodd" clip-rule="evenodd" d="M74.7147 194.341C77.9239 195.353 81.1522 196.309 84.3995 197.211C93.765 194.131 102.972 190.783 112.019 187.169C114.132 190.554 116.165 194.021 118.117 197.569C94.9885 210.986 71.6733 224.136 48.1712 237.019C44.1319 230.018 40.1863 222.964 36.3342 215.86C36.2757 215.014 36.3355 214.178 36.5136 213.349C38.905 204.264 41.2961 195.178 43.6875 186.093C43.8751 185.475 44.2338 184.997 44.7636 184.658C54.7895 187.806 64.7731 191.033 74.7147 194.341Z" fill="#23286B"/>
</g>
<g clip-path="url(#clip2_3799_101419)">
<path opacity="0.687" fill-rule="evenodd" clip-rule="evenodd" d="M193.587 10.7637C194.06 10.7637 194.533 10.7637 195.006 10.7637C200.059 16.4371 203.92 22.8875 206.59 30.115C206.936 31.5446 207.33 32.9605 207.772 34.3628C207.615 34.6775 207.457 34.9921 207.299 35.3068C205.504 30.499 203.376 25.7791 200.916 21.1473C198.912 17.8867 196.548 14.8975 193.824 12.1796C193.596 11.7322 193.517 11.2602 193.587 10.7637Z" fill="#2275DC"/>
<path opacity="0.697" fill-rule="evenodd" clip-rule="evenodd" d="M251.272 23.9795C251.745 23.9795 252.217 23.9795 252.69 23.9795C252.794 24.5341 252.636 25.0061 252.217 25.3954C240.968 30.4841 233.876 38.9798 230.94 50.8825C230.486 48.1195 230.88 45.4449 232.122 42.8588C236.571 34.5632 242.954 28.2701 251.272 23.9795Z" fill="#2275DC"/>
<path opacity="0.89" fill-rule="evenodd" clip-rule="evenodd" d="M256.946 26.8115C258.372 27.0752 259.79 27.3899 261.201 27.7555C261.359 27.9915 261.516 28.2275 261.674 28.4635C261.408 29.7504 261.092 31.009 260.728 32.2393C259.142 32.1745 257.566 31.8599 256 31.2954C256.441 29.8391 256.756 28.3445 256.946 26.8115Z" fill="#2275DC"/>
<path opacity="0.922" fill-rule="evenodd" clip-rule="evenodd" d="M213.914 31.5312C216.6 31.7946 219.279 32.1092 221.952 32.4752C221.61 34.9955 221.216 37.5127 220.77 40.0269C218.219 40.2861 215.698 39.9714 213.205 39.083C213.18 36.5526 213.416 34.0354 213.914 31.5312Z" fill="#D52928"/>
<path opacity="0.938" fill-rule="evenodd" clip-rule="evenodd" d="M198.788 89.1134C195.636 88.4842 192.484 88.4842 189.332 89.1134C182.239 89.1134 175.147 89.1134 168.055 89.1134C168.055 78.4149 168.055 67.717 168.055 57.0186C185.707 57.0186 203.359 57.0186 221.011 57.0186C221.011 67.717 221.011 78.4149 221.011 89.1134C213.603 89.1134 206.196 89.1134 198.788 89.1134Z" fill="#2275DC"/>
<path fill-rule="evenodd" clip-rule="evenodd" d="M214.862 61.7378C214.26 63.5696 213.393 65.3004 212.262 66.9297C211.997 67.176 211.681 67.3332 211.316 67.4016C209.435 66.5846 207.78 65.4835 206.352 64.0978C206.936 63.4063 207.409 62.6195 207.77 61.7378C208.261 60.7599 208.97 59.9731 209.898 59.3779C211.462 60.3554 213.117 61.1422 214.862 61.7378Z" fill="#CFD1D5"/>
<path opacity="0.691" fill-rule="evenodd" clip-rule="evenodd" d="M260.725 60.3223C263.247 60.3223 265.769 60.3223 268.29 60.3223C268.29 60.7942 268.29 61.2662 268.29 61.7382C266.896 61.869 265.557 61.7118 264.271 61.2662C262.976 61.6353 261.636 61.8713 260.252 61.9742C257.67 62.7147 255.149 63.5799 252.687 64.5701C252.584 64.0155 252.741 63.5435 253.16 63.1542C255.631 61.9143 258.153 60.9703 260.725 60.3223Z" fill="#2275DC"/>
<path fill-rule="evenodd" clip-rule="evenodd" d="M207.767 61.7383C207.406 62.6199 206.933 63.4067 206.348 64.0982C196.576 64.0982 186.805 64.0982 177.033 64.0982C177.033 70.8631 177.033 77.6285 177.033 84.3935C175.457 84.3935 173.881 84.3935 172.305 84.3935C172.305 76.8417 172.305 69.29 172.305 61.7383C184.125 61.7383 195.946 61.7383 207.767 61.7383Z" fill="#151A50"/>
<path fill-rule="evenodd" clip-rule="evenodd" d="M214.859 61.7383C215.489 61.7383 216.12 61.7383 216.75 61.7383C216.75 69.4472 216.75 77.1565 216.75 84.8654C201.854 85.0221 187.039 84.8645 172.305 84.3935C173.881 84.3935 175.457 84.3935 177.033 84.3935C177.033 77.6285 177.033 70.8631 177.033 64.0982C186.805 64.0982 196.576 64.0982 206.348 64.0982C207.777 65.4839 209.431 66.5851 211.313 67.4021C211.678 67.3336 211.993 67.1765 212.258 66.9301C213.39 65.3008 214.257 63.57 214.859 61.7383Z" fill="#23296C"/>
<path opacity="0.862" fill-rule="evenodd" clip-rule="evenodd" d="M240.395 64.5703C241.958 64.8304 243.534 64.9875 245.123 65.0423C245.142 66.6381 244.984 68.2112 244.65 69.7621C243.052 69.781 241.476 69.6238 239.922 69.2901C240.182 67.7293 240.34 66.1562 240.395 64.5703Z" fill="#A3C3FC"/>
<path opacity="0.92" fill-rule="evenodd" clip-rule="evenodd" d="M135.429 94.7767C134.483 94.7767 133.537 94.7767 132.592 94.7767C132.592 91.158 132.592 87.5398 132.592 83.9211C130.858 83.9211 129.124 83.9211 127.391 83.9211C127.391 87.5398 127.391 91.158 127.391 94.7767C125.972 94.7767 124.554 94.7767 123.135 94.7767C123.135 91.158 123.135 87.5398 123.135 83.9211C121.401 83.9211 119.668 83.9211 117.934 83.9211C117.934 87.5398 117.934 91.158 117.934 94.7767C116.358 94.7767 114.782 94.7767 113.206 94.7767C113.206 91.158 113.206 87.5398 113.206 83.9211C111.63 83.9211 110.054 83.9211 108.478 83.9211C108.478 87.5398 108.478 91.158 108.478 94.7767C107.532 94.7767 106.586 94.7767 105.641 94.7767C105.641 90.5289 105.641 86.281 105.641 82.0332C115.57 82.0332 125.499 82.0332 135.429 82.0332C135.429 86.281 135.429 90.5289 135.429 94.7767Z" fill="#E84946"/>
<path opacity="0.92" fill-rule="evenodd" clip-rule="evenodd" d="M154.81 94.7767C149.452 94.7767 144.093 94.7767 138.734 94.7767C138.734 90.5289 138.734 86.281 138.734 82.0332C144.093 82.0332 149.452 82.0332 154.81 82.0332C154.81 86.281 154.81 90.5289 154.81 94.7767Z" fill="#F9F9F9"/>
<path fill-rule="evenodd" clip-rule="evenodd" d="M113.205 94.7765C111.629 94.7765 110.053 94.7765 108.477 94.7765C108.477 91.1578 108.477 87.5396 108.477 83.9209C110.053 83.9209 111.629 83.9209 113.205 83.9209C113.205 87.5396 113.205 91.1578 113.205 94.7765Z" fill="#D62929"/>
<path fill-rule="evenodd" clip-rule="evenodd" d="M123.131 94.7765C121.397 94.7765 119.663 94.7765 117.93 94.7765C117.93 91.1578 117.93 87.5396 117.93 83.9209C119.663 83.9209 121.397 83.9209 123.131 83.9209C123.131 87.5396 123.131 91.1578 123.131 94.7765Z" fill="#D62A2A"/>
<path fill-rule="evenodd" clip-rule="evenodd" d="M132.592 94.7765C130.858 94.7765 129.124 94.7765 127.391 94.7765C127.391 91.1578 127.391 87.5396 127.391 83.9209C129.124 83.9209 130.858 83.9209 132.592 83.9209C132.592 87.5396 132.592 91.1578 132.592 94.7765Z" fill="#D62929"/>
<path opacity="0.982" fill-rule="evenodd" clip-rule="evenodd" d="M198.785 89.1135C198.785 91.0014 198.785 92.8893 198.785 94.7773C195.632 94.7773 192.48 94.7773 189.328 94.7773C189.328 92.8893 189.328 91.0014 189.328 89.1135C192.48 88.4843 195.632 88.4843 198.785 89.1135Z" fill="#2275DC"/>
<path opacity="0.561" fill-rule="evenodd" clip-rule="evenodd" d="M138.734 94.7773C144.093 94.7773 149.452 94.7773 154.81 94.7773C166.316 94.7773 177.821 94.7773 189.327 94.7773C192.479 94.7773 195.631 94.7773 198.783 94.7773C209.185 94.7773 219.588 94.7773 229.99 94.7773C229.99 102.958 229.99 111.14 229.99 119.32C229.832 119.32 229.674 119.32 229.517 119.32C229.517 111.297 229.517 103.273 229.517 95.2493C199.176 95.406 168.915 95.2489 138.734 94.7773Z" fill="#3352A1"/>
<path fill-rule="evenodd" clip-rule="evenodd" d="M94.7656 94.7773C98.3906 94.7773 102.016 94.7773 105.641 94.7773C106.586 94.7773 107.532 94.7773 108.478 94.7773C110.054 94.7773 111.63 94.7773 113.206 94.7773C114.782 94.7773 116.358 94.7773 117.934 94.7773C119.668 94.7773 121.401 94.7773 123.135 94.7773C124.554 94.7773 125.972 94.7773 127.391 94.7773C129.124 94.7773 130.858 94.7773 132.592 94.7773C133.537 94.7773 134.483 94.7773 135.429 94.7773C136.532 94.7773 137.635 94.7773 138.738 94.7773C168.919 95.2489 199.18 95.406 229.521 95.2493C229.521 103.273 229.521 111.297 229.521 119.32C204.619 119.32 179.717 119.32 154.815 119.32C154.815 115.23 154.815 111.14 154.815 107.049C148.751 106.579 142.605 106.422 136.374 106.577C136.374 110.825 136.374 115.073 136.374 119.32C135.271 119.32 134.168 119.32 133.065 119.32C133.219 114.987 133.061 110.739 132.592 106.577C126.603 106.577 120.613 106.577 114.624 106.577C114.624 110.825 114.624 115.073 114.624 119.32C108.005 119.32 101.385 119.32 94.7656 119.32C94.7656 111.14 94.7656 102.958 94.7656 94.7773Z" fill="#23286B"/>
<path fill-rule="evenodd" clip-rule="evenodd" d="M154.815 107.048C148.826 107.048 142.837 107.048 136.848 107.048C136.848 113.027 136.848 119.005 136.848 124.984C136.383 123.191 136.225 121.303 136.375 119.32C136.375 115.072 136.375 110.824 136.375 106.576C142.605 106.421 148.752 106.579 154.815 107.048Z" fill="#C1C6DB"/>
<path fill-rule="evenodd" clip-rule="evenodd" d="M154.811 107.049C154.811 111.14 154.811 115.23 154.811 119.32C154.811 119.478 154.811 119.635 154.811 119.792C154.811 121.523 154.811 123.253 154.811 124.984C148.822 124.984 142.833 124.984 136.844 124.984C136.844 119.006 136.844 113.027 136.844 107.049C142.833 107.049 148.822 107.049 154.811 107.049Z" fill="#FDFEFE"/>
<path fill-rule="evenodd" clip-rule="evenodd" d="M116.984 109.408C121.469 108.939 126.04 108.782 130.696 108.936C130.851 113.584 130.693 118.147 130.224 122.624C130.224 118.219 130.224 113.813 130.224 109.408C125.81 109.408 121.397 109.408 116.984 109.408Z" fill="#E0EAFD"/>
<path fill-rule="evenodd" clip-rule="evenodd" d="M138.734 108.937C143.305 108.937 147.876 108.937 152.446 108.937C152.446 113.499 152.446 118.061 152.446 122.624C147.876 122.624 143.305 122.624 138.734 122.624C138.734 118.061 138.734 113.499 138.734 108.937Z" fill="#CBDDFD"/>
<path fill-rule="evenodd" clip-rule="evenodd" d="M139.211 109.408C143.466 109.408 147.722 109.408 151.977 109.408C151.977 113.656 151.977 117.904 151.977 122.152C147.722 122.152 143.466 122.152 139.211 122.152C139.211 117.904 139.211 113.656 139.211 109.408Z" fill="#A1C3FC"/>
<path fill-rule="evenodd" clip-rule="evenodd" d="M94.7656 119.792C100.597 119.792 106.429 119.792 112.26 119.792C112.26 156.292 112.26 192.792 112.26 229.292C110.585 229.144 109.009 229.302 107.532 229.764C103.276 229.764 99.0211 229.764 94.7656 229.764C94.7656 193.106 94.7656 156.449 94.7656 119.792Z" fill="#2275DC"/>
<path opacity="0.998" fill-rule="evenodd" clip-rule="evenodd" d="M132.592 106.576C133.061 110.738 133.219 114.986 133.065 119.32C134.168 119.32 135.271 119.32 136.374 119.32C136.225 121.303 136.382 123.191 136.847 124.983C142.836 124.983 148.825 124.983 154.815 124.983C154.815 127.186 154.815 129.389 154.815 131.591C132.083 137.072 119.632 151.468 117.461 174.778C118.116 193.011 126.312 206.62 142.048 215.604C142.048 220.324 142.048 225.044 142.048 229.764C130.543 229.764 119.037 229.764 107.532 229.764C109.009 229.302 110.585 229.144 112.26 229.292C112.26 192.792 112.26 156.292 112.26 119.792C106.429 119.792 100.597 119.792 94.7656 119.792C94.7656 119.635 94.7656 119.477 94.7656 119.32C101.385 119.32 108.005 119.32 114.624 119.32C114.624 121.208 114.624 123.096 114.624 124.983C120.613 124.983 126.603 124.983 132.592 124.983C132.592 118.848 132.592 112.712 132.592 106.576Z" fill="#2275DC"/>
<path opacity="0.997" fill-rule="evenodd" clip-rule="evenodd" d="M154.812 119.792C172.307 119.792 189.802 119.792 207.296 119.792C207.296 123.096 207.296 126.4 207.296 129.704C206.823 129.704 206.351 129.704 205.878 129.704C205.878 133.479 205.878 137.255 205.878 141.031C206.213 141.458 206.686 141.615 207.296 141.503C206.988 165.391 207.303 189.226 208.242 213.009C207.674 214.51 207.359 216.084 207.296 217.728C207.907 221.641 207.907 225.653 207.296 229.764C197.209 229.764 187.122 229.764 177.035 229.764C176.892 225.634 177.05 221.543 177.508 217.492C197.944 208.473 207.637 192.74 206.587 170.294C201.61 145.818 186.637 132.76 161.668 131.12C159.367 131.161 157.082 131.318 154.812 131.592C154.812 129.389 154.812 127.187 154.812 124.984C154.812 123.253 154.812 121.523 154.812 119.792Z" fill="#2275DC"/>
<path fill-rule="evenodd" clip-rule="evenodd" d="M154.812 119.792C154.812 119.635 154.812 119.477 154.812 119.32C179.715 119.32 204.617 119.32 229.519 119.32C229.676 119.32 229.834 119.32 229.992 119.32C229.992 156.135 229.992 192.95 229.992 229.764C222.427 229.764 214.861 229.764 207.296 229.764C207.907 225.653 207.907 221.641 207.296 217.729C207.359 216.084 207.674 214.511 208.242 213.009C207.303 189.227 206.988 165.391 207.296 141.504C206.686 141.615 206.213 141.458 205.878 141.032C209.66 141.032 213.443 141.032 217.226 141.032C217.226 137.256 217.226 133.48 217.226 129.704C213.916 129.704 210.606 129.704 207.296 129.704C207.296 126.4 207.296 123.096 207.296 119.792C189.802 119.792 172.307 119.792 154.812 119.792Z" fill="#2275DC"/>
<path fill-rule="evenodd" clip-rule="evenodd" d="M207.293 129.704C210.603 129.704 213.913 129.704 217.223 129.704C217.223 133.48 217.223 137.256 217.223 141.032C213.44 141.032 209.658 141.032 205.875 141.032C205.875 137.256 205.875 133.48 205.875 129.704C206.348 129.704 206.821 129.704 207.293 129.704Z" fill="#23286B"/>
<path fill-rule="evenodd" clip-rule="evenodd" d="M133 106.811C126.847 106.811 120.695 106.811 114.542 106.811C114.542 112.953 114.542 119.094 114.542 125.236C114.064 123.394 113.902 121.455 114.056 119.418C114.056 115.054 114.056 110.69 114.056 106.326C120.457 106.166 126.771 106.328 133 106.811Z" fill="#C1C6DB"/>
<path fill-rule="evenodd" clip-rule="evenodd" d="M177.51 217.492C170.127 219.754 162.562 220.462 154.814 219.616C150.412 218.702 146.157 217.365 142.048 215.604C126.312 206.62 118.116 193.011 117.461 174.778C119.632 151.468 132.083 137.072 154.814 131.591C157.083 131.318 159.368 131.161 161.67 131.119C186.639 132.759 201.612 145.818 206.589 170.294C207.639 192.739 197.946 208.472 177.51 217.492Z" fill="#A0C1FA"/>
<path fill-rule="evenodd" clip-rule="evenodd" d="M132.997 106.811C132.997 111.013 132.997 115.215 132.997 119.417C132.997 119.579 132.997 119.741 132.997 119.902C132.997 121.68 132.997 123.458 132.997 125.236C126.844 125.236 120.692 125.236 114.539 125.236C114.539 119.094 114.539 112.952 114.539 106.811C120.692 106.811 126.844 106.811 132.997 106.811Z" fill="#FDFEFE"/>
<path fill-rule="evenodd" clip-rule="evenodd" d="M157.652 141.032C179.212 140.496 192.215 150.722 196.66 171.711C197.542 186.233 191.947 197.482 179.874 205.457C163.315 213.576 148.579 211.138 135.665 198.142C124.834 183.441 124.676 168.652 135.192 153.775C141.142 146.756 148.629 142.509 157.652 141.032Z" fill="#E64A48"/>
<path fill-rule="evenodd" clip-rule="evenodd" d="M156.228 146.695C173.202 145.017 184.629 152.096 190.508 167.935C193.132 180.684 189.427 191.147 179.397 199.322C163.945 208.403 150.312 206.279 138.497 192.95C131.454 181.705 131.296 170.378 138.025 158.967C142.728 152.808 148.797 148.717 156.228 146.695Z" fill="#161A4F"/>
<path fill-rule="evenodd" clip-rule="evenodd" d="M156.231 166.047C153.432 166.217 150.911 167.082 148.666 168.642C148.939 169.539 149.254 170.404 149.611 171.238C147.72 171.238 145.829 171.238 143.938 171.238C143.938 167.148 143.938 163.057 143.938 158.967C148.035 158.967 152.133 158.967 156.231 158.967C156.231 161.327 156.231 163.687 156.231 166.047Z" fill="#8588AC"/>
<path fill-rule="evenodd" clip-rule="evenodd" d="M116.484 108.75C121.18 108.75 125.875 108.75 130.571 108.75C130.571 113.437 130.571 118.124 130.571 122.811C125.875 122.811 121.18 122.811 116.484 122.811C116.484 118.124 116.484 113.437 116.484 108.75Z" fill="#CBDDFD"/>
<path fill-rule="evenodd" clip-rule="evenodd" d="M156.229 166.046C157.148 168.485 157.779 171.002 158.121 173.598C155.573 174.131 153.051 174.76 150.555 175.486C150.434 174.023 150.119 172.607 149.61 171.238C149.252 170.404 148.937 169.539 148.664 168.642C150.909 167.081 153.431 166.216 156.229 166.046Z" fill="#F9F9FB"/>
<path fill-rule="evenodd" clip-rule="evenodd" d="M116.969 109.235C121.34 109.235 125.712 109.235 130.084 109.235C130.084 113.599 130.084 117.963 130.084 122.327C125.712 122.327 121.34 122.327 116.969 122.327C116.969 117.963 116.969 113.599 116.969 109.235Z" fill="#A1C3FC"/>
<path fill-rule="evenodd" clip-rule="evenodd" d="M184.603 170.294C185.213 170.557 185.607 171.029 185.785 171.71C186.843 182.739 182.351 190.526 172.309 195.073C171.521 195.388 170.734 195.388 169.945 195.073C181.44 190.748 186.326 182.488 184.603 170.294Z" fill="#8CAAE2"/>
<path opacity="0.985" fill-rule="evenodd" clip-rule="evenodd" d="M142.047 215.604C146.156 217.365 150.411 218.702 154.813 219.616C162.561 220.463 170.126 219.755 177.509 217.492C177.05 221.543 176.893 225.634 177.036 229.764C165.373 229.764 153.71 229.764 142.047 229.764C142.047 225.044 142.047 220.324 142.047 215.604Z" fill="#2275DC"/>
</g>
</g>
<defs>
<clipPath id="clip0_3799_101419">
<rect width="151" height="167" fill="white" transform="translate(31 37)"/>
</clipPath>
<clipPath id="clip1_3799_101419">
<rect width="132" height="137" fill="white" transform="translate(1 121)"/>
</clipPath>
<clipPath id="clip2_3799_101419">
<rect width="174" height="219" fill="white" transform="translate(95 11)"/>
</clipPath>
</defs>
</svg>
