<svg width="270" height="270" viewBox="0 0 270 270" fill="none" xmlns="http://www.w3.org/2000/svg">
<g opacity="0.9">
<path opacity="0.972" fill-rule="evenodd" clip-rule="evenodd" d="M137.567 35.5845C138.127 33.6467 138.249 31.6902 137.934 29.7149C136.791 31.3786 135.201 32.2346 133.165 32.2828C129.19 32.2541 125.276 32.3764 121.426 32.6497C120.26 31.8271 119.037 31.9494 117.757 33.0165C115.613 34.7893 113.9 36.8681 112.621 39.2529C112.276 40.2807 111.786 41.259 111.154 42.1877C108.865 40.5544 106.42 39.3316 103.817 38.5192C98.8337 33.9403 94.9209 28.5598 92.0778 22.3779C91.999 21.5 92.499 21 95.7463 19.0763C99.999 18 102.043 17.7613 105.284 17.6089C108.999 12 109.499 12.274 113.355 11.0057C125.529 7.00132 134.455 10.7921 140.135 22.3779C142.023 27.4137 141.166 31.8158 137.567 35.5845Z" fill="#E94A47"/>
<path opacity="0.981" fill-rule="evenodd" clip-rule="evenodd" d="M137.566 35.5844C137.321 36.5626 137.076 37.541 136.832 38.5192C134.965 38.8095 133.376 38.3204 132.063 37.0518C132.227 39.7643 133.572 40.498 136.098 39.2529C136.043 41.2384 135.799 43.1949 135.365 45.1225C130.498 43 130.498 43 122.892 47.3235C121.498 47.5 120.498 47.5 119.223 46.9567C117.473 46.0812 115.76 45.2252 114.087 44.3888C113.839 38.7717 116.285 34.8587 121.424 32.6496C125.275 32.3763 129.188 32.254 133.164 32.2828C135.2 32.2346 136.789 31.3786 137.933 29.7148C138.248 31.6901 138.126 33.6466 137.566 35.5844Z" fill="#FEBCB4"/>
<path opacity="0.994" fill-rule="evenodd" clip-rule="evenodd" d="M103.086 39.2526C102.584 43.9033 104.296 47.3271 108.221 49.5243C99.8904 58.8401 93.4089 69.3564 88.7785 81.0732C87.9289 87.4476 89.5052 92.5913 95.0014 96C95.5014 96.5 95.5014 96.5 96.1155 97.2145C98.7517 99.329 101.32 101.53 103.819 103.818C103.553 104.319 103.309 104.808 103.086 105.285C99.4942 109.279 96.07 113.437 92.8139 117.758C92.0014 120.5 91.5014 120.5 90.6128 121.426C88.0014 124 88.0014 124 85.4769 127.296C83.0014 129.5 81.5014 131.5 79.6073 133.532C75.2697 133.38 71.7237 131.546 68.9688 128.03C67.161 125.143 65.5713 122.209 64.1997 119.225C62.5094 111.197 58.7187 104.349 52.8274 98.6819C49.8572 92.2269 49.4903 85.6236 51.7269 78.8721C56.7402 70.674 62.8543 63.337 70.0693 56.8613C67.8682 56.6167 65.6671 56.3721 63.466 56.1276C51.2425 56.7795 39.0142 57.2687 26.7812 57.595C27.2316 51.2967 30.6555 47.0168 37.053 44.7553C42.3894 43.538 47.7698 42.5597 53.1943 41.8205C69.5189 34.6623 86.1497 33.8063 103.086 39.2526Z" fill="#25296B"/>
<path fill-rule="evenodd" clip-rule="evenodd" d="M121.429 32.6494C116.29 34.8584 113.844 38.7715 114.092 44.3885C113.603 42.6766 113.114 40.9646 112.625 39.2526C113.904 36.8678 115.616 34.789 117.761 33.0162C119.04 31.9491 120.264 31.8268 121.429 32.6494Z" fill="#F37F79"/>
<path opacity="0.973" fill-rule="evenodd" clip-rule="evenodd" d="M103.819 38.5186C106.422 39.3309 108.867 40.5537 111.156 42.187C111.788 41.2583 112.278 40.28 112.623 39.2523C113.113 40.9642 113.601 42.6762 114.091 44.3881C112.153 46.0788 110.196 47.7908 108.221 49.524C104.296 47.3268 102.584 43.9029 103.085 39.2523C103.574 39.2523 103.819 39.0077 103.819 38.5186Z" fill="#FCBAB2"/>
<path fill-rule="evenodd" clip-rule="evenodd" d="M136.832 38.5191C136.832 39.0083 136.587 39.2528 136.098 39.2528C133.572 40.4979 132.227 39.7642 132.062 37.0518C133.375 38.3203 134.965 38.8095 136.832 38.5191Z" fill="#6E5D83"/>
<path opacity="0.997" fill-rule="evenodd" clip-rule="evenodd" d="M51.7269 78.8725C45.0013 75.0881 38.8872 70.4416 33.3845 64.9323C30.6611 62.9433 28.46 60.4977 26.7812 57.5953C39.0142 57.269 51.2425 56.7799 63.466 56.1279C65.6671 56.3725 67.8682 56.6171 70.0693 56.8616C62.8544 63.3374 56.7402 70.6743 51.7269 78.8725Z" fill="#1D2260"/>
<path opacity="0.987" fill-rule="evenodd" clip-rule="evenodd" d="M33.3829 64.9316C38.8855 70.441 44.9996 75.0875 51.7253 78.8719C49.4887 85.6233 49.8555 92.2266 52.8258 98.6816C58.717 104.349 62.5078 111.196 64.1981 119.225C66.1223 136.284 67.1005 153.404 67.1329 170.584C67.0733 193.583 66.5842 216.573 65.6655 239.551C60.0405 239.551 54.4155 239.551 48.7905 239.551C42.3284 234.219 38.2931 227.372 36.6845 219.008C35.3351 207.304 34.3569 195.565 33.7497 183.79C33.1104 179.86 32.3767 175.946 31.5486 172.051C31.2457 162.259 31.2457 152.476 31.5486 142.703C29.5693 130.872 27.1237 119.133 24.2117 107.486C21.6061 92.0175 24.6631 77.8329 33.3829 64.9316Z" fill="#3482EE"/>
<path opacity="0.995" fill-rule="evenodd" clip-rule="evenodd" d="M133.901 75.2034C125.342 85.3541 116.904 95.6258 108.588 106.019C107.99 106.989 107.133 107.478 106.02 107.486C105.042 106.752 104.064 106.019 103.086 105.285C103.309 104.808 103.553 104.319 103.819 103.818C101.32 101.53 98.7517 99.3288 96.1156 97.2142C95.7751 96.7784 95.2396 96.3656 95.7487 95.7469C104.276 85.3819 112.958 75.1102 121.795 64.9316C125.755 68.5316 129.791 71.9555 133.901 75.2034Z" fill="#349BF0"/>
<path opacity="0.997" fill-rule="evenodd" clip-rule="evenodd" d="M133.896 75.2041C137.045 77.3736 139.98 79.819 142.7 82.5411C142.7 84.2528 142.7 85.9652 142.7 87.6769C142.816 88.6843 142.693 89.663 142.334 90.6117C134.963 99.3236 127.748 108.128 120.69 117.025C115.024 115.025 110.132 111.846 106.016 107.487C107.129 107.479 107.985 106.99 108.584 106.019C116.899 95.6265 125.337 85.3548 133.896 75.2041Z" fill="#349BF0"/>
<path opacity="0.978" fill-rule="evenodd" clip-rule="evenodd" d="M163.98 108.22C161.798 107.372 159.841 106.149 158.111 104.551C153.266 100.568 148.497 96.4109 143.804 92.0784C142.894 91.239 142.703 90.4995 142.703 87.6763C142.703 85.9646 142.703 84.2521 142.703 82.5404C150.696 81.2909 158.522 81.9021 166.181 84.3746C173.107 90.6309 179.71 97.2341 185.991 104.184C178.529 104.817 171.192 106.162 163.98 108.22Z" fill="#C4C4C4"/>
<path fill-rule="evenodd" clip-rule="evenodd" d="M142.706 87.6768C142.706 90.0912 142.706 91.3797 143.807 92.0789C148.5 96.4114 153.269 100.569 158.114 104.552C153.746 110.269 149.221 115.894 144.54 121.427C143.546 122.072 142.445 122.317 141.239 122.16C136.743 121.926 132.707 120.458 129.133 117.758C128.643 117.269 128.643 116.78 129.133 116.291C131.09 115.313 132.557 113.845 133.535 111.889C134.12 110.598 133.998 109.375 133.168 108.22C130.856 110.165 128.655 112.244 126.565 114.457C124.864 115.919 122.908 116.774 120.695 117.025C127.754 108.128 134.969 99.3234 142.339 90.6115C142.699 89.6629 142.502 90 142.706 87.6768Z" fill="#349BF0"/>
<path fill-rule="evenodd" clip-rule="evenodd" d="M103.084 105.285C104.062 106.019 105.041 106.753 106.019 107.486C110.136 111.846 115.027 115.025 120.693 117.024C122.906 116.774 124.862 115.919 126.562 114.456C128.653 112.244 130.854 110.164 133.166 108.22C133.996 109.375 134.118 110.598 133.533 111.888C132.555 113.845 131.087 115.313 129.13 116.291C128.641 116.78 128.641 117.269 129.13 117.758C132.705 120.458 136.74 121.925 141.236 122.16C142.839 122.722 144.551 123.212 146.372 123.628C147.19 124.525 147.312 125.503 146.739 126.562C143.405 130.77 139.126 133.215 133.899 133.899C132.119 133.882 130.407 133.516 128.764 132.799C122.278 128.944 115.675 125.275 108.954 121.793C103.8 119.527 98.4194 118.181 92.8125 117.758C96.0686 113.437 99.4928 109.279 103.084 105.285Z" fill="#FCBDB7"/>
<path opacity="0.992" fill-rule="evenodd" clip-rule="evenodd" d="M158.108 104.552C159.838 106.15 161.795 107.373 163.978 108.22C167.381 111.498 170.927 114.677 174.616 117.758C174.706 119.066 174.339 120.288 173.516 121.427C171.866 121.852 170.643 122.83 169.847 124.362C161.975 133.497 154.271 142.791 146.736 152.242C146.454 153.487 146.576 154.709 147.103 155.91C144.426 157.849 141.736 159.806 139.032 161.78C133.599 157.12 128.219 152.474 122.891 147.84C126.262 142.996 129.93 138.349 133.896 133.9C139.122 133.216 143.402 130.77 146.736 126.563C147.309 125.503 147.186 124.525 146.369 123.628C144.548 123.212 142.835 122.722 141.233 122.16C142.439 122.317 143.54 122.072 144.535 121.427C149.216 115.894 153.74 110.269 158.108 104.552Z" fill="#349BF0"/>
<path opacity="0.937" fill-rule="evenodd" clip-rule="evenodd" d="M173.52 121.427C181.331 121.947 189.157 122.314 196.998 122.527C193.48 126.763 190.056 131.043 186.727 135.367C181.974 132.614 177.572 129.313 173.52 125.462C172.401 124.722 171.178 124.355 169.852 124.362C170.648 122.83 171.87 121.852 173.52 121.427Z" fill="#E5E5E5"/>
<path opacity="0.994" fill-rule="evenodd" clip-rule="evenodd" d="M64.1953 119.226C65.5669 122.209 67.1566 125.144 68.9643 128.03C71.7193 131.546 75.2653 133.38 79.6029 133.533C81.9969 130.5 82.4969 130 85.4725 127.296C87.6684 132.166 89.8695 137.057 92.0757 141.97C90.9627 141.978 90.1065 142.467 89.5078 143.438C82.9244 153.799 75.9543 163.825 68.5975 173.519C68.4804 172.306 67.9912 171.328 67.1301 170.584C67.0977 153.405 66.1195 136.285 64.1953 119.226Z" fill="#349BF0"/>
<path opacity="0.989" fill-rule="evenodd" clip-rule="evenodd" d="M169.853 124.361C171.179 124.355 172.402 124.722 173.521 125.462C177.573 129.312 181.975 132.614 186.728 135.367C191.213 139.691 195.859 143.848 200.668 147.84C191.618 149.246 182.814 151.569 174.255 154.81C166.855 159.059 159.64 163.583 152.611 168.383C150.766 164.206 148.931 160.049 147.108 155.91C146.581 154.709 146.459 153.487 146.741 152.242C154.276 142.79 161.98 133.497 169.853 124.361Z" fill="#C5C5C5"/>
<path opacity="0.991" fill-rule="evenodd" clip-rule="evenodd" d="M92.8105 117.758C98.4174 118.181 103.798 119.527 108.952 121.793C115.673 125.275 122.276 128.944 128.762 132.799C130.405 133.515 132.117 133.882 133.897 133.899C129.932 138.349 126.263 142.995 122.892 147.839C111.918 139.312 101.157 130.508 90.6094 121.426C91.498 120 91.998 119.5 92.8105 117.758Z" fill="#349BF0"/>
<path opacity="0.99" fill-rule="evenodd" clip-rule="evenodd" d="M92.0798 141.97C94.4291 149.018 96.6302 156.11 98.6831 163.247C91.7284 172.254 85.1251 181.548 78.8733 191.127C76.9158 189.78 75.3266 188.069 74.1043 185.991C72.1937 181.843 70.3595 177.685 68.6016 173.519C75.9583 163.825 82.9284 153.798 89.5119 143.437C90.1106 142.466 90.9668 141.978 92.0798 141.97Z" fill="#349BF0"/>
<path opacity="0.979" fill-rule="evenodd" clip-rule="evenodd" d="M216.07 199.198C211.424 199.198 206.777 199.198 202.13 199.198C202.892 194.578 203.015 189.932 202.497 185.258C201.276 179.643 200.176 174.018 199.195 168.383C210.303 168.698 221.064 166.987 231.478 163.247C231.722 163.614 231.967 163.981 232.212 164.348C233.545 172.599 232.445 180.547 228.91 188.193C227.95 189.764 226.85 191.231 225.608 192.595C222.252 194.632 219.073 196.833 216.07 199.198Z" fill="#C5C5C5"/>
<path opacity="0.976" fill-rule="evenodd" clip-rule="evenodd" d="M98.6848 163.247C107.124 188.566 115.439 214 123.63 239.551C118.005 239.551 112.381 239.551 106.755 239.551C99.9049 233.918 94.6465 227.071 90.981 219.008C89.7777 211.014 87.3323 203.432 83.644 196.263C81.9037 194.647 81.0027 194.5 78.875 191.128C85.1268 181.548 91.7301 172.255 98.6848 163.247Z" fill="#349BF0"/>
<path opacity="0.989" fill-rule="evenodd" clip-rule="evenodd" d="M202.134 199.198C206.781 199.198 211.428 199.198 216.074 199.198C219.743 199.198 223.411 199.198 227.08 199.198C226.662 207.161 223.05 253.31 222.001 261C217.501 261 215.001 261 210.501 261C206.001 261 203.92 260.999 199.501 261C197.501 261 195.001 261 195.001 261C190.001 261 189.001 261 186.001 261C175.501 261 176.001 261 175.001 261C172.501 229.5 172.501 229.5 172.501 229.5L172.018 224.672C172.007 224.557 171.994 224.443 171.98 224.329C171.94 224.011 171.826 223.102 171.501 220.5C170.631 213.536 171.959 224 169.852 199.198C180.613 199.198 191.373 199.198 202.134 199.198Z" fill="#E5E5E5"/>
<path opacity="0.989" fill-rule="evenodd" clip-rule="evenodd" d="M198.462 199.2C199.679 199.2 200.897 199.2 202.115 199.2C203.077 199.2 204.038 199.2 205 199.2C204.89 207.163 203.944 253.311 203.669 261C202.489 261 201.834 261 200.655 261C199.475 261 198.93 260.999 197.771 261C197.247 261 196.592 261 196.592 261C195.281 261 195.019 261 194.233 261C191.481 261 191.612 261 191.35 261C190.694 229.501 190.694 229.501 190.694 229.501L190.563 225.116L190.432 220.501C190.204 213.538 190.552 224.001 190 199.2C192.821 199.2 195.641 199.2 198.462 199.2Z" fill="#C4C4C4"/>
<path opacity="0.989" fill-rule="evenodd" clip-rule="evenodd" d="M202.134 199.198C206.781 199.198 211.428 199.198 216.074 199.198C219.743 199.198 176.833 199.198 180.501 199.198C180.083 207.161 182.501 241 184.001 261C179.501 261 215.001 261 210.501 261C206.001 261 203.92 260.999 199.501 261C197.501 261 195.001 261 195.001 261C190.001 261 189.001 261 186.001 261C175.501 261 176.001 261 175.001 261C172.501 229.5 172.501 229.5 172.501 229.5L172.018 224.672C172.007 224.557 171.994 224.443 171.98 224.329C171.94 224.011 171.826 223.102 171.501 220.5C170.631 213.536 171.959 224 169.852 199.198C180.613 199.198 191.373 199.198 202.134 199.198Z" fill="#C4C4C4"/>
<path opacity="0.989" fill-rule="evenodd" clip-rule="evenodd" d="M195.163 199.198C190.516 199.198 185.869 199.198 181.222 199.198C177.554 199.198 220.464 199.198 216.796 199.198C217.214 207.161 214.796 241 213.296 261C217.796 261 182.296 261 186.796 261C191.296 261 193.377 260.999 197.796 261C199.796 261 202.296 261 202.296 261C207.296 261 208.296 261 211.296 261C221.796 261 221.296 261 222.296 261C224.796 229.5 224.796 229.5 224.796 229.5L225.279 224.672C225.29 224.557 225.303 224.443 225.317 224.329C225.357 224.011 225.471 223.102 225.796 220.5C226.666 213.536 225.338 224 227.445 199.198C216.684 199.198 205.924 199.198 195.163 199.198Z" fill="#C4C4C4"/>
<path opacity="0.984" fill-rule="evenodd" clip-rule="evenodd" d="M48.7901 239.552C54.4151 239.552 60.0401 239.552 65.6651 239.552C73.4562 246.144 82.0162 251.647 91.3444 256.06C92.8434 257.313 94.0664 258.78 95.0129 260.462C77.1614 260.829 59.3081 260.951 41.4531 260.829C43.6075 253.632 46.0533 246.539 48.7901 239.552Z" fill="#A1C3FC"/>
<path opacity="0.982" fill-rule="evenodd" clip-rule="evenodd" d="M106.751 239.552C112.376 239.552 118.001 239.552 123.626 239.552C131.243 245.805 139.557 251.063 148.572 255.326C150.174 256.805 151.641 258.395 152.974 260.095C135.121 261.073 117.267 261.073 99.4141 260.095C102.01 253.286 104.455 246.438 106.751 239.552Z" fill="#A1C3FC"/>
</g>
</svg>
