<svg width="24" height="24" viewBox="0 0 24 24" fill="none" xmlns="http://www.w3.org/2000/svg">
<rect x="2" y="1" width="20" height="22" rx="3" fill="#F76707"/>
<path d="M19 12C19 10.8953 18.7386 9.80634 18.237 8.82207C17.7355 7.8378 17.0082 6.98619 16.1145 6.33688L12 12H19Z" fill="white"/>
<path fill-rule="evenodd" clip-rule="evenodd" d="M12 17.8C15.2033 17.8 17.8 15.2033 17.8 12C17.8 8.79675 15.2033 6.2 12 6.2C8.79675 6.2 6.2 8.79675 6.2 12C6.2 15.2033 8.79675 17.8 12 17.8ZM12 19C15.866 19 19 15.866 19 12C19 8.13401 15.866 5 12 5C8.13401 5 5 8.13401 5 12C5 15.866 8.13401 19 12 19Z" fill="white"/>
</svg>
