<svg width="24" height="24" viewBox="0 0 24 24" fill="none" xmlns="http://www.w3.org/2000/svg">
<path d="M2 4C2 2.34315 3.34315 1 5 1H14.7574C15.553 1 16.3161 1.31607 16.8787 1.87868L19 4L21.1213 6.12132C21.6839 6.68393 22 7.44699 22 8.24264V20C22 21.6569 20.6569 23 19 23H5C3.34315 23 2 21.6569 2 20V4Z" fill="#BACCDF"/>
<path d="M14.8999 1.00342V6.50003C14.8999 7.38368 15.6162 8.10003 16.4999 8.10003L21.9965 8.10003C21.9765 7.67959 21.8684 7.27119 21.6827 6.90003L16.4999 6.90003C16.279 6.90003 16.0999 6.72094 16.0999 6.50003L16.0999 1.31724C15.7287 1.1315 15.3203 1.02342 14.8999 1.00342Z" fill="white"/>
</svg>
